<svg width="140" height="24" viewBox="0 0 140 24" fill="none" xmlns="http://www.w3.org/2000/svg"><g clip-path="url(#a)"><path d="m62.597 7.118 2.92-2.173h-9.772v13.02h9.772v-2.174h-6.98v-3.325h5.964v-2.173h-5.964V7.118h4.06Zm-14.232 2.9H44.98v-2.9h5.415l2.919-2.173H42.19v13.02h5.816c3.257 0 5.138-1.491 5.138-4.09 0-2.495-1.691-3.858-4.78-3.858ZM47.9 15.79h-2.918v-3.6H47.9c1.776 0 2.601.598 2.601 1.812 0 1.215-.889 1.79-2.601 1.79ZM73.425 4.945h-5.308v13.02h2.792v-3.687h2.537c3.385 0 5.499-1.79 5.499-4.666 0-2.877-2.117-4.667-5.52-4.667Zm-.063 7.16h-2.474V7.118h2.474c1.797 0 2.77.896 2.77 2.494 0 1.597-.973 2.493-2.77 2.493Zm-35.951 3.047a5.011 5.011 0 0 1-2.412.619c-2.517 0-4.336-1.812-4.336-4.305 0-2.494 1.82-4.305 4.336-4.305a4.192 4.192 0 0 1 2.538.81l2.009-1.492-.126-.128c-1.164-1.044-2.728-1.576-4.505-1.576-1.925 0-3.68.66-4.949 1.854a6.441 6.441 0 0 0-1.945 4.752 6.754 6.754 0 0 0 1.945 4.837 6.976 6.976 0 0 0 4.927 1.916c2.01 0 3.765-.702 4.95-1.98l-1.798-1.343-.634.341Zm75.095-10.186v13.022h2.792v-5.329h5.944v5.329h2.792V4.966h-2.792v5.349H115.3V4.966h-2.794Zm-4.799 13.022h2.939L105.19 4.966h-2.834l-5.562 13.022h2.813l1.12-2.624h5.923l1.057 2.624Zm-6.134-4.796 2.158-5.222 2.03 5.222h-4.188Zm28.72-.469h1.733l4.272 5.242h3.595l-5.708-6.734 4.989-6.286h-3.192l-4.146 5.583h-1.541V4.945h-2.792v13.02h2.79v-5.243.001Zm-42.72-2.685V7.14h7.296V4.965H84.782v13.021h5.815c3.258 0 5.14-1.49 5.14-4.091 0-2.493-1.693-3.857-4.78-3.857h-3.384Zm0 5.775V12.21h2.92c1.775 0 2.6.598 2.6 1.812 0 1.215-.868 1.812-2.6 1.812h-2.919l-.001-.022ZM19.287 4.859c.507.66.93 1.386 1.29 2.153l-9.772 7.266-4.102-2.6V8.567l4.082 2.578 8.502-6.286Z" fill="#21A038"/><path d="M2.536 11.466c0-.15 0-.277.022-.427l-2.474-.128c0 .17-.021.363-.021.533a10.833 10.833 0 0 0 3.15 7.65l1.755-1.767a8.222 8.222 0 0 1-2.432-5.861Z" fill="url(#b)"/><path d="M10.786 3.154c.148 0 .274 0 .422.022l.128-2.494c-.17 0-.36-.02-.53-.02a10.67 10.67 0 0 0-7.591 3.175L4.97 5.605a8.135 8.135 0 0 1 5.817-2.45h-.001Z" fill="url(#c)"/><path d="M10.785 19.773c-.148 0-.275 0-.423-.021l-.128 2.495c.169 0 .36.02.528.02a10.672 10.672 0 0 0 7.592-3.175L16.6 17.325a8.013 8.013 0 0 1-5.817 2.45l.002-.002Z" fill="url(#d)"/><path d="m15.438 4.603 2.093-1.555a10.692 10.692 0 0 0-6.746-2.41V3.13a8.272 8.272 0 0 1 4.653 1.472Z" fill="url(#e)"/><path d="M21.527 11.464c0-.66-.064-1.3-.17-1.94l-2.303 1.727v.213a8.284 8.284 0 0 1-2.73 6.158l1.672 1.855a10.83 10.83 0 0 0 3.531-8.013Z" fill="#21A038"/><path d="M10.784 19.773a8.168 8.168 0 0 1-6.112-2.748l-1.84 1.682a10.635 10.635 0 0 0 7.952 3.559v-2.493Z" fill="url(#f)"/><path d="M5.264 5.306 3.594 3.45a10.79 10.79 0 0 0-3.531 8.014h2.473a8.318 8.318 0 0 1 2.728-6.158Z" fill="url(#g)"/></g><defs><linearGradient id="b" x1="2.95" y1="18.791" x2=".423" y2="11.432" gradientUnits="userSpaceOnUse"><stop offset=".144" stop-color="#F2E913"/><stop offset=".304" stop-color="#E7E518"/><stop offset=".582" stop-color="#CADB26"/><stop offset=".891" stop-color="#A3CD39"/></linearGradient><linearGradient id="c" x1="3.92" y1="3.555" x2="10.335" y2="1.092" gradientUnits="userSpaceOnUse"><stop offset=".059" stop-color="#0FA8E0"/><stop offset=".538" stop-color="#0099F9"/><stop offset=".923" stop-color="#0291EB"/></linearGradient><linearGradient id="d" x1="10.09" y1="20.146" x2="17.736" y2="18.405" gradientUnits="userSpaceOnUse"><stop offset=".123" stop-color="#A3CD39"/><stop offset=".285" stop-color="#86C339"/><stop offset=".869" stop-color="#21A038"/></linearGradient><linearGradient id="e" x1="10.277" y1="2.227" x2="16.634" y2="4.205" gradientUnits="userSpaceOnUse"><stop offset=".057" stop-color="#0291EB"/><stop offset=".79" stop-color="#0C8ACB"/></linearGradient><linearGradient id="f" x1="3.461" y1="19.103" x2="10.29" y2="21.673" gradientUnits="userSpaceOnUse"><stop offset=".132" stop-color="#F2E913"/><stop offset=".298" stop-color="#EBE716"/><stop offset=".531" stop-color="#D9E01F"/><stop offset=".802" stop-color="#BBD62D"/><stop offset=".983" stop-color="#A3CD39"/></linearGradient><linearGradient id="g" x1="1.959" y1="11.765" x2="4.689" y2="4.606" gradientUnits="userSpaceOnUse"><stop offset=".07" stop-color="#A3CD39"/><stop offset=".26" stop-color="#81C55F"/><stop offset=".922" stop-color="#0FA8E0"/></linearGradient><clipPath id="a"><path fill="#fff" d="M0 .447h140v23.107H0z"/></clipPath></defs></svg>