<svg width="117" height="32" viewBox="0 0 117 32" fill="none" xmlns="http://www.w3.org/2000/svg">
<g clip-path="url(#clip0_34_3288)">
<g clip-path="url(#clip1_34_3288)">
<mask id="mask0_34_3288" style="mask-type:luminance" maskUnits="userSpaceOnUse" x="1" y="0" width="116" height="32">
<path d="M1 0H116.128V32H1V0Z" fill="white"/>
</mask>
<g mask="url(#mask0_34_3288)">
<path d="M21.575 14.4396V11.3916L22.679 10.2876V12.9356L23.639 13.8956L27.503 10.0316L28.455 10.9916C28.4399 9.28288 27.7497 7.64943 26.535 6.44762C25.9532 5.79184 25.1362 5.39207 24.2615 5.33515C23.3867 5.27823 22.5248 5.56876 21.863 6.14362L18.007 9.99962L18.991 10.9836L16.999 12.9756L15.007 10.9836L15.991 9.99962L12.135 6.14362C11.4732 5.56876 10.6112 5.27823 9.73647 5.33515C8.8617 5.39207 8.04471 5.79184 7.46297 6.44762C6.24819 7.64943 5.55799 9.28288 5.54297 10.9916L6.49497 10.0316L10.359 13.8956L11.319 12.9356V10.2876L12.423 11.3916V14.4396L13.975 15.9996L6.33497 23.6476L9.35097 26.6636L16.999 19.0236L24.647 26.6636L27.663 23.6476L20.023 15.9996L21.575 14.4396ZM38.335 17.3356H44.095V19.1516H40.487V21.0156H41.687C42.1611 20.9778 42.6379 21.0347 43.0898 21.1831C43.5417 21.3314 43.9595 21.5682 44.319 21.8796C44.5772 22.1325 44.7812 22.4352 44.9187 22.7694C45.0563 23.1036 45.1244 23.4623 45.119 23.8236C45.1265 24.1936 45.0596 24.5613 44.9221 24.9049C44.7847 25.2485 44.5796 25.5609 44.319 25.8236C43.9277 26.1371 43.4778 26.3693 42.9956 26.5067C42.5134 26.644 42.0087 26.6838 41.511 26.6236H38.311L38.335 17.3356ZM41.343 24.9276C41.75 24.9526 42.155 24.8526 42.503 24.6396C42.6215 24.5305 42.715 24.3971 42.7773 24.2486C42.8395 24.1 42.869 23.9398 42.8637 23.7788C42.8583 23.6178 42.8184 23.4599 42.7465 23.3157C42.6745 23.1716 42.5724 23.0447 42.447 22.9436C42.1094 22.7593 41.7269 22.6734 41.343 22.6956H40.487V24.9276H41.343ZM50.887 20.4236H52.903V26.6636H50.887V25.9116C50.6903 26.2203 50.4162 26.472 50.092 26.6419C49.7677 26.8117 49.4047 26.8937 49.039 26.8796C48.6034 26.9041 48.1678 26.8313 47.7638 26.6667C47.3597 26.502 46.9974 26.2496 46.703 25.9276C46.1052 25.2987 45.7803 24.4591 45.799 23.5916C45.7748 22.6565 46.123 21.7501 46.767 21.0716C47.0521 20.7904 47.3911 20.5696 47.7636 20.4225C48.1362 20.2754 48.5346 20.205 48.935 20.2156C49.3108 20.1998 49.6849 20.2744 50.026 20.4331C50.367 20.5918 50.665 20.83 50.895 21.1276L50.887 20.4236ZM48.327 22.3996C48.1757 22.5469 48.0564 22.7238 47.9766 22.9193C47.8968 23.1147 47.8581 23.3245 47.863 23.5356C47.853 23.9456 48.003 24.3436 48.279 24.6476C48.434 24.8063 48.6195 24.9321 48.8243 25.0173C49.0292 25.1025 49.2491 25.1455 49.471 25.1436C49.6662 25.144 49.8595 25.1052 50.0395 25.0296C50.2195 24.9541 50.3825 24.8432 50.519 24.7036C50.6755 24.5524 50.7995 24.3708 50.8834 24.1699C50.9673 23.9691 51.0093 23.7533 51.007 23.5356C51.0116 23.1115 50.8475 22.7029 50.551 22.3996C50.2432 22.1233 49.8446 21.9695 49.431 21.9676C49.0212 21.9649 48.6261 22.1196 48.327 22.3996ZM54.119 20.4236H56.135V22.5916H58.383V20.4236H60.399V26.6636H58.383V24.2156H56.135V26.6636H54.119V20.4236ZM61.615 20.4236H63.631V22.9036L65.671 20.4236H68.199L65.519 23.3196L68.375 26.6636H65.799L63.671 23.8956V26.6636H61.615V20.4236ZM41.623 5.33562C42.5107 5.28349 43.3853 5.5693 44.071 6.13562C44.3795 6.41714 44.6225 6.76291 44.7828 7.14857C44.9432 7.53422 45.017 7.95035 44.999 8.36762C45.0195 8.76919 44.9593 9.17079 44.8218 9.54867C44.6844 9.92655 44.4726 10.273 44.199 10.5676C43.8743 10.8571 43.494 11.0773 43.0814 11.2149C42.6687 11.3524 42.2324 11.4044 41.799 11.3676H40.487V14.6396H38.335V5.33562H41.623ZM40.487 9.59962H41.287C41.7048 9.63898 42.1214 9.51256 42.447 9.24762C42.5637 9.12366 42.6549 8.97789 42.7153 8.81866C42.7757 8.65942 42.8041 8.48985 42.799 8.31962C42.8064 8.15274 42.779 7.98613 42.7184 7.83047C42.6578 7.6748 42.5653 7.53351 42.447 7.41562C42.1084 7.14596 41.6776 7.01961 41.247 7.06362H40.519L40.487 9.59962ZM50.239 8.42362H52.255V14.6636H50.239V13.9116C50.0435 14.2214 49.7696 14.4741 49.4451 14.6441C49.1206 14.814 48.757 14.8953 48.391 14.8796C47.9555 14.9028 47.5203 14.8295 47.1165 14.6649C46.7127 14.5003 46.3502 14.2486 46.055 13.9276C45.4573 13.2981 45.1299 12.4596 45.143 11.5916C45.1188 10.6565 45.467 9.75008 46.111 9.07162C46.3964 8.79073 46.7354 8.57017 47.1079 8.42311C47.4804 8.27604 47.8786 8.20548 48.279 8.21562C48.6549 8.19916 49.0292 8.27344 49.3704 8.43218C49.7115 8.59092 50.0095 8.82945 50.239 9.12762V8.42362ZM47.679 10.3996C47.5306 10.5491 47.4133 10.7264 47.3337 10.9213C47.254 11.1163 47.2137 11.325 47.215 11.5356C47.2081 11.947 47.3599 12.3453 47.639 12.6476C47.7931 12.8053 47.9773 12.9305 48.1807 13.0157C48.384 13.1009 48.6025 13.1444 48.823 13.1436C49.219 13.1436 49.599 12.9836 49.879 12.7036C50.1848 12.395 50.3564 11.9781 50.3564 11.5436C50.3564 11.1091 50.1848 10.6922 49.879 10.3836C49.5724 10.1053 49.173 9.95125 48.759 9.95162C48.3553 9.95936 47.9696 10.1194 47.679 10.3996ZM55.487 8.42362V11.9996L58.143 8.43162H60.023V14.6716H58.007V11.0396L55.351 14.6636H53.471V8.42362H55.487ZM59.279 5.90362C59.1219 6.3899 58.8064 6.80956 58.383 7.09562C57.8762 7.35346 57.3156 7.48786 56.747 7.48786C56.1783 7.48786 55.6178 7.35346 55.111 7.09562C54.6876 6.8095 54.3721 6.38987 54.215 5.90362L55.615 5.35962C55.6546 5.62402 55.7931 5.86353 56.0025 6.02983C56.2118 6.19612 56.4765 6.27681 56.743 6.25562C57.031 6.27562 57.317 6.18762 57.543 6.00762C57.732 5.83762 57.858 5.60962 57.903 5.35962L59.279 5.90362ZM64.471 17.7756V14.7676H64.383C63.9111 14.7905 63.4394 14.7188 62.9956 14.5567C62.5518 14.3945 62.145 14.1453 61.799 13.8236C61.4997 13.5215 61.2657 13.1611 61.1115 12.7647C60.9574 12.3684 60.8864 11.9446 60.903 11.5196C60.8862 11.0576 60.9747 10.5979 61.1618 10.1752C61.3489 9.75243 61.6297 9.3778 61.983 9.07962C62.6813 8.57743 63.5229 8.31372 64.383 8.32762H64.479V5.33562H66.495V8.32762H66.599C67.459 8.31372 68.3006 8.57743 68.999 9.07962C69.3494 9.37972 69.6278 9.75491 69.8133 10.1773C69.9989 10.5997 70.087 11.0585 70.071 11.5196C70.0874 11.9446 70.0164 12.3683 69.8622 12.7647C69.7081 13.161 69.4742 13.5214 69.175 13.8236C68.8309 14.1458 68.4255 14.3954 67.983 14.5576C67.5404 14.7198 67.0697 14.7912 66.599 14.7676H66.519V17.7756H64.471ZM64.567 9.95162C64.3391 9.93304 64.1099 9.96184 63.8938 10.0362C63.6776 10.1105 63.4792 10.2288 63.311 10.3836C63.0319 10.6945 62.8854 11.1022 62.903 11.5196C62.888 11.9396 63.034 12.3486 63.311 12.6636C63.4757 12.8262 63.6724 12.9527 63.8886 13.0354C64.1048 13.118 64.3358 13.1548 64.567 13.1436V9.95162ZM66.391 13.1516C66.6221 13.1624 66.853 13.1254 67.0691 13.0428C67.2852 12.9602 67.482 12.8338 67.647 12.6716C67.924 12.3556 68.07 11.9466 68.055 11.5276C68.0704 11.1129 67.9241 10.7085 67.647 10.3996C67.4785 10.2452 67.2801 10.1271 67.064 10.0528C66.8479 9.97846 66.6188 9.94947 66.391 9.96762V13.1516ZM74.167 17.7756V14.7676H74.079C73.6111 14.7872 73.1439 14.7138 72.7045 14.5518C72.2651 14.3898 71.8622 14.1423 71.519 13.8236C71.2154 13.5235 70.9771 13.164 70.8188 12.7675C70.6605 12.3711 70.5856 11.9463 70.599 11.5196C70.5822 11.0576 70.6707 10.5979 70.8578 10.1752C71.0449 9.75243 71.3257 9.3778 71.679 9.07962C72.3773 8.57743 73.2189 8.31372 74.079 8.32762H74.175V5.33562H76.199V8.32762H76.295C77.155 8.31372 77.9966 8.57743 78.695 9.07962C79.0368 9.38423 79.3062 9.76144 79.4834 10.1836C79.6605 10.6058 79.741 11.0623 79.719 11.5196C79.7354 11.9446 79.6644 12.3683 79.5102 12.7647C79.3561 13.161 79.1222 13.5214 78.823 13.8236C78.4809 14.1439 78.0781 14.3923 77.6384 14.5545C77.1988 14.7166 76.7311 14.7891 76.263 14.7676H76.199V17.7756H74.167ZM74.263 9.95162C74.0327 9.93446 73.8014 9.96543 73.5838 10.0426C73.3662 10.1197 73.167 10.2413 72.999 10.3996C72.7199 10.7105 72.5734 11.1182 72.591 11.5356C72.581 11.9496 72.726 12.3516 72.999 12.6636C73.1638 12.8261 73.3605 12.9527 73.5767 13.0353C73.7928 13.1179 74.0238 13.1548 74.255 13.1436L74.263 9.95162ZM76.087 13.1516C76.3181 13.1624 76.549 13.1254 76.7651 13.0428C76.9812 12.9602 77.178 12.8338 77.343 12.6716C77.62 12.3556 77.766 11.9466 77.751 11.5276C77.7664 11.1129 77.6201 10.7085 77.343 10.3996C77.1745 10.2452 76.9761 10.1271 76.76 10.0528C76.5439 9.97846 76.3148 9.94947 76.087 9.96762V13.1516ZM85.415 8.42362H87.399V14.6636H85.383V13.9116C85.1875 14.2215 84.9137 14.4742 84.5892 14.6442C84.2646 14.8142 83.901 14.8954 83.535 14.8796C83.0995 14.9028 82.6643 14.8295 82.2605 14.6649C81.8567 14.5003 81.4942 14.2486 81.199 13.9276C80.6013 13.2981 80.2739 12.4596 80.287 11.5916C80.2629 10.6565 80.6111 9.75014 81.255 9.07162C81.5404 8.79077 81.8795 8.57025 82.2519 8.42319C82.6244 8.27612 83.0227 8.20553 83.423 8.21562C83.7989 8.19916 84.1732 8.27344 84.5144 8.43218C84.8555 8.59092 85.1535 8.82945 85.383 9.12762L85.415 8.42362ZM82.855 10.3996C82.7067 10.5491 82.5894 10.7264 82.5097 10.9214C82.4301 11.1163 82.3897 11.3251 82.391 11.5356C82.3841 11.947 82.5359 12.3453 82.815 12.6476C82.97 12.8063 83.1555 12.9321 83.3603 13.0173C83.5652 13.1025 83.7851 13.1455 84.007 13.1436C84.401 13.1416 84.777 12.9836 85.055 12.7036C85.3608 12.395 85.5324 11.9781 85.5324 11.5436C85.5324 11.1091 85.3608 10.6922 85.055 10.3836C84.7484 10.1053 84.349 9.95125 83.935 9.95162C83.5313 9.95936 83.1456 10.1194 82.855 10.3996ZM90.663 8.42362V11.9996L93.319 8.43162H95.199V14.6716H93.183V11.0396L90.527 14.6636H88.647V8.42362H90.663ZM94.455 5.90362C94.2978 6.38987 93.9824 6.8095 93.559 7.09562C93.0522 7.35346 92.4916 7.48786 91.923 7.48786C91.3544 7.48786 90.7938 7.35346 90.287 7.09562C89.8636 6.8095 89.5481 6.38987 89.391 5.90362L90.791 5.35962C90.8306 5.62402 90.9691 5.86353 91.1785 6.02983C91.3878 6.19612 91.6525 6.27681 91.919 6.25562C92.207 6.27562 92.493 6.18762 92.719 6.00762C92.908 5.83762 93.034 5.60962 93.079 5.35962L94.455 5.90362ZM96.199 8.95962C96.527 8.75621 96.8723 8.5822 97.231 8.43962C97.7057 8.28337 98.2032 8.20766 98.703 8.21562C99.4602 8.17524 100.208 8.40172 100.815 8.85562C100.97 9.00337 101.092 9.18264 101.172 9.38135C101.252 9.58006 101.288 9.79361 101.279 10.0076C101.293 10.202 101.266 10.3971 101.2 10.5803C101.134 10.7636 101.03 10.931 100.895 11.0716C100.746 11.2248 100.566 11.3447 100.367 11.4236C100.667 11.5036 100.943 11.6566 101.167 11.8716C101.307 12.0035 101.416 12.164 101.488 12.3421C101.56 12.5202 101.592 12.7118 101.583 12.9036C101.585 13.1464 101.538 13.3871 101.444 13.6111C101.351 13.8352 101.213 14.0381 101.039 14.2076C100.72 14.4666 100.353 14.6595 99.9586 14.7748C99.5644 14.8902 99.1511 14.9258 98.743 14.8796C98.1628 14.8883 97.5858 14.7935 97.039 14.5996C96.6333 14.438 96.2554 14.2139 95.919 13.9356L96.775 12.6076C97.015 12.8156 97.285 12.9856 97.575 13.1116C97.88 13.2366 98.205 13.3046 98.535 13.3116C98.7868 13.3163 99.0363 13.2615 99.263 13.1516C99.3496 13.1076 99.422 13.0399 99.4715 12.9563C99.5211 12.8727 99.5459 12.7768 99.543 12.6796C99.5442 12.5879 99.5173 12.4981 99.4658 12.4222C99.4143 12.3464 99.3407 12.2882 99.255 12.2556C99.0191 12.183 98.7738 12.1452 98.527 12.1436H97.727V10.7756H98.303C98.558 10.7806 98.813 10.7436 99.055 10.6636C99.1345 10.6312 99.2025 10.5758 99.2504 10.5046C99.2982 10.4334 99.3238 10.3495 99.3238 10.2636C99.3238 10.1778 99.2982 10.0939 99.2504 10.0227C99.2025 9.95141 99.1345 9.89605 99.055 9.86362C98.854 9.78399 98.639 9.74588 98.423 9.75162C98.148 9.75162 97.875 9.80862 97.623 9.91962C97.3781 10.0178 97.151 10.1556 96.951 10.3276L96.199 8.95962ZM108.935 11.8956H104.279C104.282 12.2826 104.414 12.6576 104.655 12.9596C104.791 13.0944 104.954 13.199 105.133 13.2665C105.312 13.3341 105.504 13.3631 105.695 13.3516C105.973 13.3609 106.249 13.2975 106.495 13.1676C106.683 13.0366 106.832 12.8576 106.927 12.6476L108.831 12.8476C108.64 13.5097 108.213 14.0789 107.631 14.4476C107.027 14.7798 106.344 14.9403 105.655 14.9116C105.2 14.9482 104.743 14.8872 104.314 14.7326C103.885 14.5781 103.494 14.3336 103.167 14.0156C102.859 13.6977 102.617 13.322 102.455 12.91C102.293 12.4981 102.214 12.0582 102.223 11.6156C102.214 10.7029 102.555 9.82136 103.175 9.15162C103.494 8.84828 103.871 8.61254 104.283 8.45857C104.696 8.3046 105.135 8.23557 105.575 8.25562C106.029 8.23278 106.483 8.30414 106.909 8.46522C107.334 8.6263 107.722 8.87361 108.047 9.19162C108.66 9.88975 108.976 10.7998 108.927 11.7276L108.935 11.8956ZM107.079 10.6956C107.01 10.4211 106.869 10.1699 106.671 9.96762C106.415 9.72389 106.072 9.59157 105.719 9.59962C105.529 9.59221 105.34 9.62469 105.164 9.69497C104.987 9.76525 104.828 9.87176 104.695 10.0076C104.522 10.1965 104.403 10.4287 104.351 10.6796L107.079 10.6956ZM109.847 8.42362H111.863V10.5916H114.111V8.42362H116.127V14.6636H114.111V12.2156H111.863V14.6636H109.847V8.42362Z" fill="#2B2D34"/>
</g>
<path d="M21.575 11.3916V14.4396L20.023 15.9996L27.663 23.6476L24.647 26.6636L16.999 19.0236L9.35097 26.6636L6.33497 23.6476L13.975 15.9996L12.423 14.4396V11.3916L11.319 10.2876V12.9356L10.359 13.8956L6.49497 10.0316L5.54297 10.9916C5.55799 9.28288 6.24819 7.64943 7.46297 6.44762C8.04471 5.79184 8.8617 5.39207 9.73647 5.33515C10.6112 5.27823 11.4732 5.56876 12.135 6.14362L15.991 9.99962L15.007 10.9836L16.999 12.9756L18.991 10.9836L18.007 9.99962L21.863 6.14362C22.5248 5.56876 23.3867 5.27823 24.2615 5.33515C25.1362 5.39207 25.9532 5.79184 26.535 6.44762C27.7497 7.64943 28.4399 9.28288 28.455 10.9916L27.503 10.0316L23.639 13.8956L22.679 12.9356V10.2876L21.575 11.3916Z" fill="#2B2D34"/>
</g>
</g>
<defs>
<clipPath id="clip0_34_3288">
<rect width="117" height="32" fill="white"/>
</clipPath>
<clipPath id="clip1_34_3288">
<rect width="117" height="32" fill="white"/>
</clipPath>
</defs>
</svg>
