<svg width="140" height="28" viewBox="0 0 140 28" fill="none" xmlns="http://www.w3.org/2000/svg">
<g clip-path="url(#clip0_34_3300)">
<path d="M13.5625 0.5625C6.0625 0.5625 0 6.625 0 14.125C0 21.625 6.0625 27.6875 13.5625 27.6875C21.0625 27.6875 27.125 21.625 27.125 14.125C27.125 6.625 21.0625 0.5625 13.5625 0.5625ZM11.6875 19.875L10.6875 22.8125C6.9375 21.5625 4.4375 18 4.4375 14C4.4375 10 6.9375 6.5 10.75 5.1875L11.75 8.125C9.25 8.9375 7.625 11.3125 7.625 13.9375C7.5 16.6875 9.1875 19.0625 11.6875 19.875ZM16.3125 22.875L15.375 19.875C17.9375 19.0625 19.625 16.6875 19.625 14C19.625 11.3125 17.9375 9 15.4375 8.1875L16.4375 5.1875C20.25 6.4375 22.8125 10 22.8125 14C22.8125 18.125 20.1875 21.6875 16.3125 22.875Z" fill="#00BEF0"/>
<path d="M137.75 16.5625L139.25 18.375C137.688 20 135.75 20.4375 134.188 20.4375C132.688 20.4375 131.625 20.1875 130.688 19.75C128.688 18.75 127.688 16.75 127.688 14.3125C127.688 10.625 130.188 7.875 133.875 7.875C138 7.875 140 10.9375 139.688 14.9375H130.313C130.375 15.9375 130.938 16.875 131.75 17.375C132.438 17.8125 133.25 18 134.313 18C135.5 18 136.688 17.625 137.75 16.5625ZM130.375 12.75H137C136.813 11.3125 135.625 10.0625 133.75 10.0625C131.813 10.0625 130.625 11.4375 130.375 12.75ZM67.4378 20.0625H70.8128L65.5003 13.875L70.7502 8.0625H67.4378L63.4377 12.6875H62.25V8.0625H59.6875V20H62.25V15.25H63.4377L67.4378 20.0625ZM78.4377 10.25C76.2502 10.25 74.8127 11.9375 74.8127 14.0625C74.8127 16.1875 76.2502 17.875 78.4377 17.875C80.6252 17.875 82.0002 16.25 82.0002 14.0625C82.0627 12 80.6877 10.25 78.4377 10.25ZM78.8752 7.8125C82.2502 7.8125 84.7503 10.4375 84.7503 14.0625C84.7503 17.625 82.3127 20.375 78.8752 20.375C77.2502 20.375 75.9377 19.8125 75.0002 18.8125V25.0625H72.3753V8.125H74.9378V9.5625C75.9378 8.375 77.2502 7.8125 78.8752 7.8125ZM112.938 8.125H102.25V10.5H106.313V20.0625H108.938V10.5H113V8.125H112.938ZM57.875 8.125H47.125V10.5H51.1875V20.0625H53.8125V10.5H57.875V8.125ZM44 14.125C44 11.875 42.4375 10.25 40.25 10.25C38.125 10.25 36.5 11.875 36.5 14.125C36.5 16.375 38.0625 18 40.25 18C42.375 18 44 16.375 44 14.125ZM33.8125 14.125C33.8125 10.5625 36.5625 7.875 40.25 7.875C43.875 7.875 46.6875 10.5625 46.6875 14.125C46.6875 17.6875 43.9375 20.4375 40.25 20.4375C36.625 20.375 33.8125 17.6875 33.8125 14.125ZM125.625 8.125V20.0625H123.063V12.375L116.813 20.0625H114.75V8.125H117.313V15.8125L123.563 8.125H125.625ZM100.438 20.0625H97.8753V8.125H100.438V20.0625ZM93.8128 16C93.8128 14.9375 93.0628 14.1875 92.0628 14.1875H89.4378V17.875H92.0628C93.0628 17.875 93.8128 17.0625 93.8128 16ZM96.3752 16C96.3752 18.375 94.6252 20.0625 92.1252 20.0625H86.8752V8.125H89.4378V12H92.3753C94.8753 12 96.3752 13.625 96.3752 16Z" fill="#373737"/>
</g>
<defs>
<clipPath id="clip0_34_3300">
<rect width="140" height="27.5" fill="white" transform="translate(0 0.25)"/>
</clipPath>
</defs>
</svg>
