<svg width="140" height="32" viewBox="0 0 140 32" fill="none" xmlns="http://www.w3.org/2000/svg">
<g clip-path="url(#clip0_34_3305)">
<path d="M8.27049 13.7113C8.27049 11.107 10.3821 8.9954 12.9864 8.9954C15.5907 8.9954 17.7024 11.107 17.7024 13.7113C17.7024 16.3157 15.5907 18.4273 12.9864 18.4273C10.3821 18.4273 8.27049 16.3157 8.27049 13.7113ZM0 20.187H26.008V23.7415H0V20.187ZM1.75968 8.96021C1.16139 8.96021 0.563097 9.06579 0 9.31214V18.0753C2.42836 19.0608 5.17345 17.8642 6.15887 15.4358C7.14429 13.0075 5.94771 10.2624 3.51936 9.31214C2.95626 9.10098 2.35797 8.96021 1.75968 8.96021ZM24.2132 8.96021C24.8115 8.96021 25.4098 9.06579 25.9729 9.31214V18.0753C23.5445 19.0608 20.7994 17.8994 19.814 15.471C18.8286 13.0427 19.9899 10.2976 22.4183 9.31214C23.0166 9.10098 23.6149 8.96021 24.2132 8.96021Z" fill="#FDA329"/>
<path d="M45.4692 11.2477C46.8769 12.6555 47.5808 14.4152 47.5808 16.5268C47.5808 18.6384 46.8769 20.3981 45.4692 21.8058C44.0614 23.2488 42.3017 23.9526 40.1549 23.9526C37.5506 23.9526 35.263 22.6505 34.0312 20.574L36.4596 19.1663C37.1283 20.3981 38.536 21.1723 40.1549 21.1723C42.4777 21.1723 44.1318 19.8702 44.6245 17.7938H38.2545V15.1542H44.6245C44.1318 13.0778 42.4777 11.7757 40.1549 11.7757C38.536 11.7757 37.1635 12.5147 36.4596 13.8169L34.0312 12.4091C35.263 10.3327 37.5858 9.03055 40.1549 9.03055C42.3017 9.10094 44.0614 9.80481 45.4692 11.2477ZM58.8427 23.6711H55.7809L52.0856 19.0255V23.6711H49.446V13.4649H52.0856V17.9697L55.6049 13.4649H58.7371L54.6195 18.4976L58.8427 23.6711ZM60.4264 22.4041C59.4058 21.3483 58.9131 20.0813 58.9131 18.568C58.9131 17.0547 59.4058 15.7877 60.4264 14.7319C61.4822 13.6761 62.7492 13.1834 64.2977 13.1834C66.2686 13.1834 68.0282 14.204 68.8729 15.8229L66.6205 17.1603C66.1982 16.3156 65.3183 15.7877 64.2977 15.7877C62.714 15.7877 61.5526 16.9491 61.5526 18.568C61.5526 19.3775 61.8342 20.0461 62.3269 20.574C62.8548 21.0668 63.4883 21.3483 64.2977 21.3483C65.3535 21.3483 66.2334 20.8556 66.6557 20.0109L68.9433 21.3131C68.0282 22.932 66.3038 23.9526 64.3329 23.9526C62.7492 23.9526 61.4822 23.4599 60.4264 22.4041ZM79.7125 13.4649V23.6711H77.073V15.9285H73.0257V23.6711H70.3862V13.4649H79.7125ZM86.9624 23.9526C85.4491 23.9526 84.1821 23.4599 83.1263 22.4041C82.0705 21.3483 81.5778 20.0813 81.5778 18.568C81.5778 17.0547 82.0705 15.7877 83.1263 14.7671C84.1821 13.7113 85.4491 13.1834 86.9624 13.1834C88.4757 13.1834 89.7427 13.7113 90.7985 14.7671C91.8543 15.8229 92.3822 17.0899 92.3822 18.568C92.3822 20.0461 91.8543 21.3483 90.7985 22.4041C89.7427 23.4599 88.4757 23.9526 86.9624 23.9526ZM86.9624 21.3835C87.7718 21.3835 88.4053 21.1019 88.9332 20.574C89.4611 20.0461 89.7427 19.3775 89.7427 18.568C89.7427 17.7586 89.4611 17.0899 88.9332 16.562C88.4053 16.0341 87.7366 15.7525 86.9624 15.7525C86.1529 15.7525 85.5194 16.0341 84.9915 16.562C84.4988 17.0899 84.2173 17.7586 84.2173 18.568C84.2173 19.3775 84.4988 20.0461 84.9915 20.574C85.5194 21.1019 86.1529 21.3835 86.9624 21.3835ZM95.1625 22.4041C94.1771 21.3483 93.6843 20.0461 93.6843 18.4624C93.6843 16.7379 93.9659 15.3654 94.4586 14.4504C94.9865 13.5001 96.0071 12.6203 97.5908 11.846C97.802 11.7405 98.1539 11.5645 98.5763 11.3885L99.4209 10.9662C99.5969 10.8958 99.808 10.755 100.09 10.6143C100.829 10.1567 101.04 9.80481 101.392 8.99536L103.539 10.2271C103.363 11.0718 102.975 11.7053 102.342 12.1628C101.744 12.6203 100.829 13.0778 99.5617 13.5353C97.8372 14.204 97.1685 14.8375 96.8166 15.7877C97.5556 15.0135 98.5762 14.6263 99.8784 14.6263C101.005 14.6263 102.025 15.0487 102.905 15.8581C103.785 16.6676 104.242 17.7586 104.242 19.1311C104.242 20.5389 103.785 21.665 102.799 22.5801C101.849 23.4951 100.617 23.9174 99.069 23.9174C97.4501 23.9526 96.1831 23.4599 95.1625 22.4041ZM97.2389 17.3714C96.711 17.7938 96.4646 18.3568 96.4646 19.0607C96.4646 19.7646 96.711 20.3629 97.2037 20.8204C97.7316 21.2779 98.3299 21.5243 99.069 21.5243C99.808 21.5243 100.406 21.3131 100.899 20.8556C101.357 20.3981 101.603 19.835 101.603 19.1311C101.603 17.7586 100.547 16.7379 99.069 16.7379C98.3651 16.7379 97.7668 16.9491 97.2389 17.3714ZM113.569 13.4649H116.208V23.6711H113.569V22.4745C112.759 23.4599 111.668 23.9526 110.225 23.9526C108.853 23.9526 107.691 23.4599 106.706 22.4041C105.756 21.3483 105.263 20.0813 105.263 18.568C105.263 17.0547 105.756 15.7877 106.706 14.7671C107.691 13.7113 108.853 13.1834 110.225 13.1834C111.668 13.1834 112.759 13.6761 113.569 14.6615V13.4649ZM110.718 21.4539C111.527 21.4539 112.196 21.1723 112.724 20.6444C113.287 20.0813 113.534 19.4127 113.534 18.568C113.534 17.7234 113.252 17.0547 112.724 16.4916C112.196 15.9285 111.527 15.6821 110.718 15.6821C109.909 15.6821 109.24 15.9637 108.712 16.4916C108.184 17.0195 107.903 17.7234 107.903 18.568C107.903 19.4127 108.184 20.1165 108.712 20.6444C109.24 21.1723 109.909 21.4539 110.718 21.4539ZM125.288 13.4649H127.928V23.6711H125.288V19.7998H121.241V23.6711H118.601V13.4649H121.241V17.3362H125.288V13.4649ZM139.718 23.6711H136.656L132.925 19.0255V23.6711H130.286V13.4649H132.925V17.9697L136.445 13.4649H139.577L135.494 18.4976L139.718 23.6711Z" fill="#004259"/>
</g>
<defs>
<clipPath id="clip0_34_3305">
<rect width="140" height="15.9779" fill="white" transform="translate(0 8.01099)"/>
</clipPath>
</defs>
</svg>
