<svg width="140" height="22" viewBox="0 0 140 22" fill="none" xmlns="http://www.w3.org/2000/svg">
<g clip-path="url(#clip0_34_3313)">
<path d="M16.3289 0.24292H2.33504C1.05097 0.24292 0 1.31434 0 2.62294V16.9153C0 18.2239 1.05097 19.2954 2.33504 19.2954H16.3289C17.613 19.2954 18.6599 18.2239 18.6599 16.9153V2.62294C18.6599 1.31434 17.6089 0.24292 16.3289 0.24292ZM9.91266 7.37889C9.91266 6.7205 10.432 6.18888 11.0781 6.18888C11.7243 6.18888 12.2436 6.7205 12.2436 7.37889C12.2436 8.03728 11.7243 8.57299 11.0781 8.57299C10.432 8.57299 9.91266 8.04137 9.91266 7.37889ZM10.4974 9.763C10.4974 10.4214 9.97809 10.953 9.33197 10.953C8.68585 10.953 8.16241 10.4214 8.16241 9.763C8.16241 9.10461 8.68176 8.57299 9.33197 8.57299C9.98218 8.57299 10.4974 9.11279 10.4974 9.763ZM9.33197 3.80477C9.97809 3.80477 10.4974 4.33639 10.4974 4.99478C10.4974 5.65317 9.97809 6.18479 9.33197 6.18479C8.68585 6.18479 8.16241 5.65726 8.16241 4.99478C8.16241 4.3323 8.68176 3.80477 9.33197 3.80477ZM8.74719 7.37889C8.74719 8.04137 8.22784 8.57299 7.58171 8.57299C6.93559 8.57299 6.41624 8.04137 6.41624 7.37889C6.41624 6.71641 6.9315 6.18888 7.58171 6.18888C8.23193 6.18888 8.74719 6.7205 8.74719 7.37889ZM5.83146 3.80477C6.48167 3.80477 6.99693 4.33639 6.99693 4.99478C6.99693 5.65317 6.48167 6.18479 5.83146 6.18479C5.18125 6.18479 4.66598 5.65726 4.66598 4.99478C4.66598 4.3323 5.18534 3.80477 5.83146 3.80477ZM5.83146 15.7294C5.18534 15.7294 4.66598 15.1855 4.66598 14.5353C4.66598 13.8851 5.18534 13.3412 5.83146 13.3412C6.47758 13.3412 6.99693 13.8728 6.99693 14.5353C6.99693 15.1978 6.48167 15.7294 5.83146 15.7294ZM6.41624 12.143C6.41624 11.4928 6.9315 10.953 7.58171 10.953C8.23193 10.953 8.74719 11.4928 8.74719 12.143C8.74719 12.7932 8.22784 13.3453 7.58171 13.3453C6.93559 13.3453 6.41624 12.8055 6.41624 12.143ZM9.33197 15.7294C8.68176 15.7294 8.16241 15.1855 8.16241 14.5353C8.16241 13.8851 8.68176 13.3412 9.33197 13.3412C9.98218 13.3412 10.4974 13.8728 10.4974 14.5353C10.4974 15.1978 9.97809 15.7294 9.33197 15.7294ZM9.91266 12.143C9.91266 11.4928 10.432 10.953 11.0781 10.953C11.7243 10.953 12.2436 11.4928 12.2436 12.143C12.2436 12.7932 11.7243 13.3453 11.0781 13.3453C10.432 13.3453 9.91266 12.8055 9.91266 12.143ZM12.8284 15.7294C12.1782 15.7294 11.6629 15.1855 11.6629 14.5353C11.6629 13.8851 12.1823 13.3412 12.8284 13.3412C13.4745 13.3412 13.9939 13.8728 13.9939 14.5353C13.9939 15.1978 13.4745 15.7294 12.8284 15.7294ZM12.8284 6.18479C12.1782 6.18479 11.6629 5.65726 11.6629 4.99478C11.6629 4.3323 12.1823 3.80477 12.8284 3.80477C13.4745 3.80477 13.9939 4.33639 13.9939 4.99478C13.9939 5.65317 13.4745 6.18479 12.8284 6.18479Z" fill="#BAA25B"/>
<path d="M32.0639 18.1037V3.93398H28.3058V18.1037H25.6641V1.43128H34.6975V18.1037H32.068H32.0639ZM52.699 18.1037V11.3603H52.4822L48.8263 18.1037H46.3073V6.19541H48.9408V13.3109H49.1453L52.8135 6.19132H55.3284V18.0996H52.699V18.1037ZM65.4456 18.1037V11.9533H65.1389L63.3723 15.2207H61.8796L60.1008 11.9533H59.8063V18.1037H57.1646V6.19541H59.5323L62.5053 12.1291H62.7425L65.7073 6.19541H68.0751V18.1037H65.4456ZM126.893 18.1037V13.2087H123.883V18.1037H121.253V6.19541H123.883V10.7101H126.893V6.19541H129.522V18.1037H126.893ZM137.382 18.1037L136.764 14.685C136.629 13.8712 135.84 13.2087 135.035 13.2087H133.804V18.1037H131.17V6.19541H133.804V10.8941H134.577C135.386 10.8941 136.184 10.2439 136.343 9.43011L136.993 6.19541H139.615L138.76 9.95355C138.601 10.6406 138.008 11.2785 137.3 11.5484L137.173 11.5934V11.8592L137.321 11.8919C138.175 12.0432 138.915 12.763 139.087 13.589L139.999 18.0996H137.378L137.382 18.1037ZM84.2935 8.40367C83.3244 8.40367 82.7764 8.99663 82.7764 10.0312V14.2638C82.7764 15.2984 83.3244 15.8913 84.2935 15.8913C85.2627 15.8913 85.7984 15.2984 85.7984 14.2638V10.0312C85.7984 8.99663 85.2505 8.40367 84.2935 8.40367ZM84.2935 18.2918C81.7745 18.2918 80.1469 16.791 80.1469 14.4519V9.84722C80.1469 7.5081 81.7745 5.99503 84.2935 5.99503C86.8126 5.99503 88.4279 7.5081 88.4279 9.84722V14.4519C88.4279 16.791 86.8126 18.2918 84.2935 18.2918ZM116.244 13.0124C114.412 13.0124 114.261 13.5849 114.261 14.456C114.261 15.7932 114.923 15.9813 115.479 15.9813C115.684 15.9813 115.9 15.9445 116.162 15.875C117.017 15.6296 117.405 15.1675 117.426 15.143L117.458 15.0039V13.0165H116.24L116.244 13.0124ZM114.445 18.2918C112.551 18.2918 111.631 17.0813 111.631 14.595C111.631 12.1087 112.895 10.8982 115.389 10.8982H117.27V9.85131C117.27 8.33824 116.53 8.21147 115.765 8.21147C115.001 8.21147 114.4 8.72264 114.032 9.72454L111.721 9.09887C112.437 7.13187 113.897 6.0032 115.765 6.0032C117.634 6.0032 119.9 6.65342 119.9 9.74908V9.94537H119.912V18.1078H117.622L117.393 16.8155L117.131 17.0936C117.131 17.0936 116.015 18.2918 114.445 18.2918ZM97.3714 20.4878V18.1078H89.8428V6.19541H92.4723V15.6051H95.4903V6.19541H98.1238V15.6051H99.6287L99.4488 20.4878H97.3755H97.3714ZM40.5535 8.28917C40.4635 8.28917 40.3817 8.30144 40.2918 8.3137C39.3799 8.44048 39.0282 9.25835 39.0159 9.29107L39.0036 9.32378V15.0939L39.0486 15.1389C39.2981 15.4538 39.936 15.8014 40.5085 15.8014C41.4777 15.8014 42.0134 15.2534 42.0134 14.2678V9.65093C42.0134 8.86986 41.3877 8.28917 40.5535 8.28917ZM36.5541 21.7596V6.19541H38.8441L39.0854 7.53263L39.3349 7.1973C39.3349 7.1973 40.2672 5.99911 41.8294 5.99911C43.7228 5.99911 44.6429 7.20957 44.6429 9.70001V15.0407C44.6429 16.9014 43.5388 18.1119 41.8294 18.1119C40.6108 18.1119 39.4944 17.3349 39.4821 17.3226L39.1836 17.1141V21.7678H36.5541V21.7596ZM79.1205 13.7362C79.1205 16.2226 77.7792 18.2918 74.4381 18.2918C71.596 18.2918 69.7599 16.5988 69.7599 13.9611V5.66788C69.7599 3.03022 71.596 1.32495 74.4381 1.32495C77.8037 1.32495 78.9773 3.62727 78.9773 6.06863L76.2947 6.36716C76.2252 5.35299 76.0044 3.7336 74.3563 3.7336C73.1132 3.7336 72.4057 4.50649 72.4057 5.8519V13.6912C72.4057 15.098 73.15 15.9036 74.4463 15.9036C76.1761 15.9036 76.4174 14.5664 76.4992 13.4459L79.1246 13.7444L79.1205 13.7362ZM106.106 7.3895H103.657V3.93398H109.64V1.43128H101.015V18.1037H106.106C109.451 18.1037 110.605 15.9486 110.605 12.7466C110.605 9.54461 109.451 7.3895 106.106 7.3895ZM105.587 15.6051H103.657V9.88812H105.587C107.64 9.88812 107.803 10.7387 107.803 12.7466C107.803 14.7545 107.64 15.6051 105.587 15.6051Z" fill="#4A892C"/>
</g>
<defs>
<clipPath id="clip0_34_3313">
<rect width="140" height="21.5142" fill="white" transform="translate(0 0.24292)"/>
</clipPath>
</defs>
</svg>
