<svg width="140" height="32" viewBox="0 0 140 32" fill="none" xmlns="http://www.w3.org/2000/svg">
<g clip-path="url(#clip0_34_3319)">
<g clip-path="url(#clip1_34_3319)">
<path d="M138.425 28.7824H102.622C102.21 28.7824 101.815 28.6187 101.524 28.3273C101.232 28.0359 101.069 27.6406 101.069 27.2285C101.069 26.8164 101.232 26.4211 101.524 26.1297C101.815 25.8383 102.21 25.6746 102.622 25.6746H138.425C138.837 25.6746 139.233 25.8383 139.524 26.1297C139.816 26.4211 139.979 26.8164 139.979 27.2285C139.979 27.6406 139.816 28.0359 139.524 28.3273C139.233 28.6187 138.837 28.7824 138.425 28.7824ZM37.3568 28.7824H1.55394C1.14181 28.7824 0.746561 28.6187 0.45514 28.3273C0.163719 28.0359 0 27.6406 0 27.2285C0 26.8164 0.163719 26.4211 0.45514 26.1297C0.746561 25.8383 1.14181 25.6746 1.55394 25.6746H37.3568C37.7689 25.6746 38.1642 25.8383 38.4556 26.1297C38.747 26.4211 38.9108 26.8164 38.9108 27.2285C38.9108 27.6406 38.747 28.0359 38.4556 28.3273C38.1642 28.6187 37.7689 28.7824 37.3568 28.7824Z" fill="#ED6F34"/>
<path d="M134.324 3.58919C135.08 3.58919 135.692 2.97695 135.692 2.22172C135.692 1.46649 135.08 0.854248 134.324 0.854248C133.569 0.854248 132.957 1.46649 132.957 2.22172C132.957 2.97695 133.569 3.58919 134.324 3.58919Z" fill="#595C62"/>
<path d="M140 5.39222V16.1455C140 16.4682 139.875 16.7782 139.651 17.0102C139.426 17.2422 139.121 17.3779 138.798 17.3887C138.474 17.3827 138.166 17.2485 137.941 17.0154C137.715 16.7824 137.592 16.4696 137.597 16.1455V8.76946L130.904 16.8707C130.794 17.0275 130.649 17.1562 130.479 17.2462C130.31 17.3362 130.122 17.385 129.93 17.3887C129.608 17.3779 129.302 17.2422 129.078 17.0102C128.854 16.7782 128.729 16.4682 128.729 16.1455V5.39222C128.727 5.2329 128.756 5.07478 128.816 4.92695C128.875 4.77913 128.963 4.64452 129.075 4.5309C129.187 4.41727 129.32 4.32687 129.467 4.2649C129.614 4.20292 129.771 4.1706 129.93 4.16979C130.251 4.17469 130.557 4.30571 130.782 4.53449C131.007 4.76327 131.133 5.07141 131.132 5.39222V12.7683L137.866 4.60489C137.983 4.47213 138.126 4.36496 138.287 4.29009C138.447 4.21522 138.621 4.17427 138.798 4.16979C138.958 4.1706 139.115 4.20292 139.262 4.2649C139.409 4.32687 139.542 4.41727 139.654 4.5309C139.765 4.64452 139.853 4.77913 139.913 4.92695C139.972 5.07478 140.002 5.2329 140 5.39222ZM116.235 8.00285H113.127V5.39222C113.129 5.2329 113.099 5.07478 113.04 4.92695C112.98 4.77913 112.892 4.64452 112.781 4.5309C112.669 4.41727 112.536 4.32687 112.389 4.2649C112.242 4.20292 112.085 4.1706 111.925 4.16979C111.605 4.17469 111.299 4.30571 111.074 4.53449C110.849 4.76327 110.723 5.07141 110.724 5.39222V16.1455C110.719 16.4696 110.842 16.7824 111.068 17.0154C111.293 17.2485 111.601 17.3827 111.925 17.3887H116.235C118.742 17.3887 120.793 15.2753 120.793 12.7061C120.793 10.1369 118.742 8.00285 116.235 8.00285ZM116.235 14.9024H113.127V10.4684H116.235C116.823 10.4684 117.387 10.702 117.803 11.1178C118.218 11.5335 118.452 12.0974 118.452 12.6854C118.452 13.2734 118.218 13.8373 117.803 14.253C117.387 14.6688 116.823 14.9024 116.235 14.9024ZM122.969 4.16979C122.648 4.17469 122.342 4.30571 122.117 4.53449C121.892 4.76327 121.766 5.07141 121.767 5.39222V16.1455C121.767 16.4682 121.892 16.7782 122.116 17.0102C122.341 17.2422 122.646 17.3779 122.969 17.3887C123.293 17.3827 123.601 17.2485 123.827 17.0154C124.052 16.7824 124.175 16.4696 124.17 16.1455V5.39222C124.171 5.07141 124.045 4.76327 123.82 4.53449C123.595 4.30571 123.29 4.17469 122.969 4.16979ZM104.819 10.0955C105.253 9.46107 105.484 8.70957 105.482 7.94069C105.482 5.86877 103.824 4.16979 101.814 4.16979C101.814 4.16979 102.084 4.19051 96.5932 4.19051C96.2724 4.19541 95.9664 4.32643 95.7415 4.55521C95.5166 4.78399 95.3909 5.09213 95.3914 5.41294V16.1455C95.3865 16.4696 95.5101 16.7824 95.7354 17.0154C95.9607 17.2485 96.2691 17.3827 96.5932 17.3887H102.415C103.474 17.368 104.483 16.9295 105.22 16.1689C105.957 15.4082 106.364 14.387 106.352 13.3277C106.356 12.7083 106.221 12.0958 105.955 11.5362C105.69 10.9765 105.301 10.484 104.819 10.0955ZM97.7949 6.6561H101.959C101.856 6.63538 101.856 6.6561 101.959 6.6561C102.273 6.70084 102.559 6.85793 102.765 7.0981C102.97 7.33827 103.082 7.64511 103.078 7.96141C103.082 8.13033 103.052 8.29828 102.99 8.45555C102.928 8.61283 102.836 8.7563 102.719 8.87768C102.601 8.99906 102.461 9.09594 102.305 9.16272C102.15 9.2295 101.983 9.26485 101.814 9.26673H97.7949V6.6561ZM102.395 14.9024H97.7949V11.7323H102.395C102.815 11.7323 103.218 11.8993 103.515 12.1966C103.813 12.4938 103.98 12.897 103.98 13.3173C103.98 13.7377 103.813 14.1409 103.515 14.4381C103.218 14.7354 102.815 14.9024 102.395 14.9024ZM91.3926 16.1248C91.3976 16.4489 91.2739 16.7617 91.0487 16.9947C90.8234 17.2277 90.515 17.362 90.1909 17.368H83.2085C83.0476 17.3666 82.8885 17.3333 82.7406 17.2698C82.5927 17.2063 82.4589 17.1141 82.347 16.9983C82.2351 16.8826 82.1475 16.7458 82.089 16.5958C82.0306 16.4458 82.0027 16.2857 82.0068 16.1248V5.41294C82.0049 5.25362 82.0345 5.09549 82.094 4.94767C82.1534 4.79985 82.2415 4.66524 82.3532 4.55162C82.465 4.43799 82.598 4.34759 82.7448 4.28561C82.8916 4.22364 83.0492 4.19132 83.2085 4.19051H90.1909C90.5206 4.19051 90.8368 4.32148 91.07 4.55462C91.3031 4.78776 91.4341 5.10396 91.4341 5.43366C91.4341 5.76337 91.3031 6.07957 91.07 6.31271C90.8368 6.54584 90.5206 6.67682 90.1909 6.67682H84.4102V9.55679H89.1549C89.4846 9.55679 89.8009 9.68777 90.034 9.92091C90.2671 10.154 90.3981 10.4702 90.3981 10.8C90.3981 11.1297 90.2671 11.4459 90.034 11.679C89.8009 11.9121 89.4846 12.0431 89.1549 12.0431H84.4102V14.9438H90.1909C90.3485 14.9381 90.5056 14.9647 90.6526 15.0217C90.7995 15.0788 90.9334 15.1653 91.0458 15.2758C91.1583 15.3863 91.247 15.5186 91.3067 15.6646C91.3663 15.8105 91.3955 15.9671 91.3926 16.1248ZM77.8215 17.0986C77.5735 17.3001 77.256 17.3957 76.938 17.3647C76.6199 17.3337 76.3269 17.1785 76.1225 16.9328L72.0201 11.7945L70.1554 13.7628V16.1455C70.1604 16.4696 70.0367 16.7824 69.8114 17.0154C69.5862 17.2485 69.2777 17.3827 68.9537 17.3887C68.7927 17.3874 68.6337 17.354 68.4857 17.2905C68.3378 17.2271 68.204 17.1348 68.0922 17.0191C67.9803 16.9033 67.8926 16.7665 67.8342 16.6165C67.7758 16.4665 67.7478 16.3064 67.752 16.1455V13.7628L65.8872 11.7738L61.7848 16.9121C61.6871 17.0355 61.5656 17.1379 61.4274 17.2133C61.2893 17.2887 61.1374 17.3355 60.9808 17.351C60.8242 17.3664 60.6661 17.3502 60.5159 17.3033C60.3657 17.2564 60.2265 17.1797 60.1066 17.0779C59.8554 16.868 59.6971 16.5676 59.6661 16.2417C59.635 15.9159 59.7337 15.591 59.9408 15.3375L64.2297 9.97118L60.7489 6.24171C60.5238 6.00663 60.3999 5.69268 60.4038 5.36727C60.4077 5.04187 60.539 4.73096 60.7696 4.5013C60.8796 4.3897 61.011 4.30146 61.156 4.24187C61.3009 4.18228 61.4564 4.15256 61.6131 4.1545C61.7698 4.15643 61.9245 4.18998 62.068 4.25313C62.2114 4.31628 62.3406 4.40774 62.4478 4.52202L67.752 10.1784V5.41294C67.75 5.25362 67.7797 5.09549 67.8391 4.94767C67.8986 4.79985 67.9867 4.66524 68.0984 4.55162C68.2101 4.43799 68.3432 4.34759 68.49 4.28561C68.6367 4.22364 68.7943 4.19132 68.9537 4.19051C69.2745 4.19541 69.5804 4.32643 69.8053 4.55521C70.0302 4.78399 70.156 5.09213 70.1554 5.41294V10.2198L75.4802 4.54274C75.5894 4.42811 75.7205 4.33647 75.8656 4.27323C76.0107 4.20999 76.1671 4.17642 76.3254 4.17449C76.4837 4.17256 76.6408 4.20231 76.7874 4.26199C76.934 4.32167 77.0673 4.41008 77.1792 4.52202C77.4093 4.75077 77.542 5.05957 77.5498 5.3839C77.5575 5.70823 77.4396 6.02299 77.2207 6.26243L73.7191 9.9919L78.008 15.3582C78.207 15.6165 78.2988 15.9416 78.264 16.2658C78.2293 16.59 78.0708 16.8884 77.8215 17.0986ZM56.4185 5.41294V16.1455C56.4235 16.4696 56.2998 16.7824 56.0746 17.0154C55.8493 17.2485 55.5409 17.3827 55.2168 17.3887C55.0559 17.3874 54.8968 17.354 54.7489 17.2905C54.601 17.2271 54.4672 17.1348 54.3553 17.0191C54.2434 16.9033 54.1557 16.7665 54.0973 16.6165C54.0389 16.4665 54.011 16.3064 54.0151 16.1455V12.0017H47.9858V16.1248C47.9908 16.4489 47.8671 16.7617 47.6418 16.9947C47.4166 17.2277 47.1081 17.362 46.7841 17.368C46.6231 17.3666 46.4641 17.3333 46.3161 17.2698C46.1682 17.2063 46.0344 17.1141 45.9226 16.9983C45.8107 16.8826 45.723 16.7458 45.6646 16.5958C45.6062 16.4458 45.5782 16.2857 45.5824 16.1248V5.41294C45.5824 5.09423 45.709 4.78857 45.9343 4.5632C46.1597 4.33784 46.4654 4.21123 46.7841 4.21123C47.1028 4.21123 47.4085 4.33784 47.6338 4.5632C47.8592 4.78857 47.9858 5.09423 47.9858 5.41294V9.53608H54.0151V5.41294C54.0151 5.09423 54.1417 4.78857 54.3671 4.5632C54.5924 4.33784 54.8981 4.21123 55.2168 4.21123C55.5355 4.21123 55.8412 4.33784 56.0666 4.5632C56.2919 4.78857 56.4185 5.09423 56.4185 5.41294ZM41.8322 15.5861L36.528 4.85352C36.4313 4.65389 36.2808 4.48522 36.0934 4.3665C35.906 4.24779 35.6892 4.18375 35.4674 4.1816C35.2456 4.17945 35.0276 4.23926 34.8379 4.35432C34.6483 4.46937 34.4945 4.63509 34.394 4.83281C34.4976 4.60489 34.4354 4.70849 34.3732 4.85352L29.0691 15.5861C28.9221 15.8753 28.8939 16.2106 28.9907 16.5203C29.0875 16.83 29.3015 17.0896 29.5871 17.2436C29.728 17.3173 29.8823 17.3619 30.0408 17.3746C30.1993 17.3874 30.3588 17.368 30.5096 17.3177C30.6605 17.2674 30.7996 17.1872 30.9188 17.082C31.038 16.9767 31.1347 16.8484 31.2032 16.7049L32.0527 14.9852H38.8279L39.6774 16.6842C39.7442 16.8266 39.8391 16.954 39.9565 17.0588C40.0738 17.1636 40.2111 17.2435 40.3602 17.2938C40.5092 17.3441 40.6669 17.3638 40.8237 17.3516C40.9805 17.3394 41.1333 17.2957 41.2728 17.2229C41.4192 17.1547 41.5503 17.0575 41.6582 16.9374C41.7662 16.8172 41.8487 16.6765 41.901 16.5236C41.9532 16.3708 41.9741 16.2089 41.9622 16.0478C41.9504 15.8867 41.9062 15.7297 41.8322 15.5861ZM33.2958 12.5196L35.4714 8.12717L37.6469 12.5196H33.2958ZM22.9362 4.16979H18.5437C18.3844 4.1706 18.2268 4.20292 18.08 4.2649C17.9332 4.32687 17.8002 4.41727 17.6885 4.5309C17.5768 4.64452 17.4886 4.77913 17.4292 4.92695C17.3697 5.07478 17.3401 5.2329 17.342 5.39222V16.1455C17.3418 16.4682 17.4671 16.7782 17.6914 17.0102C17.9156 17.2422 18.2213 17.3779 18.5437 17.3887C18.8678 17.3827 19.1762 17.2485 19.4015 17.0154C19.6268 16.7824 19.7504 16.4696 19.7454 16.1455V13.5349H22.8533C25.3604 13.5349 27.4116 11.4422 27.4116 8.87306C27.4116 6.30387 25.4018 4.23195 22.9362 4.16979ZM22.8326 11.0693H19.7247V6.6561H22.8326C23.4084 6.67077 23.9552 6.91166 24.3546 7.3266C24.7541 7.74155 24.974 8.29715 24.9667 8.87306C24.9736 9.15813 24.9236 9.44171 24.8195 9.70721C24.7155 9.97271 24.5596 10.2148 24.3608 10.4193C24.1621 10.6238 23.9246 10.7866 23.6622 10.8982C23.3998 11.0099 23.1178 11.068 22.8326 11.0693ZM6.81663 3.77612C3.06645 3.77612 0 6.90473 0 10.7585C0 14.6123 3.06645 17.7616 6.81663 17.7616C10.5668 17.7616 13.6125 14.633 13.6125 10.7585C13.6125 6.92545 10.5668 3.77612 6.81663 3.77612ZM6.81663 15.296C4.39248 15.296 2.40343 13.2655 2.40343 10.7792C2.39017 9.59518 2.84756 8.4543 3.6751 7.60734C4.50263 6.76038 5.63259 6.27664 6.81663 6.26243C9.24079 6.26243 11.2091 8.29292 11.2091 10.7792C11.2091 13.2655 9.24079 15.296 6.81663 15.296ZM66.3016 30.0067L63.2559 23.8324C63.2013 23.7164 63.1149 23.6183 63.0066 23.5496C62.8984 23.4809 62.7729 23.4444 62.6447 23.4444C62.5165 23.4444 62.3909 23.4809 62.2827 23.5496C62.1745 23.6183 62.088 23.7164 62.0334 23.8324C62.0956 23.708 62.0542 23.7702 62.0127 23.8324L58.967 30.0067C58.8829 30.1745 58.8683 30.3687 58.9265 30.5471C58.9847 30.7256 59.1109 30.8738 59.2778 30.9598C59.3589 31.0033 59.448 31.0299 59.5397 31.0377C59.6314 31.0456 59.7237 31.0346 59.811 31.0055C59.8983 30.9764 59.9788 30.9298 60.0474 30.8685C60.116 30.8072 60.1714 30.7325 60.2102 30.649L60.6867 29.6545H64.5819L65.0585 30.6283C65.1419 30.7921 65.2865 30.9165 65.461 30.9747C65.6354 31.0328 65.8257 31.02 65.9908 30.9391C66.0731 30.899 66.1466 30.8429 66.2069 30.774C66.2672 30.7052 66.3132 30.625 66.3421 30.5382C66.3711 30.4514 66.3824 30.3596 66.3755 30.2684C66.3685 30.1771 66.3434 30.0881 66.3016 30.0067ZM61.3911 28.2456L62.6343 25.7178L63.8775 28.2456H61.3911ZM48.5245 27.7897H48.5452V29.613H48.5245V27.7897Z" fill="#595C62"/>
<path d="M92.2636 29.9657L89.798 26.8993L89.7773 26.8786L91.7871 24.7445C91.914 24.6087 91.9828 24.4288 91.9789 24.243C91.9751 24.0572 91.8988 23.8803 91.7664 23.75C91.7024 23.6849 91.6258 23.6337 91.5413 23.5993C91.4568 23.5649 91.3662 23.5482 91.275 23.5501C91.1838 23.5521 91.094 23.5727 91.011 23.6106C90.928 23.6485 90.8537 23.703 90.7926 23.7707L87.7468 27.0236V24.2679C87.7468 24.0866 87.6748 23.9127 87.5466 23.7845C87.4184 23.6562 87.2444 23.5842 87.0631 23.5842C86.8818 23.5842 86.7079 23.6562 86.5796 23.7845C86.4514 23.9127 86.3794 24.0866 86.3794 24.2679V30.4423C86.378 30.5334 86.3946 30.624 86.4282 30.7087C86.4618 30.7934 86.5118 30.8707 86.5753 30.9361C86.6388 31.0016 86.7146 31.0538 86.7983 31.09C86.882 31.1261 86.972 31.1454 87.0631 31.1467C87.1547 31.1471 87.2455 31.1289 87.33 31.0934C87.4144 31.0578 87.4909 31.0056 87.5547 30.9398C87.6185 30.8741 87.6684 30.7961 87.7015 30.7106C87.7345 30.6251 87.7499 30.5339 87.7468 30.4423V29.0748L88.8242 27.9353L91.1862 30.8981C91.2523 30.9766 91.3348 31.0395 91.4279 31.0825C91.521 31.1255 91.6224 31.1474 91.7249 31.1467C91.8844 31.1418 92.0376 31.0834 92.16 30.981C92.3035 30.8569 92.3941 30.6827 92.4134 30.4939C92.4327 30.3052 92.3791 30.1163 92.2636 29.9657ZM78.0088 23.4599C77.9176 23.4612 77.8276 23.4805 77.7439 23.5167C77.6603 23.5528 77.5845 23.6051 77.521 23.6705C77.4575 23.7359 77.4075 23.8132 77.3739 23.8979C77.3403 23.9827 77.3237 24.0732 77.3251 24.1643V26.5471H73.8649V24.1643C73.8649 23.983 73.7929 23.8091 73.6647 23.6809C73.5365 23.5527 73.3625 23.4806 73.1812 23.4806C72.9999 23.4806 72.826 23.5527 72.6977 23.6809C72.5695 23.8091 72.4975 23.983 72.4975 24.1643V30.3387C72.4975 30.52 72.5695 30.6939 72.6977 30.8222C72.826 30.9504 72.9999 31.0224 73.1812 31.0224C73.3625 31.0224 73.5365 30.9504 73.6647 30.8222C73.7929 30.6939 73.8649 30.52 73.8649 30.3387V27.956H77.3251V30.3387C77.3237 30.4298 77.3403 30.5204 77.3739 30.6051C77.4075 30.6898 77.4575 30.7671 77.521 30.8325C77.5845 30.898 77.6603 30.9502 77.7439 30.9864C77.8276 31.0225 77.9176 31.0418 78.0088 31.0431C78.1004 31.0435 78.1912 31.0253 78.2757 30.9898C78.3601 30.9542 78.4366 30.902 78.5004 30.8362C78.5642 30.7705 78.6141 30.6925 78.6471 30.607C78.6802 30.5215 78.6956 30.4303 78.6925 30.3387V24.1643C78.6974 24.0723 78.6832 23.9803 78.6508 23.894C78.6185 23.8077 78.5686 23.729 78.5045 23.6628C78.4403 23.5967 78.3631 23.5445 78.2778 23.5096C78.1925 23.4747 78.1009 23.4578 78.0088 23.4599ZM53.4358 28.7226C53.4322 28.1209 53.1943 27.5442 52.7727 27.1149C52.3511 26.6855 51.7789 26.4373 51.1774 26.4227H48.5253V24.8895H52.2548C52.4416 24.8895 52.6208 24.8153 52.7529 24.6832C52.885 24.5511 52.9592 24.3719 52.9592 24.1851C52.9592 23.9982 52.885 23.8191 52.7529 23.6869C52.6208 23.5548 52.4416 23.4806 52.2548 23.4806H47.8208C47.7292 23.4803 47.6384 23.4984 47.554 23.534C47.4695 23.5695 47.3931 23.6218 47.3292 23.6875C47.2654 23.7533 47.2155 23.8312 47.1825 23.9167C47.1495 24.0022 47.134 24.0935 47.1371 24.1851V30.3387C47.1357 30.4298 47.1523 30.5204 47.1859 30.6051C47.2196 30.6898 47.2696 30.7671 47.333 30.8325C47.3965 30.898 47.4723 30.9502 47.556 30.9864C47.6397 31.0225 47.7297 31.0418 47.8208 31.0431H51.1566C51.7594 31.0323 52.3338 30.7852 52.7561 30.3551C53.1785 29.9249 53.4151 29.3461 53.415 28.7433C53.4178 28.7433 53.4204 28.7428 53.423 28.7417C53.4255 28.7407 53.4278 28.7392 53.4297 28.7372C53.4316 28.7353 53.4331 28.733 53.4342 28.7305C53.4352 28.728 53.4358 28.7253 53.4358 28.7226ZM51.1774 29.6135H48.5253V27.8317H51.1774C51.4136 27.8317 51.6403 27.9255 51.8073 28.0926C51.9744 28.2597 52.0683 28.4863 52.0683 28.7226C52.0683 28.9589 51.9744 29.1855 51.8073 29.3526C51.6403 29.5196 51.4136 29.6135 51.1774 29.6135Z" fill="#595C62"/>
</g>
</g>
<defs>
<clipPath id="clip0_34_3319">
<rect width="140" height="32" fill="white"/>
</clipPath>
<clipPath id="clip1_34_3319">
<rect width="140" height="30.2915" fill="white" transform="translate(0 0.854248)"/>
</clipPath>
</defs>
</svg>
