<svg width="104" height="32" viewBox="0 0 104 32" fill="none" xmlns="http://www.w3.org/2000/svg">
<g clip-path="url(#clip0_34_3329)">
<g clip-path="url(#clip1_34_3329)">
<path d="M58.8092 29.2433C56.8895 29.2433 55.3781 27.7336 55.3781 25.7685C55.3781 23.8034 56.8878 22.2937 58.8092 22.2937C60.7296 22.2937 62.2845 23.8034 62.2845 25.7685C62.2845 27.7336 60.7296 29.2433 58.8092 29.2433ZM62.2828 22.2087H61.8724C61.1163 20.8491 59.7152 20.0717 58.0958 20.0717C55.4415 20.0717 52.9809 22.5539 52.9809 25.7685C52.9809 28.983 55.3764 31.4436 58.0958 31.4436C59.7135 31.4436 61.1163 30.6662 61.8724 29.3066H62.2828V31.1616H64.6567V20.3319H62.2828V22.2087ZM75.898 24.6258H70.3531V20.3319H67.9792V31.1633H70.3531V26.8695H75.898V31.1633H78.2719V20.3319H75.898V24.6258ZM86.6212 25.6401L92.2312 20.3319H88.9934L83.9672 25.2947V20.3319H81.5933V31.1633H83.9672V26.1789L89.0367 31.1633H92.5113L86.6212 25.6401ZM47.3509 29.0498H43.5324V26.3307H47.3509C48.4302 26.3307 48.9473 26.8912 48.9473 27.6902C48.9473 28.4893 48.4519 29.0498 47.3509 29.0498ZM47.6312 24.2154H43.5308V22.4455H50.4787V20.3319H41.157V31.1633H47.6295C49.8515 31.1633 51.3628 29.6953 51.3628 27.6885C51.3628 25.6818 49.8331 24.2154 47.6312 24.2154ZM5.33655 13.4208C3.41815 13.4208 1.90846 11.911 1.90846 9.94928C1.90846 7.98752 3.41815 6.47786 5.33655 6.47786C7.25492 6.47786 8.80629 7.98752 8.80629 9.94928C8.80629 11.911 7.25492 13.4208 5.33655 13.4208ZM8.80629 6.39113H8.39595C7.64191 5.03322 6.2407 4.25586 4.62256 4.25586C1.97185 4.25753 -0.485352 6.73641 -0.485352 9.94928C-0.485352 13.1622 1.90846 15.6194 4.62423 15.6194C6.2407 15.6194 7.64191 14.8437 8.39764 13.4841H8.80797V15.3374H11.1801V4.5161H8.80629V6.39113ZM75.3193 13.399C73.3574 13.399 71.9131 11.8894 71.9131 9.94928C71.9131 7.98752 73.3574 6.47786 75.3193 6.47786C77.216 6.47786 78.7254 7.98752 78.7254 9.94928C78.7254 11.8894 77.2592 13.399 75.3193 13.399ZM75.3193 4.25753C72.4733 4.25753 70.1662 6.21931 69.6492 8.82829H67.6441V4.5161H65.2719V15.3391H67.6441V11.0269H69.6492C70.1449 13.6576 72.4733 15.6194 75.3193 15.6194C78.5105 15.6194 81.0977 13.0971 81.0977 9.94928C81.0977 6.7798 78.4886 4.25753 75.3193 4.25753ZM81.9604 6.75808H85.9274V15.3391H88.2991V6.75808H92.266V4.5161H81.9604V6.75808ZM55.8504 4.5161L51.2143 15.3391H53.7149L57.3149 6.69302L60.9148 15.3391H63.5239L58.8878 4.5161H55.8504ZM32.0705 6.47786C34.3993 6.47786 35.0465 8.2678 35.0465 8.2678H37.5471C37.5471 8.2678 36.5545 4.25753 32.0705 4.25753C28.8576 4.25753 26.3354 6.7798 26.3354 9.94928C26.3354 13.1405 28.8576 15.6411 32.0705 15.6411C36.5545 15.6411 37.5471 11.6308 37.5471 11.6308H35.0465C35.0465 11.6308 34.3993 13.4208 32.0705 13.4208C30.1738 13.4208 28.7509 11.911 28.7509 9.94928C28.7509 7.98752 30.1721 6.47786 32.0705 6.47786ZM20.7303 13.2039H16.8919V10.5098H20.7303C21.808 10.5098 22.3251 11.0703 22.3251 11.8677C22.3251 12.6651 21.8296 13.2039 20.7303 13.2039ZM21.0106 8.39623H16.8919V6.64969H23.8565V4.51442H14.5197V15.3374H21.0089C23.2076 15.3374 24.7389 13.8712 24.7389 11.866C24.7389 9.86087 23.1875 8.39623 21.0106 8.39623ZM44.7469 13.399C42.7417 13.399 41.2754 11.8894 41.2754 9.94928C41.2754 7.98752 42.7417 6.47786 44.7469 6.47786C46.6869 6.47786 48.2183 7.98752 48.2183 9.94928C48.2183 11.8894 46.7303 13.399 44.7469 13.399ZM44.7469 4.25753C41.4689 4.25753 38.8833 6.7798 38.8833 9.94928C38.8833 13.0971 41.4706 15.6194 44.7469 15.6194C48.0032 15.6194 50.6322 13.0971 50.6322 9.94928C50.6338 6.7798 47.9598 4.25753 44.7469 4.25753Z" fill="#FF5000"/>
<path fill-rule="evenodd" clip-rule="evenodd" d="M104.484 4.49266C104.484 6.9728 102.474 8.98334 99.9936 8.98334C97.5131 8.98334 95.5029 6.9728 95.5029 4.49266C95.5029 2.01251 97.5131 0.00195312 99.9936 0.00195312C102.474 0.00195312 104.484 2.01251 104.484 4.49266Z" fill="#00F500"/>
</g>
</g>
<defs>
<clipPath id="clip0_34_3329">
<rect width="104" height="32" fill="white"/>
</clipPath>
<clipPath id="clip1_34_3329">
<rect width="104.97" height="31.9962" fill="white" transform="translate(-0.485352 0.00195312)"/>
</clipPath>
</defs>
</svg>
