<svg width="99" height="32" viewBox="0 0 99 32" fill="none" xmlns="http://www.w3.org/2000/svg">
<g clip-path="url(#clip0_34_3334)">
<g clip-path="url(#clip1_34_3334)">
<path fill-rule="evenodd" clip-rule="evenodd" d="M50.6536 17.6449H49.5841L44.2092 7.53223H40.0752V24.5892H43.7959V15.671H45.0118L48.6599 22.9328H51.5779L55.2259 15.671H56.4419V24.5892H60.1626V7.53223H56.0286L50.6536 17.6449ZM93.0292 13.9896H86.3656V11.1876H97.6369V7.53223H82.483V24.5892H93.0292C96.7882 24.5892 98.7757 22.4697 98.7757 19.2775C98.7757 16.0852 96.5461 13.9896 93.0292 13.9896ZM92.715 21.0546H86.3656V17.5232H92.7187C94.1724 17.5232 94.8509 18.01 94.8509 19.2775C94.8509 20.5449 94.1702 21.0568 92.715 21.0568V21.0546ZM80.8234 7.53223H76.0368L69.9226 14.1114H67.763V7.53223H63.8347V24.5892H67.763V17.7667H69.9226L76.0608 24.5892H81.0205L73.0283 15.7841L80.8234 7.53223Z" fill="#DD0A34"/>
<path fill-rule="evenodd" clip-rule="evenodd" d="M15.6835 31.9989C24.5196 31.9989 31.6825 24.836 31.6825 16C31.6825 7.16397 24.5196 0.000976562 15.6835 0.000976562C6.84756 0.000976562 -0.31543 7.16397 -0.31543 16C-0.31543 24.836 6.84756 31.9989 15.6835 31.9989ZM12.0778 15.9992L17.7193 10.5997L27.139 10.6162L23.764 14.1993H19.1299L12.0778 21.3984L4.21979 13.3995L7.04061 10.5997H12.1757L9.45849 13.3995L12.0778 15.9992ZM19.5319 15.1992H27.3897L23.763 18.5988H21.1436L18.3229 21.3984H13.2857L19.5319 15.1992Z" fill="#DD0A34"/>
</g>
</g>
<defs>
<clipPath id="clip0_34_3334">
<rect width="99" height="32" fill="white"/>
</clipPath>
<clipPath id="clip1_34_3334">
<rect width="99.63" height="31.998" fill="white" transform="translate(-0.31543 0.000976562)"/>
</clipPath>
</defs>
</svg>
