<svg width="112" height="11" viewBox="0 0 112 11" fill="none" xmlns="http://www.w3.org/2000/svg">
<path d="M0.511719 9.35181V0.0078125H7.10372V1.15981H3.45572V3.97581H4.92772C5.63172 3.97581 7.74372 3.91181 7.74372 5.25581V8.13581C7.74372 9.22381 6.07972 9.41581 4.92772 9.41581L0.511719 9.35181ZM3.45572 4.99981V8.19981H4.54372C4.67172 8.19981 4.79972 8.13581 4.79972 7.87981V5.31981C4.79972 5.12781 4.73572 4.99981 4.54372 4.99981H3.45572Z" fill="#373737"/>
<path d="M8.96094 9.35181L11.0729 0.0078125H15.4249L17.6009 9.35181H14.7209L14.2729 6.98381H12.2249L11.8409 9.35181H8.96094ZM13.2489 1.35181L12.4809 5.70381H14.2089L13.4409 1.35181H13.2489Z" fill="#373737"/>
<path d="M19.0703 0.0078125H21.9503V3.78381L23.2943 3.71981V0.0078125H26.1743V9.35181H23.2943V5.06381H21.9503V9.35181H19.0703V0.0078125Z" fill="#373737"/>
<path d="M28.3516 0.0078125H31.1676V3.78381L33.0236 0.0078125H35.7756L33.6636 4.35981L36.0956 9.35181H33.4076L31.1676 5.12781V9.35181H28.3516V0.0078125Z" fill="#373737"/>
<path d="M42.4336 9.35181L44.5456 0.0078125H48.9616L51.0736 9.35181H48.1936L47.7456 6.98381H45.7616L45.3136 9.35181H42.4336ZM46.7216 1.28781L45.8896 5.63981H47.6176L46.8496 1.28781H46.7216Z" fill="#373737"/>
<path d="M60.4805 9.35181L62.5925 0.0078125H66.9445L69.0565 9.35181H66.2405L65.7925 6.98381H63.7445L63.2965 9.35181H60.4805ZM64.7045 1.35181L63.9365 5.70381H65.6645L64.8965 1.35181H64.7045Z" fill="#373737"/>
<path d="M85.2461 9.35181L87.3581 0.0078125H91.7101L93.8861 9.35181H91.0061L90.5581 6.98381H88.5101L88.0621 9.35181H85.2461ZM89.4701 1.35181L88.7021 5.70381H90.4301L89.6621 1.41581H89.4701V1.35181Z" fill="#373737"/>
<path d="M73.5362 0.0078125V3.78381H74.8802V0.0078125H77.7602V9.35181H74.8802V5.06381H73.5362V9.35181H70.6562V0.0078125H73.5362Z" fill="#373737"/>
<path d="M55.295 1.09581V3.78381H56.255C56.511 3.78381 56.575 3.71981 56.575 3.59181V1.35181C56.575 1.22381 56.511 1.09581 56.255 1.09581H55.295ZM52.543 9.35181V0.0078125H56.703C59.519 0.0078125 59.391 0.967811 59.391 1.35181V3.27181C59.391 3.52781 59.327 4.42381 57.791 4.35981V4.42381C59.007 4.42381 59.455 4.80781 59.455 5.38381V7.94381C59.455 8.39181 59.263 9.22381 56.703 9.22381H52.543V9.35181ZM55.295 5.06381V8.19981H56.319C56.511 8.19981 56.639 8.07181 56.639 7.94381V5.44781C56.639 5.25581 56.575 5.12781 56.319 5.12781H55.295V5.06381Z" fill="#373737"/>
<path d="M80.1914 0.0078125H85.8874V1.09581H83.0074V9.35181H80.1914V0.0078125Z" fill="#373737"/>
<mask id="mask0_34_3342" style="mask-type:luminance" maskUnits="userSpaceOnUse" x="95" y="0" width="17" height="11">
<path d="M95.168 0.0078125H111.488V10.5038H95.168V0.0078125Z" fill="white"/>
</mask>
<g mask="url(#mask0_34_3342)">
<path d="M95.168 9.35181V0.0078125H99.52C100.48 0.0078125 102.08 0.00781158 102.08 1.35181V4.55181C102.08 5.95981 100.544 5.95981 99.52 6.02381H97.984V9.35181H95.168ZM97.984 1.09581V4.87181H99.2C99.712 4.93581 99.712 4.67981 99.712 4.48781V1.41581C99.712 1.09581 99.392 1.03181 99.2 1.09581H97.984Z" fill="#373737"/>
</g>
<mask id="mask1_34_3342" style="mask-type:luminance" maskUnits="userSpaceOnUse" x="95" y="0" width="17" height="11">
<path d="M95.168 0.0078125H111.488V10.5038H95.168V0.0078125Z" fill="white"/>
</mask>
<g mask="url(#mask1_34_3342)">
<path d="M102.336 10.5038V8.32781H102.528C103.744 8.32781 103.872 7.68781 103.872 7.36781V0.0078125H110.72V8.26381H111.424V10.5038H108.608V9.35181H105.088V10.5038H102.336ZM108.352 1.09581H106.688V7.23981C106.688 7.68781 106.56 8.13581 106.112 8.26381H108.352V1.09581Z" fill="#373737"/>
</g>
</svg>
