<svg width="128" height="32" viewBox="0 0 128 32" fill="none" xmlns="http://www.w3.org/2000/svg">
<g clip-path="url(#clip0_34_3366)">
<g clip-path="url(#clip1_34_3366)">
<path fill-rule="evenodd" clip-rule="evenodd" d="M-0.429688 12.2946C-0.429688 5.49414 5.06299 0.00146484 11.8199 0.00146484V4.44792C7.50418 4.44792 3.97317 7.97893 3.97317 12.2946C3.97317 16.6103 7.50418 20.1413 11.8199 20.1413C16.1355 20.1413 19.6665 16.6539 19.6665 12.251H24.113C24.113 19.0515 18.6203 24.5442 11.8199 24.5442C5.06299 24.5877 -0.429688 19.0515 -0.429688 12.2946Z" fill="#006C3F"/>
<path d="M6.41406 12.2943C6.41406 9.28641 8.85525 6.84521 11.8631 6.84521C14.871 6.84521 17.3122 9.28641 17.3122 12.2943C17.3122 15.3022 14.871 17.7434 11.8631 17.7434C8.85525 17.7434 6.41406 15.3022 6.41406 12.2943Z" fill="#50B848"/>
<path d="M15.6562 5.3628C15.6562 3.61909 17.0512 2.22412 18.7949 2.22412C20.5386 2.22412 21.9336 3.61909 21.9336 5.3628C21.9336 7.1065 20.5386 8.50147 18.7949 8.50147C17.0512 8.50147 15.6562 7.1065 15.6562 5.3628Z" fill="#006C3F"/>
<path d="M115.091 8.28288L114.698 10.201C113.783 14.3423 113.434 15.6936 112.649 19.8349L112.475 19.9657L109.947 20.0529L109.816 19.8785L110.818 15.6065L111.124 14.2115C110.034 14.1679 108.944 14.1679 107.854 14.1679C107.026 14.1679 106.372 14.1679 105.718 14.2115C105.369 15.868 105.021 17.3502 104.585 19.8349L104.41 19.9657L101.882 20.0529L101.751 19.8785L102.754 15.6065L103.146 13.732C103.8 10.8113 103.931 10.1574 104.323 7.45462L104.498 7.28025C105.675 7.14947 105.936 7.06229 107.113 6.84432L107.244 7.01869L106.982 8.23929L106.59 10.1574L106.198 11.9883C107.113 11.9883 108.029 12.0319 108.944 12.0319C109.903 12.0319 110.557 12.0319 111.603 11.9883C111.952 10.4189 112.083 9.54707 112.388 7.49821L112.562 7.32384C113.739 7.19306 114.001 7.10588 115.178 6.88792L115.309 7.06229L115.091 8.28288ZM83.7038 13.8192C83.8782 13.0781 84.009 12.3806 84.009 11.6831C84.009 9.15473 82.3961 8.7624 81.4806 8.7624C77.5573 8.7624 77.0777 14.8218 77.0777 15.7372C77.0777 17.7425 78.2547 18.6143 79.6061 18.6143C82.2653 18.6143 83.2679 15.868 83.7038 13.8192ZM86.2758 14.6038C85.7091 16.7399 84.2269 20.4452 79.5189 20.4452C76.2059 20.4452 74.375 18.7451 74.375 15.3449C74.375 14.909 74.4186 14.4295 74.4622 13.9063C74.4622 13.7756 74.5058 13.6448 74.5058 13.514C75.4648 7.93414 77.906 2.61583 83.2679 2.57224C83.9654 2.57224 85.4039 2.48505 86.4066 2.26709L86.0578 4.49032C85.0552 4.75187 83.4859 4.88265 82.614 4.88265C81.4806 4.88265 80.6959 5.31858 80.1728 5.84169C79.9113 6.10325 79.6933 6.3648 79.5189 6.62636C79.3446 6.88792 79.2574 7.10588 79.1702 7.28025C79.8677 7.06229 80.6523 6.93151 81.5242 6.93151C84.7937 6.93151 86.7117 8.7624 86.7117 11.9447C86.6681 12.8165 86.5374 13.732 86.2758 14.6038Z" fill="#50B848"/>
<path fill-rule="evenodd" clip-rule="evenodd" d="M96.6529 16.7843C96.3914 17.0023 96.1298 17.2639 95.8247 17.4382C95.1708 17.8306 94.3425 18.0049 93.6886 18.0049C91.4218 18.0049 90.8115 16.0869 90.8115 14.9099C90.8115 14.7791 90.8551 11.5968 93.4707 9.80952C94.9528 8.80689 96.5221 8.76329 97.3504 8.76329C97.7427 8.76329 98.0915 8.80689 98.4838 8.80689L96.6529 16.7843ZM101.405 7.10677L101.274 6.88881L97.8735 6.84521C95.6067 6.84521 92.3808 6.97599 90.114 9.67874C89.0678 10.8993 88.1523 13.0354 88.1523 14.997C88.1523 18.0921 90.2012 19.8794 92.7296 19.8794C94.822 19.8794 95.9118 18.964 96.3478 18.6152L96.1734 19.6179L96.3042 19.7922L98.6146 19.7487L98.789 19.5743C99.2685 16.61 99.4429 15.6945 100.315 11.8584L101.405 7.10677Z" fill="#50B848"/>
<path fill-rule="evenodd" clip-rule="evenodd" d="M39.7202 13.253C39.2407 15.4327 38.7176 16.0865 38.4561 16.4353C38.0201 16.9584 37.4098 17.3943 36.6688 17.3943C35.8405 17.3943 35.1866 17.002 34.9251 16.2173C34.8379 16.0429 34.7943 15.7378 34.7943 15.1275C34.7943 13.9941 35.3174 11.2042 36.2328 9.98356C36.4944 9.67841 37.1047 8.98093 38.2381 8.98093C39.6767 8.98093 39.9818 10.2451 39.9818 11.1606C39.9818 11.9452 39.851 12.6427 39.7202 13.253ZM43.7744 14.2121C43.9923 13.3838 44.0795 12.5555 44.0795 11.7273C44.0795 10.2451 43.7744 8.85015 42.5102 7.71674C41.3332 6.67052 39.7638 6.32178 38.2381 6.32178C31.83 6.32178 30.6094 12.2504 30.6094 14.5172C30.6094 16.3481 31.1325 17.6995 32.2223 18.6585C33.3993 19.7047 35.143 19.9227 36.4072 19.9227C38.2817 19.9227 39.8946 19.5304 41.2896 18.3534C42.5974 17.3943 43.382 15.825 43.7744 14.2121Z" fill="#006C3F"/>
<path d="M53.7977 9.76639H53.5362C53.3182 10.769 53.0567 11.9024 52.6207 13.6897L52.2284 15.5206C51.7925 17.6131 51.7053 18.1362 51.4437 19.8799L51.2694 20.0107L46.9973 20.0979L46.8665 19.9235C47.6076 17.0028 47.7384 16.4361 48.4794 13.2974L48.741 12.0768C48.959 11.0742 49.0897 10.4203 49.2205 9.80998H47.7384L44.8612 9.89716L44.7305 9.6792L45.5587 6.75849L45.7767 6.62771H54.1901L58.4622 6.54053L58.5929 6.67131L57.8083 9.59202L57.5903 9.76639L55.1491 9.6792H53.7977V9.76639ZM68.4449 9.72279L63.7369 9.76639C63.7369 9.76639 63.1702 11.6409 62.6471 13.7333C62.124 15.8258 61.5572 18.1362 61.2085 19.8363L61.0341 19.9671L57.0236 20.0543L56.8928 19.8799C57.7647 16.9592 57.9391 16.3925 58.7673 13.2538L59.0725 12.0332C59.334 10.987 59.5084 10.3331 59.6392 9.6792L60.3366 6.75849L60.511 6.62771H68.6193L72.8913 6.54053L73.0657 6.67131C73.0657 6.67131 72.2375 10.7254 71.7143 13.4282C71.1912 16.1745 70.6245 19.7491 70.6245 19.7491L70.4502 19.8799L66.2653 19.9671L66.1345 19.7927C66.7884 16.9156 67.2679 14.7795 67.6166 13.1666C68.0526 11.5973 68.2705 10.4203 68.4449 9.72279Z" fill="#006C3F"/>
<path d="M120.103 12.2937C120.713 11.7706 121.018 11.4654 121.846 10.6807C122.718 9.85249 124.811 7.67285 125.203 7.23693L125.465 7.10615H128.298L128.385 7.32411C128.124 7.54207 127.993 7.62926 127.034 8.50111C126.642 8.80626 126.38 9.06782 125.901 9.50374L122.675 12.468L126.511 19.7916L126.38 20.0096L123.634 20.0968L123.416 19.966C122.762 18.4402 122.587 18.0915 121.716 16.2606L119.972 12.7296C119.449 15.1708 119.1 16.6965 118.49 19.8788L118.315 20.0096L115.787 20.0968L115.656 19.9224L116.659 15.6503L117.051 13.7758C117.705 10.8551 117.836 10.2012 118.228 7.49848L118.403 7.32411C119.58 7.19333 119.841 7.10615 121.018 6.88818L121.149 7.06255L120.887 8.28315L120.495 10.2012L120.103 12.2937Z" fill="#50B848"/>
<path d="M31.1764 22.7124H34.6638L34.533 23.5407H32.0482L31.7867 25.11H32.4842C33.138 25.11 33.6612 25.2408 34.0099 25.5023C34.3586 25.7639 34.533 26.1562 34.533 26.6793C34.533 27.1589 34.4022 27.5948 34.1843 27.9435C33.9663 28.2923 33.6612 28.5974 33.2252 28.7718C32.7893 28.9462 32.3534 29.0769 31.7867 29.0769H30.043L31.1764 22.7124ZM31.8739 28.2923C32.397 28.2923 32.8329 28.1615 33.0945 27.8999C33.356 27.6384 33.5304 27.2896 33.5304 26.8537C33.5304 26.505 33.4432 26.287 33.2688 26.1562C33.0945 26.0254 32.7893 25.9383 32.397 25.9383H31.6559L31.22 28.2923H31.8739ZM35.4485 28.7718C35.2741 28.5102 35.1869 28.1179 35.1869 27.5948C35.1869 26.9845 35.3177 26.4178 35.5356 25.9383C35.7536 25.4587 36.1024 25.0664 36.4947 24.7613C36.887 24.4561 37.3665 24.3253 37.8897 24.3253C38.1076 24.3253 38.3692 24.3253 38.6307 24.3689C38.9359 24.4125 39.1974 24.4561 39.459 24.5433L38.6743 29.0769H37.8897L37.9332 28.3359H37.8897C37.4537 28.9026 36.887 29.1641 36.2331 29.1641C35.8844 29.1641 35.6228 29.0333 35.4485 28.7718ZM37.2358 28.2051C37.4537 28.0307 37.6281 27.8563 37.8025 27.5948C37.9768 27.3332 38.064 27.0717 38.1076 26.7665L38.3692 25.2408C38.1948 25.1972 38.0204 25.1972 37.8461 25.1972C37.4973 25.1972 37.2358 25.2844 36.9742 25.5023C36.7127 25.7203 36.4947 25.9819 36.3639 26.3742C36.2331 26.7665 36.1459 27.1589 36.1459 27.5948C36.1459 28.2051 36.3203 28.5102 36.6255 28.5102C36.7998 28.423 37.0178 28.3359 37.2358 28.2051ZM44.5157 24.4561L43.6875 29.0769H42.772L43.1208 27.0717H41.3335L40.9847 29.1205H40.0693L40.8976 24.4997H41.813L41.4643 26.3306H43.2516L43.6003 24.4561H44.5157ZM47.4365 26.7229L49.0494 29.0769H47.9596L47.0441 27.682L46.4774 26.8537L46.3902 27.4204C46.3902 27.5076 46.3466 27.6384 46.303 27.8563L46.0851 29.1205H45.1696L45.9979 24.4997H46.9133L46.6954 25.7203C46.6518 25.8511 46.6518 26.0254 46.6082 26.287L46.5646 26.5486L47.3057 25.8075L48.6135 24.4997H49.7905L47.4365 26.7229ZM51.9701 28.9026C51.7085 28.6846 51.5778 28.3795 51.5778 27.9871C51.5778 27.5512 51.7085 27.1589 52.0137 26.9409C52.3188 26.6793 52.7984 26.4614 53.4522 26.287C53.7138 26.1998 53.9318 26.1126 54.0625 25.9819C54.1933 25.8511 54.2805 25.7203 54.2805 25.5459C54.2805 25.3716 54.2369 25.2844 54.1061 25.1972C53.9754 25.11 53.801 25.0664 53.5394 25.0664C53.1035 25.0664 52.7112 25.1536 52.3188 25.3716L52.4496 24.5869C52.624 24.4997 52.8419 24.4561 53.0599 24.4125C53.2779 24.3689 53.5394 24.3253 53.7574 24.3253C54.1933 24.3253 54.5421 24.4125 54.8036 24.6305C55.0652 24.8484 55.196 25.11 55.196 25.5023C55.196 25.8947 55.0652 26.1998 54.8472 26.4178C54.5857 26.6357 54.2369 26.8101 53.7138 26.9409C53.3215 27.0717 53.0163 27.1589 52.7984 27.3332C52.624 27.464 52.5368 27.682 52.5368 27.8999C52.5368 28.2487 52.7984 28.4666 53.3651 28.4666C53.801 28.4666 54.2369 28.3795 54.6292 28.1615L54.4985 28.9462C54.0625 29.1205 53.6266 29.2077 53.1035 29.2077C52.624 29.2077 52.2316 29.1205 51.9701 28.9026ZM56.1986 28.7718C55.937 28.4666 55.7627 28.0307 55.7627 27.4204C55.7627 26.8101 55.8498 26.287 56.0678 25.8075C56.2858 25.328 56.5909 24.9792 56.9397 24.7177C57.332 24.4561 57.7679 24.3253 58.2474 24.3253C58.8141 24.3253 59.2065 24.4997 59.468 24.8049C59.7296 25.11 59.904 25.5459 59.904 26.1562C59.904 26.7665 59.8168 27.2896 59.5988 27.7692C59.3808 28.2487 59.0757 28.5974 58.727 28.859C58.3782 29.1205 57.8987 29.2513 57.4192 29.2513C56.8525 29.2077 56.4601 29.0769 56.1986 28.7718ZM58.2474 28.1615C58.4654 27.9435 58.6398 27.682 58.7706 27.3332C58.9013 26.9845 58.9449 26.5922 58.9449 26.1562C58.9449 25.8075 58.9013 25.5023 58.7706 25.3716C58.6398 25.2408 58.4654 25.11 58.2038 25.11C57.9423 25.11 57.6807 25.1972 57.4628 25.4151C57.2448 25.6331 57.0704 25.8947 56.9397 26.2434C56.8089 26.5922 56.7653 26.9845 56.7653 27.4204C56.7653 27.7692 56.8089 28.0307 56.9397 28.2051C57.0704 28.3795 57.2448 28.4666 57.5064 28.4666C57.7679 28.4666 58.0295 28.3795 58.2474 28.1615ZM61.4297 24.4561H62.2144L62.1708 25.1972H62.2144C62.4323 24.9356 62.6939 24.7177 62.9554 24.5433C63.217 24.3689 63.5222 24.3253 63.7837 24.3253C64.3504 24.3253 64.6556 24.6305 64.6992 25.1972H64.7428C64.9607 24.892 65.2223 24.6741 65.5274 24.5433C65.789 24.4125 66.0941 24.3253 66.3557 24.3253C66.6608 24.3253 66.8788 24.4125 67.0532 24.5869C67.2275 24.7613 67.3147 25.0664 67.3147 25.4151C67.3147 25.5895 67.3147 25.7639 67.2711 25.9383L66.7044 29.0333H65.789L66.3121 26.1562C66.3557 25.9383 66.3557 25.7203 66.3557 25.5459C66.3557 25.3716 66.3121 25.2408 66.2685 25.1972C66.2249 25.1536 66.1377 25.11 66.0069 25.11C65.789 25.11 65.571 25.1972 65.3966 25.328C65.1787 25.5023 65.0043 25.7203 64.8735 25.9819C64.6992 26.2434 64.612 26.5486 64.5684 26.8973L64.176 29.0769H63.2606L63.7837 26.1998C63.8273 25.9819 63.8273 25.7639 63.8273 25.5895C63.8273 25.4152 63.7837 25.2844 63.7401 25.1972C63.6965 25.11 63.6093 25.11 63.4786 25.11C63.2606 25.11 63.0426 25.1972 62.8683 25.328C62.6503 25.5023 62.4759 25.7203 62.3452 25.9819C62.2144 26.2434 62.0836 26.5486 62.04 26.8973L61.6477 29.0769H60.6014L61.4297 24.4561ZM68.5353 28.7718C68.2738 28.4666 68.0994 28.0307 68.0994 27.4204C68.0994 26.8101 68.1866 26.287 68.4045 25.8075C68.6225 25.328 68.9277 24.9792 69.2764 24.7177C69.6687 24.4561 70.1047 24.3253 70.5842 24.3253C71.1509 24.3253 71.5432 24.4997 71.8048 24.8049C72.0663 25.11 72.2407 25.5459 72.2407 26.1562C72.2407 26.7665 72.1535 27.2896 71.9355 27.7692C71.7176 28.2487 71.4124 28.5974 71.0637 28.859C70.6714 29.1205 70.2354 29.2513 69.7559 29.2513C69.1892 29.2077 68.7969 29.0769 68.5353 28.7718ZM70.5842 28.1615C70.8021 27.9435 70.9765 27.682 71.1073 27.3332C71.2381 26.9845 71.2817 26.5922 71.2817 26.1562C71.2817 25.8075 71.2381 25.5023 71.1073 25.3716C70.9765 25.2408 70.8021 25.11 70.5406 25.11C70.279 25.11 70.0175 25.1972 69.7995 25.4151C69.5815 25.6331 69.4072 25.8947 69.2764 26.2434C69.1456 26.5922 69.102 26.9845 69.102 27.4204C69.102 27.7692 69.1456 28.0307 69.2764 28.2051C69.4072 28.3795 69.5815 28.4666 69.8431 28.4666C70.1047 28.4666 70.3662 28.3795 70.5842 28.1615ZM76.6436 26.8973C76.7743 27.0717 76.8179 27.2896 76.8179 27.5512C76.8179 27.8999 76.7307 28.2051 76.5128 28.423C76.3384 28.6846 76.0769 28.859 75.7281 28.9898C75.3794 29.1205 75.0306 29.2077 74.5947 29.2077C73.9844 29.2077 73.4177 29.1205 72.8946 28.9026L73.6357 24.6741C73.8972 24.5869 74.2024 24.4997 74.5075 24.4125C74.8127 24.3689 75.1178 24.3253 75.423 24.3253C75.9461 24.3253 76.3384 24.4125 76.6 24.5869C76.8615 24.7613 76.9923 25.0228 76.9923 25.328C76.9923 25.5895 76.9051 25.8511 76.7743 26.069C76.6436 26.287 76.4256 26.4614 76.2076 26.5922C76.382 26.6357 76.5128 26.7665 76.6436 26.8973ZM75.5101 28.2923C75.7281 28.1615 75.8589 27.9435 75.8589 27.6384C75.8589 27.4204 75.8153 27.246 75.6845 27.1589C75.5537 27.0717 75.3358 26.9845 75.0742 26.9845C74.8563 26.9845 74.5511 27.0281 74.2024 27.0717L73.9844 28.3795C74.1588 28.4666 74.4203 28.5102 74.7255 28.5102C75.0306 28.5102 75.2922 28.423 75.5101 28.2923ZM74.5075 25.1972L74.2896 26.4614L75.1614 26.3306C75.4666 26.287 75.6845 26.1998 75.8153 26.069C75.9461 25.9383 76.0333 25.7639 76.0333 25.5459C76.0333 25.3716 75.9897 25.2408 75.8589 25.1972C75.7281 25.11 75.5537 25.0664 75.3358 25.0664C75.0742 25.0664 74.7691 25.11 74.5075 25.1972ZM78.4745 29.1641C78.2565 29.1205 77.9513 29.0333 77.6462 28.9026L78.4309 24.4561H79.3463L79.0847 25.9383C79.0847 25.9819 79.0412 26.1126 78.9976 26.287C79.1719 26.069 79.3899 25.8511 79.6515 25.7203C79.913 25.5895 80.1746 25.5023 80.4797 25.5023C80.8721 25.5023 81.1336 25.6331 81.3516 25.8511C81.5259 26.069 81.6567 26.3742 81.6567 26.8101C81.6567 27.2896 81.5695 27.682 81.3516 28.0743C81.1336 28.423 80.8721 28.7282 80.4797 28.9462C80.131 29.1641 79.695 29.2513 79.2155 29.2513C78.954 29.2077 78.6924 29.2077 78.4745 29.1641ZM80.0002 28.2051C80.2182 28.0743 80.3489 27.8563 80.4797 27.5948C80.6105 27.3332 80.6541 27.0717 80.6541 26.8101C80.6541 26.6357 80.6105 26.4614 80.5233 26.3306C80.4361 26.1998 80.3053 26.1562 80.131 26.1562C79.913 26.1562 79.7386 26.2434 79.5207 26.3742C79.3027 26.505 79.1719 26.7229 79.0412 26.9409C78.9104 27.1589 78.8232 27.4204 78.7796 27.6384L78.6488 28.2923C78.7796 28.3359 78.9976 28.3795 79.2591 28.3795C79.5643 28.4666 79.7822 28.3795 80.0002 28.2051ZM83.0081 24.4561H83.9671L83.1389 29.0769H82.2234L83.0081 24.4561ZM85.798 26.5922L84.8826 24.4561H85.8416L86.2339 25.4151C86.3211 25.5895 86.3647 25.7639 86.4519 25.9819L86.5827 25.7639C86.6699 25.6331 86.7571 25.5023 86.8007 25.4151L87.4981 24.4125H88.588L86.8878 26.5922L87.9341 29.0333H86.975L86.4083 27.6384L86.2339 27.2025L85.9724 27.5948L84.8826 29.0333H83.7928L85.798 26.5922ZM94.6473 24.7177C94.8217 24.9792 94.9525 25.328 94.9525 25.8075C94.9525 26.4178 94.8217 27.0281 94.6038 27.5076C94.3858 28.0307 94.0806 28.423 93.6883 28.7282C93.296 29.0333 92.86 29.1641 92.3805 29.1641C92.119 29.1641 91.8574 29.1205 91.5523 29.0333L91.2035 30.995H90.2881L91.4215 24.4561H92.2062L92.1626 25.1972H92.2062C92.6857 24.6305 93.2088 24.3253 93.8191 24.3253C94.2114 24.3689 94.473 24.4561 94.6473 24.7177ZM93.1652 28.1179C93.4267 27.8999 93.6447 27.5948 93.7755 27.246C93.9063 26.8537 93.9935 26.4614 93.9935 26.0254C93.9935 25.4587 93.8191 25.1536 93.4703 25.1536C93.2524 25.1536 93.0344 25.2408 92.8164 25.3716C92.5985 25.5459 92.4241 25.7203 92.2497 25.9819C92.0754 26.2434 91.9882 26.5486 91.9446 26.8537L91.683 28.3359C91.8574 28.423 92.0318 28.423 92.2497 28.423C92.5985 28.4666 92.9036 28.3359 93.1652 28.1179ZM98.7015 26.9845C98.1784 27.3332 97.4373 27.464 96.4782 27.464C96.4782 27.7692 96.5654 28.0307 96.7398 28.2051C96.9142 28.3795 97.1757 28.4666 97.4809 28.4666C97.7424 28.4666 97.9604 28.423 98.1348 28.3795C98.3091 28.3359 98.5271 28.2487 98.7015 28.1615L98.5707 28.9462C98.2219 29.0769 97.786 29.1641 97.2629 29.1641C96.6962 29.1641 96.2603 28.9898 95.9551 28.6846C95.65 28.3795 95.4756 27.9435 95.4756 27.3332C95.4756 26.7665 95.6064 26.2434 95.8243 25.8075C96.0423 25.328 96.3475 24.9792 96.7398 24.7177C97.1321 24.4561 97.5681 24.3253 98.0476 24.3253C98.4835 24.3253 98.8322 24.4125 99.0502 24.6305C99.2682 24.8484 99.3989 25.1536 99.3989 25.5459C99.4861 26.1562 99.2246 26.6357 98.7015 26.9845ZM97.3937 25.328C97.1757 25.5023 96.9578 25.6767 96.827 25.9383C96.6962 26.1998 96.5654 26.505 96.5218 26.8101C97.1757 26.8101 97.6988 26.6793 98.0476 26.4614C98.3963 26.2434 98.5707 25.9819 98.5707 25.5895C98.5707 25.2408 98.3963 25.0664 98.0476 25.0664C97.8732 25.11 97.6116 25.1536 97.3937 25.328ZM106.069 29.0769H105.284L105.328 28.3359H105.284C105.066 28.5974 104.804 28.8154 104.543 28.9898C104.281 29.1641 103.976 29.2077 103.715 29.2077C103.148 29.2077 102.843 28.9026 102.799 28.3359H102.756C102.538 28.641 102.276 28.859 101.971 28.9898C101.709 29.1205 101.404 29.2077 101.143 29.2077C100.838 29.2077 100.576 29.1205 100.402 28.9462C100.227 28.7718 100.14 28.4666 100.14 28.1179C100.14 27.9435 100.14 27.7692 100.184 27.5512L100.75 24.4561H101.709L101.186 27.3332C101.143 27.5512 101.143 27.7692 101.143 27.9435C101.143 28.1179 101.186 28.2487 101.23 28.3359C101.273 28.423 101.361 28.423 101.491 28.423C101.709 28.423 101.927 28.3359 102.145 28.2051C102.363 28.0307 102.538 27.8127 102.668 27.5512C102.843 27.2896 102.93 26.9845 102.974 26.6357L103.366 24.4561H104.281L103.802 27.3332C103.758 27.5512 103.758 27.7692 103.758 27.9435C103.758 28.1179 103.802 28.2487 103.845 28.2923C103.889 28.3795 103.976 28.3795 104.107 28.3795C104.325 28.3795 104.543 28.2923 104.761 28.1615C104.979 27.9871 105.153 27.7692 105.284 27.5076C105.458 27.246 105.546 26.9409 105.589 26.5922L105.981 24.4125H106.94L106.069 29.0769ZM110.689 26.9845C110.166 27.3332 109.425 27.464 108.466 27.464C108.466 27.7692 108.553 28.0307 108.728 28.2051C108.902 28.3795 109.164 28.4666 109.469 28.4666C109.73 28.4666 109.948 28.423 110.123 28.3795C110.297 28.3359 110.515 28.2487 110.689 28.1615L110.559 28.9462C110.21 29.0769 109.774 29.1641 109.251 29.1641C108.684 29.1641 108.248 28.9898 107.943 28.6846C107.638 28.3795 107.464 27.9435 107.464 27.3332C107.464 26.7665 107.594 26.2434 107.812 25.8075C108.03 25.328 108.335 24.9792 108.728 24.7177C109.12 24.4561 109.556 24.3253 110.036 24.3253C110.471 24.3253 110.82 24.4125 111.038 24.6305C111.256 24.8484 111.387 25.1536 111.387 25.5459C111.474 26.1562 111.213 26.6357 110.689 26.9845ZM109.382 25.328C109.164 25.5023 108.946 25.6767 108.815 25.9383C108.684 26.1998 108.553 26.505 108.51 26.8101C109.164 26.8101 109.687 26.6793 110.036 26.4614C110.384 26.2434 110.559 25.9819 110.559 25.5895C110.559 25.2408 110.384 25.0664 110.036 25.0664C109.818 25.11 109.6 25.1536 109.382 25.328ZM116.4 24.4561L115.572 29.0769H114.656L115.005 27.0717H113.218L112.869 29.0769H111.954L112.782 24.4561H113.697L113.349 26.287H115.136L115.485 24.4125H116.4V24.4561ZM117.446 28.9462C117.272 28.7718 117.185 28.4666 117.185 28.1179C117.185 27.9435 117.185 27.7692 117.228 27.5512L117.795 24.4561H118.711L118.187 27.3768C118.144 27.5948 118.144 27.7692 118.144 27.9435C118.144 28.1179 118.187 28.2487 118.231 28.3359C118.318 28.423 118.405 28.4666 118.536 28.4666C118.885 28.4666 119.234 28.2923 119.539 27.9435C119.844 27.5948 120.018 27.1589 120.105 26.6357L120.498 24.4561H121.413L120.585 29.0769H119.8L119.888 28.3359H119.844C119.626 28.641 119.364 28.8154 119.103 28.9898C118.841 29.1641 118.536 29.2077 118.144 29.2077C117.839 29.2077 117.621 29.1205 117.446 28.9462ZM122.416 28.9462C122.242 28.7718 122.154 28.4666 122.154 28.1179C122.154 27.9435 122.154 27.7692 122.198 27.5512L122.765 24.4561H123.68L123.157 27.3768C123.113 27.5948 123.113 27.7692 123.113 27.9435C123.113 28.1179 123.157 28.2487 123.201 28.3359C123.288 28.423 123.375 28.4666 123.506 28.4666C123.854 28.4666 124.203 28.2923 124.508 27.9435C124.813 27.5948 124.988 27.1589 125.075 26.6357L125.467 24.4561H126.383L125.555 29.0769H124.77L124.813 28.3359H124.77C124.552 28.641 124.29 28.8154 124.029 28.9898C123.767 29.1641 123.462 29.2077 123.07 29.2077C122.852 29.2077 122.59 29.1205 122.416 28.9462ZM123.724 23.4971L123.811 22.8432C124.116 23.0176 124.465 23.0611 124.857 23.0611C125.249 23.0611 125.598 22.974 125.903 22.8432L125.816 23.4971C125.511 23.6279 125.162 23.715 124.726 23.715C124.334 23.7586 123.985 23.6714 123.724 23.4971Z" fill="#006C3F"/>
</g>
</g>
<defs>
<clipPath id="clip0_34_3366">
<rect width="128" height="32" fill="white"/>
</clipPath>
<clipPath id="clip1_34_3366">
<rect width="128.86" height="31.997" fill="white" transform="translate(-0.429688 0.00146484)"/>
</clipPath>
</defs>
</svg>
