<svg width="120" height="32" viewBox="0 0 120 32" fill="none" xmlns="http://www.w3.org/2000/svg">
  <mask id="mask0_2002_457" style="mask-type:luminance" maskUnits="userSpaceOnUse" x="0" y="0" width="29" height="32">
    <path d="M0.453125 0.0908203H28.7357V31.909H0.453125V0.0908203Z" fill="white" />
  </mask>
  <g mask="url(#mask0_2002_457)">
    <path d="M10.1525 18.1279L13.2771 15.067V12.981L10.1525 16.0355V18.1279ZM10.1525 10.3643L13.2771 7.28873V5.33L10.1525 8.37818V10.3643ZM10.1525 12.9314L13.2771 9.86982V7.90346L10.1525 10.958V12.9384V12.9314ZM9.26163 5.35164L8.83718 4.95518V0.0908203H8.37072V4.48873L7.96027 4.08591V0.0908203H7.48681V3.62646L7.06936 3.21537V0.0908203H6.60291V4.72927L9.74209 7.79082V0.0908203H9.26863V5.35164H9.26163ZM10.1525 15.4978L13.2771 12.4363V10.4705L10.1525 13.5251V15.5048V15.4978ZM6.59527 15.0664L9.73509 18.1279V16.0355L6.59591 12.981L6.59527 15.0664ZM12.8106 3.216L12.3938 3.62646V0.0908203H11.9267V4.09291L11.5029 4.48873V0.0908203H11.0358V4.94818L10.626 5.35164V0.0908203H10.1525V7.79782L13.2771 4.72927V0.0908203H12.8106V3.216ZM6.59591 7.28873L9.73509 10.3643V8.38518L6.59591 5.323V7.28873ZM6.59591 9.86982L9.73509 12.9307V10.9516L6.59591 7.91109V9.86982ZM6.59591 12.4363L9.73509 15.4978V13.5251L6.59591 10.4775V12.4439V12.4363ZM25.2414 14.0552H17.633C17.7745 13.8364 17.8602 13.5862 17.8824 13.3265C17.9046 13.0669 17.8626 12.8057 17.7603 12.5661C17.6141 12.217 17.3518 11.9292 17.0177 11.7514C16.6836 11.5736 16.2984 11.5168 15.9272 11.5905C15.556 11.6643 15.2217 11.8641 14.981 12.1562C14.7403 12.4482 14.608 12.8145 14.6065 13.1929C14.6065 13.5461 14.7197 13.8719 14.9106 14.1405C14.8396 14.1879 14.7812 14.252 14.7406 14.3272C14.7 14.4025 14.6784 14.4865 14.6777 14.5719C14.6777 14.7552 14.7764 14.9181 14.9106 15.0097C14.7365 15.2539 14.6329 15.5413 14.6114 15.8405C14.5898 16.1396 14.651 16.4389 14.7884 16.7056C14.9257 16.9722 15.1338 17.1959 15.3899 17.352C15.6459 17.5082 15.9401 17.5908 16.24 17.5908C16.4555 17.5919 16.6691 17.5505 16.8686 17.469C17.0681 17.3875 17.2496 17.2674 17.4027 17.1157C17.5558 16.964 17.6774 16.7836 17.7607 16.5848C17.844 16.386 17.8873 16.1728 17.8882 15.9573C17.8882 15.6391 17.7959 15.3425 17.6336 15.095H23.2973V15.4412H22.7309V15.9223H23.2973V16.4174H22.7309V17.3363H23.2973V16.9265H24.1245V17.3363H24.6826V16.4174H24.1239V15.9223H24.6826V15.4412H24.1239V15.088H25.2414C25.2934 15.088 25.3449 15.0777 25.393 15.0578C25.441 15.0379 25.4847 15.0087 25.5215 14.9718C25.5582 14.935 25.5874 14.8913 25.6072 14.8432C25.6271 14.7951 25.6373 14.7436 25.6372 14.6915V14.4516C25.6354 14.3472 25.5931 14.2475 25.5193 14.1735C25.4455 14.0996 25.3458 14.0571 25.2414 14.0552ZM17.0883 15.9643C17.0798 16.1836 16.9867 16.391 16.8285 16.5432C16.6704 16.6953 16.4595 16.7803 16.24 16.7803C16.0205 16.7803 15.8096 16.6953 15.6515 16.5432C15.4933 16.391 15.4002 16.1836 15.3917 15.9643C15.3917 15.795 15.4484 15.6321 15.533 15.4978L15.7735 15.102C15.697 15.0367 15.6358 14.9553 15.5943 14.8637C15.5527 14.7721 15.5318 14.6725 15.533 14.5719C15.533 14.3594 15.6246 14.1755 15.7665 14.0482L15.54 13.6524C15.4455 13.5154 15.3961 13.3523 15.3987 13.1859C15.3987 12.9608 15.4881 12.745 15.6473 12.5859C15.8064 12.4267 16.0223 12.3373 16.2473 12.3373C16.4724 12.3373 16.6882 12.4267 16.8474 12.5859C17.0065 12.745 17.0959 12.9608 17.0959 13.1859C17.0959 13.5321 16.6995 14.3524 16.6995 14.3524V14.7908C16.6931 14.7978 17.0883 15.6181 17.0883 15.9643ZM3.75391 13.0586V15.1014C3.75391 17.0461 4.60218 18.3048 5.09727 18.7859L8.33572 21.9677C9.24063 22.8516 9.39654 23.1412 9.60145 23.6433V21.381C9.60145 19.3726 8.58327 18.595 8.05318 18.0783C6.82945 16.8908 6.00918 16.0992 5.35182 15.4412C4.64438 14.7793 4.09779 13.9643 3.75391 13.0586ZM8.05254 23.1272C6.82881 21.9251 6.00854 21.1475 5.35118 20.4901C4.69322 19.8937 4.1535 19.1787 3.76027 18.3825V20.1433C3.73914 21.4999 4.21439 22.8174 5.09663 23.8482L8.33572 27.009C9.24063 27.8929 9.39654 28.3174 9.60145 28.8118V26.4299C9.60145 24.4145 8.57627 23.6369 8.05318 23.1278L8.05254 23.1272Z" fill="#45AC45" />
    <path d="M14.5098 3.86816C14.2832 3.86816 14.0573 3.86816 13.8308 3.8828V4.82971C15.5985 4.69556 17.3751 4.92215 19.0525 5.49572C20.73 6.06929 22.2734 6.97786 23.5889 8.16625C24.9044 9.35464 25.9647 10.798 26.7052 12.4088C27.4457 14.0195 27.8511 15.764 27.8967 17.5362C27.9423 19.3085 27.6271 21.0715 26.9704 22.7182C26.3137 24.3649 25.3291 25.8609 24.0764 27.1153C22.8237 28.3698 21.3291 29.3565 19.6834 30.0156C18.0376 30.6747 16.2751 30.9923 14.5028 30.9493C11.0348 30.953 7.70722 29.5794 5.25163 27.1305C2.79604 24.6816 1.41341 21.3578 1.40767 17.8898C1.40767 13.8807 3.21049 10.3031 6.06013 7.89889V6.6828C4.31843 7.98601 2.90472 9.67753 1.93137 11.6229C0.958021 13.5683 0.451864 15.7139 0.453127 17.8892C0.453127 25.6324 6.74613 31.9108 14.5098 31.9108C18.2309 31.9127 21.8005 30.4367 24.4338 27.8075C27.0671 25.1783 28.5485 21.611 28.5524 17.8898C28.5524 10.1472 22.2588 3.86816 14.5028 3.86816H14.5098Z" fill="#45AC45" />
    <path d="M24.4455 25.2132C24.6575 24.923 24.87 24.6118 25.0609 24.2936V22.4132H24.4455V25.2132ZM26.2414 21.7342C26.3266 21.4516 26.4113 21.1825 26.4819 20.9139H24.4455V21.409H24.7497C25.2938 21.395 25.9022 21.388 26.2414 21.7342ZM12.6728 20.8369H12.1211V26.4293H12.6728V20.8369Z" fill="#45AC45" />
    <path d="M10.8472 19.7667H12.6716C13.1451 19.7667 13.4779 19.866 13.6618 20.0499C13.8527 20.2262 13.9443 20.559 13.9443 21.0255V26.2576C13.9443 26.7241 13.8597 27.0499 13.6618 27.2338C13.3786 27.5234 12.8409 27.5234 12.4031 27.5234L12.1199 27.5164V29.9912L12.6716 30.0898V28.0535C13.5199 28.0535 14.0646 27.7709 14.3262 27.1912V30.2247H14.5101L14.8639 30.2171V21.1171C14.8639 20.6366 14.9555 20.2975 15.1464 20.1066C15.3233 19.9156 15.6555 19.8234 16.115 19.8234C16.5891 19.8234 17.2821 19.7527 17.6422 20.1066C17.8262 20.2975 17.9108 20.6436 17.9108 21.1171V23.8045H16.6597V20.9332H16.115V30.1191C16.2989 30.0981 16.4688 30.0695 16.6597 30.0345V24.3409H17.9108V29.7436C18.1653 29.673 18.4199 29.5954 18.6744 29.5031V24.5535C18.6744 23.9877 18.8087 23.5639 19.3814 23.373L18.7451 19.9296H20.0178L20.2303 23.6842H20.3856L20.5982 19.9296H21.9275L21.2129 23.3724C21.8072 23.5849 21.9275 23.9451 21.9275 24.5465V27.7499C22.2983 27.4718 22.6523 27.172 22.9877 26.852V19.901H26.7002L26.7702 19.3919H18.0807L18.201 20.0219C17.9324 19.5128 17.4087 19.2583 16.6451 19.2583H16.101C15.1821 19.2583 14.6163 19.6255 14.4038 20.3535C14.2129 19.5898 13.6262 19.208 12.6646 19.208H10.2891V29.4751C10.4723 29.5387 10.6562 29.6024 10.8402 29.652V19.7737L10.8472 19.7667ZM22.3653 23.7122L21.7646 23.1465L22.3653 20.0569V23.7122Z" fill="#45AC45" />
    <path d="M20.0117 28.9316C20.2026 28.833 20.4005 28.7343 20.5781 28.6274V24.3994H20.0117V28.9316Z" fill="#45AC45" />
  </g>
  <path d="M40.4294 16.9498H38.4274V15.8979H40.4294C40.7781 15.8979 41.0594 15.8413 41.2745 15.7286C41.4889 15.616 41.6461 15.4614 41.7447 15.2641C41.8465 15.063 41.8975 14.8345 41.8975 14.5768C41.8975 14.3344 41.8465 14.1072 41.7447 13.8959C41.6446 13.6792 41.4805 13.4985 41.2745 13.3779C41.0594 13.2481 40.7781 13.1825 40.4294 13.1825H38.834V19.8179H37.5078V12.1268H40.4287C41.0244 12.1268 41.5296 12.2325 41.9452 12.4437C42.3645 12.6518 42.6834 12.9401 42.9016 13.3098C43.1199 13.6764 43.2287 14.0957 43.2287 14.5673C43.2287 15.0636 43.1199 15.49 42.9016 15.8457C42.6834 16.2015 42.3645 16.4745 41.9452 16.6641C41.5296 16.855 41.0244 16.9498 40.4294 16.9498ZM43.9739 17.0236V16.9021C43.9739 16.4897 44.0337 16.1079 44.1534 15.756C44.273 15.3996 44.4461 15.0923 44.6707 14.8314C44.8997 14.5672 45.185 14.3578 45.5056 14.2185C45.8365 14.0709 46.2101 13.9965 46.6256 13.9965C47.0444 13.9965 47.4179 14.0709 47.7456 14.2192C48.0765 14.363 48.3565 14.5673 48.5856 14.8314C48.8141 15.0923 48.9885 15.4003 49.1081 15.756C49.2306 16.1256 49.2912 16.5128 49.2875 16.9021V17.023C49.2875 17.4354 49.2277 17.8178 49.1081 18.1697C48.9957 18.5091 48.818 18.8232 48.585 19.0944C48.3559 19.3553 48.0778 19.5589 47.7507 19.7072C47.423 19.8516 47.0514 19.9235 46.6358 19.9235C46.2171 19.9235 45.8416 19.8516 45.5107 19.7072C45.1917 19.5654 44.9072 19.3563 44.6764 19.0944C44.4435 18.8232 44.2658 18.5091 44.1534 18.1697C44.0309 17.8002 43.9703 17.4129 43.9739 17.0236ZM45.2466 16.9021V17.023C45.2466 17.2807 45.2734 17.5238 45.3262 17.7523C45.379 17.9814 45.4617 18.1818 45.5744 18.3549C45.687 18.5267 45.8315 18.6629 46.0071 18.7615C46.1834 18.8602 46.3927 18.9092 46.6358 18.9092C46.8719 18.9092 47.0762 18.8602 47.2486 18.7615C47.424 18.6633 47.5726 18.5234 47.6814 18.3543C47.7946 18.1825 47.8774 17.9814 47.9302 17.7523C47.9877 17.5137 48.0161 17.269 48.0148 17.0236V16.9021C48.0148 16.6488 47.9868 16.4089 47.9302 16.1836C47.8828 15.9675 47.7971 15.7617 47.6769 15.5759C47.5691 15.4047 47.4201 15.2631 47.2435 15.1642C47.0711 15.0624 46.8649 15.0115 46.6256 15.0115C46.3857 15.0115 46.1783 15.0624 46.002 15.1642C45.8295 15.2628 45.687 15.3996 45.5744 15.5759C45.4573 15.7627 45.3733 15.9683 45.3262 16.1836C45.2734 16.4089 45.2466 16.6482 45.2466 16.9021ZM52.6895 18.9092C52.897 18.9092 53.0841 18.8691 53.2495 18.7883C53.4182 18.703 53.5544 18.5872 53.6562 18.4389C53.7618 18.2913 53.8197 18.1207 53.8305 17.9266H55.0295C55.0252 18.2884 54.9112 18.6404 54.7024 18.9359C54.4864 19.2428 54.1978 19.4913 53.8624 19.6595C53.5031 19.838 53.1066 19.9285 52.7055 19.9235C52.2689 19.9235 51.8884 19.8497 51.5645 19.7015C51.251 19.558 50.9745 19.3447 50.7563 19.0778C50.5378 18.807 50.3728 18.4971 50.2701 18.1646C50.1623 17.8049 50.1089 17.431 50.1116 17.0555V16.8709C50.1116 16.4764 50.1644 16.106 50.2707 15.7611C50.3789 15.4124 50.5412 15.1056 50.7563 14.8422C50.9707 14.5781 51.2399 14.3713 51.5645 14.2236C51.8884 14.0722 52.267 13.9965 52.7004 13.9965C53.1579 13.9965 53.5595 14.0881 53.9044 14.2714C54.2493 14.4508 54.521 14.7028 54.7176 15.0267C54.9187 15.3475 55.0225 15.7204 55.0295 16.1467H53.8305C53.8197 15.9355 53.7669 15.7458 53.6721 15.5759C53.5821 15.4054 53.4469 15.2629 53.2814 15.1642C53.1159 15.0624 52.9167 15.0115 52.6845 15.0115C52.4274 15.0115 52.2135 15.0636 52.0449 15.1693C51.8763 15.2711 51.7439 15.4124 51.6491 15.5918C51.5536 15.7681 51.4849 15.9673 51.4429 16.1887C51.4047 16.407 51.385 16.6342 51.385 16.8703V17.0548C51.385 17.2909 51.4041 17.52 51.4429 17.7421C51.4811 17.9635 51.5485 18.1627 51.6434 18.339C51.742 18.5108 51.8763 18.6508 52.0449 18.7558C52.2142 18.8583 52.4286 18.9092 52.6895 18.9092ZM58.3417 18.9092C58.5492 18.9092 58.7363 18.8691 58.9017 18.7883C59.0704 18.703 59.2059 18.5872 59.3084 18.4389C59.414 18.2913 59.4719 18.1207 59.4827 17.9266H60.6816C60.6772 18.2885 60.5629 18.6405 60.3539 18.9359C60.1381 19.2426 59.8497 19.4912 59.5145 19.6595C59.1553 19.838 58.7588 19.9285 58.3576 19.9235C57.9211 19.9235 57.5405 19.8497 57.2166 19.7015C56.9031 19.5581 56.6266 19.3448 56.4085 19.0778C56.19 18.807 56.025 18.4971 55.9223 18.1646C55.8145 17.8049 55.7611 17.431 55.7638 17.0555V16.8709C55.7638 16.4764 55.8166 16.106 55.9223 15.7611C56.0317 15.4124 56.1934 15.1056 56.4085 14.8422C56.6258 14.5757 56.9026 14.3639 57.2166 14.2236C57.5405 14.0722 57.9192 13.9965 58.3519 13.9965C58.8101 13.9965 59.2116 14.0881 59.5565 14.2714C59.8925 14.4427 60.1742 14.7043 60.3698 15.0267C60.5709 15.3475 60.6746 15.7204 60.6816 16.1467H59.4827C59.4719 15.9355 59.4191 15.7458 59.3243 15.5759C59.2343 15.4052 59.0988 15.2627 58.9329 15.1642C58.7675 15.0624 58.5689 15.0115 58.336 15.0115C58.0795 15.0115 57.8664 15.0636 57.6971 15.1693C57.5278 15.2711 57.3961 15.4124 57.3013 15.5918C57.2058 15.7681 57.1371 15.9673 57.0951 16.1887C57.0563 16.407 57.0372 16.6342 57.0372 16.8703V17.0548C57.0372 17.2909 57.0563 17.52 57.0951 17.7421C57.1339 17.9635 57.2007 18.1627 57.2955 18.339C57.3942 18.5108 57.5278 18.6508 57.6971 18.7558C57.8664 18.8583 58.0808 18.9092 58.3417 18.9092ZM64.1785 19.9235C63.7559 19.9235 63.3741 19.8548 63.0324 19.7174C62.706 19.5844 62.411 19.3848 62.1663 19.1313C61.9275 18.8768 61.7424 18.5769 61.6222 18.2493C61.493 17.8992 61.4285 17.5285 61.4319 17.1554V16.9441C61.4319 16.4974 61.4968 16.092 61.6273 15.7293C61.7459 15.3869 61.9308 15.0712 62.1714 14.8002C62.4036 14.5393 62.6785 14.3401 62.9955 14.2026C63.3208 14.0637 63.6714 13.9937 64.0251 13.9971C64.4336 13.9971 64.7913 14.0652 65.0974 14.2026C65.4041 14.3401 65.6574 14.5335 65.8585 14.7836C66.0627 15.0305 66.2142 15.3245 66.3128 15.6663C66.4146 16.0074 66.4655 16.3847 66.4655 16.7965V17.3405H62.0498V16.4261H65.2087V16.3255C65.2033 16.104 65.1567 15.8854 65.0713 15.6809C64.9951 15.4867 64.865 15.3183 64.6965 15.1954C64.5272 15.0719 64.3019 15.0108 64.02 15.0108C63.8087 15.0108 63.6204 15.056 63.4549 15.1476C63.2926 15.2361 63.1571 15.364 63.0483 15.5333C62.9305 15.7222 62.8447 15.9292 62.7944 16.1461C62.7384 16.3815 62.7104 16.6475 62.7104 16.9435V17.1547C62.7104 17.4048 62.7435 17.6377 62.8103 17.8522C62.8809 18.0635 62.9827 18.2486 63.117 18.4071C63.2506 18.5655 63.4129 18.6903 63.6025 18.7819C63.7928 18.8697 64.0098 18.9143 64.2523 18.9143C64.5362 18.9194 64.8172 18.8559 65.0713 18.7291C65.3105 18.6056 65.5186 18.4313 65.6943 18.206L66.3656 18.8557C66.2294 19.0493 66.0676 19.2236 65.8845 19.3737C65.6873 19.5354 65.4461 19.6677 65.161 19.7695C64.8791 19.8714 64.552 19.9235 64.1785 19.9235ZM71.2994 14.1027V15.1165H68.5102V14.1034H71.2994V14.1027ZM72.2972 14.1027V19.8179H71.0245V14.1027H72.2972ZM68.1984 14.1027H69.4558L69.3025 16.9282C69.2815 17.3475 69.2388 17.7173 69.1758 18.038C69.1265 18.3192 69.0449 18.5938 68.9327 18.8564C68.8441 19.0617 68.7169 19.2482 68.5579 19.4055C68.4102 19.5462 68.2333 19.6527 68.0399 19.7174C67.8426 19.7842 67.6212 19.8179 67.3743 19.8179H66.9785L66.9727 18.7717L67.1738 18.7558C67.3036 18.7456 67.4169 18.7119 67.5117 18.6559C67.6065 18.5961 67.688 18.5115 67.7548 18.402C67.8248 18.2932 67.8815 18.1525 67.9235 17.9795C67.9693 17.8076 68.0049 17.6027 68.0291 17.3666C68.0577 17.1312 68.0787 16.8563 68.0927 16.5432L68.1984 14.1027ZM74.5951 15.9195H76.2802C76.7734 15.9195 77.1927 16.0023 77.5376 16.1677C77.8825 16.3332 78.1447 16.5642 78.3248 16.8601C78.5075 17.1522 78.5991 17.4869 78.5991 17.8636C78.5991 18.1417 78.5482 18.4007 78.4464 18.64C78.3439 18.8755 78.1925 19.0816 77.992 19.2579C77.7947 19.4342 77.5516 19.5716 77.2627 19.6703C76.9776 19.7683 76.6499 19.8179 76.2802 19.8179H73.75V14.1027H75.0285V18.8093H76.2802C76.5341 18.8093 76.7365 18.7647 76.8879 18.6769C77.0394 18.5891 77.1482 18.4745 77.215 18.3333C77.2856 18.1933 77.3213 18.0431 77.3213 17.8846C77.3213 17.7224 77.2856 17.5696 77.215 17.4252C77.1445 17.2767 77.0304 17.1533 76.8879 17.0714C76.7365 16.9797 76.5341 16.9339 76.2802 16.9339H74.5951V15.9195ZM80.5063 14.1027L81.5945 15.9991L82.7036 14.1027H84.1036L82.3708 16.9072L84.1724 19.8179H82.7724L81.6104 17.842L80.4484 19.8179H79.0433L80.8391 16.9072L79.1114 14.1027H80.5063ZM84.5841 17.0236V16.9021C84.5841 16.4897 84.6439 16.1079 84.7635 15.756C84.8832 15.3996 85.0563 15.0923 85.2815 14.8314C85.5103 14.5672 85.7954 14.3578 86.1158 14.2185C86.4467 14.0709 86.8203 13.9965 87.2358 13.9965C87.6552 13.9965 88.0281 14.0709 88.3558 14.2192C88.6867 14.363 88.9667 14.5673 89.1958 14.8314C89.4243 15.0923 89.5986 15.4003 89.7183 15.756C89.8412 16.1255 89.902 16.5127 89.8984 16.9021V17.023C89.9021 17.4126 89.8412 17.8001 89.7183 18.1697C89.6059 18.509 89.4284 18.8231 89.1958 19.0944C88.9667 19.3553 88.6886 19.5589 88.3609 19.7072C88.0332 19.8516 87.6622 19.9235 87.2466 19.9235C86.8273 19.9235 86.4525 19.8516 86.1215 19.7072C85.8023 19.5654 85.5175 19.3564 85.2866 19.0944C85.0575 18.8303 84.8832 18.5216 84.7635 18.1697C84.6411 17.8002 84.5805 17.4129 84.5841 17.0236ZM85.8575 16.9021V17.023C85.8575 17.2807 85.8835 17.5238 85.9364 17.7523C85.9892 17.9814 86.0719 18.1818 86.1845 18.3549C86.2972 18.5267 86.4416 18.6629 86.6179 18.7615C86.7942 18.8602 87.0036 18.9092 87.2466 18.9092C87.4821 18.9092 87.6864 18.8602 87.8595 18.7615C88.0351 18.6629 88.1795 18.5274 88.2922 18.3543C88.4048 18.1825 88.4875 17.9814 88.5404 17.7523C88.597 17.5232 88.625 17.2807 88.625 17.0236V16.9021C88.625 16.6488 88.597 16.4089 88.5404 16.1836C88.4932 15.9675 88.4074 15.7616 88.2871 15.5759C88.1793 15.4046 88.0303 15.2631 87.8537 15.1642C87.6813 15.0624 87.4751 15.0115 87.2358 15.0115C86.9965 15.0115 86.7885 15.0624 86.6128 15.1642C86.4397 15.2628 86.2972 15.3996 86.1845 15.5759C86.0675 15.7627 85.9835 15.9683 85.9364 16.1836C85.8835 16.4089 85.8575 16.6482 85.8575 16.9021ZM93.3315 17.0866H92.2332V16.4426H93.1203C93.3455 16.4426 93.5256 16.4127 93.6593 16.3529C93.7967 16.2931 93.8935 16.2104 93.9495 16.1047C94.0093 15.9953 94.0392 15.8686 94.0392 15.7242C94.0392 15.5969 94.0093 15.4779 93.9495 15.3646C93.8859 15.2409 93.7841 15.1409 93.6593 15.0795C93.5218 15.0057 93.3354 14.9688 93.0993 14.9688C92.9058 14.9688 92.7315 15.0006 92.5762 15.0643C92.4247 15.1273 92.3051 15.2151 92.2173 15.3277C92.1293 15.439 92.0826 15.5773 92.0849 15.7191H90.8122C90.8122 15.3627 90.9121 15.0573 91.1132 14.7995C91.3175 14.5425 91.5905 14.3452 91.9315 14.2077C92.2901 14.0674 92.6723 13.9976 93.0573 14.0022C93.4054 14.0022 93.7191 14.0391 93.9972 14.1129C94.2753 14.1829 94.5114 14.2892 94.7048 14.4298C94.9021 14.5673 95.0516 14.7397 95.1541 14.9478C95.2597 15.1515 95.3125 15.3895 95.3125 15.6605C95.3125 15.8546 95.2667 16.0373 95.1751 16.2104C95.0775 16.39 94.9425 16.5467 94.7793 16.6698C94.5895 16.8083 94.3766 16.9119 94.1506 16.9759C93.8845 17.0532 93.6085 17.0901 93.3315 17.0866ZM92.2332 16.7175H93.3315C93.6695 16.7175 93.9692 16.7506 94.2295 16.8175C94.4904 16.8811 94.7086 16.9765 94.8849 17.1025C95.0605 17.2298 95.1929 17.3864 95.2807 17.5735C95.3724 17.7561 95.4182 17.9674 95.4182 18.2066C95.4182 18.4739 95.3603 18.7157 95.2438 18.9302C95.1271 19.146 94.9604 19.3309 94.7576 19.4692C94.5502 19.6175 94.302 19.7301 94.0131 19.8071C93.7009 19.8875 93.3796 19.9267 93.0573 19.9235C92.6767 19.9235 92.307 19.8599 91.9475 19.7333C91.6078 19.6173 91.304 19.4154 91.0655 19.1472C90.8364 18.8799 90.7225 18.5395 90.7225 18.1277H91.9952C91.9952 18.2722 92.0391 18.4077 92.1275 18.5344C92.2154 18.6616 92.342 18.7647 92.5075 18.8462C92.6729 18.9232 92.8721 18.962 93.1044 18.962C93.3443 18.962 93.5396 18.9251 93.6911 18.8513C93.8425 18.7736 93.9552 18.6731 94.029 18.5503C94.1028 18.423 94.1397 18.2894 94.1397 18.1487C94.1397 17.9585 94.1028 17.8051 94.029 17.6893C93.949 17.5682 93.8297 17.4785 93.6911 17.4354C93.5396 17.3794 93.3494 17.3507 93.1203 17.3507H92.2332V16.7175ZM100.088 11.5986H101.118C101.118 11.9117 101.074 12.1714 100.986 12.375C100.905 12.571 100.773 12.7422 100.605 12.8714C100.44 12.9986 100.234 13.1005 99.9873 13.1781C99.7098 13.2643 99.4276 13.3348 99.1422 13.3894C98.8463 13.453 98.579 13.5529 98.3391 13.6904C98.1036 13.824 97.9045 14.0124 97.7422 14.2555C97.5837 14.4954 97.4692 14.8027 97.3992 15.1801C97.3285 15.5568 97.3075 16.0163 97.3355 16.5585V16.918L96.3269 17.0077V16.6488C96.3269 15.9762 96.3886 15.3895 96.5115 14.8893C96.6349 14.3897 96.8093 13.9685 97.0345 13.6274C97.2636 13.2818 97.5347 13.0075 97.8478 12.8033C98.17 12.5967 98.5285 12.4531 98.9042 12.3801C99.1689 12.3241 99.3885 12.2675 99.5647 12.2115C99.741 12.1516 99.8715 12.0759 99.9555 11.9843C100.044 11.8888 100.088 11.7603 100.088 11.5986ZM99.195 14.4241C99.5755 14.4241 99.9135 14.4915 100.209 14.6252C100.498 14.7499 100.754 14.9378 100.96 15.175C101.163 15.4105 101.319 15.6892 101.424 16.0093C101.534 16.33 101.588 16.6787 101.588 17.0555V17.1713C101.588 17.5658 101.53 17.9305 101.413 18.2652C101.304 18.5891 101.129 18.8874 100.901 19.1421C100.67 19.393 100.387 19.5912 100.072 19.7231C99.748 19.8599 99.3764 19.9286 98.9576 19.9286C98.5421 19.9286 98.1705 19.8567 97.8427 19.7123C97.5253 19.5753 97.2421 19.3697 97.0135 19.1103C96.784 18.8425 96.6099 18.5319 96.5013 18.1965C96.3819 17.828 96.323 17.4427 96.3269 17.0555V16.939C96.324 16.8627 96.3442 16.7873 96.3848 16.7226C96.4306 16.6526 96.4854 16.5763 96.5484 16.4955C96.612 16.414 96.668 16.3211 96.7176 16.2155C96.8822 15.877 97.0917 15.5623 97.3406 15.28C97.5806 15.0127 97.8535 14.8027 98.1596 14.6519C98.4827 14.4975 98.837 14.4191 99.195 14.4241ZM98.9468 15.4334C98.6299 15.4334 98.3709 15.5097 98.1705 15.6605C97.9732 15.8088 97.8268 16.0061 97.732 16.2524C97.6385 16.5097 97.5919 16.7817 97.5945 17.0555V17.1713C97.5945 17.4074 97.6206 17.6314 97.6735 17.842C97.7263 18.0533 97.8058 18.2404 97.9115 18.402C98.0203 18.5611 98.1615 18.6858 98.334 18.7775C98.5103 18.8691 98.7177 18.9149 98.9576 18.9149C99.2001 18.9149 99.4063 18.8691 99.5755 18.7775C99.748 18.6858 99.8867 18.5611 99.9924 18.402C100.102 18.2404 100.181 18.0539 100.23 17.842C100.283 17.6314 100.31 17.4074 100.31 17.1713V17.0555C100.31 16.8372 100.283 16.631 100.23 16.4375C100.186 16.2526 100.105 16.0783 99.9924 15.9246C99.8827 15.7725 99.7377 15.6493 99.5698 15.5657C99.3974 15.4773 99.1899 15.4334 98.9468 15.4334ZM105.809 18.6718V15.9456C105.809 15.742 105.772 15.5657 105.697 15.4175C105.624 15.2699 105.506 15.1496 105.359 15.0738C105.212 14.9936 105.025 14.9529 104.799 14.9529C104.592 14.9529 104.412 14.9879 104.26 15.0585C104.11 15.1285 103.991 15.224 103.907 15.3436C103.823 15.4627 103.778 15.6052 103.78 15.7509H102.512C102.512 15.525 102.567 15.3067 102.676 15.0955C102.785 14.8842 102.944 14.6958 103.151 14.5304C103.359 14.3649 103.608 14.2345 103.896 14.1396C104.185 14.0442 104.509 13.9965 104.868 13.9965C105.298 13.9965 105.678 14.069 106.009 14.2128C106.344 14.3579 106.606 14.5755 106.796 14.8683C106.99 15.1572 107.087 15.5199 107.087 15.9565V18.4975C107.087 18.7584 107.104 18.9919 107.139 19.2C107.178 19.4036 107.233 19.5818 107.304 19.7333V19.8179H105.998C105.93 19.6498 105.882 19.4742 105.856 19.2948C105.825 19.0883 105.809 18.8806 105.809 18.6718ZM105.993 16.3427L106.004 17.1293H105.09C104.88 17.1263 104.671 17.1494 104.467 17.198C104.306 17.2321 104.154 17.2967 104.018 17.3883C103.904 17.4662 103.811 17.5714 103.748 17.6944C103.687 17.8212 103.656 17.9607 103.658 18.1016C103.658 18.2525 103.694 18.3918 103.764 18.5185C103.835 18.6419 103.937 18.7386 104.071 18.8093C104.208 18.8793 104.374 18.9149 104.567 18.9149C104.827 18.9149 105.055 18.8621 105.249 18.7558C105.446 18.647 105.601 18.5153 105.713 18.36C105.826 18.2015 105.886 18.052 105.893 17.9107L106.305 18.4765C106.262 18.6209 106.191 18.7755 106.089 18.941C105.986 19.1065 105.853 19.2655 105.687 19.4164C105.312 19.7521 104.823 19.9333 104.319 19.9235C103.945 19.9235 103.613 19.8497 103.321 19.7015C103.042 19.5626 102.806 19.3533 102.634 19.0944C102.468 18.8373 102.386 18.5471 102.386 18.2225C102.386 17.9196 102.442 17.6524 102.554 17.4195C102.671 17.184 102.84 16.9867 103.062 16.8276C103.287 16.6698 103.562 16.5502 103.886 16.4687C104.21 16.3847 104.579 16.3421 104.995 16.3421L105.993 16.3427ZM112.321 16.4897V17.4939H109.363V16.4897H112.321ZM109.733 14.1027V19.8179H108.46V14.1027H109.733ZM113.241 14.1027V19.8179H111.967V14.1027H113.241ZM115.971 14.1027V19.8179H114.699V14.1027H115.971ZM119.701 14.1027L117.128 17.541H115.676L115.507 16.3892H116.568L118.111 14.1027H119.701ZM118.211 19.8179L116.489 17.3246L117.493 16.6011L119.886 19.8179H118.211Z" fill="#373737" />
</svg>