<svg width="121" height="32" viewBox="0 0 121 32" fill="none" xmlns="http://www.w3.org/2000/svg"><g clip-path="url(#a)"><g clip-path="url(#b)"><g clip-path="url(#c)"><path d="M13.613 24.248s.417-.17.454-.292l-.055-.138c-.04-.09-.034-.188.042-.242l.45-.31.753.144s-.136-.169-.123-.395l-.717-.152-.678.41a.65.65 0 0 0-.215.778l.089.197Zm5.321 1.952c.134-.006.283-.009.446-.009 0 0 .387-1.124.409-1.16a9.508 9.508 0 0 1-.842-.441c.115.17.394.366.339.516l-.352 1.093Z" fill="#fff"/><path d="M22.618 19.531h-10.7v4c0 1.635 1.191 2.659 2.949 2.659 1.468 0 1.855.056 2.402.595.376-.373.688-.512 1.327-.564l.015-.062.337-1.036-.57-.646c-.22.072-.402.085-.711.085-.317 0-.675-.037-1.062-.11a.47.47 0 0 0-.112-.011c-.047 0-.051.004-.063.027l-.068.11-.122.2-.231-.052-1.027-.24-.14.23.022.025.125.137-.055.178c-.076.233-.321.505-.395.58l-.257.274-.233-.294-.175-.218c-.185-.205-.228-.52-.124-.85a.016.016 0 0 1-.011.004l-.29.12-.131-.282-.092-.2a.968.968 0 0 1 .325-1.174l.827-.464.787.154c.019-.075.047-.343.07-.411-.015-.001-.03-.005-.045-.005l-.453.167-.437-.3s-.171-.164-.016-.327l.423-.637-1.072-1.338 1.648.674.11-.136.222-.264.252.239a.476.476 0 0 1 .132.237c.455.175 1.268.694 1.34 1.537l-.255.102v.007c.058.068.106.096.121.099l1.176.115c.03-.005.068-.019.11-.03a1.89 1.89 0 0 1 .625-.121c.212 0 .417.048.614.14a.95.95 0 0 1 .265-.055h.056c.63 0 .943.467 1.194.84.042.064.083.125.127.186.22.308.507.76.519.779l.13.2-.16.184c-.123.14-.306.306-.622.306a1.132 1.132 0 0 1-.4-.078c-.01.062-.022.136-.034.199l-.206 1.069c1.234-.302 2.018-1.228 2.018-2.552v-4Zm-10.7-.325h8.32c-.415-.426-.41-.966-.303-1.317a1.425 1.425 0 0 1-.31-.203c-.325.239-1.318.957-1.577 1.137l-.055.037-3.266-.587h-.066a2.77 2.77 0 0 1-.318-.017.317.317 0 0 1-.57.112.307.307 0 0 1-.056-.238l.012-.07c-.337-.236-.647-.762-.51-1.317l.014-.06.047-.033c.007-.005.063-.043.147-.091l-.237-.036a.163.163 0 0 1-.135-.185.16.16 0 0 1 .186-.134l.565.088.051-1.978.842-.885.525 1.098-.555 1.903.5.078a.162.162 0 0 1 .134.185.16.16 0 0 1-.16.134l-.026-.001-.406-.066c.006.012.014.019.019.032a.438.438 0 0 0 .196.18l2.49.039a54.3 54.3 0 0 0 .635-.626 1.338 1.338 0 0 1-.873-1.105c-.343-.144-.579-.361-.71-.644-.159-.35-.102-.7-.06-.87-.332-.12-.681-.34-1.037-.692h-3.75c.16.429.297.894.297 1.357v4.775Z" fill="#FFDD2D"/><path d="M15.343 21.262a.108.108 0 0 0-.116.1.106.106 0 0 0 .104.116.11.11 0 0 0 .117-.1c0-.06-.043-.115-.105-.116Zm7.256 7.252-.616-.234.17-.633.187-.69s-1.093.588-2.631 1.03c-.438.125-.768.182-.768.182v.469s-.823.142-1.655.142h-.048c-.831 0-1.654-.142-1.654-.142v-.47s-.332-.056-.768-.18a14.63 14.63 0 0 1-2.63-1.031l.185.69.174.633-.618.234-.685.255c.786.377 1.875.926 2.872 1.197l-.235.638s1.264.572 3.37.578v.001h.029v-.001c2.108-.006 3.37-.578 3.37-.578l-.235-.638c.996-.27 2.087-.82 2.87-1.197l-.684-.255Zm-10.626.298 1.014-.335-.299-.972c.446.252 1.449.63 2.029.806l-.49 1.336a12.479 12.479 0 0 1-2.254-.835Zm5.292 2.035c-1.178 0-2.523-.27-2.918-.41l.602-1.617c.499.145 1.537.299 2.291.293h.048c.753.006 1.79-.148 2.291-.293l.6 1.618c-.395.14-1.738.409-2.914.409Zm3.034-1.2-.488-1.336c.581-.176 1.58-.554 2.029-.806l-.299.972 1.014.335c-.614.304-1.356.59-2.256.835ZM17.263 3.264c1.254 0 2.258.413 2.812.854 0 0 .165-.985.727-1.855l-1.01.114-.529-1.117-1.015.52-.985-.968-.982.968-1.017-.52-.527 1.117-1.01-.114c.562.87.727 1.855.727 1.855.555-.441 1.556-.854 2.81-.854Zm-2.572-.496.28.03.122-.254.353-.75.656.336.253.129.203-.199.707-.697.708.697.202.199.253-.129.652-.336.357.75.12.254.28-.03.267-.032a6.273 6.273 0 0 0-.278.75c-.707-.39-1.627-.613-2.564-.613-.934 0-1.852.222-2.562.613a6.392 6.392 0 0 0-.277-.75l.268.032Zm17.29 13.566c1.623 0 2.165-1.64 2.188-1.71l.18-.578-.607.02h-.003a4.364 4.364 0 0 1-3.274-1.65l-.12-.15c-.83-1.047-1.615-2.043-3.021-2.498.04-.036.098-.081.178-.132.746-.488 1.18-1.08 1.29-1.768.159-1.035-.505-1.86-.535-1.893l-.452-.555-.281.658c-.02.042-.494 1.095-1.492 1.095h-.074c-.07-.004-.134-.006-.199-.012.036-.47-.05-1.198-.714-1.88-.798-.822-1.777-.945-2.29-.945-.273 0-.455.033-.474.036l-.682.134.42.551c.33.425.63 1.209.275 1.62-.113.13-.346.235-.57.34-.46.211-1.087.504-1.087 1.249 0 .482.376.986 1.058 1.415 2.021 1.263 3.267 2.58 3.805 4.035.833 2.237-.253 3.513-1.308 4.184l-.473.303.414.378c.055.048.562.492 1.31.556.142.01.279.017.405.017.48 0 .89-.075 1.221-.175-.092.16-.204.322-.345.485-.603.694-1.345 1.01-2.412 1.027l-.396.006-.031.396c-.005.079-.034.812.664 1.435.107.097.237.176.372.242-.474.423-.956 1.16-1.049 2.424-.078 1.055-.331 1.445-.334 1.45l-.438.664.791.01c1.309 0 2.31-.358 3.005-1.069.41-.42.645-.895.784-1.316a2.13 2.13 0 0 0 1.381.504c.37 0 .679-.078.714-.086l.506-.134-.224-.47c-.016-.037-.439-.977.016-2.32.195-.58.295-1.1.344-1.506.318.165.744.302 1.296.303 1.252 0 1.803-.929 1.829-.968l.247-.426-.457-.187c-1.492-.616-1.823-2.268-1.889-3.164.135.026.289.05.463.055h.075Zm1.183 3.504s-.437.755-1.439.755h-.012c-1.203-.007-1.689-.736-1.689-.736s.07.949-.364 2.229c-.522 1.543.004 2.646.004 2.646s-.28.075-.604.075c-.124 0-.254-.012-.375-.045-1.005-.237-1.256-1.146-1.256-1.146s.093 3.071-3.51 3.071h-.028s.317-.429.412-1.663c.171-2.279 1.723-2.591 1.723-2.591s-.828-.103-1.186-.424c-.562-.505-.522-1.09-.522-1.09 1.267-.017 2.097-.446 2.73-1.173.685-.788.798-1.637.798-1.637s-.681.614-1.999.614a3.92 3.92 0 0 1-.367-.017 1.94 1.94 0 0 1-1.055-.444c1.372-.874 2.335-2.4 1.482-4.697-.684-1.84-2.327-3.215-3.98-4.251-.551-.342-.857-.721-.857-1.048 0-.77 1.1-.794 1.552-1.311.52-.6.194-1.575-.258-2.16 0 0 .153-.031.393-.031.476 0 1.3.119 1.977.816.9.925.526 1.931.526 1.931l.242.047c.144.03.287.036.436.043l.097.001c1.307 0 1.89-1.357 1.89-1.357s1.39 1.698-.655 3.027c-.352.228-.507.439-.467.664l.033.147.145.026c1.483.4 2.233 1.415 3.148 2.57 1.391 1.758 3.359 1.814 3.602 1.814h.025s-.449 1.409-1.772 1.409c-.022 0-.04 0-.063-.002-.609-.021-.92-.253-.92-.253s-.239 3.2 2.163 4.191Z" fill="#373737"/><path d="M29.131 9.946c.605.32.958.749 1.267 1.13.303.37.592.729 1.042.877.16.055.33.08.503.08.677 0 1.357-.41 1.615-.98l.259-.571-.627-.038c-.03-.001-.837-.074-1.735-.986-.37-.374-.816-.571-1.298-.571-.588 0-1.023.292-1.072.321l-.577.404.623.334Zm1.028-.628c.302 0 .654.102.987.444 1.045 1.055 2.018 1.114 2.018 1.114-.177.389-.69.73-1.22.73a1.14 1.14 0 0 1-.368-.06c-.719-.241-.976-1.313-2.24-1.981 0 0 .353-.247.823-.247Zm-.743 6.322v.022c-.364-2.92-2.498-5.028-4.872-6.31-.22-.117-.422-.216-.62-.311.724.111 1.888.124 2.786-.65 0 0-1.374 1.005-4.19.092.78.503 2.294 1.212 3.676 2.36 3.457 3.019.983 5.963.983 5.963 1.243-1.288 1.294-2.668.929-3.795.654 1.081 1.072 2.395 1.007 4.014-.096 2.32-1.378 4.327-2.729 5.939-.648.783-.794 1.744-.794 1.744s.262-.849 1.013-1.721c1.447-1.684 2.684-3.433 2.846-5.953.15.457.766 1.73 1.744 2.208.003.001-1.226-.735-1.78-3.602ZM10.992 26.443c-.002-.004-.253-.394-.334-1.449-.094-1.264-.574-2.001-1.049-2.424.138-.065.264-.144.371-.242.697-.623.668-1.356.664-1.435l-.027-.396-.4-.006c-1.064-.018-1.807-.334-2.41-1.027a3.172 3.172 0 0 1-.345-.485c.332.1.738.175 1.22.175.129 0 .262-.008.404-.017a2.398 2.398 0 0 0 1.312-.556l.414-.378-.473-.303c-1.059-.673-2.14-1.949-1.31-4.185.538-1.454 1.783-2.771 3.806-4.034.683-.429 1.056-.933 1.056-1.415 0-.745-.625-1.039-1.085-1.248-.224-.106-.457-.212-.57-.342-.357-.409-.056-1.194.273-1.619l.423-.55-.685-.135c-.02-.003-.2-.036-.474-.036-.513 0-1.49.123-2.288.945-.665.683-.753 1.411-.719 1.88-.065.006-.13.008-.197.012h-.073c-1 0-1.474-1.053-1.493-1.095l-.282-.658-.456.555c-.025.034-.691.86-.53 1.893.108.687.543 1.28 1.288 1.768a1.3 1.3 0 0 1 .179.132c-1.405.454-2.19 1.452-3.02 2.5l-.12.149a4.366 4.366 0 0 1-3.275 1.65l-.611-.02.186.578c.021.07.562 1.71 2.186 1.71l.078-.002c.172-.005.326-.028.463-.055-.067.894-.398 2.547-1.89 3.163l-.457.188.247.426c.024.039.577.968 1.832.968a2.798 2.798 0 0 0 1.293-.303c.049.405.149.925.344 1.505.455 1.343.031 2.284.015 2.322l-.224.469.507.134c.034.008.345.085.714.085a2.111 2.111 0 0 0 1.381-.504c.137.421.373.896.782 1.317.696.71 1.697 1.07 3.005 1.07l.793-.011-.44-.664Zm-.384.245c-3.602 0-3.51-3.07-3.51-3.07s-.251.908-1.256 1.146c-.12.032-.248.044-.374.044-.323 0-.603-.075-.603-.075s.524-1.103.002-2.646c-.432-1.28-.362-2.229-.362-2.229s-.484.73-1.688.736h-.012c-1.003 0-1.44-.755-1.44-.755 2.401-.99 2.165-4.188 2.165-4.188s-.311.23-.921.253c-.022.002-.042.002-.063.002-1.325 0-1.773-1.41-1.773-1.41H.8c.244 0 2.21-.056 3.6-1.813.916-1.155 1.667-2.17 3.147-2.57l.148-.026.033-.147c.04-.225-.114-.436-.466-.664-2.045-1.33-.655-3.027-.655-3.027s.581 1.356 1.89 1.356l.096-.001c.147-.008.293-.014.436-.045l.242-.047s-.374-1.006.527-1.93c.677-.7 1.501-.817 1.976-.817.241 0 .391.03.391.03-.45.588-.777 1.56-.256 2.161.45.516 1.55.542 1.55 1.311 0 .326-.307.706-.857 1.048-1.655 1.036-3.298 2.411-3.98 4.252-.853 2.297.11 3.82 1.483 4.696 0 0-.431.394-1.056.444-.126.012-.25.017-.368.017-1.316 0-1.997-.614-1.997-.614s.113.849.794 1.637c.637.727 1.466 1.157 2.734 1.174 0 0 .04.584-.52 1.09-.36.319-1.189.423-1.189.423s1.554.312 1.724 2.59c.093 1.235.407 1.664.407 1.664h-.026Z" fill="#373737"/><path d="M2.586 12.036c.174 0 .344-.025.504-.08.453-.149.74-.507 1.044-.878.31-.38.66-.81 1.265-1.13l.623-.332-.578-.404c-.049-.03-.483-.321-1.07-.321-.483 0-.93.195-1.299.57-.898.912-1.703.986-1.733.987l-.627.036.257.572c.26.568.938.98 1.614.98Zm.798-2.272c.335-.341.687-.443.99-.443.467 0 .82.246.82.246-1.262.67-1.521 1.74-2.243 1.982-.119.041-.243.06-.365.06-.53 0-1.043-.34-1.218-.73 0-.002.97-.061 2.016-1.115Zm2.033 7.265c-.067-1.62.35-2.933 1.006-4.014-.365 1.127-.315 2.507.928 3.795 0 0-2.473-2.944.985-5.963C9.72 9.7 11.233 8.99 12.01 8.487c-2.815.913-4.189-.092-4.189-.092.898.774 2.062.76 2.785.648-.195.095-.4.195-.618.311-2.376 1.283-4.508 3.391-4.874 6.31v-.022c-.552 2.867-1.78 3.602-1.78 3.602.978-.478 1.593-1.749 1.742-2.207.163 2.52 1.4 4.269 2.848 5.952.75.873 1.015 1.721 1.015 1.721s-.147-.96-.798-1.744c-1.348-1.61-2.63-3.617-2.725-5.937Zm11.036-5.908v.58c.201-.244.59-.194.59-.194v.835s-.014.41-.16.588h.84c-.145-.176-.16-.588-.16-.588v-.835s.389-.05.588.193v-.579h-1.698Zm-.363-3.434c.268.212.423.246.429.25l.105.049V7.44l-.987-.413c0 .002.01.317.453.66Zm2.35 0c.445-.343.454-.66.454-.66l-.988.413v.546l.104-.049c.007-.004.16-.038.43-.25Z" fill="#373737"/><path d="M20.218 5.465c0-.827-1.401-1.57-2.948-1.57h-.01c-1.547 0-2.948.743-2.948 1.57l.03.204.618 3.524-.62.358-1.605.931h.005s-.361.184-.529.298c-.61.422-.74 1.037-.385 1.292.088-.502.487-1.027 1.234-1.027.538 0 .948.276 1.28.69.085.105.166.216.241.337.093.151.187.284.28.413h-4.134c.303.607.592 1.25.592 1.949v9.092c0 2.2 1.703 3.252 3.546 3.252 1.424 0 1.615-.065 2.402.713.782-.779.974-.713 2.4-.713 1.843 0 3.544-1.051 3.544-3.252v-9.092c0-.699.289-1.342.593-1.95H19.67c.092-.127.185-.26.278-.412.077-.12.156-.232.24-.337.334-.415.743-.69 1.281-.69.747 0 1.145.524 1.234 1.027.355-.255.227-.87-.388-1.292-.165-.114-.526-.298-.526-.298h.005l-1.605-.931-.617-.358.617-3.524.03-.204Zm-5.298.41 2.171.732v3.39l-1.598-.838-.573-3.284Zm.45 7.2c.355.353.705.572 1.036.692-.043.17-.1.522.061.872.13.28.368.498.71.643.037.348.258.872.872 1.104-.268.27-.53.523-.636.626l-2.49-.039a.441.441 0 0 1-.194-.18c-.006-.013-.014-.02-.018-.033l.406.066.025.001a.16.16 0 0 0 .026-.319l-.499-.078.554-1.902-.524-1.097-.842.885-.051 1.978-.565-.089a.161.161 0 0 0-.186.134.163.163 0 0 0 .134.185l.238.037c-.085.048-.14.085-.147.09l-.049.034-.013.06c-.138.554.174 1.08.51 1.317l-.012.07a.313.313 0 0 0 .056.238.312.312 0 0 0 .26.133.32.32 0 0 0 .31-.247c.125.015.24.017.318.017h.066l3.265.586.055-.036c.26-.181 1.252-.9 1.577-1.137a1.4 1.4 0 0 0 .31.204c-.105.351-.112.891.305 1.318h-8.322v-4.773c0-.463-.136-.928-.296-1.357h3.75v-.002Zm4.035 4.367c-.33.242-1.18.858-1.488 1.073l-2.967-.53.02-.079c.039-.153.078-.362.08-.607l2.495.04.047-.048c.038-.038.828-.796 1.231-1.233.096.12.216.233.372.334-.053.29-.03.702.21 1.05Zm-4.968-.51c.07.146.197.244.285.299a3.4 3.4 0 0 1-.053.537c-.008.042-.019.08-.031.12l-.019.06a1.92 1.92 0 0 1-.599-.093c-.233-.085-.581-.51-.5-.978.101-.062.334-.192.553-.192.168-.001.283.078.364.247Zm-.309-.589.05-1.899.429-.452.27.56-.532 1.823-.217-.032Zm5.25 9.846c-.162 0-.312.003-.447.008l.354-1.092c.055-.152-.224-.346-.339-.516.174.109.624.346.842.441-.023.035-.41 1.16-.41 1.16Zm1.108-1.24-.23 1.195c-.147.02-.304.03-.464.037l.242-1.15c.073-.341-.85-.447-1.306-1.119-.223.25-.643.323-1.063.323-.385 0-.77-.061-1.002-.107a1.111 1.111 0 0 0-.172-.016c-.135 0-.257.041-.342.184l-.068.112-1.258-.295-.313.515c-.045.083-.047.154.024.232l.085.092c-.058.182-.32.457-.32.457l-.187-.232c-.148-.165-.124-.465.031-.744l.5-.837 1.065.153-.166-.376c-.223-.496.116-1.127.152-1.49-.012.11-.113.134-.232.134-.108 0-.228-.02-.307-.02-.031 0-.058.003-.073.013l-.289.174-.228-.2c-.027-.038-.036-.128.031-.195l.528-.587-.623-.722.872.435.266-.32c.073.07.042.257.042.257.272.007 1.036.427 1.076 1.405.003.03.003.063.003.095 0 0 .006.012.02.032.054.074.202.263.391.28l1.206.118h.005c.133 0 .395-.154.733-.154.183 0 .388.047.607.184 0 0 .109-.086.287-.096h.042c.54 0 .765.485 1.055.888.218.307.51.762.51.762-.109.128-.209.198-.376.198a.84.84 0 0 1-.155-.015c-.58-.106-.663-1.29-.994-1.385a.18.18 0 0 0-.206.087c.15.404.063.567.225.878.121.23.337.421.426.51 0 .004-.024.178-.05.31Zm-6.475-1.132.055.138c-.036.12-.454.292-.454.292l-.09-.195a.65.65 0 0 1 .215-.778l.677-.41.718.151a.629.629 0 0 0 .122.396l-.752-.144-.45.31c-.076.052-.082.15-.041.24Zm6.589 2.261.206-1.07.034-.198a1.14 1.14 0 0 0 .4.078c.316 0 .5-.165.622-.306l.16-.183-.13-.201a18.98 18.98 0 0 0-.52-.78 4.035 4.035 0 0 1-.126-.185c-.251-.373-.565-.84-1.195-.84h-.057a.928.928 0 0 0-.264.054 1.436 1.436 0 0 0-.614-.14c-.26 0-.48.072-.626.121-.042.012-.08.026-.11.031l-1.177-.115c-.014-.003-.063-.03-.121-.1v-.006l.255-.102c-.072-.843-.886-1.361-1.34-1.537a.476.476 0 0 0-.133-.237l-.254-.239-.222.265-.11.136-1.648-.673 1.073 1.338-.424.636c-.155.164.017.327.017.327l.436.3.454-.168c.016 0 .03.004.044.005-.021.068-.05.336-.069.412l-.786-.155-.827.464a.968.968 0 0 0-.325 1.174l.092.2.13.281.29-.119.01-.005c-.104.33-.062.643.124.85l.175.22.234.293.256-.274c.076-.075.32-.347.395-.58l.056-.178-.126-.137-.02-.024.14-.23 1.027.24.23.052.123-.201.067-.11c.013-.023.017-.027.064-.027.036 0 .073.004.112.012a5.87 5.87 0 0 0 1.061.108c.308 0 .491-.012.711-.084 0 0 .552.622.57.646l-.336 1.035-.015.063c-.64.05-.951.19-1.328.564-.546-.539-.933-.595-2.402-.595-1.757 0-2.948-1.024-2.948-2.66v-3.997h10.698l.003 3.998c.001 1.327-.782 2.252-2.016 2.553Zm2.313-13.002c-.163.429-.3.894-.3 1.356l.002 2.984c-.627-.105-.702-.776-.704-.806l-.013-.137-.134-.012a.954.954 0 0 1-.606-.288c-.308-.305-.309-.801-.308-.805-.004.025-.338.49.05.998.164.215.4.346.706.398.071.373.35.898 1.009.979v1.46h-1.85c-.855-.471-.493-1.302-.476-1.337l.073-.158-.163-.062c-.924-.34-.67-1.257-.657-1.296l.038-.134-.125-.059c-.764-.351-.66-1.299-.65-1.338-.235.19-.32.575-.158.953-.088.1-.205.22-.333.351a1.03 1.03 0 0 1-.815-.955l-.002-.111-.103-.04c-.31-.114-.521-.285-.625-.514a.994.994 0 0 1-.043-.646 2.632 2.632 0 0 0 .54.056h.012c.091 0 .182-.005.27-.014.493-.049 1.045-.259 1.62-.825h3.745v.002Zm-2.884-3.016.731.422h.01l.184.106a2.157 2.157 0 0 0-.992.589 3.318 3.318 0 0 0-.206.233c-.012.013-.022.028-.034.043a3.357 3.357 0 0 0-.188.262c-.06.09-.118.187-.176.286-.521.891-1.352 1.423-2.091 1.425-.738-.002-1.569-.534-2.09-1.425a5.738 5.738 0 0 0-.173-.282c-.013-.017-.023-.034-.034-.05a5.534 5.534 0 0 0-.194-.263 5.15 5.15 0 0 0-.173-.2c-.012-.01-.02-.021-.032-.032a2.146 2.146 0 0 0-.995-.586l.187-.106h.008l.73-.422.752-.428 2.007 1.086.004-.004.006.004 2.006-1.086.753.428Zm-.99-.9-1.6.838v-3.39l2.17-.732-.57 3.285Zm-1.774-2.925L14.886 5.3c.203-.476 1.136-.881 2.38-.882 1.244 0 2.178.406 2.379.882l-2.38.934Zm29.463 14.187v-5.366h3.168v-1.953h-8.642v1.953h3.168v5.366h2.306Zm6.321-3.06v-4.26h-2.23v7.32h1.969l3.844-4.26v4.26h2.23v-7.32h-1.968l-3.845 4.26Zm13.314.339v2.721h2.23v-7.32h-2.23v2.676H62.78v-2.675h-2.23v7.32h2.23V17.7h3.583Zm8.44 2.721c.507 0 .968-.046 1.399-.169 1.154-.323 1.907-1.26 1.907-2.537 0-1.215-.646-2.06-1.676-2.445-.493-.185-1.076-.2-1.63-.2H72.51v-1.968h-2.229v7.32h4.52Zm-.385-3.629c.308 0 .6 0 .861.093a.82.82 0 0 1 .585.8.92.92 0 0 1-.57.86c-.245.108-.491.108-.876.108h-1.907v-1.86h1.907Zm7.689.861 2.66 2.768h2.968l-3.706-3.813 3.568-3.506h-2.799l-2.691 2.752h-.615v-2.752h-2.23v7.32h2.23v-2.768h.615Zm10.216-4.751c-2.999 0-4.798 1.691-4.798 3.875s1.799 3.875 4.798 3.875c2.984 0 4.783-1.691 4.783-3.875s-1.8-3.875-4.783-3.875Zm0 5.966c-1.492 0-2.444-.892-2.444-2.091 0-1.2.952-2.076 2.444-2.076 1.476 0 2.445.877 2.445 2.076 0 1.2-.969 2.091-2.445 2.091Zm12.209-6.181h-2.23v.738c-2.799.061-4.475 1.245-4.475 3.337 0 2.09 1.676 3.183 4.475 3.244v.738h2.23v-.738c2.814-.061 4.49-1.153 4.49-3.244 0-2.092-1.676-3.276-4.49-3.337v-.739Zm-2.23 5.75c-1.538-.06-2.214-.691-2.214-1.675 0-.985.676-1.692 2.214-1.753v3.429Zm2.23-3.428c1.554.061 2.214.768 2.214 1.753 0 .984-.66 1.614-2.214 1.676v-3.43Zm11.908-2.322h-2.23v.738c-2.798.061-4.474 1.245-4.474 3.337 0 2.09 1.676 3.183 4.474 3.244v.738h2.23v-.738c2.815-.061 4.491-1.153 4.491-3.244 0-2.092-1.676-3.276-4.491-3.337v-.739Zm-2.23 5.75c-1.537-.06-2.214-.691-2.214-1.675 0-.985.677-1.692 2.214-1.753v3.429Zm2.23-3.428c1.554.061 2.215.768 2.215 1.753 0 .984-.661 1.614-2.215 1.676v-3.43Z" fill="#373737"/></g></g></g><defs><clipPath id="a"><path fill="#fff" d="M0 0h121v32H0z"/></clipPath><clipPath id="b"><path fill="#fff" d="M0 0h121v32H0z"/></clipPath><clipPath id="c"><path fill="#fff" d="M0 0h121v32H0z"/></clipPath></defs></svg>