<svg width="121" height="32" viewBox="0 0 121 32" fill="none" xmlns="http://www.w3.org/2000/svg">
<g clip-path="url(#clip0_34_3181)">
<g clip-path="url(#clip1_34_3181)">
<g clip-path="url(#clip2_34_3181)">
<path d="M13.6127 24.2479C13.6127 24.2479 14.0295 24.0777 14.0672 23.9557L14.0119 23.8177C13.9728 23.7279 13.9782 23.63 14.0537 23.5765L14.5042 23.2668L15.2569 23.4102C15.2569 23.4102 15.1206 23.2413 15.1341 23.0148L14.4166 22.8633L13.7395 23.2735C13.4495 23.4893 13.4279 23.8417 13.5237 24.0508L13.6127 24.2479Z" fill="white"/>
<path d="M18.9336 26.1994C19.0684 26.1941 19.2168 26.1914 19.38 26.1914C19.38 26.1914 19.7672 25.0669 19.7886 25.0308C19.5716 24.9356 19.121 24.6982 18.947 24.5898C19.0617 24.76 19.3409 24.9556 19.2856 25.1058L18.9336 26.1994Z" fill="white"/>
<path d="M22.6179 19.5312H11.918V23.5307C11.918 25.1659 13.1091 26.1899 14.8665 26.1899C16.3353 26.1899 16.7223 26.2461 17.2687 26.785C17.645 26.4124 17.9566 26.2729 18.5959 26.2207L18.6107 26.1591L18.9479 25.123C18.929 25.1002 18.3774 24.477 18.3774 24.477C18.1589 24.5494 17.9755 24.5616 17.6666 24.5616C17.3496 24.5616 16.9922 24.5252 16.6051 24.4529C16.5659 24.4435 16.5295 24.4408 16.4931 24.4408C16.4459 24.4408 16.4419 24.4448 16.4297 24.4676L16.3623 24.5775L16.2395 24.7785L16.0089 24.7263L14.9825 24.4863L14.8421 24.7169L14.8637 24.741L14.9892 24.8777L14.9339 25.056C14.8583 25.2892 14.6129 25.5613 14.5387 25.6364L14.2824 25.9098L14.0491 25.6164L13.8738 25.3979C13.6889 25.1927 13.6459 24.8777 13.7497 24.5481C13.7469 24.5507 13.7429 24.552 13.7389 24.552L13.4489 24.6713L13.318 24.3898L13.2263 24.1902C13.0686 23.839 13.1265 23.3257 13.5515 23.016L14.3783 22.5523L15.1646 22.7065C15.1835 22.6313 15.2117 22.3633 15.2347 22.295C15.2199 22.2937 15.2051 22.2896 15.1901 22.2896L14.737 22.4571L14.2999 22.1569C14.2999 22.1569 14.1287 21.9933 14.2837 21.8299L14.7073 21.1933L13.635 19.8555L15.2832 20.5285L15.3925 20.3931L15.615 20.129L15.8673 20.3676C15.9387 20.4359 15.9792 20.5203 15.9994 20.6048C16.4539 20.7804 17.2673 21.2991 17.3387 22.1421L17.0839 22.244V22.2507C17.1419 22.3191 17.1904 22.3473 17.2052 22.3499L18.3814 22.4653C18.4111 22.4599 18.4489 22.4464 18.4907 22.4343C18.6363 22.3848 18.8562 22.3137 19.1165 22.3137C19.3283 22.3137 19.5332 22.3619 19.7301 22.4531C19.803 22.4263 19.8921 22.4062 19.9946 22.3995L20.0511 22.3982C20.6811 22.3982 20.9939 22.8659 21.2449 23.2386C21.2867 23.3028 21.3285 23.3645 21.3717 23.4248C21.5915 23.7331 21.8787 24.1848 21.8909 24.2036L22.0204 24.4047L21.8612 24.5883C21.7385 24.7289 21.5551 24.8939 21.2395 24.8939C21.1747 24.8939 21.1033 24.8871 21.0264 24.8723C20.959 24.8603 20.8983 24.8401 20.8389 24.8161C20.8295 24.8777 20.8173 24.9516 20.8051 25.0145L20.5988 26.084C21.8329 25.7825 22.6166 24.8563 22.6166 23.5321L22.6179 19.5312Z" fill="#FFDD2D"/>
<path d="M11.9178 19.2061H20.2384C19.823 18.7799 19.8284 18.2398 19.935 17.8886C19.8136 17.8309 19.7138 17.7612 19.6248 17.6862C19.2997 17.9247 18.307 18.6432 18.048 18.8227L17.9928 18.8603L14.7273 18.2733H14.6612C14.583 18.2733 14.4684 18.2705 14.3429 18.2558C14.3078 18.4019 14.1811 18.5025 14.0354 18.5025C14.0192 18.5025 14.0003 18.5011 13.9828 18.497C13.8978 18.4823 13.8237 18.4394 13.7738 18.3684C13.7225 18.2987 13.7023 18.2156 13.7171 18.1299L13.7292 18.0601C13.392 17.8243 13.0818 17.2975 13.2194 16.7426L13.2328 16.6837L13.2801 16.6501C13.2868 16.6448 13.3434 16.6073 13.4271 16.559L13.1897 16.5228C13.1007 16.5067 13.0414 16.4249 13.0549 16.3379C13.0697 16.2494 13.1533 16.1863 13.241 16.2038L13.8061 16.2923L13.8574 14.3139L14.699 13.4293L15.2237 14.5271L14.6693 16.4303L15.1684 16.5081C15.256 16.5215 15.3168 16.6032 15.3033 16.693C15.2898 16.7721 15.2224 16.8271 15.1428 16.8271C15.1346 16.8271 15.1252 16.8271 15.1171 16.8257L14.7111 16.7601C14.7166 16.7721 14.7246 16.7787 14.73 16.7921C14.7732 16.8807 14.869 16.945 14.9256 16.9718L17.4155 17.0107C17.5206 16.9088 17.7824 16.6541 18.0508 16.3847C17.4384 16.1542 17.2158 15.6288 17.178 15.2803C16.8355 15.1355 16.5994 14.9185 16.4686 14.6356C16.3094 14.2859 16.3661 13.936 16.4079 13.7658C16.0761 13.6451 15.7268 13.4254 15.3707 13.0742H11.6211C11.7816 13.503 11.9178 13.9682 11.9178 14.4306V19.2061Z" fill="#FFDD2D"/>
<path d="M15.3428 21.2621C15.2821 21.2567 15.2309 21.3035 15.2268 21.3625C15.2228 21.4241 15.2686 21.4764 15.3307 21.4777C15.39 21.4831 15.4426 21.4375 15.448 21.3773C15.448 21.3183 15.4049 21.2634 15.3428 21.2621Z" fill="#373737"/>
<path d="M22.599 28.5144L21.9826 28.2798L22.1525 27.6472L22.34 26.957C22.34 26.957 21.2475 27.5454 19.7085 27.9878C19.2715 28.1124 18.9411 28.1686 18.9411 28.1686V28.6377C18.9411 28.6377 18.1183 28.7798 17.2861 28.7798H17.2766H17.2645H17.2483H17.2389C16.4067 28.7798 15.5839 28.6377 15.5839 28.6377V28.1686C15.5839 28.1686 15.2521 28.1124 14.8165 27.9878C13.2775 27.5454 12.1863 26.957 12.1863 26.957L12.3711 27.6472L12.5451 28.2798L11.9273 28.5144L11.2422 28.769C12.0285 29.1457 13.1169 29.6953 14.1138 29.966L13.8791 30.604C13.8791 30.604 15.1429 31.1763 17.2483 31.1817V31.183H17.2551H17.2645H17.2727H17.278V31.1817C19.3862 31.1763 20.6486 30.604 20.6486 30.604L20.4125 29.966C21.4093 29.6953 22.5005 29.1457 23.2828 28.769L22.599 28.5144ZM11.9732 28.812L12.9875 28.477L12.6881 27.5052C13.1345 27.7572 14.1367 28.1351 14.7166 28.3107L14.2271 29.647C13.3314 29.4018 12.5855 29.1162 11.9732 28.812ZM17.2645 30.8466C16.087 30.8466 14.7423 30.5772 14.3471 30.4378L14.9486 28.82C15.4477 28.9648 16.4863 29.1189 17.2402 29.1135H17.2416H17.2645H17.2847H17.2875C18.0415 29.1189 19.0773 28.9648 19.5791 28.82L20.1792 30.4378C19.7841 30.5785 18.4407 30.8466 17.2645 30.8466ZM20.2993 29.647L19.8111 28.3107C20.3923 28.1351 21.3917 27.7572 21.8396 27.5052L21.5415 28.477L22.5545 28.812C21.9407 29.1162 21.1989 29.4018 20.2993 29.647Z" fill="#373737"/>
<path d="M17.2631 3.2639C18.5175 3.2639 19.5209 3.67678 20.0753 4.11776C20.0753 4.11776 20.2399 3.13257 20.8023 2.26276L19.7921 2.37664L19.2634 1.26019L18.2477 1.78025L17.2631 0.8125L16.2812 1.78025L15.2643 1.26019L14.7369 2.37664L13.7266 2.26276C14.289 3.13257 14.4536 4.11776 14.4536 4.11776C15.0093 3.67678 16.0101 3.2639 17.2631 3.2639ZM14.6909 2.768L14.9715 2.79753L15.0929 2.5442L15.4463 1.79364L16.1018 2.13L16.3554 2.2587L16.5577 2.06037L17.2645 1.36341L17.9726 2.06037L18.1749 2.2587L18.4285 2.13L19.08 1.79364L19.4374 2.5442L19.5561 2.79753L19.8366 2.768L20.1037 2.73583C19.9809 3.01066 19.8905 3.2706 19.8257 3.48647C19.119 3.09511 18.1991 2.87254 17.2618 2.87254C16.3285 2.87254 15.4099 3.09511 14.7004 3.48647C14.6344 3.2706 14.5453 3.00925 14.4225 2.73583L14.6909 2.768Z" fill="#373737"/>
<path d="M31.9814 16.3345C33.604 16.3345 34.1462 14.694 34.1691 14.6243L34.3498 14.0465L33.7415 14.0653H33.7389C33.5244 14.0653 31.7345 14.0184 30.4653 12.4154L30.3453 12.2667C29.5158 11.2185 28.7295 10.2227 27.324 9.76824C27.3645 9.73211 27.4225 9.68651 27.5021 9.63558C28.2479 9.14771 28.6822 8.55524 28.7915 7.86771C28.9506 6.83298 28.2871 6.00867 28.2574 5.97517L27.8055 5.4203L27.5237 6.07839C27.5048 6.11991 27.03 7.17344 26.0319 7.17344H25.9577C25.8889 7.16938 25.8241 7.16671 25.7594 7.16131C25.7946 6.69091 25.7081 5.9631 25.0446 5.28086C24.2474 4.45926 23.2682 4.33594 22.7558 4.33594C22.4819 4.33594 22.2998 4.36944 22.2809 4.37217L21.5985 4.50615L22.0193 5.05706C22.3498 5.48192 22.6491 6.26605 22.2943 6.67618C22.1811 6.80618 21.9478 6.91204 21.7239 7.01791C21.264 7.22831 20.6367 7.52051 20.6367 8.26578C20.6367 8.74831 21.0131 9.25224 21.6955 9.68111C23.7161 10.9437 24.9623 12.2613 25.5005 13.7155C26.3327 15.9525 25.2469 17.2285 24.1921 17.9L23.7187 18.2029L24.1328 18.5808C24.1881 18.6291 24.6953 19.0727 25.4438 19.1371C25.5854 19.1465 25.7216 19.1545 25.8485 19.1545C26.3286 19.1545 26.7373 19.0795 27.0691 18.9789C26.9773 19.1384 26.8654 19.3006 26.7238 19.4641C26.121 20.1583 25.3791 20.4747 24.3122 20.4908L23.9156 20.4975L23.8846 20.8929C23.8805 20.9719 23.8509 21.7051 24.5495 22.3284C24.6561 22.4248 24.7856 22.504 24.9205 22.5697C24.4471 22.9932 23.9655 23.7303 23.8725 24.9943C23.7943 26.0491 23.5407 26.4391 23.538 26.4431L23.0997 27.1079L23.8914 27.1187C25.1998 27.1187 26.2018 26.7595 26.8964 26.0491C27.3065 25.6282 27.5412 25.1537 27.6802 24.7329C27.9081 24.9259 28.2022 25.0947 28.5851 25.1845C28.7308 25.2181 28.89 25.2368 29.0613 25.2368C29.4309 25.2368 29.7397 25.1591 29.7748 25.1511L30.2805 25.017L30.0567 24.5479C30.0405 24.5104 29.6183 23.5695 30.0728 22.2265C30.2684 21.6461 30.3682 21.1261 30.4167 20.7213C30.7351 20.8861 31.1614 21.0229 31.713 21.0242C32.9646 21.0242 33.5163 20.0954 33.5419 20.0565L33.7888 19.6303L33.3316 19.4427C31.8397 18.8275 31.5093 17.1748 31.4432 16.2795C31.5781 16.305 31.7319 16.3291 31.9058 16.3345H31.9814ZM33.1642 19.838C33.1642 19.838 32.7272 20.5927 31.7251 20.5927H31.713C30.5098 20.5859 30.0243 19.8568 30.0243 19.8568C30.0243 19.8568 30.0944 20.8058 29.6601 22.0857C29.1381 23.6285 29.6641 24.7316 29.6641 24.7316C29.6641 24.7316 29.3836 24.8066 29.0599 24.8066C28.9358 24.8066 28.8063 24.7945 28.6849 24.7623C27.6801 24.5251 27.4293 23.6164 27.4293 23.6164C27.4293 23.6164 27.5223 26.6871 23.9197 26.6871H23.8914C23.8914 26.6871 24.2083 26.2581 24.3027 25.0237C24.474 22.7452 26.0265 22.4329 26.0265 22.4329C26.0265 22.4329 25.1983 22.3297 24.8395 22.0094C24.2784 21.5041 24.3176 20.9197 24.3176 20.9197C25.5854 20.9023 26.4149 20.4734 27.0475 19.7456C27.7327 18.9575 27.846 18.1091 27.846 18.1091C27.846 18.1091 27.1648 18.7229 25.8472 18.7229C25.7312 18.7229 25.607 18.7175 25.4802 18.7055C24.8571 18.6559 24.4255 18.2618 24.4255 18.2618C25.7971 17.3879 26.7602 15.8627 25.9065 13.5653C25.2226 11.7251 23.5798 10.35 21.9262 9.31391C21.3759 8.97211 21.0697 8.59284 21.0697 8.26578C21.0697 7.49644 22.1703 7.47231 22.6222 6.95491C23.1427 6.35446 22.8163 5.3801 22.3645 4.79438C22.3645 4.79438 22.5169 4.76353 22.757 4.76353C23.2331 4.76353 24.0573 4.88279 24.7343 5.57976C25.634 6.50457 25.2604 7.51118 25.2604 7.51118L25.5018 7.55811C25.6461 7.58891 25.7891 7.59431 25.9375 7.60098C25.9698 7.60098 26.0022 7.60231 26.0346 7.60231C27.3416 7.60231 27.9256 6.24454 27.9256 6.24454C27.9256 6.24454 29.3149 7.94278 27.2701 9.27231C26.918 9.50018 26.7629 9.71058 26.8034 9.93578L26.8358 10.0833L26.9814 10.1087C28.4637 10.5081 29.2137 11.5241 30.1295 12.6794C31.5201 14.4366 33.488 14.4929 33.7308 14.4929H33.7564C33.7564 14.4929 33.3072 15.9015 31.9841 15.9015C31.9625 15.9015 31.9436 15.9015 31.9207 15.9003C31.3124 15.8787 31.0008 15.6469 31.0008 15.6469C31.0008 15.6469 30.7621 18.8462 33.1642 19.838Z" fill="#373737"/>
<path d="M29.131 9.94565C29.7365 10.2659 30.0886 10.6949 30.3975 11.0755C30.7009 11.4467 30.9896 11.8046 31.44 11.9534C31.6005 12.0084 31.7705 12.0339 31.9431 12.0339C32.6202 12.0339 33.3001 11.6223 33.5576 11.0527L33.8166 10.4817L33.1895 10.4442C33.1597 10.4429 32.3532 10.3705 31.4549 9.45772C31.0853 9.08385 30.6389 8.88672 30.1573 8.88672C29.5693 8.88672 29.1336 9.17892 29.0851 9.20845L28.5078 9.61192L29.131 9.94565ZM30.1587 9.31839C30.4608 9.31839 30.8129 9.42018 31.1461 9.76198C32.1913 10.8169 33.1638 10.8758 33.1638 10.8758C32.9871 11.2645 32.4746 11.6063 31.9445 11.6063C31.8218 11.6063 31.699 11.5875 31.5763 11.546C30.8574 11.3047 30.5997 10.2325 29.3359 9.56492C29.3359 9.56492 29.6894 9.31839 30.1587 9.31839Z" fill="#373737"/>
<path d="M29.4158 15.6404V15.6619C29.0517 12.7427 26.9179 10.6344 24.544 9.3517C24.3242 9.23503 24.1219 9.1359 23.9249 9.0407C24.6479 9.15197 25.8119 9.16536 26.7101 8.39062C26.7101 8.39062 25.3357 9.39589 22.5195 8.48316C23.2991 8.98576 24.8138 9.69482 26.1963 10.8434C29.6533 13.8618 27.1795 16.8064 27.1795 16.8064C28.4218 15.5185 28.473 14.138 28.1075 13.0108C28.7617 14.0924 29.1798 15.4058 29.115 17.025C29.0193 19.345 27.7366 21.3515 26.3864 22.9639C25.7377 23.7466 25.5921 24.7076 25.5921 24.7076C25.5921 24.7076 25.8537 23.8592 26.6049 22.9866C28.0522 21.3033 29.289 19.5541 29.4509 17.0343C29.6006 17.4914 30.217 18.7634 31.1949 19.2418C31.1975 19.2432 29.9688 18.5074 29.4158 15.6404Z" fill="#373737"/>
<path d="M10.9916 26.443C10.9903 26.439 10.7394 26.0489 10.6585 24.9941C10.5641 23.7302 10.0839 22.993 9.60914 22.5695C9.74674 22.5051 9.87347 22.4261 9.98007 22.3283C10.6774 21.7049 10.6477 20.9719 10.6436 20.8928L10.6167 20.4974L10.2174 20.4907C9.15327 20.4732 8.41001 20.1569 7.80714 19.4639C7.66687 19.3005 7.5536 19.1383 7.46187 18.9788C7.79361 19.0793 8.1996 19.1544 8.68114 19.1544C8.81067 19.1544 8.94421 19.1463 9.08581 19.1369C9.83434 19.0726 10.3415 18.6303 10.3981 18.5807L10.8122 18.2028L10.3388 17.8998C9.28001 17.227 8.19827 15.951 9.02914 13.7154C9.56727 12.2611 10.8122 10.9436 12.8354 9.68105C13.5179 9.25211 13.8915 8.74825 13.8915 8.26571C13.8915 7.52051 13.2657 7.22698 12.8057 7.01785C12.5818 6.91198 12.3485 6.80611 12.2353 6.67611C11.8791 6.26729 12.1799 5.48191 12.509 5.05697L12.9325 4.50615L12.2473 4.37208C12.2271 4.36943 12.0477 4.33594 11.7726 4.33594C11.26 4.33594 10.2835 4.45925 9.48501 5.28085C8.82007 5.96442 8.73247 6.69218 8.76614 7.16125C8.7014 7.16665 8.63667 7.16938 8.56921 7.17331H8.49641C7.49561 7.17331 7.02221 6.11991 7.00334 6.07831L6.72134 5.42021L6.26547 5.97509C6.23987 6.00867 5.5736 6.83425 5.73543 7.86765C5.84332 8.55518 6.27761 9.14758 7.02347 9.63551C7.10441 9.68645 7.16107 9.73198 7.20154 9.76825C5.79749 10.2225 5.01247 11.2197 4.18294 12.2678L4.06289 12.4166C2.79509 14.0196 1.00116 14.0666 0.786715 14.0666L0.175781 14.0478L0.361854 14.6254C0.383448 14.6951 0.924308 16.3357 2.5482 16.3357L2.62647 16.3331C2.79774 16.3277 2.95155 16.3049 3.08914 16.2781C3.02163 17.172 2.69117 18.8247 1.19808 19.4412L0.742194 19.6289L0.989095 20.0551C1.01333 20.0939 1.56635 21.0228 2.82065 21.0228C3.3683 21.0214 3.79448 20.8847 4.11419 20.7199C4.16275 21.1246 4.26253 21.6447 4.45812 22.225C4.91269 23.568 4.48915 24.5089 4.47293 24.5465L4.24905 25.0156L4.75623 25.1496C4.78991 25.1576 5.1015 25.2353 5.46968 25.2353C5.64235 25.2353 5.80155 25.2166 5.94454 25.1831C6.32894 25.0933 6.6256 24.9245 6.85081 24.7314C6.98841 25.1522 7.22447 25.6267 7.63321 26.0476C8.32907 26.7579 9.32987 27.1171 10.6382 27.1171L11.4313 27.1065L10.9916 26.443ZM10.6085 26.6883C7.00594 26.6883 7.09774 23.6176 7.09774 23.6176C7.09774 23.6176 6.84687 24.5263 5.842 24.7636C5.72195 24.7957 5.59379 24.8079 5.46835 24.8079C5.14469 24.8079 4.86545 24.7327 4.86545 24.7327C4.86545 24.7327 5.38876 23.6297 4.86677 22.087C4.43521 20.8069 4.50537 19.8581 4.50537 19.8581C4.50537 19.8581 4.02111 20.5872 2.81669 20.5939H2.80452C1.8024 20.5939 1.36538 19.8393 1.36538 19.8393C3.76619 18.8488 3.53013 15.6508 3.53013 15.6508C3.53013 15.6508 3.21863 15.8813 2.60893 15.9041C2.58734 15.9055 2.56715 15.9055 2.54555 15.9055C1.221 15.9055 0.773228 14.4968 0.773228 14.4968H0.800194C1.04436 14.4968 3.00955 14.4405 4.40012 12.6833C5.31595 11.528 6.06721 10.5133 7.54681 10.1127L7.69514 10.0872L7.72761 9.93978C7.76807 9.71458 7.61427 9.50418 7.26227 9.27631C5.21749 7.94538 6.60674 6.24851 6.60674 6.24851C6.60674 6.24851 7.18807 7.60498 8.49774 7.60498C8.53007 7.60498 8.5598 7.60358 8.59347 7.60358C8.74047 7.59551 8.88621 7.59018 9.02914 7.55938L9.2706 7.51245C9.2706 7.51245 8.89694 6.50589 9.79794 5.58108C10.4751 4.88279 11.2991 4.76485 11.7739 4.76485C12.0153 4.76485 12.1651 4.79562 12.1651 4.79562C11.7146 5.38267 11.3882 6.35579 11.9087 6.95625C12.3593 7.47225 13.4585 7.49771 13.4585 8.26705C13.4585 8.59271 13.1524 8.97345 12.6021 9.31518C10.9471 10.3512 9.30434 11.7263 8.6218 13.5666C7.76941 15.8639 8.73107 17.3878 10.1055 18.2631C10.1055 18.2631 9.67387 18.6571 9.0494 18.7067C8.92261 18.7188 8.79987 18.7241 8.68114 18.7241C7.36474 18.7241 6.68361 18.1102 6.68361 18.1102C6.68361 18.1102 6.79687 18.9587 7.47807 19.7468C8.11467 20.4745 8.94421 20.9035 10.2121 20.9209C10.2121 20.9209 10.2525 21.5053 9.69141 22.0105C9.33134 22.3295 8.50307 22.4341 8.50307 22.4341C8.50307 22.4341 10.0569 22.7464 10.2269 25.0249C10.3199 26.2593 10.6342 26.6883 10.6342 26.6883H10.6085Z" fill="#373737"/>
<path d="M2.58564 12.0364C2.75964 12.0364 2.92957 12.0109 3.09 11.9559C3.54324 11.8071 3.83051 11.4493 4.13399 11.078C4.44426 10.6973 4.79358 10.2685 5.39913 9.94808L6.02233 9.61568L5.44365 9.21222C5.39508 9.18142 4.96079 8.89062 4.37409 8.89062C3.89124 8.89062 3.44346 9.08628 3.0752 9.46148C2.17691 10.373 1.3717 10.4467 1.34199 10.4481L0.714844 10.4842L0.972491 11.0565C1.23137 11.6235 1.90983 12.0364 2.58564 12.0364ZM3.38406 9.76448C3.71856 9.42262 4.07062 9.32082 4.37409 9.32082C4.84074 9.32082 5.19411 9.56736 5.19411 9.56736C3.9317 10.2363 3.67273 11.3073 2.95109 11.5485C2.83244 11.59 2.70834 11.6088 2.58564 11.6088C2.05553 11.6088 1.54297 11.2683 1.36765 10.8783C1.36765 10.877 2.33874 10.8179 3.38406 9.76448Z" fill="#373737"/>
<path d="M5.41714 17.0288C5.34971 15.4097 5.76787 14.0962 6.42332 13.0146C6.05779 14.1418 6.10772 15.5223 7.35132 16.8104C7.35132 16.8104 4.8776 13.8657 8.33586 10.8473C9.71979 9.69866 11.2331 8.98959 12.0114 8.48699C9.19646 9.39973 7.82199 8.39453 7.82199 8.39453C8.72026 9.16926 9.88432 9.15586 10.6073 9.04333C10.4117 9.13839 10.2066 9.23759 9.98946 9.35419C7.61299 10.6368 5.48052 12.7452 5.11498 15.6644V15.6416C4.56337 18.5086 3.33594 19.2444 3.33594 19.2444C4.3125 18.7658 4.92758 17.4952 5.07725 17.0369C5.2405 19.5567 6.47726 21.3058 7.92452 22.9892C8.67579 23.8617 8.94019 24.7102 8.94019 24.7102C8.94019 24.7102 8.79319 23.7491 8.14172 22.9664C6.79426 21.3567 5.51154 19.3489 5.41714 17.0288Z" fill="#373737"/>
<path d="M16.4531 11.1211V11.7001C16.6541 11.4575 17.0426 11.5072 17.0426 11.5072V12.3422C17.0426 12.3422 17.0291 12.7523 16.8821 12.9305H17.3029H17.7223C17.5781 12.7537 17.5631 12.3422 17.5631 12.3422V11.5072C17.5631 11.5072 17.9516 11.4575 18.1513 11.7001V11.1211H17.3029H16.4531Z" fill="#373737"/>
<path d="M16.0899 7.68674C16.3583 7.8986 16.5134 7.9334 16.5188 7.93747L16.624 7.98567V7.44014L15.6367 7.02734C15.6367 7.02867 15.6461 7.3436 16.0899 7.68674Z" fill="#373737"/>
<path d="M18.4391 7.68674C18.8855 7.3436 18.8936 7.02734 18.8936 7.02734L17.9062 7.44014V7.98567L18.01 7.93747C18.0168 7.9334 18.1707 7.8986 18.4391 7.68674Z" fill="#373737"/>
<path d="M20.2179 5.46536C20.2179 4.63839 18.8165 3.89453 17.2695 3.89453H17.2681H17.2641H17.2601C15.713 3.89453 14.3116 4.63839 14.3116 5.46536L14.3427 5.66907L14.9603 9.19276L14.34 9.55062L12.7349 10.4822H12.7403C12.7403 10.4822 12.3789 10.6658 12.2115 10.7797C11.6006 11.202 11.4711 11.8171 11.8258 12.0718C11.9135 11.5705 12.3127 11.0451 13.0599 11.0451C13.5981 11.0451 14.0081 11.3212 14.34 11.7354C14.4249 11.8399 14.5059 11.9512 14.5814 12.0718C14.6744 12.2232 14.7675 12.356 14.8606 12.4847H10.7266C11.0301 13.0918 11.3187 13.7352 11.3187 14.4335V23.5261C11.3187 25.7269 13.0222 26.7777 14.8646 26.7777C16.2889 26.7777 16.4805 26.7134 17.2669 27.4907C18.0491 26.7121 18.2407 26.7777 19.6663 26.7777C21.5101 26.7777 23.2109 25.7269 23.2109 23.5261V14.4335C23.2109 13.7352 23.4996 13.0918 23.8044 12.4847H19.669C19.7607 12.3573 19.8538 12.2232 19.9468 12.0718C20.0237 11.9512 20.1033 11.8399 20.1869 11.7354C20.5214 11.3199 20.9301 11.0451 21.4683 11.0451C22.2155 11.0451 22.6134 11.5692 22.7024 12.0718C23.0572 11.8171 22.929 11.202 22.3139 10.7797C22.1494 10.6658 21.7879 10.4822 21.7879 10.4822H21.7933L20.1883 9.55062L19.5705 9.19276L20.1883 5.66907L20.2179 5.46536ZM14.9199 5.8755L17.0915 6.60729V9.99696L15.4932 9.15929L14.9199 5.8755ZM15.3691 13.0757C15.7252 13.4281 16.0745 13.6467 16.4063 13.7673C16.3631 13.9375 16.3065 14.2887 16.467 14.6385C16.5978 14.9199 16.8352 15.1371 17.1764 15.2819C17.2142 15.6304 17.4354 16.1544 18.0491 16.3863C17.7807 16.6557 17.519 16.909 17.4125 17.0122L14.9239 16.9733C14.8673 16.9451 14.7715 16.8822 14.7285 16.7924C14.723 16.7803 14.7149 16.7736 14.7109 16.7602L15.1168 16.8259C15.1263 16.8272 15.1343 16.8272 15.1425 16.8272C15.2207 16.8272 15.2895 16.7736 15.303 16.6932C15.3165 16.6034 15.2558 16.5216 15.1681 16.5082L14.6691 16.4305L15.2234 14.5285L14.6987 13.4309L13.8571 14.3155L13.8058 16.2937L13.2407 16.2053C13.153 16.1879 13.0694 16.2523 13.0546 16.3393C13.0411 16.4265 13.1004 16.5082 13.1894 16.5243L13.4268 16.5605C13.3419 16.6088 13.2866 16.6463 13.2798 16.6516L13.2312 16.6851L13.2177 16.7442C13.0802 17.2991 13.3917 17.8258 13.7277 18.0617L13.7155 18.1313C13.702 18.2172 13.7209 18.3002 13.7721 18.3699C13.8207 18.441 13.8962 18.4839 13.9798 18.4986C13.9974 18.5013 14.0162 18.5026 14.0325 18.5026C14.1781 18.5026 14.3049 18.4021 14.3413 18.2561C14.4667 18.2707 14.5814 18.2734 14.6596 18.2734H14.7257L17.9911 18.8591L18.0464 18.823C18.3067 18.642 19.2981 17.9237 19.6231 17.6863C19.7121 17.7628 19.8119 17.8325 19.9333 17.8901C19.8281 18.2412 19.8214 18.7814 20.2382 19.2077H11.9162V14.4348C11.9162 13.9724 11.78 13.5073 11.6195 13.0784H15.3691V13.0757ZM19.4046 17.4425C19.0742 17.6837 18.2245 18.3002 17.9169 18.5147L14.9496 17.9853C14.9564 17.9585 14.9631 17.933 14.9699 17.9062C15.0089 17.7533 15.0481 17.5443 15.0508 17.2991L17.5447 17.3393L17.5919 17.2909C17.6297 17.2535 18.4201 16.4948 18.8233 16.0579C18.9191 16.1771 19.0391 16.2911 19.1955 16.3916C19.1416 16.6811 19.1645 17.0939 19.4046 17.4425ZM14.4371 16.9317C14.5072 17.0779 14.6339 17.1757 14.7217 17.2307C14.7189 17.3673 14.7055 17.5805 14.6691 17.7681C14.6609 17.8097 14.6502 17.8485 14.638 17.8874C14.6313 17.9116 14.6245 17.9317 14.6191 17.9477C14.4883 17.9477 14.2307 17.9317 14.0203 17.8553C13.787 17.7695 13.439 17.3446 13.5199 16.8769C13.6211 16.8151 13.8544 16.6851 14.0729 16.6851C14.2415 16.6838 14.3561 16.7629 14.4371 16.9317ZM14.1282 16.3434L14.1781 14.4441L14.607 13.9925L14.8768 14.5527L14.3453 16.3755L14.1282 16.3434ZM19.3777 26.1893C19.2158 26.1893 19.0661 26.192 18.9312 26.1974L19.2846 25.105C19.3399 24.9535 19.0607 24.7592 18.946 24.589C19.12 24.6976 19.5705 24.9348 19.7877 25.03C19.7648 25.0648 19.3777 26.1893 19.3777 26.1893ZM20.4863 24.9482L20.2557 26.1438C20.1087 26.1639 19.9523 26.1745 19.7917 26.1813L20.0345 25.0313C20.1073 24.6895 19.1835 24.5836 18.7276 23.9121C18.505 24.1614 18.0855 24.2352 17.6647 24.2352C17.2803 24.2352 16.8959 24.1735 16.6625 24.1279C16.6032 24.1186 16.5465 24.1119 16.4913 24.1119C16.3564 24.1119 16.2336 24.1534 16.1487 24.2955L16.0812 24.4081L14.8229 24.1132L14.5099 24.6279C14.4654 24.711 14.4627 24.7821 14.5342 24.8597L14.6191 24.9523C14.5611 25.1345 14.2995 25.4093 14.2995 25.4093L14.1121 25.1773C13.9636 25.0125 13.9879 24.7123 14.1431 24.4335L14.6421 23.5958L15.7077 23.7486L15.5417 23.3733C15.3192 22.8774 15.6577 22.2461 15.6941 21.8829C15.682 21.9928 15.5808 22.0169 15.4621 22.0169C15.3543 22.0169 15.2342 21.9968 15.1546 21.9968C15.1236 21.9968 15.0966 21.9995 15.0818 22.0102L14.7931 22.1845L14.5652 21.9847C14.5382 21.9459 14.5288 21.8561 14.5962 21.7891L15.1236 21.202L14.5005 20.4796L15.3731 20.9152L15.6388 20.5949C15.7117 20.6659 15.6807 20.8522 15.6807 20.8522C15.9531 20.8589 16.7165 21.2785 16.757 22.2569C16.7597 22.2863 16.7597 22.3199 16.7597 22.3519C16.7597 22.3519 16.7665 22.3641 16.7799 22.3841C16.8339 22.4579 16.9822 22.6469 17.171 22.6643L18.3769 22.7823H18.3822C18.5145 22.7823 18.7775 22.6281 19.1146 22.6281C19.2981 22.6281 19.5031 22.675 19.7216 22.8117C19.7216 22.8117 19.8308 22.7259 20.0089 22.7165C20.0223 22.7152 20.0373 22.7152 20.0507 22.7152C20.5916 22.7152 20.8155 23.2005 21.1055 23.6039C21.324 23.9108 21.6153 24.3665 21.6153 24.3665C21.5074 24.4938 21.4075 24.5635 21.2403 24.5635C21.1945 24.5635 21.1419 24.5595 21.0852 24.5488C20.5052 24.4429 20.4217 23.2581 20.0912 23.1642C20.0737 23.1589 20.0548 23.1575 20.0386 23.1575C19.932 23.1575 19.8849 23.2514 19.8849 23.2514C20.0358 23.6547 19.9482 23.8183 20.1101 24.1293C20.2314 24.3598 20.4472 24.5501 20.5363 24.6399C20.5363 24.6426 20.512 24.8169 20.4863 24.9482ZM14.0109 23.8169L14.0661 23.9551C14.0297 24.0757 13.6117 24.2472 13.6117 24.2472L13.5212 24.0515C13.4255 23.8424 13.4457 23.4899 13.7371 23.2741L14.4141 22.864L15.1317 23.0154C15.1182 23.2419 15.2544 23.4109 15.2544 23.4109L14.5018 23.2675L14.0513 23.5771C13.9758 23.6293 13.9704 23.7272 14.0109 23.8169ZM20.5997 26.0781L20.8061 25.0085C20.8168 24.9455 20.8303 24.8718 20.8397 24.8101C20.8977 24.8343 20.9598 24.8544 21.0272 24.8665C21.1041 24.8812 21.1755 24.8879 21.2403 24.8879C21.556 24.8879 21.7394 24.723 21.8621 24.5823L22.0213 24.3987L21.8918 24.1977C21.8797 24.1775 21.5937 23.7272 21.3725 23.4189C21.3293 23.3586 21.2875 23.2983 21.2457 23.2326C20.9949 22.8599 20.6806 22.3923 20.0507 22.3923L19.9941 22.3936C19.8902 22.4003 19.8012 22.4203 19.7297 22.4471C19.5314 22.3547 19.3277 22.3078 19.1159 22.3078C18.8557 22.3078 18.6358 22.3789 18.4901 22.4284C18.4483 22.4405 18.4106 22.4539 18.3809 22.4593L17.2034 22.3439C17.1886 22.3413 17.14 22.3132 17.082 22.2435V22.2381L17.3369 22.1362C17.2655 21.2932 16.4508 20.7745 15.9963 20.5989C15.9761 20.5144 15.9356 20.4299 15.8641 20.3617L15.6105 20.1231L15.3879 20.3885L15.2787 20.5239L13.6305 19.8509L14.7028 21.1886L14.2793 21.8253C14.1241 21.9888 14.2955 22.1523 14.2955 22.1523L14.7324 22.4512L15.1857 22.2837C15.2018 22.2837 15.2153 22.2877 15.2301 22.289C15.2086 22.3573 15.1803 22.6254 15.1613 22.7005L14.375 22.5463L13.5482 23.0101C13.1233 23.3197 13.0653 23.8331 13.2232 24.1843L13.3149 24.3839L13.4457 24.6654L13.7343 24.5461C13.7384 24.5447 13.7425 24.5434 13.7451 24.5408C13.6413 24.8705 13.6831 25.1841 13.8692 25.3905L14.0445 25.6103L14.2779 25.9039L14.5342 25.6304C14.6097 25.5553 14.8539 25.2833 14.9294 25.0501L14.9847 24.8717L14.8593 24.7351L14.839 24.711L14.9793 24.4804L16.0057 24.7203L16.2363 24.7726L16.3591 24.5715L16.4265 24.4616C16.4387 24.4389 16.4427 24.4348 16.4899 24.4348C16.5263 24.4348 16.5627 24.4389 16.6019 24.4469C16.9889 24.5193 17.3463 24.5555 17.6633 24.5555C17.9709 24.5555 18.1543 24.5434 18.3741 24.4711C18.3741 24.4711 18.9258 25.0929 18.9447 25.1171L18.6075 26.1518L18.5927 26.2148C17.9533 26.2657 17.6418 26.4051 17.2655 26.7791C16.7192 26.2402 16.3321 26.184 14.8633 26.184C13.1058 26.184 11.9149 25.16 11.9149 23.5248V19.5267H22.6134L22.6161 23.5248C22.6174 24.8517 21.8338 25.7765 20.5997 26.0781ZM22.9128 13.0757C22.7497 13.5046 22.6134 13.9697 22.6134 14.4321L22.6148 17.4157C21.9875 17.3111 21.9134 16.6395 21.9107 16.6101L21.8985 16.4734L21.7637 16.4613C21.4912 16.4359 21.3105 16.3205 21.1581 16.1732C20.8505 15.8676 20.8491 15.3717 20.8505 15.3676C20.8465 15.3931 20.512 15.8581 20.9005 16.3661C21.0636 16.5806 21.2997 16.712 21.6059 16.7643C21.6773 17.1369 21.9565 17.6622 22.6148 17.7427V19.2036H20.7642C19.9104 18.7319 20.2719 17.9008 20.2894 17.866L20.3623 17.7078L20.1991 17.6461C19.2751 17.3057 19.5287 16.3889 19.5422 16.3501L19.5799 16.216L19.4545 16.1571C18.6911 15.8059 18.795 14.8583 18.8045 14.8195C18.5697 15.0084 18.4847 15.3944 18.6466 15.7724C18.5589 15.8716 18.4417 15.9922 18.3135 16.1235C17.5231 15.9239 17.4989 15.2015 17.4989 15.168L17.4974 15.0567L17.3936 15.0165C17.0847 14.9025 16.8729 14.7323 16.7691 14.5031C16.6518 14.2499 16.6935 13.9845 16.726 13.8571C16.8163 13.8772 16.9067 13.892 16.993 13.8987C17.082 13.908 17.1737 13.9134 17.2655 13.9134H17.2709H17.2776C17.3693 13.9134 17.4597 13.908 17.5487 13.8987C18.041 13.8504 18.5927 13.64 19.1673 13.0743H22.9128V13.0757ZM20.0291 10.0599L20.7601 10.4822H20.7709L20.9544 10.5881C20.5417 10.702 20.2261 10.9071 19.9617 11.1765C19.9523 11.1845 19.9429 11.1953 19.9333 11.2046C19.8727 11.2689 19.8119 11.3387 19.7553 11.4097C19.7445 11.4231 19.7337 11.4379 19.7216 11.4526C19.6649 11.5249 19.6124 11.5987 19.5611 11.6764C19.553 11.6899 19.5435 11.7033 19.5341 11.7153C19.4734 11.8051 19.4155 11.9016 19.3575 12.0007C18.8368 12.8921 18.0059 13.4242 17.2669 13.4255C16.5291 13.4242 15.6982 12.8921 15.1775 12.0007C15.1209 11.9042 15.0643 11.8105 15.0035 11.7193C14.9914 11.7019 14.9806 11.6845 14.9699 11.6697C14.9186 11.596 14.8673 11.5236 14.8147 11.4553C14.8013 11.4365 14.7891 11.4217 14.7756 11.4057C14.7189 11.3373 14.6609 11.2689 14.6029 11.2059C14.5909 11.1966 14.5827 11.1845 14.5706 11.1738C14.3049 10.9044 13.9906 10.7007 13.5765 10.5881L13.7627 10.4822H13.7707L14.5018 10.0599L15.2531 9.63242L17.2601 10.7181L17.2641 10.7141L17.2695 10.7181L19.2765 9.63242L20.0291 10.0599ZM19.0391 9.16056L17.4395 9.99827V6.60729L19.6097 5.8755L19.0391 9.16056ZM17.2655 6.2347L14.8862 5.30053C15.0885 4.82472 16.0219 4.41988 17.2655 4.41855C18.5104 4.41988 19.4437 4.82472 19.6447 5.30053L17.2655 6.2347Z" fill="#373737"/>
<path d="M46.7283 20.4224V15.0556H49.8962V13.1027H41.2539V15.0556H44.4217V20.4224H46.7283ZM53.0491 17.3623V13.1027H50.8193V20.4224H52.7877L56.6321 16.1628V20.4224H58.8619V13.1027H56.8935L53.0491 17.3623ZM66.3633 17.7006V20.4224H68.5933V13.1027H66.3633V15.7784H62.7803V13.1027H60.5505V20.4224H62.7803V17.7006H66.3633ZM74.8027 20.4224C75.31 20.4224 75.7713 20.3764 76.202 20.2533C77.356 19.9304 78.1087 18.9923 78.1087 17.716C78.1087 16.5012 77.4633 15.6554 76.4333 15.2709C75.94 15.0864 75.3567 15.071 74.8027 15.071H72.5113V13.1027H70.282V20.4224H74.8027ZM74.418 16.7934C74.726 16.7934 75.018 16.7934 75.2793 16.8856C75.6487 17.0086 75.864 17.3162 75.864 17.6852C75.864 18.0697 75.6487 18.3926 75.2947 18.5464C75.0487 18.654 74.8027 18.654 74.418 18.654H72.5113V16.7934H74.418ZM82.1067 17.6545L84.7673 20.4224H87.7347L84.0293 16.6088L87.5967 13.1027H84.798L82.1067 15.8553H81.492V13.1027H79.2627V20.4224H81.492V17.6545H82.1067ZM92.3227 12.9028C89.324 12.9028 87.5253 14.5943 87.5253 16.7779C87.5253 18.9616 89.324 20.6532 92.3227 20.6532C95.3067 20.6532 97.106 18.9616 97.106 16.7779C97.106 14.5943 95.3067 12.9028 92.3227 12.9028ZM92.3227 18.8694C90.8313 18.8694 89.8787 17.9774 89.8787 16.7779C89.8787 15.5786 90.8313 14.702 92.3227 14.702C93.7993 14.702 94.768 15.5786 94.768 16.7779C94.768 17.9774 93.7993 18.8694 92.3227 18.8694ZM104.532 12.6875H102.302V13.4256C99.5033 13.4871 97.8267 14.6712 97.8267 16.7626C97.8267 18.8539 99.5033 19.9458 102.302 20.0073V20.7454H104.532V20.0073C107.346 19.9458 109.022 18.8539 109.022 16.7626C109.022 14.6712 107.346 13.4871 104.532 13.4256V12.6875ZM102.302 18.4388C100.764 18.3772 100.088 17.7468 100.088 16.7626C100.088 15.7784 100.764 15.071 102.302 15.0096V18.4388ZM104.532 15.0096C106.086 15.071 106.746 15.7784 106.746 16.7626C106.746 17.7468 106.086 18.3772 104.532 18.4388V15.0096ZM116.44 12.6875H114.21V13.4256C111.412 13.4871 109.736 14.6712 109.736 16.7626C109.736 18.8539 111.412 19.9458 114.21 20.0073V20.7454H116.44V20.0073C119.255 19.9458 120.931 18.8539 120.931 16.7626C120.931 14.6712 119.255 13.4871 116.44 13.4256V12.6875ZM114.21 18.4388C112.673 18.3772 111.996 17.7468 111.996 16.7626C111.996 15.7784 112.673 15.071 114.21 15.0096V18.4388ZM116.44 15.0096C117.994 15.071 118.655 15.7784 118.655 16.7626C118.655 17.7468 117.994 18.3772 116.44 18.4388V15.0096Z" fill="#373737"/>
</g>
</g>
</g>
<defs>
<clipPath id="clip0_34_3181">
<rect width="121" height="32" fill="white"/>
</clipPath>
<clipPath id="clip1_34_3181">
<rect width="121" height="32" fill="white"/>
</clipPath>
<clipPath id="clip2_34_3181">
<rect width="121" height="32" fill="white"/>
</clipPath>
</defs>
</svg>
