<svg width="65" height="32" viewBox="0 0 65 32" fill="none" xmlns="http://www.w3.org/2000/svg">
<g clip-path="url(#clip0_34_3392)">
<g clip-path="url(#clip1_34_3392)">
<path d="M16.2393 7.84155C16.2393 7.84155 16.5054 8.12312 16.7683 8.18498C16.7683 8.18498 16.6605 7.90235 16.2393 7.84155Z" fill="#001689"/>
<path d="M18.5193 8.75884C18.4958 8.89323 18.4419 8.99508 18.3465 9.05748C18.3241 8.76471 17.7354 8.76151 17.7354 8.76151V8.73218C18.0958 8.77804 18.5193 8.75884 18.5193 8.75884Z" fill="#001689"/>
<path d="M19.649 9.07373C19.67 9.09469 19.6818 9.12311 19.682 9.15276C19.682 9.16748 19.6791 9.18204 19.6735 9.19564C19.6678 9.20923 19.6596 9.22155 19.6492 9.23195C19.6388 9.24235 19.6264 9.25062 19.6128 9.25622C19.5993 9.26187 19.5847 9.26475 19.57 9.26475C19.5403 9.26475 19.5118 9.25296 19.4908 9.23195C19.4698 9.21094 19.458 9.18246 19.458 9.15276C19.458 9.12306 19.4698 9.09458 19.4908 9.07357C19.5118 9.05256 19.5403 9.04077 19.57 9.04077C19.5996 9.04093 19.6281 9.05277 19.649 9.07373Z" fill="#001689"/>
<path d="M14.6064 8.18498C14.8678 8.12312 15.136 7.84155 15.136 7.84155C14.7131 7.90288 14.6064 8.18498 14.6064 8.18498Z" fill="#001689"/>
<path d="M13.6372 8.73218V8.76151C13.6372 8.76151 13.0506 8.76417 13.0276 9.05748C12.9332 8.99508 12.8778 8.89323 12.8564 8.75938C12.8564 8.75938 13.2788 8.77804 13.6372 8.73218Z" fill="#001689"/>
<path d="M11.8843 9.23195C11.8633 9.25296 11.8348 9.26475 11.8051 9.26475L11.8056 9.26528C11.7454 9.26528 11.6963 9.21569 11.6963 9.15329C11.696 9.13879 11.6986 9.12434 11.7039 9.11079C11.7092 9.09725 11.7172 9.08487 11.7273 9.07442C11.7374 9.06397 11.7495 9.0556 11.7628 9.04984C11.7762 9.04408 11.7905 9.04098 11.8051 9.04077C11.8348 9.04077 11.8633 9.05256 11.8843 9.07357C11.9053 9.09458 11.9171 9.12306 11.9171 9.15276C11.9171 9.18246 11.9053 9.21094 11.8843 9.23195Z" fill="#001689"/>
<path fill-rule="evenodd" clip-rule="evenodd" d="M31.4054 0.00170898V31.6411H-0.0302734V0.00170898H31.4054ZM17.7519 9.63006C17.7519 9.63006 17.5263 9.69672 17.4511 9.71645C17.4511 9.71645 17.4474 9.58526 17.4549 9.5218L17.4305 9.52772C17.3673 9.54319 17.2944 9.56105 17.2298 9.56766C17.2298 9.56766 17.0037 10.0732 16.8288 10.2769C16.8288 10.2769 16.8181 10.3889 16.9163 10.5596C16.9163 10.5596 17.0437 10.2609 17.2714 10.0209C17.4015 9.88656 17.4837 9.81777 17.7519 9.63006ZM18.3438 9.5218C18.274 9.54153 17.913 9.65512 17.7375 9.78204C17.5199 9.93882 17.3701 10.1196 17.393 10.431C17.393 10.431 17.5701 10.1841 17.7642 10.0732C17.9194 9.98415 18.1977 9.73884 18.3438 9.5218ZM18.3396 7.23457C18.274 7.23457 18.1444 7.26656 18.1444 7.37375C18.1444 7.44489 18.2154 7.58003 18.2771 7.69756C18.3102 7.76065 18.3406 7.81861 18.3561 7.85904H18.3604C18.3758 7.81856 18.4065 7.76038 18.4398 7.69713C18.5016 7.57971 18.5726 7.44479 18.5726 7.37375C18.5726 7.2671 18.4436 7.2351 18.3764 7.2351H18.3396V7.23457ZM18.4873 8.07502C18.4923 8.0507 18.4979 8.02019 18.5043 7.98574C18.5378 7.80523 18.5914 7.51614 18.6702 7.44361C18.7582 7.35989 18.8889 7.35189 18.9539 7.35562C18.9724 7.3568 18.9904 7.36224 19.0064 7.37151C19.0224 7.38079 19.0361 7.39364 19.0463 7.40911C19.0566 7.42452 19.0631 7.44217 19.0654 7.46052C19.0676 7.47892 19.0656 7.49758 19.0595 7.51507C19.0339 7.60573 18.7443 8.04142 18.7054 8.09635C18.6605 8.0884 18.6519 8.08776 18.6006 8.08397C18.5758 8.08211 18.541 8.07949 18.4873 8.07502ZM18.2114 7.97855C18.1771 7.79766 18.1236 7.51518 18.0463 7.44361C17.9578 7.35989 17.8271 7.35189 17.7626 7.35562C17.7442 7.35712 17.7264 7.36277 17.7106 7.3721C17.6947 7.38149 17.6811 7.39434 17.671 7.40964C17.6607 7.425 17.6541 7.44244 17.6516 7.46068C17.6491 7.47897 17.6507 7.49753 17.6564 7.51507C17.6826 7.60573 17.9711 8.04142 18.01 8.09635C18.0554 8.0884 18.0638 8.08776 18.1161 8.08392C18.1411 8.08205 18.1762 8.07949 18.2303 8.07502C18.2248 8.04915 18.2186 8.0163 18.2115 7.97913L18.2114 7.97855ZM18.0457 6.70609H18.2697V6.45598H18.451V6.70662H18.6777V6.86447H18.451V7.15831H18.2697V6.86501H18.0457V6.70609ZM15.3708 5.22196H15.5948V4.97132H15.7788V5.22196H16.0044V5.37929H15.7788V5.67473H15.5948V5.37929H15.3708V5.22196ZM20.7767 8.32566C20.7748 8.27697 20.7711 8.22844 20.7655 8.18007C20.7491 8.0763 20.747 7.97081 20.7591 7.8665L20.7638 7.86826C20.9244 7.93018 21.0337 7.97236 21.2555 8.33206C21.2555 8.33206 20.8993 8.11128 20.7767 8.32512V8.32566ZM14.1075 12.2953C14.1571 12.0959 14.1448 11.8847 14.1075 11.7471C13.8099 12.5822 13.154 12.5326 13.154 12.5326C13.2894 12.8739 13.6505 12.8515 13.8024 12.7555C13.979 12.6441 14.0701 12.4473 14.1075 12.2953ZM15.3843 15.1786C15.303 15.0682 15.2196 14.955 15.1804 14.8535C14.8818 15.119 14.8423 15.6571 14.877 15.8363C14.9447 16.1851 15.326 16.489 15.326 16.489C15.3383 16.4495 15.3607 16.4013 15.3874 16.3439C15.4671 16.1724 15.5855 15.9179 15.5895 15.5595C15.5897 15.4576 15.4887 15.3204 15.3843 15.1786ZM15.1004 14.6114C14.9389 14.7287 14.7975 15.0678 14.7538 15.1926C14.6965 15.0881 14.6176 14.9953 14.5407 14.905C14.389 14.727 14.2457 14.5587 14.2941 14.3287C14.3661 13.9842 14.6408 13.6179 14.6408 13.6179C15.3079 13.997 15.1004 14.6114 15.1004 14.6114ZM13.5427 14.0077C13.6601 13.9512 13.8126 13.7714 13.9192 13.6397C14.0088 13.82 14.1715 14.0855 14.1715 14.0855C14.1676 14.1231 14.1656 14.1699 14.1632 14.2242C14.1588 14.3271 14.1531 14.4576 14.1315 14.6055C14.0979 14.8305 13.8062 15.214 13.8062 15.214C13.7824 15.1498 13.749 15.0781 13.7132 15.0015C13.6364 14.8369 13.549 14.6495 13.5246 14.4647C13.5027 14.2818 13.5427 14.0077 13.5427 14.0077ZM12.7967 14.0274C12.8004 14.3661 13.066 14.83 13.1486 14.958C13.283 14.8556 13.3396 14.7836 13.3844 14.6631C13.4361 14.5143 13.4009 14.0738 13.4009 14.0738C13.1252 14.2034 12.7967 14.0274 12.7967 14.0274ZM13.4654 14.8188C13.4099 14.8823 13.2788 15.0039 13.2254 15.0513C13.3061 15.1363 13.3948 15.2125 13.4905 15.2801C13.611 15.3675 13.7203 15.3388 13.7203 15.3388C13.683 15.2209 13.4654 14.8188 13.4654 14.8188ZM13.7966 15.471C13.8574 15.4102 14.2104 14.9164 14.2365 14.8151C14.2921 14.9171 14.3819 15.027 14.4677 15.1322C14.5572 15.2418 14.6426 15.3463 14.6808 15.4315C14.7112 15.5025 14.7191 15.6918 14.6472 15.8848C14.5826 16.0517 14.3635 16.4341 14.3635 16.4341C14.2664 16.3434 14.0845 16.1627 13.9544 15.9067C13.8227 15.6491 13.7966 15.471 13.7966 15.471ZM14.8915 16.3035C14.8409 16.2298 14.7944 16.1619 14.7671 16.1067C14.7287 16.1857 14.6645 16.2666 14.601 16.3466C14.5427 16.42 14.485 16.4928 14.4482 16.5626C14.3681 16.7326 14.3526 16.9259 14.4045 17.1066C14.4749 17.3247 14.7975 17.6313 14.7975 17.6313C14.828 17.5778 14.8633 17.5187 14.8985 17.4598C14.9725 17.336 15.0465 17.2122 15.0764 17.1386C15.1207 17.025 15.1463 16.8927 15.117 16.7317C15.093 16.5976 14.9853 16.4405 14.8915 16.3035ZM14.0182 16.3144C13.9567 16.232 13.8934 16.1471 13.8552 16.0619L13.8368 16.1001C13.7728 16.2322 13.69 16.4034 13.6425 16.5402C13.5881 16.6874 13.6025 16.921 13.6451 17.0628C13.6899 17.2047 13.9512 17.546 13.9512 17.546C13.9682 17.4843 14.003 17.4239 14.0438 17.3529C14.0813 17.2877 14.1241 17.2134 14.1629 17.121C14.2541 16.8991 14.2365 16.7797 14.1832 16.5893C14.1588 16.503 14.0897 16.4103 14.0182 16.3144ZM14.7037 18.1993C14.693 17.9086 15.1442 17.3609 15.1442 17.3609C15.3799 17.5919 15.4396 17.7385 15.4684 17.9689C15.4929 18.1993 15.4167 18.3715 15.3154 18.5742C15.2247 18.7549 14.989 19.0237 14.989 19.0237C14.9755 18.9335 14.9281 18.84 14.8757 18.7366C14.7992 18.5857 14.7119 18.4135 14.7037 18.1993ZM14.5293 17.9822C14.5858 17.7705 14.3853 17.4121 14.3139 17.3076C13.9544 17.6452 13.9176 17.9204 13.9571 18.0873C13.9982 18.2563 14.1757 18.6243 14.1757 18.6243C14.1938 18.5936 14.2203 18.553 14.2509 18.5061C14.3479 18.3574 14.4863 18.1451 14.5293 17.9822ZM15.8178 6.46963C15.7611 6.61335 15.7057 6.75339 15.6918 6.84575H15.6828C15.6695 6.75248 15.6131 6.61063 15.5553 6.46547C15.4856 6.29018 15.414 6.1101 15.414 6.00477C15.4124 5.96792 15.4182 5.93118 15.4312 5.89663C15.4441 5.86212 15.464 5.83061 15.4895 5.80394C15.515 5.77733 15.5456 5.75611 15.5795 5.74165C15.6134 5.72715 15.6499 5.71968 15.6868 5.71968C15.7236 5.71968 15.7601 5.72715 15.794 5.74165C15.8279 5.75611 15.8586 5.77733 15.884 5.80394C15.9095 5.83061 15.9294 5.86212 15.9423 5.89663C15.9553 5.93118 15.9612 5.96792 15.9596 6.00477C15.9596 6.1109 15.8876 6.29306 15.8178 6.46963ZM16.8411 6.15942C16.8469 6.29968 16.6896 6.72043 16.4518 7.28944C16.3131 7.21638 16.2411 7.20092 16.1195 7.17799C16.1617 6.85909 16.2779 6.09063 16.4006 5.99517C16.4624 5.94665 16.5472 5.95251 16.6432 5.98238C16.7365 6.01171 16.8373 6.07517 16.8411 6.15942ZM15.8361 7.15298C15.8972 7.15564 15.9588 7.15831 16.0182 7.16625C16.055 6.88506 16.0998 6.60498 16.1526 6.32634C16.2081 6.03784 16.3105 5.7584 16.3105 5.7584C16.1777 5.79466 16.0998 5.93865 16.039 6.13969C15.9772 6.33914 15.8726 6.84789 15.8353 7.15292L15.8361 7.15298ZM16.7701 7.89631C16.5414 7.73206 16.1697 7.691 16.0225 7.71127C16.0561 7.82059 16.2049 8.05683 16.3776 8.15975C16.7424 8.37306 17.1509 8.34107 17.1509 8.34107C17.0725 8.19495 16.9989 8.06003 16.7701 7.89631ZM18.2052 9.22631C18.2052 9.22631 18.2089 9.36443 18.1988 9.44282C18.1988 9.44282 18.8766 9.3735 18.9278 8.37626C18.9278 8.37626 18.4761 8.54585 18.0228 8.52452C17.9466 8.52057 17.8597 8.51705 17.7666 8.51326C17.3044 8.49439 16.6883 8.46927 16.4624 8.3592C16.4624 8.3592 16.5072 8.53038 16.7237 8.62904C16.7237 8.62904 16.6112 8.62904 16.4992 8.72716C16.4992 8.72716 16.5638 8.86901 16.7557 8.94367C16.7557 8.94367 16.4107 9.30417 16.0411 9.27857C16.0411 9.27857 16.2097 9.49242 16.5894 9.40976C16.9308 9.33601 17.0628 9.1565 17.1329 9.06115C17.1409 9.05033 17.148 9.04057 17.1546 9.0322C17.1546 9.0322 17.105 9.23644 17.128 9.31857C17.128 9.31857 17.2944 9.30844 17.425 9.14419C17.425 9.14419 17.3301 9.30844 17.3109 9.44709C17.3109 9.44709 17.4149 9.45882 17.5999 9.3479C17.5999 9.3479 17.5626 9.45029 17.5562 9.56761C17.5562 9.56761 17.9924 9.42682 18.2052 9.22631ZM18.8873 9.02526C18.9707 8.84246 19.0204 8.6461 19.0339 8.44559C19.3011 8.36347 19.284 8.48132 19.219 8.65197C19.155 8.82368 18.8873 9.02526 18.8873 9.02526ZM20.109 8.79649C19.9693 8.58904 19.653 8.62531 19.5027 8.66157C19.4206 8.92298 19.1612 9.03134 18.9894 9.10307C18.9624 9.11432 18.9377 9.12467 18.9161 9.13459C18.7363 9.21671 18.5764 9.41136 18.5764 9.41136C18.8467 9.47375 18.9683 9.55161 18.9683 9.55161C19.4861 9.18312 19.9144 9.55374 19.9144 9.55374C20.1954 9.39483 20.2508 9.0034 20.109 8.79649ZM18.1919 9.84385C18.3305 9.73239 18.5182 9.47855 18.5182 9.47855L18.5462 9.48506C18.78 9.53945 18.9483 9.57859 19.1304 9.82998C19.308 10.0726 19.0664 10.4459 19.0664 10.4459C18.8899 9.83745 18.1919 9.84385 18.1919 9.84385ZM23.3807 19.2088C23.474 18.067 22.4912 17.0148 22.0256 16.5456L22.0091 16.5445C21.8678 16.5472 21.7403 16.5242 21.6299 16.4832C21.6597 16.5341 21.6852 16.5875 21.7062 16.6426C22.9199 17.7838 22.8154 18.3464 22.8154 18.3464C22.4021 18.1038 21.9429 17.41 21.712 16.985L21.6283 16.9978C21.5286 17.0143 21.4273 17.0143 21.327 17.0015C21.4741 17.1422 21.6839 17.5167 22.0152 18.1084L22.0933 18.2478C22.4677 18.9219 23.3807 19.2088 23.3807 19.2088ZM15.6876 7.28518C15.2946 7.28518 14.9746 7.3545 14.9746 7.43876C14.9746 7.52195 15.294 7.59128 15.6876 7.59128C16.0817 7.59128 16.4006 7.52249 16.4006 7.43876C16.4006 7.3545 16.0822 7.28518 15.6876 7.28518ZM15.8166 7.82859C15.8235 7.81147 15.827 7.79318 15.8268 7.77473L15.8262 7.77526C15.8265 7.75686 15.8231 7.73862 15.8163 7.72156C15.8094 7.70449 15.7993 7.68897 15.7863 7.67586C15.7734 7.66274 15.7581 7.65234 15.7411 7.64525C15.7242 7.63815 15.7059 7.63447 15.6876 7.63447C15.6103 7.63447 15.5463 7.6974 15.5463 7.77526C15.5465 7.81259 15.5615 7.84832 15.588 7.87472C15.6144 7.90106 15.6502 7.91594 15.6876 7.91605C15.706 7.91599 15.7242 7.91226 15.7412 7.90511C15.7582 7.89797 15.7737 7.88751 15.7866 7.8744C15.7995 7.86122 15.8098 7.84565 15.8166 7.82859ZM14.5341 6.15942C14.5277 6.29968 14.6872 6.72043 14.9234 7.28944C15.0631 7.21638 15.1356 7.20092 15.2551 7.17799C15.2119 6.85909 15.0983 6.09063 14.9741 5.99517C14.9111 5.94665 14.8274 5.95251 14.7341 5.98238C14.6386 6.01171 14.5378 6.07517 14.5341 6.15942ZM15.5409 7.15292C15.4785 7.15559 15.4161 7.15826 15.357 7.16625C15.3212 6.89108 15.2786 6.61538 15.2231 6.32634C15.1666 6.03784 15.0652 5.7584 15.0652 5.7584C15.1964 5.79466 15.2748 5.93865 15.3372 6.13969C15.4267 6.47273 15.4948 6.8112 15.5409 7.15292ZM14.2248 8.34107C14.2248 8.34107 14.6328 8.37306 14.9981 8.15975V8.15922C15.1714 8.05683 15.3202 7.82059 15.3527 7.71127C15.2066 7.691 14.8343 7.73206 14.6061 7.89631C14.3779 8.06003 14.3037 8.19495 14.2248 8.34107ZM13.354 8.52398C12.8996 8.54531 12.4463 8.37626 12.4463 8.37626C12.4986 9.3735 13.1774 9.44282 13.1774 9.44282C13.1668 9.36496 13.1694 9.22631 13.1694 9.22631C13.3817 9.42682 13.8195 9.56761 13.8195 9.56761C13.812 9.45029 13.7731 9.3479 13.7731 9.3479C13.9603 9.45882 14.0648 9.44709 14.0648 9.44709C14.0451 9.30844 13.9507 9.14419 13.9507 9.14419C14.0803 9.30844 14.2467 9.31857 14.2467 9.31857C14.2701 9.23644 14.2211 9.0322 14.2211 9.0322C14.2274 9.0403 14.2342 9.04963 14.2418 9.06003C14.3115 9.15506 14.4439 9.33574 14.7853 9.40976C15.1639 9.49188 15.3346 9.27857 15.3346 9.27857C14.9645 9.30417 14.6184 8.94367 14.6184 8.94367C14.8114 8.86848 14.8759 8.72716 14.8759 8.72716C14.7655 8.62904 14.652 8.62904 14.652 8.62904C14.8679 8.53038 14.9111 8.35867 14.9111 8.35867C14.688 8.46895 14.0736 8.49391 13.6127 8.51262C13.5185 8.51646 13.4307 8.52004 13.354 8.52398ZM12.4884 9.02526C12.4133 8.87435 12.3583 8.66157 12.3413 8.44559C12.0736 8.36347 12.0896 8.48132 12.1562 8.65197C12.2213 8.82368 12.4884 9.02526 12.4884 9.02526ZM12.7977 9.41136C12.7977 9.41136 12.6383 9.21671 12.4596 9.13459C12.4382 9.12483 12.4136 9.11459 12.387 9.10355C12.2147 9.03188 11.9552 8.92394 11.8725 8.66157C11.7227 8.62584 11.4059 8.58851 11.2656 8.79649C11.1254 9.0034 11.1792 9.39483 11.4603 9.55374C11.595 9.44751 11.7616 9.3896 11.9332 9.38923C12.1048 9.3888 12.2716 9.44602 12.4069 9.55161C12.4069 9.55161 12.5268 9.47375 12.7977 9.41136ZM13.1838 9.84385C13.0452 9.73239 12.8569 9.47855 12.8569 9.47855L12.8287 9.48516C12.5956 9.53945 12.4273 9.5787 12.2442 9.82998C12.0677 10.0726 12.3093 10.4459 12.3093 10.4459C12.4852 9.83745 13.1838 9.84385 13.1838 9.84385ZM7.90385 9.89563C7.90235 9.8215 7.9031 9.74732 7.90598 9.67325L7.90438 9.65299C7.59135 8.98905 7.0826 8.17367 6.68584 7.5988C6.36374 7.12898 5.62515 6.2672 5.11161 5.82885C4.99215 6.36959 4.80177 7.37962 5.25719 8.2494C5.71207 9.11971 6.83196 10.3702 7.96357 10.9739L8.09049 11.0272C8.22915 11.0859 8.36567 11.1504 8.48512 11.2102C8.33634 11.048 8.20995 10.8806 8.11503 10.7105C8.04623 10.59 7.99717 10.4614 7.96517 10.3366L7.92571 10.2001C7.61956 9.99498 7.30625 9.69165 7.04639 9.44005C6.95781 9.3543 6.87531 9.27441 6.80156 9.20663C6.51092 8.93839 6.09763 8.40138 5.86992 7.72945C6.14189 7.9065 6.38774 8.12621 6.67837 8.48884C7.00853 8.90218 7.35073 9.34209 7.66163 9.74188C7.74941 9.85473 7.83484 9.96453 7.91665 10.0695L7.90385 9.89563ZM23.5129 13.2654C23.6005 13.2975 23.6849 13.3375 23.7652 13.3849C25.3058 12.9444 26.4017 13.1737 26.4017 13.1737C25.9532 13.3251 24.6957 13.5219 23.9395 13.5171C24.0033 13.5797 24.0593 13.6498 24.1065 13.7256C24.2778 13.7241 24.4659 13.7335 24.6701 13.7438C25.2356 13.7722 25.9246 13.8067 26.7238 13.6312C27.8127 13.3939 28.7641 12.7193 28.7641 12.7193C28.3743 12.618 27.6192 12.5572 26.5739 12.6265C25.2991 12.7096 24.4063 12.9877 23.7393 13.1954C23.6608 13.2199 23.5854 13.2433 23.5129 13.2654ZM23.2335 13.1961C23.6841 12.9796 23.7652 12.5887 23.7689 12.569C23.8599 12.5514 23.9438 12.5357 24.0235 12.5209C24.4204 12.4469 24.7147 12.3921 25.2738 12.2122C25.9505 11.9946 26.3606 11.7216 26.3606 11.7216L26.2944 11.7279C26.0163 11.7543 25.6892 11.7852 25.2578 11.9072C24.6659 12.0735 24.363 12.1802 23.7118 12.4319C23.5492 12.3236 23.3588 12.2719 23.1828 12.2655C23.65 12.0559 24.9832 11.5547 25.8577 11.2854C26.6054 11.0539 27.5749 10.7595 28.7748 10.7915C28.7748 10.7915 28.5215 11.5152 27.1349 12.0954C26.6298 12.3068 25.9096 12.4737 25.1932 12.6396C24.4568 12.8102 23.7244 12.9798 23.2335 13.1961ZM23.6537 11.7892C23.7042 11.7168 23.8071 11.5692 23.8419 11.5051C24.318 11.2728 24.4901 11.1762 24.701 11.058L24.7639 11.0228L24.8141 10.9947C25.1851 10.7839 25.5382 10.5431 25.87 10.2748C26.191 10.0199 26.5878 9.4994 26.5878 9.4994C26.1564 9.64712 25.7228 9.95962 25.4338 10.1793C25.0562 10.4646 24.452 10.9238 23.9433 11.3365L24.1283 10.7942C24.7235 10.3255 25.5815 9.48394 25.8657 9.19863C26.15 8.9112 27.2469 7.95823 27.753 7.8569C27.753 7.8569 27.9018 8.93466 27.3792 9.65779C26.8592 10.3804 25.1751 11.5456 23.6436 11.8037L23.6537 11.7892ZM23.4708 9.89563C23.474 9.81617 23.4724 9.74204 23.4703 9.67325V9.65299C23.7849 8.98905 24.292 8.17367 24.6883 7.5988C25.0109 7.12898 25.75 6.2672 26.2636 5.82885C26.3846 6.36959 26.5713 7.37962 26.118 8.2494C25.6647 9.11971 24.5432 10.3702 23.4116 10.9739L23.2847 11.0272C23.146 11.0859 23.0095 11.1504 22.89 11.2102C23.0404 11.048 23.1647 10.8806 23.2607 10.7105C23.33 10.59 23.378 10.4614 23.41 10.3366L23.4505 10.2001C23.7561 9.99583 24.0668 9.69432 24.3252 9.44341C24.4149 9.35632 24.4984 9.27532 24.5731 9.20663C24.8653 8.93839 25.2759 8.40138 25.5063 7.72945C25.2343 7.9065 24.988 8.12621 24.6973 8.48884C24.3295 8.94938 23.9455 9.44293 23.6076 9.87718L23.458 10.0695L23.4708 9.89563ZM7.9929 19.2088C7.90171 18.0671 8.88401 17.0149 9.3501 16.5456L9.36556 16.5445C9.50742 16.5472 9.63434 16.5243 9.74526 16.4832C9.71113 16.5419 9.68606 16.5963 9.66953 16.6427C8.45472 17.7839 8.56085 18.3465 8.56085 18.3465C8.9736 18.1039 9.43276 17.4101 9.66473 16.985L9.74686 16.9978C9.84551 17.0144 9.94684 17.0144 10.0482 17.0016C9.90034 17.1439 9.68654 17.5255 9.34834 18.1291L9.28184 18.2478C8.90694 18.9219 7.9929 19.2088 7.9929 19.2088ZM20.213 11.9829C21.2486 11.2688 21.6299 10.7398 21.8619 10.2241C21.9851 11.183 21.6299 11.8346 21.3361 12.0693C21.0433 12.3028 20.9217 12.5359 20.9217 12.5359C21.6176 12.081 22.0576 12.3636 22.0576 12.3636C21.9232 13.1017 21.3131 13.2377 21.3131 13.2377C21.9728 13.163 22.2421 13.4958 22.2421 13.4958C21.9973 14.0371 21.3595 14.0621 21.3595 14.0621C21.9232 14.5048 21.8256 14.8247 21.8256 14.8247C21.2022 14.9724 20.8593 14.6647 20.8593 14.6647C21.3377 15.2919 20.9708 15.7585 20.9708 15.7585C20.334 15.6737 20.1271 15.1676 20.1271 15.1676C20.1895 15.7361 19.9074 15.8822 19.9074 15.8822C19.564 15.7713 19.3923 15.4641 19.3923 15.4641C19.2104 15.8588 18.7822 15.9323 18.7822 15.9323C18.5998 15.575 18.7342 15.2428 18.7342 15.2428C18.3662 15.3553 18.2575 15.1324 18.2575 15.1324C18.4894 14.8733 18.6227 14.469 18.6227 14.469C19.2595 14.7261 20.0418 14.5911 20.2604 14.333C20.4435 14.1182 20.2234 13.6272 20.0317 13.1996C19.9916 13.1102 19.9528 13.0235 19.9191 12.9428C19.724 12.4751 19.9799 12.1429 20.213 11.9829ZM19.5181 17.2778C19.4604 17.4074 19.3888 17.5302 19.3043 17.6442C19.1784 18.5454 19.0024 18.6713 19.0024 18.6713C18.9347 18.2868 19.0451 17.9044 19.0451 17.9044C18.9566 17.9636 18.867 18.0025 18.7849 18.026C18.5998 18.9678 18.8889 19.3555 18.8889 19.3555C19.3341 18.8177 19.4007 18.2597 19.4953 17.4674L19.4955 17.4662C19.5028 17.4048 19.5103 17.3421 19.5181 17.2778ZM20.3612 17.2143C20.3042 17.3242 20.1927 17.4783 20.1351 17.5514C20.2738 18.5075 20.0477 18.6803 20.0477 18.6803C19.8221 18.2334 19.8968 17.6004 19.8968 17.6004L19.8919 17.5948C19.8864 17.5884 19.8804 17.5817 19.8741 17.5745L19.8524 17.5502C19.7927 17.4833 19.7109 17.3918 19.6589 17.3045C19.7693 19.3 20.0813 19.5298 20.0813 19.5298C20.512 19.1243 20.4137 17.8797 20.3684 17.306C20.3658 17.2732 20.3634 17.2425 20.3612 17.2143ZM20.7223 16.7536C20.7223 16.7536 20.8369 18.1353 21.2209 18.5966C21.3146 18.1989 21.1592 17.709 21.013 17.2482C20.9704 17.114 20.9286 16.9823 20.894 16.856C20.947 16.8841 21.0017 16.909 21.0577 16.9306C21.4982 17.6586 22.0256 18.7049 21.5888 19.485C21.5888 19.485 21.1249 19.2685 20.8721 18.8499C20.6156 18.4233 20.5479 17.5668 20.4946 16.7349C20.4988 16.6827 20.5004 16.6299 20.5004 16.5803C20.5701 16.6433 20.6443 16.7012 20.7223 16.7536ZM22.2746 16.3968C22.2945 16.3325 22.303 16.2652 22.2997 16.1979C23.3353 17.3082 23.9353 17.4991 23.9353 17.4991C23.5845 16.7833 22.7561 16.3171 22.3697 16.0996L22.3343 16.0797C22.3134 16.068 22.2942 16.0571 22.2768 16.047C22.2576 15.9766 22.2229 15.9003 22.1659 15.8236C22.1798 15.8271 22.1941 15.8292 22.2085 15.83C22.3573 15.8506 22.5089 15.8296 22.6463 15.7692C23.0783 16.0843 23.6638 16.5616 24.1225 17.0832C24.5816 17.6052 24.7475 18.0889 24.829 18.7017C24.829 18.7017 23.9721 18.6713 23.4308 17.9151C22.89 17.1594 22.6186 16.8144 22.2554 16.4539C22.2625 16.4351 22.2689 16.4161 22.2746 16.3968ZM22.9444 15.3708L22.9807 15.4359C23.079 15.4815 23.1739 15.5228 23.2678 15.5637C23.5764 15.698 23.8742 15.8276 24.2446 16.0913C24.6381 16.3744 24.8514 16.7659 24.8514 16.7659C23.8526 16.4011 22.9066 15.5585 22.9066 15.5585C22.8863 15.5852 22.8602 15.6166 22.825 15.6492C23 15.7792 23.2945 16.0504 23.6332 16.3622C23.9654 16.6681 24.3402 17.0131 24.6861 17.3023C25.3858 17.8836 26.231 17.8079 26.231 17.8079C25.9121 16.8304 25.3255 16.3504 24.9197 16.1371C24.5659 15.9528 23.5644 15.5661 23.0814 15.3796L23.0802 15.3791L23.0777 15.3782C23.009 15.3517 22.9511 15.3293 22.9071 15.3121C22.9209 15.3309 22.9333 15.3504 22.9444 15.3708ZM23.6558 14.7629C23.6712 14.794 23.6849 14.8258 23.6969 14.8583C24.1065 14.9714 24.5084 15.1109 24.9 15.2759C25.2759 15.4369 25.6359 15.6918 25.6359 15.6918C24.9085 15.6721 24.1747 15.382 23.6265 15.1356C23.5492 15.1836 23.4009 15.2545 23.1929 15.27C23.4553 15.3399 23.8841 15.4753 25.2589 16.127C26.6347 16.7771 27.3627 16.5515 27.3627 16.5515C26.8667 15.598 26.0295 15.2583 25.5687 15.1143C25.266 15.0215 24.7182 14.9358 24.2595 14.864C24.0169 14.8261 23.7992 14.792 23.6558 14.7629ZM23.25 14.2866C23.3939 14.2754 23.5343 14.2371 23.6638 14.1736C24.988 14.5602 25.9932 14.4264 25.9932 14.4264C25.5187 14.1831 24.6574 14.1144 24.1148 14.0711L24.114 14.0711C24.0337 14.0647 23.9604 14.0588 23.8963 14.0531C23.9641 14.0128 24.0289 13.9675 24.0899 13.9176C24.3603 13.9548 24.7894 13.9724 25.2242 13.9903C25.7376 14.0115 26.2594 14.0329 26.5371 14.0872C27.0491 14.1864 27.8047 14.4829 28.2788 14.7751C28.2788 14.7751 27.553 15.0258 26.191 14.9282C24.8274 14.829 24.0035 14.6759 23.5193 14.5352C23.4372 14.4285 23.346 14.3496 23.25 14.2866ZM9.51328 10.2241C9.74526 10.7398 10.125 11.2688 11.1643 11.9829C11.3947 12.1429 11.6512 12.4751 11.4576 12.9428C11.4249 13.0201 11.3876 13.1028 11.3492 13.1882C11.1553 13.6185 10.931 14.1163 11.1126 14.333C11.3328 14.5911 12.1157 14.7261 12.7519 14.469C12.7519 14.469 12.8852 14.8733 13.1193 15.1324C13.1193 15.1324 13.0089 15.3553 12.6426 15.2428C12.6426 15.2428 12.7759 15.575 12.5919 15.9323C12.5919 15.9323 12.1653 15.8588 11.9818 15.4641C11.9818 15.4641 11.8096 15.7713 11.4677 15.8822C11.4677 15.8822 11.1867 15.7361 11.2491 15.1676C11.2491 15.1676 11.0401 15.6737 10.406 15.7585C10.406 15.7585 10.038 15.2919 10.5148 14.6647C10.5148 14.6647 10.1724 14.9724 9.55114 14.8247C9.55114 14.8247 9.45195 14.5048 10.0135 14.0621C10.0135 14.0621 9.37783 14.0371 9.13412 13.4958C9.13412 13.4958 9.40289 13.163 10.062 13.2377C10.062 13.2377 9.45195 13.1017 9.31704 12.3636C9.31704 12.3636 9.75699 12.081 10.454 12.5359C10.454 12.5359 10.3303 12.3028 10.038 12.0693C9.74526 11.8346 9.39063 11.183 9.51328 10.2241ZM12.0714 17.6442C11.9855 17.5313 11.9138 17.4082 11.8581 17.2778C11.8665 17.3466 11.8746 17.4137 11.8824 17.4792C11.9764 18.2653 12.0428 18.8204 12.4863 19.3555C12.4863 19.3555 12.7759 18.9678 12.5898 18.026C12.4978 17.9991 12.4105 17.9581 12.3311 17.9044C12.3311 17.9044 12.4404 18.2868 12.3711 18.6713C12.3711 18.6713 12.1994 18.5454 12.0714 17.6442ZM11.2406 17.5514C11.1572 17.4446 11.0817 17.3319 11.0145 17.2143C11.0123 17.2428 11.0098 17.2739 11.0072 17.3071L11.0071 17.3084C10.9616 17.8832 10.8633 19.1249 11.2934 19.5298C11.2934 19.5298 11.6059 19.3 11.7147 17.3045C11.6612 17.3958 11.5743 17.4918 11.5131 17.5593C11.4994 17.5745 11.4867 17.5885 11.4763 17.6004C11.4763 17.6004 11.5525 18.2334 11.327 18.6803C11.327 18.6803 11.1014 18.5075 11.2406 17.5514ZM10.1553 18.5966C10.5366 18.1353 10.6524 16.7536 10.6524 16.7536C10.7057 16.7173 10.758 16.6789 10.8129 16.6357C10.821 16.628 10.8298 16.6204 10.8387 16.6126C10.8507 16.6022 10.8629 16.5916 10.8742 16.5803C10.8742 16.6299 10.8763 16.6827 10.8817 16.7349C10.8262 17.5668 10.7612 18.4233 10.503 18.8499C10.2503 19.2685 9.78472 19.485 9.78472 19.485C9.3501 18.7049 9.87538 17.6586 10.318 16.9306C10.3713 16.9104 10.4263 16.8842 10.4828 16.856C10.4482 16.9812 10.4066 17.1118 10.3642 17.245C10.2171 17.7067 10.0605 18.198 10.1553 18.5966ZM9.07386 16.1979C9.07103 16.2856 9.08703 16.3729 9.12079 16.4539C8.75549 16.8144 8.48512 17.1594 7.94438 17.9151C7.4031 18.6713 6.54559 18.7017 6.54559 18.7017C6.62878 18.0889 6.79356 17.6052 7.25325 17.0832C7.71187 16.5616 8.29847 16.0843 8.72936 15.7692C8.88007 15.8357 9.04752 15.8546 9.20931 15.8236C9.15812 15.89 9.12058 15.9659 9.09892 16.047C9.0729 16.0619 9.04304 16.0787 9.00981 16.0974C8.62468 16.3139 7.79388 16.7809 7.44043 17.4991C7.44043 17.4991 8.03983 17.3082 9.07386 16.1979ZM8.39553 15.4359L8.43019 15.3708L8.43697 15.3601L8.44193 15.3522C8.45072 15.3381 8.45899 15.3248 8.46912 15.3121C8.42433 15.3296 8.36497 15.3525 8.29453 15.3797C7.81154 15.5662 6.8102 15.9528 6.456 16.1371C6.04964 16.3504 5.46143 16.8304 5.14252 17.8079C5.14252 17.8079 5.98938 17.8836 6.68797 17.3023C7.0345 17.0131 7.40923 16.6681 7.74152 16.3621C8.08015 16.0504 8.37468 15.7791 8.55018 15.6492C8.52021 15.6219 8.49323 15.5915 8.46966 15.5585C8.46966 15.5585 7.52309 16.4011 6.52319 16.7659C6.52319 16.7659 6.7365 16.3744 7.13273 16.0913C7.50144 15.8276 7.79932 15.698 8.10809 15.5638C8.20211 15.5229 8.29719 15.4816 8.39553 15.4359ZM7.67667 14.8583C7.69006 14.8261 7.70424 14.7943 7.71933 14.7629C7.57604 14.792 7.35884 14.826 7.11683 14.8639C6.65821 14.9356 6.11032 15.0215 5.807 15.1143C5.34518 15.2583 4.50898 15.598 4.0125 16.5515C4.0125 16.5515 4.74096 16.7771 6.11523 16.127C7.48949 15.4753 7.92091 15.3399 8.18275 15.27C8.02949 15.2608 7.88076 15.2147 7.7492 15.1356C7.20099 15.382 6.46773 15.6721 5.7398 15.6918C5.7398 15.6918 6.09763 15.4369 6.47573 15.2759C6.88422 15.1052 7.33431 14.9479 7.67667 14.8583ZM7.7124 14.1736C7.84625 14.2371 7.94971 14.2685 8.12569 14.2866C8.0297 14.3496 7.93904 14.4285 7.85799 14.5352C7.37323 14.6759 6.54665 14.829 5.18411 14.9282C3.82319 15.0258 3.0958 14.7751 3.0958 14.7751C3.57041 14.4829 4.32767 14.1864 4.83962 14.0872C5.11679 14.0329 5.63784 14.0115 6.15096 13.9904C6.58553 13.9724 7.0145 13.9548 7.28471 13.9176C7.29111 13.9245 7.36257 13.9827 7.47882 14.0531C7.41451 14.0589 7.34081 14.0647 7.26002 14.0712C6.71773 14.1144 5.85648 14.1831 5.38304 14.4264C5.38304 14.4264 6.38774 14.5602 7.7124 14.1736ZM7.60948 13.3849C7.69016 13.3376 7.77495 13.2976 7.86278 13.2654C7.78866 13.2429 7.7116 13.2189 7.63129 13.194C6.96394 12.9864 6.07353 12.7094 4.80069 12.6265C3.75599 12.5572 3.00247 12.618 2.61158 12.7193C2.61158 12.7193 3.56401 13.3939 4.65084 13.6312C5.45087 13.8067 6.14008 13.7721 6.70557 13.7438C6.90982 13.7335 7.0979 13.7241 7.26925 13.7256C7.31084 13.6616 7.3599 13.5891 7.43563 13.5171C6.67944 13.5219 5.42357 13.3251 4.974 13.1737C4.974 13.1737 6.0699 12.9444 7.60948 13.3849ZM7.60574 12.569C7.60948 12.5887 7.69107 12.9796 8.14116 13.1961C7.65001 12.9797 6.91755 12.81 6.18093 12.6393C5.46511 12.4735 4.74538 12.3067 4.23968 12.0954C2.85422 11.5152 2.60038 10.7915 2.60038 10.7915C3.80026 10.7595 4.76976 11.0539 5.51743 11.2854C6.39254 11.5547 7.7252 12.0559 8.19128 12.2655C8.00341 12.2719 7.82092 12.3294 7.66334 12.4319C7.01274 12.1802 6.7093 12.0735 6.11843 11.9072C5.68589 11.7854 5.35872 11.7543 5.08126 11.7279L5.01453 11.7216C5.01453 11.7216 5.42517 11.9946 6.10137 12.2122C6.65933 12.392 6.95386 12.4468 7.35068 12.5208L7.35153 12.521C7.43115 12.5358 7.51493 12.5514 7.60574 12.569ZM7.53322 11.5051C7.57161 11.5739 7.68627 11.7386 7.7316 11.8037C6.20055 11.5456 4.51645 10.3804 3.99597 9.65779C3.47549 8.93466 3.62267 7.8569 3.62267 7.8569C4.12769 7.95823 5.22518 8.9112 5.50943 9.19863C5.7942 9.48394 6.65171 10.3255 7.24631 10.7942L7.43136 11.3365C6.9408 10.9435 6.44442 10.5577 5.94245 10.1793C5.65234 9.95962 5.21878 9.64712 4.78682 9.4994C4.78682 9.4994 5.18465 10.0199 5.50516 10.2748C5.87526 10.5692 6.25175 10.8241 6.56105 10.9947C6.60147 11.0172 6.63896 11.0381 6.67533 11.0585C6.88619 11.1765 7.05887 11.2731 7.53322 11.5051ZM11.8512 15.8182C11.8982 15.7772 11.9392 15.7372 11.9712 15.7009L11.9716 15.7014C12.0429 15.791 12.2791 16.0875 12.3962 16.3835C12.4832 16.6363 12.5776 16.9808 12.6245 17.1775C12.6714 17.3733 12.8095 17.7839 12.8949 17.9241C12.8949 17.9241 12.5216 17.9711 12.2459 17.6463C11.9744 17.3279 11.8832 17.0074 11.8406 16.6789C11.8048 16.4214 11.8182 16.0635 11.8512 15.8182ZM11.2636 15.8673C11.3279 15.9544 11.3899 15.9928 11.4036 16.0013L11.4059 16.0027L11.4571 16.0289L11.5083 16.0107C11.5563 15.9963 11.5979 15.9793 11.6379 15.959C11.6928 16.111 11.7152 16.1841 11.728 16.3126L11.7313 16.3452C11.7488 16.5173 11.7743 16.7687 11.7152 16.9754C11.6457 17.2172 11.5079 17.3749 11.4169 17.479C11.4067 17.4906 11.3971 17.5016 11.3883 17.5119C11.3883 17.5119 11.1441 17.2415 11.0748 17.0192C11.0022 16.7856 10.9761 16.5142 11.0662 16.2358C11.1153 16.0849 11.1932 15.9467 11.2636 15.8673ZM10.4231 15.8934C10.6331 15.8679 10.833 15.7889 11.0038 15.6641L11.0092 15.6789C11.041 15.7658 11.0829 15.8808 11.0492 16.0401C11.0108 16.2091 10.8951 16.3952 10.7292 16.5307C10.4759 16.7323 10.1405 16.9226 9.76824 16.865C9.76824 16.865 9.68292 16.5829 10.4231 15.8934ZM10.1405 15.4236C10.1701 15.6591 10.2768 15.8124 10.2958 15.8397L10.2983 15.8433C10.2893 15.8542 10.2778 15.8697 10.2638 15.8889C10.143 16.0536 9.83032 16.4798 9.24456 16.3995C9.24456 16.3995 9.06645 16.0299 9.50267 15.7361C9.77134 15.5545 9.91249 15.5045 10.0887 15.442L10.1405 15.4236ZM10.1975 14.9596C9.97468 15.0138 9.74195 15.0125 9.51974 14.9559L9.44401 14.9378L9.42054 14.8642C9.27251 14.9857 9.11204 15.0627 8.9671 15.1323C8.78312 15.2207 8.6242 15.297 8.54757 15.4369C8.54757 15.4369 8.71555 15.7478 9.15177 15.6972C9.34669 15.6767 9.53547 15.6172 9.70681 15.5221C9.8782 15.427 10.0286 15.2982 10.149 15.1436C10.1617 15.0816 10.1779 15.0198 10.1975 14.9596ZM9.44401 14.5719C9.46411 14.5412 9.4823 14.5049 9.5023 14.4648C9.54277 14.3839 9.59093 14.2876 9.67865 14.1907C9.38492 14.1364 9.08341 14.1403 8.79128 14.2024C8.38918 14.2776 7.97856 14.373 7.77325 14.9906C7.77325 14.9906 8.03029 15.2114 8.50011 15.1159C8.899 15.0327 9.2451 14.861 9.44401 14.5719ZM9.27229 13.9043C9.16068 13.8073 9.07151 13.6872 9.01099 13.5523L8.97846 13.475C8.62969 13.3321 8.26653 13.259 7.90923 13.3913C7.56441 13.522 7.46613 13.6699 7.37883 13.8012L7.37062 13.8136C7.37062 13.8136 7.76525 14.1459 8.21747 14.1571C8.67076 14.1725 9.08991 14.0397 9.27229 13.9043ZM9.37788 13.1833C9.43761 13.1604 9.5048 13.139 9.58053 13.1236C9.38887 12.9492 9.25645 12.7193 9.2019 12.466C9.03978 12.5039 8.66009 12.5039 8.49264 12.4404C8.32466 12.3759 7.99562 12.3727 7.73912 12.5428C7.73912 12.5428 7.82444 12.9966 8.40465 13.1513C8.95286 13.2963 9.15444 13.259 9.37788 13.1833ZM9.1683 12.2996L9.2451 12.2501L9.24579 12.2496C9.26067 12.2406 9.38951 12.1628 9.60719 12.1455C9.55952 12.1099 9.49488 12.0587 9.41985 11.9994C9.20099 11.8263 8.89356 11.5831 8.66009 11.4485C8.31453 11.2544 7.74285 10.9974 7.45221 10.9585C7.45221 10.9585 7.72525 11.6784 8.04149 11.9701C8.37265 12.2719 8.60303 12.3834 9.1683 12.2996ZM9.75704 11.9679C9.61626 11.7861 9.50694 11.5349 9.42641 11.2379C9.41644 11.2013 9.40449 11.1565 9.39105 11.1062C9.31634 10.8256 9.19635 10.375 9.12084 10.2439C9.03179 10.0881 8.71022 9.54633 8.08202 9.37675C8.08202 9.37675 7.91457 10.0849 8.2308 10.6433C8.50277 11.1259 9.06218 11.6341 9.75704 11.9679ZM13.2431 15.2551C13.3204 15.3351 13.3801 15.3777 13.5204 15.4487C13.5204 15.4487 13.7209 15.8337 13.4777 16.2992C13.234 16.7643 13.0298 17.2378 12.9322 17.5028C12.9322 17.5028 12.8015 17.4826 12.6565 16.7552C12.5672 16.3042 12.4557 16.1621 12.3378 16.0119L12.3216 15.9912L12.3045 15.9691C12.4387 16.0367 12.5481 16.0595 12.5676 16.0635L12.5701 16.0641L12.6671 16.0806L12.7109 15.9937C12.8051 15.8135 12.8417 15.6087 12.8159 15.4071C13.042 15.4129 13.162 15.2983 13.209 15.2401C13.2105 15.2371 13.2123 15.2347 13.214 15.2325C13.2157 15.2301 13.2174 15.2279 13.2186 15.2252L13.2431 15.2551ZM19.5234 15.8182C19.4816 15.7804 19.4411 15.7413 19.4018 15.7009L19.3935 15.7116C19.3152 15.8119 19.092 16.0979 18.9805 16.3835C18.892 16.6363 18.7976 16.9808 18.7517 17.1775C18.7038 17.3733 18.564 17.7839 18.4798 17.9241C18.4798 17.9241 18.8531 17.9711 19.1293 17.6463C19.4013 17.3279 19.4919 17.0074 19.5362 16.6789C19.5657 16.3927 19.5614 16.1034 19.5234 15.8182ZM20.11 15.8673C20.044 15.9574 19.9809 15.9954 19.9698 16.002L19.9687 16.0027L19.9191 16.0289L19.8652 16.0107C19.8212 15.997 19.7785 15.9796 19.7372 15.959C19.6913 16.0722 19.6611 16.1911 19.6477 16.3126L19.6458 16.3297C19.627 16.5019 19.5985 16.7624 19.6589 16.9754C19.7315 17.2229 19.8721 17.3822 19.9638 17.4862L19.9863 17.5119C19.9863 17.5119 20.2305 17.2415 20.3009 17.0192C20.3729 16.7856 20.399 16.5142 20.3105 16.2358C20.2672 16.1015 20.1992 15.9766 20.11 15.8673ZM20.9526 15.8934C20.7425 15.8677 20.5424 15.7888 20.3713 15.6641L20.3642 15.6842C20.3335 15.7704 20.293 15.884 20.3276 16.0401C20.3633 16.2091 20.4796 16.3952 20.6486 16.5307C20.8982 16.7323 21.2352 16.9226 21.608 16.865C21.608 16.865 21.6933 16.5829 20.9526 15.8934ZM21.2331 15.4236C21.2171 15.5746 21.1628 15.7191 21.0752 15.8433C21.0844 15.8542 21.096 15.87 21.1102 15.8893C21.2318 16.0544 21.5449 16.4796 22.1333 16.3995C22.1333 16.3995 22.3082 16.0299 21.8741 15.7361C21.6004 15.5531 21.4602 15.5037 21.281 15.4405L21.2331 15.4236ZM21.176 14.9596C21.3998 15.0138 21.6334 15.0125 21.8565 14.9559L21.9322 14.9378L21.9536 14.8642C22.102 14.9856 22.2625 15.0626 22.4074 15.1322C22.5916 15.2206 22.7506 15.2969 22.8276 15.4369C22.8276 15.4369 22.6596 15.7478 22.2239 15.6972C22.0289 15.6768 21.8399 15.6173 21.6684 15.5222C21.4968 15.4271 21.3463 15.2983 21.2256 15.1436C21.2141 15.0812 21.1975 15.0193 21.176 14.9596ZM21.8702 14.4603C21.8294 14.3804 21.7813 14.2858 21.6965 14.1907C21.9902 14.1364 22.2918 14.1404 22.5839 14.2024C22.986 14.2776 23.3966 14.373 23.6025 14.9906C23.6025 14.9906 23.3427 15.2114 22.8735 15.1159C22.4767 15.0327 22.1301 14.861 21.9322 14.5719C21.9108 14.5401 21.8915 14.5021 21.8702 14.4603ZM22.1029 13.9043C22.2142 13.807 22.3032 13.6869 22.3642 13.5523L22.3967 13.475C22.7465 13.3321 23.1102 13.259 23.4643 13.3913C23.8073 13.5208 23.9065 13.6669 23.9951 13.7973L24.0061 13.8136C24.0061 13.8136 23.6115 14.1459 23.1572 14.1571C22.7039 14.1725 22.2853 14.0397 22.1029 13.9043ZM21.9973 13.1833C21.9309 13.1579 21.8626 13.1379 21.793 13.1236C21.9482 12.987 22.1002 12.7775 22.1738 12.466C22.3359 12.5039 22.7161 12.5039 22.8836 12.4404C23.051 12.3759 23.3795 12.3727 23.6366 12.5428C23.6366 12.5428 23.5529 12.9966 22.97 13.1513C22.4207 13.2963 22.2197 13.259 21.9973 13.1833ZM22.2058 12.2996L22.1301 12.2501L22.1294 12.2496C22.115 12.2409 21.9855 12.1628 21.7658 12.1455C21.8165 12.108 21.8856 12.0535 21.9656 11.9903C22.1839 11.8179 22.484 11.5808 22.7161 11.4485C23.0606 11.2544 23.6312 10.9974 23.9246 10.9585C23.9246 10.9585 23.6504 11.6784 23.3326 11.9701C23.003 12.2719 22.7721 12.3834 22.2058 12.2996ZM21.6176 11.9679C21.7584 11.7861 21.8677 11.5349 21.9482 11.2379C21.9606 11.1936 21.9758 11.137 21.993 11.0734C22.0688 10.7918 22.1823 10.37 22.2554 10.2439C22.3455 10.0881 22.666 9.54633 23.2942 9.37675C23.2942 9.37675 23.4617 10.0849 23.1449 10.6433C22.8719 11.1259 22.3141 11.6341 21.6176 11.9679ZM18.1342 15.2551C18.0534 15.3357 17.9587 15.4013 17.8548 15.4487C17.8548 15.4487 17.6532 15.8337 17.8974 16.2992C18.1395 16.7643 18.3443 17.2378 18.4435 17.5028C18.4435 17.5028 18.5736 17.4826 18.7182 16.7552C18.808 16.3063 18.9189 16.1635 19.035 16.014C19.0465 15.9992 19.058 15.9843 19.0696 15.9691C18.9335 16.0379 18.8242 16.0602 18.8072 16.0637L18.8056 16.0641L18.7091 16.0806L18.6643 15.9937C18.5893 15.851 18.5509 15.6919 18.5523 15.5308C18.5523 15.4871 18.5544 15.4455 18.5592 15.4076C18.3331 15.4129 18.2126 15.2983 18.1678 15.2401L18.1635 15.2351C18.1604 15.2316 18.158 15.2289 18.1561 15.2252L18.1342 15.2551ZM13.6227 9.63C13.6227 9.63 13.8483 9.69666 13.924 9.71639C13.924 9.71639 13.9262 9.58521 13.9219 9.52175L13.9425 9.52681C14.0062 9.54249 14.0811 9.56089 14.1464 9.56761C14.1464 9.56761 14.3709 10.0732 14.5474 10.2769C14.5474 10.2769 14.5576 10.3889 14.4594 10.5595C14.4594 10.5595 14.3315 10.2609 14.1027 10.0209C13.9736 9.88651 13.891 9.81772 13.6227 9.63ZM13.0297 9.52175C13.1028 9.54148 13.4633 9.65507 13.6361 9.78199C13.8552 9.93877 14.0056 10.1196 13.9816 10.431C13.9816 10.431 13.8056 10.1841 13.611 10.0732C13.4569 9.9841 13.1774 9.73879 13.0297 9.52175ZM13.0351 7.23451C13.1012 7.23451 13.2297 7.26651 13.2297 7.3737C13.2297 7.4458 13.1576 7.58349 13.0955 7.70215C13.0634 7.76342 13.0339 7.81957 13.0185 7.85898H13.0143C12.9987 7.8184 12.9679 7.76006 12.9345 7.69671C12.8725 7.57933 12.8015 7.44468 12.8015 7.3737C12.8015 7.26705 12.9321 7.23505 12.9983 7.23505H13.0345L13.0351 7.23451ZM12.8719 7.989C12.8382 7.80875 12.7834 7.51657 12.7055 7.44356C12.6175 7.35984 12.4868 7.35184 12.4229 7.35557C12.4044 7.35696 12.3865 7.36245 12.3705 7.37178C12.3545 7.38106 12.3408 7.39386 12.3305 7.40922C12.3201 7.42458 12.3135 7.44207 12.3109 7.46041C12.3083 7.47876 12.31 7.49742 12.3157 7.51502C12.3413 7.60568 12.6303 8.04137 12.6682 8.09629C12.7132 8.0884 12.7223 8.08776 12.7735 8.08397C12.7986 8.08211 12.8338 8.07955 12.8884 8.07496C12.8837 8.05198 12.8783 8.02339 12.8723 7.99113L12.8722 7.9906L12.872 7.98958L12.8719 7.989ZM13.1655 7.96873C13.2003 7.78763 13.2528 7.51385 13.3284 7.44356C13.4158 7.35984 13.547 7.35184 13.611 7.35557C13.6295 7.3569 13.6475 7.36245 13.6636 7.37167C13.6797 7.38095 13.6935 7.3937 13.704 7.409C13.7145 7.42431 13.7214 7.4418 13.7243 7.46014C13.7271 7.47849 13.7257 7.49726 13.7203 7.51502C13.6921 7.60568 13.403 8.04137 13.3646 8.09629C13.3202 8.0884 13.3111 8.08776 13.2596 8.08397C13.2344 8.08211 13.199 8.07949 13.1444 8.07496C13.1505 8.04686 13.1576 8.01001 13.1655 7.96873ZM13.3316 6.70604H13.1054V6.45593H12.9241V6.70657H12.6964V6.86442H12.9236V7.15826H13.1049V6.86495H13.331L13.3316 6.70604ZM10.6001 8.32454C10.6001 8.27494 10.6022 8.22695 10.6097 8.17948C10.6264 8.07576 10.6283 7.97017 10.615 7.86592L10.6101 7.86784C10.4501 7.9297 10.3408 7.97199 10.1191 8.33147C10.1191 8.33147 10.4759 8.11069 10.6001 8.32454ZM10.911 8.89888C10.9158 8.80929 10.975 8.52398 11.0497 8.32507C11.1403 8.0771 11.087 7.72033 10.9771 7.50275C10.8715 7.29371 10.8139 7.09746 10.8315 6.88042C10.8315 6.88042 10.6225 6.95134 10.5004 7.02654C10.4834 7.24907 10.5953 7.47166 10.6693 7.61901C10.679 7.63831 10.688 7.65634 10.6961 7.67287C10.7782 7.84192 10.7612 8.06216 10.743 8.19762C10.711 8.42693 10.758 8.6701 10.911 8.89888ZM10.9345 6.97641C10.9249 6.93001 10.9273 6.88191 10.9414 6.83669C10.9414 6.83669 11.2742 6.51139 11.5536 6.45593C11.7296 6.4186 11.8373 6.49806 11.8906 6.54125C11.8906 6.54125 11.793 6.53059 11.6437 6.65324C11.4944 6.7743 11.3088 6.92041 11.1702 6.95721C11.047 6.99022 11.0103 6.98569 10.9565 6.97902C10.9496 6.97817 10.9423 6.97726 10.9345 6.97641ZM11.9184 6.56578C12.0421 6.69164 12.1487 6.82496 12.1455 6.94014C12.1439 7.0596 12.0058 7.35984 11.9344 7.47342L11.9184 7.49843C11.8473 7.60914 11.7566 7.75041 11.7675 7.91924C11.7744 8.0099 11.8368 8.10269 11.9114 8.18002C11.9114 8.18002 11.5045 8.08296 11.4539 7.83019C11.4143 7.61965 11.4943 7.46889 11.5584 7.3481L11.5728 7.32091C11.5988 7.26982 11.6484 7.18977 11.7003 7.10605C11.7686 6.99587 11.8409 6.87914 11.8682 6.81429C11.9109 6.7103 11.9344 6.62338 11.9184 6.56578ZM14.2941 9.41403C14.3741 9.70413 14.5128 9.9761 14.6493 10.1894C14.7719 10.3851 14.8498 10.7008 14.8386 10.808C14.8386 10.808 15.0221 10.4001 14.9293 10.1121C14.8546 9.88811 14.6578 9.55374 14.2941 9.41349V9.41403ZM14.7517 9.50895C14.7517 9.50895 15.0311 9.51428 15.1612 9.60067C15.3287 9.71159 15.4876 9.9553 15.55 10.247C15.55 10.247 15.2674 10.1974 15.1287 10.0582C14.989 9.91797 14.8173 9.7084 14.7517 9.50895ZM13.3081 10.0166C13.2548 10.0204 13.1113 10.054 13.0415 10.0753C13.0415 10.0753 13.2788 10.1446 13.3977 10.2438C13.4995 10.3275 13.587 10.4571 13.627 10.6758C13.6851 10.9813 13.8627 11.3104 13.916 11.409L13.9379 11.4053C13.9059 11.1946 14.035 10.7584 14.0701 10.695C14.0701 10.695 13.8808 10.5766 13.7939 10.4529C13.7299 10.3622 13.619 10.2107 13.3086 10.0166H13.3081ZM14.5442 10.6726C14.5556 10.6991 14.5702 10.729 14.5862 10.7619C14.6667 10.9273 14.7832 11.1665 14.7111 11.4138C14.6615 11.5864 14.5752 11.7017 14.4883 11.8177C14.426 11.901 14.3633 11.9846 14.3139 12.09C14.3139 12.09 14.2211 11.6351 14.2403 11.2848C14.2616 10.9344 14.3885 10.7995 14.5442 10.6726ZM15.0796 10.6843C15.0796 10.6843 15.3569 11.2256 15.4071 11.4373C15.4551 11.6474 15.4103 11.7876 15.3154 11.9162C15.2862 11.9562 15.2501 11.9972 15.2099 12.0432C15.1228 12.1425 15.0159 12.2647 14.9149 12.4473C14.9149 12.4473 14.7437 12.2196 14.7234 12.1007C14.7037 11.9818 14.7357 11.6975 14.773 11.5791C14.7877 11.5302 14.8203 11.4385 14.8621 11.3208C14.9238 11.1472 15.0056 10.9172 15.0796 10.6843ZM15.2215 12.4121C15.1612 12.4782 14.8375 12.8702 14.7938 12.9843C14.7501 13.0979 14.6749 13.3144 14.7746 13.4653C14.8759 13.6163 15.1079 13.8546 15.3079 13.956C15.3079 13.956 15.0892 13.6125 15.1127 13.3304C15.1206 13.219 15.1765 13.1153 15.2244 13.0263C15.2543 12.9708 15.2811 12.9211 15.2914 12.8787C15.318 12.7699 15.301 12.5844 15.2215 12.4121ZM14.5869 12.1956C14.637 12.2649 14.7234 12.434 14.7357 12.5982C14.7474 12.7598 14.7213 12.8899 14.6333 13.1272C14.5234 13.4269 14.3507 13.7602 14.2707 13.9112C14.2707 13.9112 14.1187 13.6915 14.0344 13.4957C14.0344 13.4957 14.2723 13.1672 14.3747 12.9358C14.4807 12.6878 14.5305 12.457 14.5739 12.2558L14.5869 12.1956ZM14.4776 12.0692C14.4776 12.0692 14.3741 12.8398 13.924 13.4115C13.619 13.7986 13.3716 13.9341 13.2068 13.9341C12.9599 13.9341 12.7108 13.7261 12.6287 13.4883C12.5444 13.252 12.5716 12.883 12.7322 12.7523C12.7322 12.7523 12.8793 13.2147 13.1966 13.2312C13.5555 13.252 14.0158 12.8473 14.4776 12.0687V12.0692ZM20.3276 8.32512C20.3931 8.51102 20.4387 8.70338 20.4636 8.89893C20.6151 8.67015 20.6641 8.42698 20.6321 8.19767C20.6135 8.06222 20.5969 7.84197 20.6801 7.67292C20.688 7.65676 20.6967 7.63927 20.7062 7.62056C20.7801 7.47321 20.8922 7.24977 20.8743 7.02659C20.7532 6.9514 20.5426 6.88047 20.5426 6.88047C20.5623 7.09752 20.5031 7.29376 20.397 7.50281C20.2876 7.72039 20.2359 8.07715 20.3276 8.32512ZM20.4332 6.83674C20.4469 6.88202 20.45 6.9298 20.4423 6.97646L20.4325 6.97758L20.4216 6.97897C20.3681 6.98569 20.3299 6.99049 20.2055 6.95726C20.0653 6.92047 19.8808 6.77435 19.732 6.65329C19.5832 6.53064 19.484 6.54131 19.484 6.54131C19.5294 6.50094 19.5839 6.47209 19.6429 6.45726C19.7018 6.44238 19.7635 6.44196 19.8226 6.45598C20.1026 6.51144 20.4332 6.83674 20.4332 6.83674ZM19.2302 6.9402C19.2275 6.82501 19.3331 6.69169 19.4568 6.56584L19.4573 6.56637C19.4419 6.62396 19.4653 6.71035 19.508 6.81434C19.5351 6.88026 19.6094 6.9995 19.679 7.11133C19.7298 7.19313 19.7783 7.27094 19.804 7.32096L19.8166 7.34469C19.8814 7.46612 19.9622 7.61768 19.9202 7.83024C19.8717 8.08301 19.4653 8.18007 19.4653 8.18007C19.5379 8.10275 19.6008 8.00996 19.6072 7.9193C19.6191 7.74982 19.5282 7.60813 19.4571 7.49726L19.4419 7.47348C19.3693 7.35989 19.2318 7.05965 19.2302 6.9402ZM16.7264 10.1895C16.8811 9.94917 17.0009 9.68808 17.0821 9.41408C16.7168 9.55433 16.52 9.88816 16.4486 10.1121C16.3542 10.4001 16.5392 10.8081 16.5392 10.8081C16.5248 10.7009 16.6027 10.3852 16.7264 10.1895ZM16.2155 9.60073C16.3451 9.51433 16.6235 9.509 16.6235 9.509C16.5584 9.70845 16.3872 9.91803 16.2475 10.0583C16.1078 10.1975 15.8252 10.2471 15.8252 10.2471C15.886 9.95536 16.047 9.71165 16.2155 9.60073ZM18.3337 10.0753C18.2639 10.054 18.1215 10.0204 18.0681 10.0167C17.7578 10.2108 17.6442 10.3622 17.5813 10.4529C17.4959 10.5766 17.3072 10.695 17.3072 10.695C17.3402 10.7585 17.4709 11.1947 17.4389 11.4053L17.4586 11.4091L17.4613 11.4042C17.5176 11.2999 17.6926 10.9765 17.7482 10.6758C17.7876 10.4572 17.8772 10.3276 17.9785 10.2439C18.0959 10.1447 18.3337 10.0753 18.3337 10.0753ZM16.7883 10.7651C16.8049 10.731 16.8199 10.7 16.8315 10.6726C16.9888 10.7995 17.1136 10.9345 17.1349 11.2848C17.1557 11.6352 17.0613 12.0901 17.0613 12.0901C17.0119 11.9838 16.9489 11.8997 16.8862 11.8158C16.7998 11.7005 16.7138 11.5855 16.6635 11.4139C16.5932 11.1681 16.7083 10.9303 16.7883 10.7651ZM15.8621 11.172C15.7763 11.3046 15.6971 11.4269 15.6913 11.5029H15.6833C15.6782 11.4267 15.5987 11.3039 15.5126 11.1709C15.4017 10.9997 15.2799 10.8116 15.2919 10.6843C15.3132 10.4566 15.6129 10.2977 15.686 10.2641H15.6897C15.7638 10.2977 16.063 10.4566 16.0838 10.6843C16.0952 10.8119 15.9732 11.0005 15.8621 11.172ZM15.9681 11.4373C16.0187 11.2256 16.2961 10.6843 16.2961 10.6843C16.3708 10.9226 16.4549 11.1578 16.5173 11.3326C16.5574 11.4446 16.5886 11.5319 16.6027 11.5792C16.64 11.6976 16.6736 11.9818 16.6534 12.1007C16.6315 12.2197 16.4614 12.4474 16.4614 12.4474C16.3586 12.2635 16.2513 12.141 16.164 12.0413C16.1244 11.9961 16.0889 11.9556 16.0598 11.9162C15.9649 11.7877 15.9196 11.6474 15.9681 11.4373ZM15.9665 12.4068C15.9302 12.5039 15.8172 12.6676 15.6913 12.7775H15.686C15.5591 12.6676 15.4455 12.5039 15.4108 12.4074C15.374 12.3103 15.3649 12.1695 15.4492 12.0607C15.4593 12.0478 15.4697 12.0348 15.4801 12.0215C15.5743 11.9028 15.6763 11.7743 15.6849 11.6682H15.6913C15.6985 11.7735 15.7995 11.9008 15.8928 12.0183L15.915 12.0463L15.926 12.0602C16.0102 12.1695 16.0012 12.3108 15.9665 12.4068ZM16.583 12.9844C16.5392 12.8703 16.2155 12.4783 16.1547 12.4116C16.0763 12.5839 16.0587 12.77 16.0838 12.8788C16.0939 12.9216 16.1211 12.972 16.1514 13.0282C16.1992 13.1167 16.2547 13.2198 16.2635 13.3305C16.2854 13.6126 16.0667 13.956 16.0667 13.956C16.2694 13.8547 16.4992 13.6163 16.6006 13.4654C16.7008 13.3145 16.6267 13.098 16.583 12.9844ZM16.639 12.5983C16.6523 12.434 16.7381 12.265 16.7883 12.1957C16.7938 12.2203 16.7993 12.2455 16.8049 12.2711L16.8051 12.2719C16.8482 12.4693 16.8975 12.6946 17.0016 12.9359C17.1034 13.1673 17.3407 13.4958 17.3407 13.4958C17.2565 13.6915 17.104 13.9112 17.104 13.9112C17.025 13.7603 16.8539 13.427 16.7429 13.1273C16.6544 12.89 16.6283 12.7599 16.639 12.5983ZM17.4517 13.4115C17.0016 12.8399 16.8992 12.0693 16.8992 12.0693C17.3605 12.8479 17.8218 13.2521 18.1791 13.2313C18.4964 13.2148 18.6446 12.7524 18.6446 12.7524C18.8046 12.8831 18.8302 13.2521 18.7481 13.4883C18.6643 13.7262 18.4153 13.9341 18.1684 13.9341C18.0047 13.9341 17.7562 13.7987 17.4517 13.4115ZM17.2672 11.7471C17.2298 11.8847 17.2186 12.0959 17.2672 12.2953C17.305 12.4473 17.3973 12.6441 17.5733 12.7555C17.7258 12.8515 18.0836 12.8739 18.2212 12.5326C18.2212 12.5326 17.5653 12.5822 17.2672 11.7471ZM15.6876 14.0349L15.699 14.0293C15.7869 13.9866 15.8627 13.9497 15.9665 13.7928C16.0481 13.6648 16.1275 13.4264 16.0838 13.2568C16.0469 13.1197 15.9863 13.0364 15.9298 12.9587C15.8999 12.9176 15.8712 12.878 15.8476 12.8329L15.8325 12.8474L15.8166 12.863C15.7776 12.9013 15.7449 12.9335 15.6908 12.9646H15.6876C15.6345 12.9345 15.6017 12.9032 15.5635 12.8666C15.5522 12.8559 15.5405 12.8447 15.5276 12.8329C15.5039 12.8778 15.4753 12.9172 15.4458 12.9579C15.3892 13.0359 15.3288 13.1191 15.2914 13.2568C15.2476 13.4264 15.326 13.6643 15.4087 13.7928C15.5112 13.95 15.5885 13.9873 15.6767 14.0297L15.6876 14.0349ZM15.6876 15.3345C15.7062 15.2483 15.7924 15.1285 15.8831 15.0026C16.0077 14.8295 16.1406 14.6449 16.1174 14.5202C16.0782 14.3053 15.9729 14.2646 15.859 14.2205C15.8028 14.1988 15.7444 14.1762 15.6908 14.1314H15.6876C15.6333 14.1761 15.5744 14.1987 15.5176 14.2205C15.4022 14.2646 15.2958 14.3053 15.2562 14.5207C15.2346 14.6448 15.3663 14.8286 15.49 15.0013C15.5806 15.1276 15.6667 15.2479 15.6854 15.3345H15.6876ZM16.1953 14.8535C16.1562 14.9546 16.073 15.0674 15.9919 15.1773C15.8869 15.3196 15.7853 15.4573 15.7868 15.5595C15.7908 15.9199 15.9095 16.1753 15.9893 16.3468C16.0154 16.4029 16.0373 16.4501 16.0497 16.489C16.0497 16.489 16.431 16.1851 16.4976 15.8363C16.5334 15.6571 16.4923 15.119 16.1953 14.8535ZM16.6203 15.1926C16.5766 15.0678 16.4368 14.7287 16.2737 14.6114C16.2737 14.6114 16.0662 13.997 16.7339 13.6179C16.7339 13.6179 17.008 13.9842 17.0816 14.3287C17.1297 14.5585 16.9861 14.7266 16.8342 14.9044C16.757 14.9948 16.6777 15.0878 16.6203 15.1926ZM17.4575 13.6397C17.5637 13.7714 17.7135 13.9512 17.833 14.0077C17.833 14.0077 17.8714 14.2818 17.8506 14.4647C17.8266 14.6469 17.7408 14.8315 17.6651 14.9943C17.6283 15.0736 17.5938 15.1478 17.5701 15.214C17.5701 15.214 17.2773 14.8305 17.2426 14.6055C17.2197 14.4559 17.2154 14.3242 17.2121 14.2208C17.2104 14.1679 17.2089 14.1223 17.2053 14.0855C17.2053 14.0855 17.3658 13.82 17.4575 13.6397ZM18.2255 14.958C18.3081 14.83 18.5764 14.3661 18.5796 14.0274C18.5796 14.0274 18.25 14.2034 17.9737 14.0738C17.9737 14.0738 17.9386 14.5143 17.9924 14.6631C18.0351 14.7836 18.0921 14.8556 18.2249 14.958H18.2255ZM18.1492 15.0513C18.0656 14.9785 17.9864 14.9009 17.9119 14.8188C17.9119 14.8188 17.6922 15.2209 17.6559 15.3388C17.6559 15.3388 17.7642 15.3675 17.8842 15.2801C18.0041 15.1921 18.0303 15.1686 18.1492 15.0513ZM17.1381 14.8151C17.1648 14.9164 17.5173 15.4102 17.5781 15.471C17.5781 15.471 17.5498 15.6491 17.4191 15.9067C17.2896 16.1627 17.1088 16.3434 17.0106 16.4341C17.0106 16.4341 16.7931 16.0517 16.728 15.8848C16.6539 15.6918 16.663 15.5025 16.696 15.4315C16.7332 15.3454 16.8195 15.2396 16.9099 15.1286C16.9947 15.0245 17.0831 14.916 17.1381 14.8151ZM15.6908 17.7353C15.706 17.6731 15.7576 17.6054 15.817 17.5274C15.8865 17.4362 15.9667 17.331 16.0118 17.2042C16.0625 17.0655 16.0609 16.9039 16.0065 16.793C15.9786 16.7363 15.9193 16.6442 15.8592 16.5507C15.7813 16.4297 15.702 16.3064 15.6876 16.2549C15.6714 16.306 15.5929 16.4287 15.5156 16.5496C15.4556 16.6434 15.3963 16.7361 15.3676 16.793C15.3127 16.9039 15.3116 17.066 15.3612 17.2042C15.4071 17.3308 15.4875 17.4358 15.5572 17.527C15.617 17.6051 15.6689 17.673 15.6844 17.7353H15.6908ZM16.4822 16.306C16.389 16.4423 16.2823 16.5984 16.2582 16.7317C16.2333 16.8683 16.2468 17.0091 16.2971 17.1386C16.3252 17.2076 16.3933 17.3207 16.463 17.4366C16.5031 17.5032 16.5438 17.5707 16.5776 17.6313C16.5776 17.6313 16.8992 17.3247 16.9701 17.1066C17.0225 16.9259 17.0067 16.7324 16.9259 16.5626C16.8891 16.4926 16.8314 16.4197 16.7731 16.3461C16.7099 16.2662 16.6461 16.1855 16.6075 16.1067C16.5803 16.1625 16.5333 16.2314 16.4822 16.306ZM17.5215 16.0619C17.483 16.1468 17.4197 16.2313 17.3582 16.3134C17.2861 16.4097 17.2164 16.5027 17.192 16.5893C17.1381 16.7797 17.121 16.8991 17.2117 17.121C17.2513 17.2133 17.2938 17.2875 17.3311 17.3527C17.3718 17.4238 17.4064 17.4842 17.4245 17.546C17.4245 17.546 17.6858 17.2047 17.7284 17.0628C17.7743 16.921 17.786 16.6874 17.7338 16.5402C17.6892 16.4169 17.6177 16.2657 17.5584 16.1403C17.5454 16.1127 17.533 16.0864 17.5215 16.0619ZM15.6876 20.3526C15.6931 20.2971 15.735 20.2024 15.7891 20.0806C15.8967 19.8378 16.0522 19.4871 16.0625 19.1224C16.071 18.8477 15.8289 18.42 15.6908 18.2563H15.6828C15.5463 18.42 15.3036 18.8483 15.3116 19.1224C15.3227 19.4875 15.4786 19.8391 15.5863 20.0821C15.64 20.2032 15.6817 20.2973 15.6876 20.3526ZM16.2321 17.3609C16.2321 17.3609 16.6827 17.9086 16.6725 18.1993C16.6647 18.4127 16.5772 18.5844 16.5005 18.7349C16.4475 18.839 16.3996 18.933 16.3867 19.0237C16.3867 19.0237 16.1499 18.7549 16.0603 18.5742C15.959 18.3715 15.8817 18.1993 15.9105 17.9689C15.9356 17.7385 15.9948 17.5919 16.2321 17.3609ZM17.0608 17.3076C16.9888 17.4121 16.7899 17.7705 16.8459 17.9822C16.8897 18.1424 17.024 18.3502 17.1199 18.4985C17.1523 18.5486 17.1803 18.5919 17.1989 18.6243C17.1989 18.6243 17.3765 18.2563 17.4175 18.0873C17.4575 17.9204 17.4191 17.6452 17.0608 17.3076ZM16.1935 20.6037C16.111 20.769 16.0119 20.9673 15.9947 21.2309C15.9686 21.6576 16.4459 21.8192 16.4459 21.8192C16.2853 21.8783 16.1003 21.9045 15.8113 21.6272C15.7585 21.577 15.7185 21.5216 15.6875 21.4629C15.6572 21.5216 15.6177 21.577 15.5643 21.6272C15.2732 21.905 15.0897 21.8783 14.9297 21.8197C14.9297 21.8197 15.406 21.6576 15.3793 21.2309C15.3627 20.9659 15.2631 20.7668 15.1802 20.601C15.1301 20.5008 15.0861 20.4128 15.07 20.3297C15.0236 20.086 15.0401 19.853 15.2278 19.5719C15.3418 19.9744 15.4921 20.3657 15.6769 20.7409C15.6803 20.745 15.6822 20.7499 15.6841 20.755C15.6848 20.7568 15.6855 20.7587 15.6863 20.7605L15.6875 20.7633C15.6885 20.761 15.6893 20.7587 15.6902 20.7564C15.6923 20.7509 15.6943 20.7453 15.6977 20.7409C15.8828 20.3658 16.0336 19.9747 16.1483 19.5725C16.336 19.853 16.352 20.086 16.304 20.3297C16.2884 20.4135 16.2441 20.5024 16.1935 20.6037ZM14.617 18.7006C14.571 18.595 14.521 18.48 14.4962 18.3992C14.4226 18.5298 14.25 18.7287 14.1698 18.8212L14.1629 18.8291C14.0872 18.9171 14.045 19.0392 14.1176 19.2114C14.1965 19.3938 14.3943 19.5335 14.3943 19.5335C14.6999 19.3165 14.7484 19.1122 14.7127 18.9432C14.7032 18.8988 14.662 18.8042 14.617 18.7006ZM14.9399 19.838C15.0753 19.5975 15.1383 19.1154 15.1383 19.0301C14.9431 19.3879 14.461 19.7671 14.1464 19.8626C13.8904 19.9383 13.8333 20.2305 13.8333 20.2305C13.8691 20.248 13.8983 20.2739 13.929 20.301C13.9947 20.3589 14.0668 20.4225 14.2215 20.4225C14.4674 20.4225 14.7484 20.174 14.9399 19.838ZM14.3171 19.6444C14.305 19.6348 14.2933 19.626 14.2815 19.6172C14.2425 19.588 14.2039 19.5591 14.1555 19.5021C14.1555 19.5021 13.9134 19.5916 13.7134 19.7271C13.5256 19.8544 13.341 20.0658 13.2322 20.1905L13.2121 20.2135C13.2121 20.2135 13.5107 20.2908 13.7011 20.2039C13.7011 20.2039 13.7694 19.9159 13.9832 19.7868C14.003 19.7754 14.0407 19.7609 14.088 19.7427C14.1534 19.7176 14.2372 19.6853 14.3171 19.6444ZM14.0701 19.3981L14.0649 19.3901C14.0155 19.3159 13.928 19.1842 13.9475 18.9816C13.9475 18.9816 13.5262 19.2514 13.4036 19.3511C13.2756 19.4562 13.0121 19.7287 12.9535 19.8188C12.9535 19.8188 13.2724 19.7479 13.5171 19.6652C13.7494 19.5879 13.9196 19.487 14.0264 19.4238C14.0424 19.4143 14.057 19.4057 14.0701 19.3981ZM13.3566 19.8551C13.2268 19.9026 13.0032 19.9496 12.7961 19.9933C12.6425 20.0256 12.4978 20.0561 12.4074 20.0833C12.1941 20.1473 12.0394 20.2577 11.8357 20.4812C11.8357 20.4812 12.1487 20.5697 12.3162 20.6219C12.3162 20.6219 12.5818 20.4406 12.8729 20.3276C12.9964 20.2798 13.0787 20.1792 13.1761 20.0599C13.2288 19.9952 13.286 19.9252 13.3566 19.8551ZM12.882 21.3696L12.8872 21.3638C12.9353 21.3102 12.9913 21.2479 12.9455 21.1254C12.9124 21.031 12.7274 20.9296 12.6175 20.8758C12.4666 20.8032 12.0948 20.6972 11.876 20.6347C11.8296 20.6216 11.7902 20.6103 11.7611 20.6017C11.7611 20.6017 11.6784 20.6987 11.6357 20.8011C11.6165 20.8406 11.6416 20.8816 11.7136 20.8944C11.7739 20.905 11.8699 20.8993 11.967 20.8936C12.0974 20.886 12.2295 20.8782 12.2778 20.9094C12.3465 20.9555 12.3415 21.0134 12.3362 21.0747C12.3348 21.0914 12.3333 21.1083 12.3333 21.1254C12.3333 21.1254 12.489 21.0283 12.586 21.0507C12.7226 21.0795 12.8047 21.1446 12.882 21.3696ZM12.4309 20.6587L12.4456 20.6638C12.5051 20.6837 12.684 20.7436 12.858 20.8545C12.858 20.8545 12.9433 20.8214 12.986 20.7425C13.0265 20.6667 13.1993 20.4086 13.3598 20.3745C13.3598 20.3745 13.2238 20.3612 13.1454 20.3361C13.1454 20.3361 12.9812 20.3788 12.8644 20.4268C12.713 20.4905 12.5679 20.5682 12.4309 20.6587ZM13.739 20.3329L13.7375 20.3336C13.7069 20.3482 13.6545 20.373 13.5374 20.3782C13.5374 20.3782 13.0921 20.6886 13.0399 21C12.9961 21.2645 13.1348 21.392 13.2014 21.4245C13.2681 21.4597 13.5801 21.5882 13.7827 21.1675C13.7827 21.1675 13.4371 21.2816 13.3433 21.1152C13.25 20.9472 13.403 20.7046 13.4969 20.6347C13.619 20.5409 13.8408 20.4796 13.9742 20.5025C13.9742 20.5025 13.8664 20.399 13.739 20.3329ZM11.0374 23.2057C10.9339 23.4265 10.8731 23.6654 10.8193 23.8947C10.5233 23.8617 10.3073 23.8147 10.1004 23.6697C9.89458 23.5246 9.52661 23.4436 9.3341 23.4436C9.14052 23.4436 9.09626 23.362 9.06213 23.2948C9.18585 23.1524 9.34535 23.0559 9.48875 23.026C9.76984 22.9697 9.92529 23.0786 10.0707 23.1805C10.1388 23.2281 10.2046 23.2743 10.2801 23.3012C10.5174 23.386 10.67 23.2169 10.895 22.6693C11.1195 22.1221 11.5157 21.3862 11.7504 21.1121C11.8255 21.0275 12.0484 21.0237 12.1087 21.0226L12.1183 21.0225C12.1584 21.022 12.1973 21.0353 12.1995 21.0812C12.2027 21.1254 12.2026 21.3697 12.2026 21.3697C12.2831 21.3147 12.4666 21.1942 12.5599 21.1841C12.6511 21.1707 12.8596 21.4128 12.7625 21.431C11.7728 21.6257 11.2782 22.6885 11.0622 23.1525L11.0374 23.2057ZM15.1341 20.8657C15.0402 20.694 14.9549 20.5281 14.9314 20.3506C14.8344 20.3959 14.6872 20.5084 14.5475 20.7516C14.4078 20.9964 14.1 21.199 13.8574 21.3569C13.6153 21.5152 13.5331 21.7893 13.5331 21.7893C14.0119 21.7856 14.3422 21.3381 14.5255 21.0898C14.5521 21.0538 14.5756 21.022 14.596 20.9964C14.757 20.7932 14.8466 20.7745 14.8466 20.7745C14.8823 21.3158 14.3805 21.6736 14.0446 21.9029C13.7091 22.1333 13.6873 22.4346 13.6873 22.4346C14.8194 22.3216 15.1341 20.8657 15.1341 20.8657ZM15.0871 26.6288L14.3971 25.6567L14.5917 25.3591L14.7876 25.6348L14.788 25.6353C14.9181 25.8186 15.0145 25.9543 15.0588 26.0156C15.1112 25.924 15.1884 25.785 15.2725 25.6335C15.3222 25.5441 15.3744 25.4501 15.4252 25.3591L15.6097 25.6924L15.0871 26.6288ZM12.9381 23.024L12.9373 23.0229C12.7741 22.7926 12.661 22.633 12.6324 22.5929L12.8932 22.4042L12.0714 22.0869L12.0858 22.9897L12.3637 22.7876L14.0254 25.1313L14.2211 24.8327C13.7747 24.2047 13.2595 23.4777 12.9381 23.024ZM8.54698 19.5079C8.74909 19.2855 9.09253 19.4786 9.43969 19.8002C9.78899 20.1223 10.0071 20.4518 9.80552 20.6742C9.61621 20.8806 9.25891 20.7041 8.90854 20.3836C8.56031 20.0609 8.34167 19.7308 8.54698 19.5079ZM9.07386 23.4398C9.08437 23.4497 9.09541 23.4589 9.10692 23.4675C9.27789 23.5969 9.59018 23.5955 9.6891 23.595L9.7026 23.595C9.78365 23.595 9.87271 23.6206 9.87431 23.7219C9.87698 23.8216 9.71593 23.8376 9.71593 23.8376C9.55594 23.8216 8.88081 23.8216 8.88081 23.8216C8.86855 23.7427 8.83282 23.5886 8.73523 23.4851C8.27661 23.0222 8.0025 22.4564 7.94171 22.0757C7.84807 21.496 8.05119 20.9719 8.18696 20.6216C8.21363 20.5528 8.23763 20.4908 8.25634 20.4364C8.34028 20.1966 8.34993 20.0296 8.33191 19.7384C8.3485 19.9482 8.50933 20.1976 8.81789 20.4812C9.14959 20.7894 9.44662 20.9291 9.6722 20.8918C9.6722 20.8918 9.3293 20.9536 9.12665 21.1451C8.95814 21.3051 8.71976 21.7381 8.64564 22.2207C8.84242 21.8154 9.25571 21.5365 9.73299 21.5365C9.9975 21.5375 10.2544 21.625 10.4646 21.7856C10.6748 21.9462 10.8266 22.1711 10.8971 22.426C10.8868 22.4483 10.8631 22.5024 10.8344 22.5681C10.7756 22.7026 10.6958 22.8851 10.6668 22.9396C10.6668 22.9396 10.6801 22.8233 10.6801 22.7519C10.6801 22.2255 10.2561 21.7968 9.73353 21.7968C9.20878 21.7968 8.78429 22.2255 8.78429 22.7519C8.78429 23.026 8.88935 23.2777 9.07386 23.4398ZM8.331 19.7239C8.33122 19.7287 8.33154 19.7336 8.33191 19.7384L8.331 19.7239ZM11.5648 24.0051C11.9754 23.9416 12.4095 23.8563 12.8447 23.6995L13.0025 23.9213C12.5263 24.1027 12.0549 24.1933 11.6037 24.2626C11.3339 24.3053 11.0689 24.3202 10.8145 24.3106C10.8145 24.245 10.7633 24.1853 10.7633 24.1853C10.7837 24.1425 10.7908 24.0946 10.7836 24.0477C11.0448 24.0597 11.3065 24.0454 11.5648 24.0051ZM15.2039 22.0783C14.6957 22.8596 14.1336 23.3497 13.5561 23.6654L13.403 23.4478C13.9379 23.1577 14.4621 22.7151 14.9357 22.0122C14.9463 21.9914 14.9677 21.9562 14.9783 21.9423C14.9783 21.9423 15.1554 21.9877 15.2946 21.9253L15.2039 22.0783ZM9.27064 23.9309C9.42209 23.9091 9.6754 23.9016 9.75486 23.9149C9.87431 23.9352 9.84871 24.0333 9.78472 24.1032C9.72339 24.1714 9.33303 24.3821 9.26477 24.4072L9.26307 24.4078C9.19444 24.4336 9.07183 24.4795 9.02053 24.3981L9.01771 24.3936C8.93494 24.2632 8.87676 24.1715 8.89468 24.0845C8.91494 23.9917 9.10372 23.9581 9.27064 23.9309ZM10.0302 24.1328C10.0732 24.1372 10.1147 24.1511 10.1516 24.1736C10.1916 24.2008 10.1777 24.2722 10.1516 24.3202C10.1325 24.3601 10.0144 24.5061 9.94236 24.5951L9.94172 24.5959C9.92348 24.6184 9.90812 24.6374 9.89831 24.6498C9.86941 24.685 9.83277 24.7133 9.79128 24.7322C9.74979 24.7512 9.70446 24.7603 9.65887 24.7591C9.60501 24.7538 9.53301 24.7309 9.47382 24.7069C9.41463 24.6823 9.3613 24.6301 9.38796 24.5234C9.41249 24.4152 9.79645 24.1874 9.90311 24.148C9.94385 24.1335 9.98726 24.1284 10.0302 24.1328ZM9.96924 24.6978C10.042 24.6 10.1187 24.5052 10.1991 24.4136C10.374 24.2173 10.5366 24.1832 10.6412 24.2562C10.7462 24.3288 10.6444 24.5309 10.4929 24.6359C10.3455 24.7368 10.0912 24.7649 10.0327 24.7714L10.0279 24.7719C9.97883 24.7778 9.95164 24.7287 9.96924 24.6978ZM10.2773 23.8316L10.2849 23.8333C10.6129 23.9197 10.6924 24.0557 10.6369 24.1384C10.5772 24.2184 10.2849 24.1581 10.1303 24.0845C9.97457 24.0083 9.93617 23.9197 9.99163 23.8376C10.0314 23.7744 10.2162 23.8174 10.2773 23.8316ZM16.7572 18.7011C16.8033 18.5953 16.8536 18.4801 16.8789 18.3992C16.9557 18.5336 17.1344 18.7405 17.2112 18.8291C17.288 18.9171 17.3301 19.0392 17.256 19.2114C17.177 19.3938 16.9797 19.5335 16.9797 19.5335C16.6731 19.3165 16.6262 19.1122 16.6608 18.9432C16.6708 18.8989 16.7121 18.8044 16.7572 18.7011ZM16.4347 19.838C16.2971 19.5975 16.2347 19.1154 16.2347 19.0301C16.431 19.3879 16.9136 19.7671 17.2266 19.8626C17.4837 19.9383 17.5407 20.2305 17.5407 20.2305C17.5056 20.2479 17.4767 20.2735 17.4464 20.3004C17.3808 20.3584 17.3085 20.4225 17.1525 20.4225C16.9067 20.4225 16.6262 20.174 16.4347 19.838ZM17.0576 19.6444C17.068 19.6362 17.0782 19.6285 17.0882 19.6209C17.1285 19.5904 17.1667 19.5615 17.2176 19.5021C17.2176 19.5021 17.4618 19.5916 17.6618 19.7271C17.836 19.8461 18.0073 20.0386 18.1198 20.1651L18.1503 20.1993L18.1631 20.2135C18.1631 20.2135 17.8628 20.2908 17.6724 20.2039C17.6724 20.2039 17.6037 19.9159 17.3898 19.7868C17.3704 19.7752 17.3318 19.7603 17.2834 19.7416C17.2187 19.7166 17.1362 19.6847 17.0576 19.6444ZM17.305 19.3981L17.3122 19.3871C17.3609 19.3124 17.4463 19.1816 17.4255 18.9816C17.4255 18.9816 17.8458 19.2514 17.9721 19.3511C18.0996 19.4562 18.362 19.7287 18.4212 19.8188C18.4212 19.8188 18.1017 19.7479 17.8575 19.6652C17.6221 19.587 17.4506 19.4847 17.3447 19.4216C17.3303 19.413 17.317 19.4051 17.305 19.3981ZM18.5811 19.994C18.7332 20.0261 18.8764 20.0563 18.9672 20.0833C19.1806 20.1473 19.3357 20.2577 19.5395 20.4812C19.5395 20.4812 19.2248 20.5697 19.0595 20.6219C19.0595 20.6219 18.7929 20.4406 18.5006 20.3276C18.3778 20.2797 18.2951 20.1785 18.1972 20.0587C18.1447 19.9944 18.0878 19.9248 18.018 19.8551C18.1491 19.9028 18.3735 19.9502 18.5811 19.994ZM18.4921 21.3696L18.4863 21.3632C18.4389 21.3098 18.3835 21.2474 18.4281 21.1254C18.4617 21.031 18.6467 20.9296 18.7587 20.8758C18.9077 20.8042 19.2714 20.6999 19.4902 20.6372C19.5401 20.623 19.5824 20.6108 19.613 20.6017C19.613 20.6017 19.6952 20.6987 19.7394 20.8011C19.7581 20.8406 19.7314 20.8816 19.6621 20.8944C19.6013 20.905 19.5047 20.8993 19.4074 20.8936C19.2768 20.886 19.1448 20.8782 19.0968 20.9094C19.0269 20.9557 19.0318 21.014 19.037 21.0756C19.0384 21.092 19.0398 21.1087 19.0398 21.1254C19.0398 21.1254 18.8862 21.0283 18.7859 21.0507C18.6526 21.0795 18.5684 21.1446 18.4921 21.3696ZM18.9432 20.6587L18.9315 20.6627C18.8747 20.6815 18.6934 20.7415 18.5166 20.8545C18.5166 20.8545 18.4313 20.8214 18.3886 20.7425C18.3481 20.6667 18.1743 20.4086 18.0148 20.3745C18.0148 20.3745 18.1503 20.3612 18.2276 20.3361C18.2276 20.3361 18.3929 20.3788 18.5113 20.4268C18.6281 20.4748 18.7737 20.5473 18.9432 20.6587ZM17.6341 20.3329L17.6363 20.334C17.6675 20.3485 17.7201 20.3731 17.8351 20.3782C17.8351 20.3782 18.282 20.6886 18.3332 21C18.3801 21.2645 18.2404 21.392 18.1727 21.4245C18.1049 21.4597 17.794 21.5882 17.5919 21.1675C17.5919 21.1675 17.9364 21.2816 18.0308 21.1152C18.1241 20.9472 17.9721 20.7046 17.8788 20.6347C17.7556 20.5409 17.5343 20.4796 17.3989 20.5025C17.3989 20.5025 17.5066 20.399 17.6341 20.3329ZM20.3372 23.2057C20.4418 23.4265 20.5004 23.6654 20.5548 23.8947C20.8519 23.8617 21.0673 23.8147 21.2742 23.6697C21.4785 23.5246 21.847 23.4436 22.0421 23.4436C22.2336 23.4436 22.2784 23.362 22.3141 23.2948C22.1877 23.1524 22.0299 23.0559 21.8859 23.026C21.6062 22.9698 21.4504 23.0784 21.3044 23.1801C21.2359 23.2279 21.1695 23.2742 21.0934 23.3012C20.8583 23.386 20.7047 23.2169 20.4796 22.6693C20.2546 22.1221 19.8584 21.3862 19.6221 21.1121C19.5491 21.0275 19.3253 21.0237 19.2649 21.0226L19.2552 21.0225C19.2158 21.022 19.1779 21.0353 19.1752 21.0812C19.1736 21.1254 19.1736 21.3697 19.1736 21.3697C19.0915 21.3147 18.9081 21.1942 18.8163 21.1841C18.7214 21.1707 18.5145 21.4128 18.6105 21.431C19.6052 21.6263 20.1004 22.6948 20.3144 23.1566L20.3372 23.2057ZM16.2411 20.8657C16.3339 20.694 16.4198 20.5281 16.4411 20.3506C16.5414 20.3959 16.688 20.5084 16.8267 20.7516C16.9659 20.9964 17.2752 21.199 17.5173 21.3569C17.7604 21.5152 17.8404 21.7893 17.8404 21.7893C17.3662 21.7856 17.0372 21.3432 16.8519 21.0941C16.8238 21.0564 16.7991 21.023 16.7776 20.9964C16.6171 20.7932 16.5275 20.7745 16.5275 20.7745C16.4912 21.3158 16.993 21.6736 17.3301 21.9029C17.665 22.1333 17.689 22.4346 17.689 22.4346C16.5547 22.3216 16.2411 20.8657 16.2411 20.8657ZM16.3718 22.7396C16.1841 22.5669 15.7564 21.9563 15.6892 21.7637L15.6854 21.7632C15.6199 21.9563 15.1906 22.5669 15.0013 22.7402C14.9044 22.8299 14.7357 22.9961 14.5617 23.1675C14.3985 23.3283 14.2307 23.4937 14.1128 23.6052C14.1128 23.6052 14.8082 23.4308 15.1996 23.0735C15.1996 23.0735 15.4785 23.2361 15.6823 23.2361H15.6918C15.895 23.2361 16.1739 23.0735 16.1739 23.0735C16.5659 23.4313 17.2624 23.6052 17.2624 23.6052C17.1425 23.4924 16.9718 23.3243 16.8066 23.1617C16.6345 22.9924 16.4681 22.8286 16.3718 22.7396ZM15.6908 23.3801C15.8449 23.3801 15.9905 23.3183 16.0731 23.2825C15.9905 23.4569 15.8358 23.7278 15.6876 23.8398H15.6854C15.5367 23.7278 15.382 23.4569 15.3015 23.2825C15.382 23.3183 15.5276 23.3796 15.6823 23.3796L15.6908 23.3801ZM19.0104 22.7881L16.2875 26.6288L15.053 24.4152C14.9018 24.6473 14.5198 25.2276 14.2796 25.5925L14.1075 25.8539L14.3869 26.0406L13.5539 26.3728L13.5571 25.4849L13.8323 25.67L14.9298 24.0008L15.0823 23.7662L16.3153 26.0155L18.7411 22.5935L18.4793 22.4042L19.3043 22.0869L19.2877 22.9897L19.0104 22.7881ZM16.7841 25.1201C16.6294 24.8854 16.4751 24.6504 16.3212 24.4152C16.2013 24.6372 16.0795 24.8581 15.9559 25.078L15.7612 24.7271L16.2913 23.7662L16.4449 24.0008L16.9899 24.83L16.7841 25.1201ZM17.3467 25.3697L17.5424 25.67L17.8165 25.4849L17.8218 26.3728L16.9878 26.0406L17.2661 25.8539C17.2601 25.8448 17.2536 25.8347 17.2464 25.8235L17.2296 25.7973C17.2051 25.759 17.175 25.7118 17.1398 25.6593L17.3467 25.3697ZM22.8288 19.5085C22.6251 19.2861 22.2816 19.4791 21.9329 19.8007C21.5852 20.1228 21.3665 20.4524 21.5692 20.6747C21.7574 20.8811 22.1184 20.7046 22.4661 20.3841C22.8128 20.0615 23.0325 19.7314 22.8288 19.5085ZM22.2943 23.4447C22.2858 23.4524 22.2778 23.4596 22.2677 23.4675C22.0973 23.5969 21.7834 23.5955 21.6858 23.595L21.6726 23.595C21.591 23.595 21.5035 23.6206 21.5003 23.7219C21.4977 23.8216 21.6571 23.8376 21.6571 23.8376C21.8182 23.8216 22.4949 23.8216 22.4949 23.8216C22.5056 23.7427 22.5423 23.5886 22.641 23.4851C23.098 23.0222 23.3727 22.4564 23.434 22.0757C23.5269 21.4952 23.3222 20.9705 23.1855 20.6201C23.1589 20.552 23.1349 20.4904 23.1162 20.4364C23.0345 20.1987 23.0244 20.0325 23.0417 19.746C23.0424 19.7386 23.0428 19.7312 23.0431 19.7239L23.0417 19.746C23.0237 19.9542 22.8606 20.201 22.5567 20.4812C22.224 20.7894 21.9269 20.9291 21.7024 20.8918C21.7024 20.8918 22.0459 20.9536 22.248 21.1451C22.4176 21.3051 22.6533 21.7381 22.7279 22.2207C22.5322 21.8154 22.1189 21.5365 21.6416 21.5365C21.3769 21.5369 21.1196 21.6241 20.9092 21.7848C20.6989 21.9455 20.547 22.1707 20.477 22.426C20.486 22.4457 20.5056 22.4904 20.53 22.5459L20.5304 22.5469C20.59 22.6826 20.6777 22.8822 20.7079 22.9396C20.7079 22.9396 20.694 22.8233 20.694 22.7519C20.694 22.2255 21.1185 21.7968 21.6422 21.7968C22.1653 21.7968 22.5914 22.2255 22.5914 22.7519C22.5914 23.026 22.4842 23.2777 22.2997 23.4398L22.2943 23.4447ZM16.1702 22.0783C16.6784 22.8596 17.2405 23.347 17.8164 23.6648L17.9706 23.4478C17.4357 23.1582 16.9115 22.714 16.4379 22.0122C16.4278 21.9914 16.407 21.9562 16.3963 21.9429C16.3963 21.9429 16.2187 21.9871 16.079 21.9247L16.1702 22.0783ZM19.8088 24.0051C19.3981 23.9416 18.9646 23.8563 18.5289 23.6984L18.3726 23.9203C18.8467 24.1027 19.3224 24.1933 19.7693 24.2626C20.0313 24.3042 20.2967 24.3202 20.5618 24.3106C20.5618 24.245 20.6113 24.1853 20.6113 24.1853C20.5908 24.1426 20.5833 24.0947 20.59 24.0477C20.3288 24.0596 20.0671 24.0453 19.8088 24.0051ZM22.1045 23.9309C21.9536 23.9091 21.6998 23.9016 21.6192 23.9149C21.5003 23.9352 21.527 24.0333 21.5878 24.1032C21.6512 24.1714 22.0416 24.3821 22.1109 24.4072C22.1776 24.4328 22.3013 24.4802 22.3552 24.3981L22.3604 24.3898C22.4408 24.2614 22.4977 24.1706 22.48 24.0845C22.4597 23.9917 22.2704 23.9581 22.1045 23.9309ZM21.3434 24.1329C21.3 24.1373 21.2582 24.1512 21.2209 24.1736C21.1836 24.2008 21.1964 24.2722 21.2209 24.3202C21.2491 24.3704 21.4267 24.5885 21.4769 24.6498C21.5057 24.6849 21.5421 24.7131 21.5834 24.732C21.6247 24.751 21.6698 24.7602 21.7152 24.7591C21.7686 24.7538 21.8411 24.7309 21.8997 24.7069C21.9595 24.6823 22.0123 24.6301 21.9872 24.5234C21.9605 24.4152 21.5771 24.1874 21.4715 24.148C21.4304 24.1336 21.3867 24.1285 21.3434 24.1329ZM21.4049 24.6978C21.3873 24.6658 21.231 24.477 21.1761 24.4136C21.0001 24.2173 20.8364 24.1832 20.7345 24.2562C20.6295 24.3288 20.7303 24.5309 20.8823 24.6359C21.0312 24.7378 21.2873 24.7655 21.3436 24.7716L21.3467 24.7719C21.3953 24.7778 21.4241 24.7287 21.4049 24.6978ZM21.0961 23.832L21.0902 23.8333C20.7623 23.9197 20.6817 24.0557 20.7388 24.1384C20.7969 24.2184 21.0902 24.1581 21.2433 24.0845C21.3985 24.0083 21.4369 23.9197 21.3835 23.8376C21.3424 23.7738 21.1543 23.8182 21.0961 23.832Z" fill="#001689"/>
<path d="M58.7567 9.657C58.7519 9.83816 58.7481 9.98865 58.7471 10.0372L60.1736 10.0378C60.0883 8.94614 59.9341 8.78296 59.0158 8.78296H58.778C58.7764 8.86919 58.7652 9.31715 58.7567 9.657Z" fill="#CC003D"/>
<path d="M43.6277 18.9574C43.6214 19.2107 43.6154 19.4489 43.6143 19.5126L45.0402 19.5131C44.9549 18.4215 44.7869 18.2439 43.8686 18.2439L43.6447 18.2578C43.6435 18.3301 43.6354 18.6545 43.6277 18.9574Z" fill="#CC003D"/>
<path d="M38.1299 22.9148C38.1299 22.9148 38.4376 22.9436 38.5602 22.9436C38.9021 22.9436 39.7324 22.8722 39.7324 21.7021C39.7324 20.4606 39.0177 20.4617 38.3903 20.4627C38.3726 20.4628 38.3549 20.4628 38.3373 20.4628C38.2285 20.4628 38.1299 20.4863 38.1299 20.4863V22.9148Z" fill="#CC003D"/>
<path d="M44.3479 8.60718C43.8648 8.61624 43.4062 9.23058 43.3955 11.0987C43.4062 12.9225 43.8648 13.5453 44.3485 13.5549C44.8316 13.5453 45.2903 12.9225 45.3009 11.0987C45.2903 9.23165 44.8316 8.61624 44.3479 8.60718Z" fill="#CC003D"/>
<path fill-rule="evenodd" clip-rule="evenodd" d="M64.8624 31.6411H33.4268V0.00170898H64.8624V31.6411ZM59.303 7.63559C60.649 7.63559 61.2185 8.27126 61.3625 9.49247C61.3982 9.79537 61.8414 14.5357 61.8414 14.5357H60.5541C60.5541 14.5357 60.3178 11.3248 60.3034 11.1856L58.7276 11.184C58.7212 11.3355 58.606 14.5362 58.606 14.5362H57.3587L57.5912 7.63559H59.303ZM44.1696 17.112C45.5151 17.112 46.0857 17.7482 46.2297 18.9694C46.2659 19.2723 46.708 24.0126 46.708 24.0126H45.4207C45.4207 24.0126 45.1844 20.8017 45.17 20.662L43.5942 20.6604C43.5873 20.8118 43.4726 24.0126 43.4726 24.0126H42.2253L42.4578 17.112H44.1696ZM36.8706 14.5341V7.63559H40.9555V14.5341H39.6933V8.78268H38.1313V14.5341H36.8706ZM49.5189 10.038H50.2053V7.63559H51.467V14.5341H50.2053V11.2027H49.2827C48.7894 11.2027 48.3638 11.0502 48.0167 10.7483C47.6647 10.4433 47.4855 10.0593 47.4855 9.60499V7.63559H48.7494V9.47647C48.7494 9.63432 48.7958 9.75591 48.8907 9.8455C49.0246 9.97402 49.2352 10.038 49.5189 10.038ZM52.8636 8.78268V7.63559H56.235V8.78268H55.1871V14.5341H53.911V8.78268H52.8636ZM51.0132 19.3171V17.112H52.2712V24.0136H51.0126V20.4641H49.2821V24.0136H48.0236V17.112H49.2821V19.3171H51.0132ZM38.1308 19.3832C38.3035 19.3752 38.4966 19.3699 38.7142 19.3699C40.6932 19.3699 40.9865 20.9249 40.9865 21.6726C40.9865 22.3045 40.691 24.011 38.7835 24.011H36.8701V17.1125H40.3929V18.2596H38.1308V19.3832ZM46.1081 8.64509C46.3688 9.14744 46.5374 9.85457 46.5592 10.8411L46.5619 11.0646C46.5614 11.6794 46.4936 12.2757 46.3603 12.7556C46.0137 14.1693 45.2138 14.669 44.3792 14.6845L44.3616 14.685H44.3397L44.3221 14.6845C43.4875 14.669 42.6876 14.1688 42.341 12.7556C42.2087 12.2751 42.1405 11.68 42.1394 11.0651L42.1421 10.8411C42.1639 9.85457 42.3319 9.14744 42.5932 8.64509C43.0044 7.78651 43.6593 7.46601 44.3355 7.45748H44.3616L44.3659 7.45801C45.042 7.46654 45.6974 7.78651 46.1081 8.64509ZM57.0339 19.9677L58.5516 24.0115H57.1971L55.9577 20.5095C55.8633 20.5105 55.1962 20.5095 55.1962 20.5095V24.0136H53.9345V17.112H55.1962C55.1962 17.112 55.1951 19.3379 55.1962 19.3928H55.7135C56.3833 19.3928 56.5769 18.7843 56.6339 18.1252C56.6627 17.7878 56.6873 17.45 56.7075 17.112H57.9485C57.9485 17.112 57.8093 18.3913 57.7032 18.8286C57.5938 19.2792 57.3491 19.7314 57.0339 19.9677Z" fill="#CC003D"/>
</g>
</g>
<defs>
<clipPath id="clip0_34_3392">
<rect width="65" height="32" fill="white"/>
</clipPath>
<clipPath id="clip1_34_3392">
<rect width="65.06" height="31.9967" fill="white" transform="translate(-0.0302734 0.00170898)"/>
</clipPath>
</defs>
</svg>
