<svg width="140" height="30" viewBox="0 0 140 30" fill="none" xmlns="http://www.w3.org/2000/svg"><g clip-path="url(#a)" fill="#50B748"><path fill-rule="evenodd" clip-rule="evenodd" d="M12.46.347v6.627L17.829.347H12.46ZM.84 3.52a6.066 6.066 0 0 1 1.353-1.54l.42-.28c.42-.233.747-.373 1.214-.467.28-.046.513-.093.793-.093.373 0 .7.047 1.073.14.234.093.467.187.747.28.56.327.98.653 1.4 1.12l.28.42c.467.7.747 1.353.98 2.147l.14.513c0 .093.047.187.047.233V.347H0v5.646c.093-.606.28-1.446.56-2.053l.28-.42ZM21.7 1.28l-9.24 11.34v2.614c0-.094.048-.187.048-.233l.14-.514c.233-.793.513-1.447.98-2.146l.326-.42c.374-.374.7-.7 1.167-.98.233-.14.467-.234.7-.327.56-.187 1.027-.234 1.587-.234l.513.094c.467.093.793.28 1.213.466.234.14.42.28.607.467a6.55 6.55 0 0 1 1.4 1.82l.187.467c.186.466.28 1.12.373 1.586v-14Z"/><path fill-rule="evenodd" clip-rule="evenodd" d="M17.079 20.087c-1.307 0-2.38-1.68-2.38-3.734 0-2.053 1.073-3.733 2.38-3.733 1.306 0 2.38 1.68 2.38 3.733 0 2.054-1.074 3.734-2.38 3.734Zm0-8.4c-1.867 0-3.36 2.1-3.36 4.666 0 2.567 1.493 4.667 3.36 4.667 1.866 0 3.36-2.1 3.36-4.667 0-2.566-1.494-4.666-3.36-4.666Z"/><path fill-rule="evenodd" clip-rule="evenodd" d="m12.6 18.312-.14-.56c0-.093-.046-.186-.046-.233v5.647h9.24v-5.6c-.14.606-.28 1.4-.56 2.006l-.233.467a6.065 6.065 0 0 1-1.354 1.54l-.42.28c-.42.233-.746.373-1.213.466-.28.047-.513.094-.793.094-.374 0-.7-.047-1.074-.14-.233-.093-.466-.187-.746-.28a5.481 5.481 0 0 1-1.4-1.12l-.327-.42c-.42-.654-.7-1.354-.933-2.147ZM9.24 8.327c0 .094-.047.187-.047.234l-.14.513c-.233.793-.513 1.447-.98 2.147l-.326.42c-.374.373-.7.7-1.167.98-.233.14-.467.233-.7.326-.56.187-1.027.234-1.587.234l-.513-.094c-.467-.093-.793-.28-1.213-.466-.234-.14-.42-.28-.607-.467a6.552 6.552 0 0 1-1.4-1.82A7.559 7.559 0 0 1 0 8.327v13.954l9.24-11.387V8.327Z"/><path fill-rule="evenodd" clip-rule="evenodd" d="M4.622 10.892c-1.307 0-2.38-1.68-2.38-3.687 0-2.054 1.073-3.734 2.38-3.734 1.306 0 2.38 1.68 2.38 3.734-.047 2.006-1.074 3.687-2.38 3.687Zm0-8.4c-1.867 0-3.36 2.1-3.36 4.666 0 2.567 1.493 4.667 3.36 4.667 1.866 0 3.36-2.1 3.36-4.667 0-2.567-1.54-4.667-3.36-4.667Zm4.62 14.046-5.367 6.674h5.367v-6.674ZM21.421.347h-2.613L.28 23.214h2.567L21.42.347Zm-9.756 22.868h-1.587v-1.587h1.587v1.587Z"/><path fill-rule="evenodd" clip-rule="evenodd" d="M22.493 21.628v1.587c1.074 0 1.96.887 1.96 1.96s-.886 1.96-1.96 1.96c-.793 0-1.54-.187-3.033-.56a556.11 556.11 0 0 1-9.427-2.334C4.807 22.935 0 24.381 0 27.741h1.587c0-1.26 2.426-2.1 7.653-.793 4.527 1.12 6.207 1.54 9.613 2.334 2.24.56 4.06.42 5.414-.234 1.306-.653 2.24-2.006 2.24-3.546-.047-2.1-1.82-3.874-4.014-3.874Z"/><path d="M77.188 19.712h4.62V17.52h-4.62v2.193Zm24.779-3.638h-4.386V11.78h-2.474v11.387h2.474v-4.9h4.386v4.947h2.474V11.78h-2.474v4.294Zm-16.426 2.893V11.78h-2.474v11.387h1.914l5.74-7.233v7.233h2.473V11.78h-1.913l-5.74 7.187Zm43.4-7.42c-1.587 0-3.034.42-4.2 1.493-.98.887-1.82 2.38-1.82 4.434 0 1.68.513 3.08 1.82 4.34.933.886 2.193 1.586 4.153 1.586a6.18 6.18 0 0 0 2.8-.653l.093-.047v-3.033l-.28.327a3.142 3.142 0 0 1-2.473 1.166c-.887 0-1.82-.326-2.473-.933-.7-.607-1.12-1.54-1.12-2.707 0-.98.373-1.913.98-2.613.606-.7 1.493-1.12 2.566-1.12.374 0 1.587.093 2.567 1.213l.28.28v-3.033l-.093-.047a6.203 6.203 0 0 0-2.8-.653Zm-55.44 5.04c-.42.327-.887.327-1.307.327h-.747v-2.987h.607c.513 0 1.027.047 1.447.327.28.233.56.56.56 1.166 0 .42-.187.887-.56 1.167Zm1.913-3.92a3.55 3.55 0 0 0-1.353-.747c-.514-.14-1.027-.14-1.68-.14h-3.36v11.387h2.473V19.06h1.26c1.307 0 2.287-.373 2.94-1.026.887-.887.98-2.147.98-2.567-.093-.84-.327-1.96-1.26-2.8Zm57.12-.887v2.147h2.52v9.24h2.473v-9.24h2.52V11.78h-7.513ZM42.187 23.214h6.44v-2.147h-4.013v-2.753h3.827v-2.147h-3.827v-2.193h4.013v-2.147h-6.44v11.387Zm69.347-2.894a1.204 1.204 0 0 1-.467.514c-.42.28-1.026.28-1.4.28h-.793V18.36h.653c.467 0 .98 0 1.4.187.327.14.514.327.607.56.093.187.14.42.14.56-.047.233-.047.467-.14.653Zm-2.707-6.486h.467c.42 0 .793.093 1.073.28.28.186.42.466.42.98 0 .326-.093.56-.186.746-.187.28-.42.42-.7.467-.28.093-.514.093-.654.093h-.466v-2.566h.046Zm3.314 3.22c.14-.094.326-.234.466-.467.28-.373.56-.887.56-1.68 0-.98-.42-1.867-1.073-2.427-.933-.746-2.193-.746-2.8-.746h-2.893V23.12h3.873c.98 0 2.053-.186 2.893-.933.794-.7.98-1.68.98-2.38 0-.607-.14-1.493-.84-2.193-.233-.14-.606-.42-1.166-.56Zm3.36 6.16h6.44v-2.147h-4.014v-2.753h3.827v-2.147h-3.827v-2.193h4.014v-2.147h-6.44v11.387ZM39.854 11.78h-2.473v9.24h-4.107v-9.24h-2.473v11.387h8.073v2.52h2.287V21.02h-1.354v-9.24h.047Zm17.267 4.294h-4.387V11.78h-2.473v11.387h2.473v-4.9h4.387v4.947h2.473V11.78h-2.473v4.294Zm3.453-2.147h2.52v9.24h2.473v-9.24h2.52V11.78h-7.466v2.147h-.047ZM52.454 3.8h-3.407V.394h-2.006v9.1h2.006v-3.92h3.407v3.92h2.007v-9.1h-2.007V3.8ZM40.741 5.947l1.026-2.613 1.027 2.613h-2.053Zm.233-5.553-3.873 9.1h2.193l.793-1.867h3.314l.793 1.867h2.193l-3.78-9.1h-1.633Zm18.76 4.2L63.607.347h-2.566L58.007 3.8V.394h-2.006v9.1h2.006V5.667l.047-.047 3.08 3.874h2.66l-4.06-4.9ZM34.721 7.347c-.187.187-.56.327-1.214.327h-.653V5.62h.7c.653 0 .98.14 1.213.374.187.186.28.466.28.7-.046.233-.093.466-.326.653Zm1.446-2.707c-.7-.653-1.633-.746-2.286-.746h-1.027V2.167h3.36V.394h-5.413v9.1h3.08c.373 0 .886-.047 1.353-.187a2.46 2.46 0 0 0 1.307-.933 2.87 2.87 0 0 0 .513-1.68c0-.887-.327-1.587-.887-2.054Z"/></g><defs><clipPath id="a"><path fill="#fff" d="M0 .3h140v29.4H0z"/></clipPath></defs></svg>