<svg width="128" height="29" viewBox="0 0 128 29" fill="none" xmlns="http://www.w3.org/2000/svg"><path d="M30.001 3.508h5.879c2.977 0 4.986 2.456 4.986 4.837 0 2.456-2.01 4.912-4.986 4.912h-3.647V17.2h-2.232V3.508Zm5.656 7.665c1.935 0 2.977-1.488 2.977-2.828 0-1.414-1.042-2.828-2.977-2.828h-3.423v5.656h3.423Zm5.879 1.042c0-2.903 2.01-5.21 5.135-5.21 3.2 0 4.763 2.68 4.763 5.359v.52h-7.666c.298 1.712 1.786 2.68 3.796 2.68 1.265 0 2.307-.373 3.2-.893v1.86c-.819.595-2.158.968-3.647.968-3.125 0-5.581-2.084-5.581-5.284Zm7.665-1.042c0-1.042-.819-2.381-2.605-2.381-1.711 0-2.679 1.19-2.753 2.38H49.2Zm4.167-3.944h2.233v3.87h5.06v-3.87h2.233V17.2h-2.233v-4.168h-5.06V17.2h-2.233V7.229Zm11.386 4.986c0-2.903 2.01-5.21 5.135-5.21 3.2 0 4.763 2.68 4.763 5.359v.52h-7.665c.298 1.712 1.786 2.68 3.795 2.68 1.266 0 2.307-.373 3.2-.893v1.86c-.818.595-2.158.968-3.646.968-3.126 0-5.582-2.084-5.582-5.284Zm7.666-1.042c0-1.042-.819-2.381-2.605-2.381-1.712 0-2.68 1.19-2.754 2.38h5.359Zm3.497 1.042c0-3.126 2.456-5.21 5.433-5.21 1.19 0 2.084.224 2.977.67v1.86c-.894-.446-1.712-.67-2.68-.67-1.934 0-3.572 1.34-3.572 3.35s1.563 3.349 3.572 3.349c1.117 0 2.01-.224 2.828-.745v1.86c-.967.522-1.934.82-3.2.82-2.902 0-5.358-2.159-5.358-5.284Zm9.675 0c0-3.126 2.456-5.21 5.432-5.21 1.19 0 2.084.224 2.977.67v1.86c-.893-.446-1.712-.67-2.68-.67-1.934 0-3.571 1.34-3.571 3.35s1.563 3.349 3.572 3.349c1.116 0 2.01-.224 2.828-.745v1.86c-.968.522-1.935.82-3.2.82-2.828 0-5.358-2.159-5.358-5.284Zm20.762 3.125v1.638c-.297.223-.818.297-1.265.297-.967 0-1.786-.446-2.083-1.414-.745.819-1.935 1.563-3.647 1.563-2.084 0-3.72-1.19-3.72-3.349 0-2.232 1.636-2.902 3.794-2.902h3.424v-.149c0-1.712-1.414-2.158-2.903-2.158-1.19 0-2.38.446-3.125.893V7.824c.744-.372 1.86-.819 3.646-.819 2.679 0 4.614 1.266 4.614 3.796v3.72c0 .596.372.968.819.968 0 0 .223 0 .446-.149Zm-3.646-2.455h-2.605c-1.414 0-2.381.297-2.381 1.265 0 1.116.967 1.488 2.158 1.488 1.191 0 2.307-.595 2.828-1.19v-1.563Zm5.209-5.656h2.233v3.87h5.06v-3.87h2.233V17.2h-2.233v-4.168h-5.06V17.2h-2.233V7.229Zm11.386 4.986c0-3.126 2.456-5.21 5.433-5.21 1.191 0 2.084.224 2.977.67v1.86c-.893-.446-1.712-.67-2.679-.67-1.935 0-3.573 1.34-3.573 3.35s1.563 3.349 3.573 3.349c1.116 0 2.009-.224 2.827-.745v1.86c-.967.522-1.934.82-3.2.82-2.902 0-5.358-2.159-5.358-5.284ZM30.001 22.559h1.042v1.935l1.786-1.935h1.265l-2.084 2.232 2.456 2.68h-1.265l-2.084-2.233v2.233h-1.116v-4.912Zm5.805 0h2.158c1.042 0 1.711.595 1.711 1.488s-.67 1.489-1.711 1.489h-1.117v1.935h-1.041v-4.912Zm2.083 2.084c.447 0 .744-.224.744-.596s-.297-.595-.744-.595h-1.042v1.19h1.042Zm3.275-2.084h3.572v.893H42.13v.967h2.084v.893H42.13v1.266h2.754v.893h-3.721v-4.912Zm5.06 4.019h.447c.446-.67.67-1.563.67-3.2v-.745h3.423v4.019h.67v1.935h-.968v-.968h-3.349v.968h-.967v-2.01h.074Zm3.572 0v-3.126h-1.414c0 1.042-.074 2.084-.52 3.126h1.934Zm3.2-4.019h1.042v3.2l2.382-3.2h.893v4.912h-.968v-3.2l-2.53 3.2h-.819v-4.912Zm9.824 0v.893h-1.563v4.019h-1.042v-4.019h-1.563v-.893h4.168Z" fill="#323E48"/><path d="M4.178 22.56h-3.2V8.793c0-4.689 3.87-8.559 8.558-8.559h10.567v8.484c0 4.763-3.87 8.558-8.558 8.558H6.187l1.19-3.2h4.094a5.336 5.336 0 0 0 5.358-5.358V3.434H9.46a5.336 5.336 0 0 0-5.358 5.359V22.56h.075Z" fill="url(#a)"/><defs><radialGradient id="a" cx="0" cy="0" r="1" gradientUnits="userSpaceOnUse" gradientTransform="translate(1.617 21.662) scale(18.5206)"><stop stop-color="#D6005E"/><stop offset="1" stop-color="#E3448A"/></radialGradient></defs></svg>