<svg width="140" height="32" viewBox="0 0 140 32" fill="none" xmlns="http://www.w3.org/2000/svg"><g clip-path="url(#a)"><mask id="b" style="mask-type:luminance" maskUnits="userSpaceOnUse" x="0" y="0" width="140" height="32"><path d="M139.63 0H0v31.813h139.63V.001Z" fill="#fff"/></mask><g mask="url(#b)"><path d="M45.393 9.299c.027-.503.15-.859.368-1.076.215-.215.538-.324.97-.324h6.852c.891 0 1.338.468 1.338 1.4V22.17c0 .153-.026.253-.082.294-.056.042-.162.062-.315.062h-1.776c-.138 0-.238-.02-.303-.062-.062-.04-.094-.14-.094-.294V10.134h-4.617l-.126 1.82a177.349 177.349 0 0 1-.341 4.18c-.118 1.225-.321 2.29-.612 3.196-.288.908-.712 1.652-1.265 2.235-.553.585-1.32 1.026-2.293 1.32a.63.63 0 0 1-.344-.012c-.089-.035-.162-.13-.218-.282l-.441-1.235a.665.665 0 0 1-.009-.312c.02-.085.106-.162.262-.23.582-.252 1.04-.573 1.367-.964.327-.388.583-.912.762-1.564.182-.656.317-1.477.409-2.456.09-.982.19-2.197.303-3.646l.205-2.885Zm21.725 7.691c0 1.853-.43 3.277-1.285 4.274-.859.994-2.135 1.493-3.835 1.493-1.685 0-2.94-.485-3.773-1.452-.829-.968-1.24-2.385-1.24-4.253 0-.917.123-1.734.376-2.443.25-.709.6-1.309 1.044-1.797a4.446 4.446 0 0 1 1.6-1.117 5.335 5.335 0 0 1 2.058-.386c1.655 0 2.914.506 3.773 1.515.856 1.008 1.282 2.4 1.282 4.167Zm-2.485.063c0-.503-.035-.983-.115-1.43a3.767 3.767 0 0 0-.397-1.188 2.087 2.087 0 0 0-.773-.808c-.326-.197-.741-.295-1.244-.295-.444 0-.835.095-1.17.283a2.509 2.509 0 0 0-.835.767 3.359 3.359 0 0 0-.491 1.156c-.103.447-.156.93-.156 1.447 0 1.164.188 2.079.561 2.74.377.668 1.044 1 2.006 1 .488 0 .9-.1 1.232-.305.335-.2.603-.471.806-.81.2-.334.347-.723.438-1.164.091-.438.138-.902.138-1.394Zm25.372-.063c0 1.853-.427 3.277-1.285 4.274-.856.994-2.135 1.493-3.835 1.493-1.685 0-2.944-.485-3.773-1.452-.826-.968-1.24-2.385-1.24-4.253 0-.917.126-1.734.376-2.443.25-.709.6-1.309 1.043-1.797a4.45 4.45 0 0 1 1.6-1.117 5.357 5.357 0 0 1 2.059-.386c1.658 0 2.914.506 3.773 1.515.855 1.008 1.282 2.4 1.282 4.167Zm-2.482.063c0-.503-.041-.983-.115-1.43a3.924 3.924 0 0 0-.397-1.188 2.13 2.13 0 0 0-.773-.808c-.327-.197-.741-.295-1.241-.295-.444 0-.838.095-1.17.283a2.509 2.509 0 0 0-.836.767 3.304 3.304 0 0 0-.494 1.156c-.103.447-.156.93-.156 1.447 0 1.164.189 2.079.562 2.74.38.668 1.044 1 2.005 1 .489 0 .9-.1 1.236-.305.332-.2.6-.471.805-.81.2-.334.347-.723.436-1.164.09-.438.138-.902.138-1.394Zm6.092 5.473c-.447 0-.753-.09-.92-.273-.168-.18-.254-.48-.254-.897V9.32c0-.947.444-1.42 1.338-1.42h7.878c.153 0 .25.032.292.093.044.062.061.17.061.324v1.42c0 .138-.017.235-.061.291-.042.056-.139.083-.292.083h-6.645v3.237h3.429c.793 0 1.467.08 2.023.241a4.784 4.784 0 0 1 1.411.638c.382.265.688.562.921.889.229.326.406.664.523 1.014.117.347.194.682.229 1.003.033.32.053.606.053.856a4.26 4.26 0 0 1-.388 1.817 4.417 4.417 0 0 1-1.053 1.441 4.852 4.852 0 0 1-1.567.941 5.433 5.433 0 0 1-1.92.332h-5.058v.006Zm7.333-4.693c0-.665-.211-1.22-.638-1.673-.425-.45-1.04-.677-1.849-.677h-3.45v4.744h3.409c.5 0 .911-.08 1.232-.242.32-.158.576-.355.774-.594.197-.235.328-.494.408-.779a2.95 2.95 0 0 0 .114-.78Zm13.687 3.501c0 .335-.133.568-.398.688a6.448 6.448 0 0 1-.994.356c-.356.1-.723.174-1.097.23-.373.055-.749.096-1.12.114-.367.024-.72.035-1.053.035-.92 0-1.682-.097-2.287-.282-.609-.188-1.089-.441-1.445-.753a2.488 2.488 0 0 1-.741-1.108 4.285 4.285 0 0 1-.211-1.35c0-.485.082-.956.242-1.409.158-.453.422-.85.781-1.19.362-.342.836-.618 1.412-.827.579-.209 1.285-.312 2.12-.312h2.341v-.355c0-.265-.027-.51-.082-.733a1.288 1.288 0 0 0-.327-.585c-.159-.168-.379-.294-.655-.385-.277-.091-.641-.136-1.085-.136-.478 0-.991.042-1.548.124a9.044 9.044 0 0 0-1.359.294c-.152.041-.264.05-.334.02-.071-.026-.118-.102-.145-.229l-.29-1.188c-.057-.223.005-.367.185-.438a8.572 8.572 0 0 1 1.923-.47 15.722 15.722 0 0 1 1.964-.136c1.45 0 2.511.32 3.184.962.68.641 1.016 1.573 1.016 2.8v6.263h.003Zm-2.468-3.946h-2.005c-.236 0-.494.014-.765.04a2.24 2.24 0 0 0-.773.23 1.576 1.576 0 0 0-.606.544c-.159.238-.241.565-.241.982 0 .6.203 1.018.602 1.253.407.238.942.356 1.609.356a7.895 7.895 0 0 0 .962-.065c.194-.029.399-.061.615-.106.214-.04.414-.096.596-.164v-3.07h.006Zm7.501 5.066c-.071.047-.188.073-.353.073h-1.512c-.153 0-.264-.03-.341-.085-.074-.056-.114-.168-.114-.332V11.955c0-.152.037-.258.114-.314a.577.577 0 0 1 .341-.086h1.512c.165 0 .282.027.353.074.071.047.103.156.103.323v3.717h4.619v-3.714c0-.152.039-.258.116-.314.072-.056.188-.086.344-.086h1.522c.183 0 .301.027.356.074.056.047.085.156.085.323v10.155c0 .182-.029.297-.085.344-.055.047-.173.073-.356.073h-1.522c-.156 0-.272-.03-.344-.085-.08-.056-.116-.168-.116-.332v-4.45h-4.619v4.45c0 .185-.032.3-.103.347Zm19.905-.312-3.54-5.431 3.19-4.738a.242.242 0 0 0 .036-.25.233.233 0 0 0-.209-.138h-2.168a.223.223 0 0 0-.173.082l-2.803 4.047h-1.976V11.89c0-.153-.026-.25-.082-.283-.056-.035-.153-.053-.294-.053h-1.673a.596.596 0 0 0-.283.053c-.061.033-.094.127-.094.283v10.3c0 .154.033.245.094.283a.625.625 0 0 0 .283.053h1.673c.141 0 .238-.018.294-.053.056-.035.082-.13.082-.282v-4.576h1.841l3.218 4.826a.238.238 0 0 0 .179.088h2.228a.236.236 0 0 0 .213-.135.247.247 0 0 0-.036-.253Zm-60.317 0-3.543-5.431 3.188-4.738a.224.224 0 0 0 .035-.25.229.229 0 0 0-.209-.138h-2.164a.22.22 0 0 0-.174.082l-2.805 4.047H71.61V11.89c0-.153-.03-.25-.086-.283-.056-.035-.153-.053-.29-.053h-1.671a.585.585 0 0 0-.282.053c-.062.033-.094.127-.094.283v10.3c0 .154.032.245.094.283a.622.622 0 0 0 .282.053h1.67c.141 0 .238-.018.291-.053.056-.035.086-.13.086-.282v-4.576h1.84l3.22 4.826a.236.236 0 0 0 .18.088h2.229c.088 0 .17-.053.209-.135a.26.26 0 0 0-.033-.253Zm-53.972 9.671H6.528A6.536 6.536 0 0 1 0 25.285V6.529A6.536 6.536 0 0 1 6.528.001h18.756c3.6 0 6.526 2.929 6.526 6.528v18.756c.003 3.6-2.926 6.528-6.526 6.528ZM6.528.463A6.072 6.072 0 0 0 .462 6.528v18.756a6.071 6.071 0 0 0 6.066 6.064h18.756a6.072 6.072 0 0 0 6.064-6.064V6.529A6.071 6.071 0 0 0 25.284.462H6.528Z" fill="#0039A6"/><path d="M14.266 4.633a3.271 3.271 0 0 1 1.541-.44 3.28 3.28 0 0 0-2.752 1.643L3.539 22.313a3.292 3.292 0 0 0 5.699 3.293l6.67-11.55-2.845-4.926a3.292 3.292 0 0 1 1.203-4.497Z" fill="#00A1DE"/><path d="M28.274 22.314 18.76 5.84a3.288 3.288 0 0 0-2.756-1.644 3.236 3.236 0 0 1 1.538.441 3.286 3.286 0 0 1 1.203 4.494l-2.844 4.925 6.67 11.551a3.289 3.289 0 0 0 4.493 1.203 3.288 3.288 0 0 0 1.209-4.496Z" fill="#0039A6"/><path d="M17.548 4.633a3.27 3.27 0 0 0-1.538-.44h-.2a3.247 3.247 0 0 0-1.54.44 3.289 3.289 0 0 0-1.203 4.494l2.843 4.925 2.844-4.925a3.292 3.292 0 0 0-1.206-4.494Z" fill="#002C77"/><path d="M19.292 23.98a3.386 3.386 0 0 1-6.773 0 3.385 3.385 0 0 1 6.773 0Z" fill="#EEAF30"/></g></g><defs><clipPath id="a"><path fill="#fff" d="M0 0h139.63v31.998H0z"/></clipPath></defs></svg>