<svg width="140" height="18" viewBox="0 0 140 18" fill="none" xmlns="http://www.w3.org/2000/svg"><mask id="a" style="mask-type:luminance" maskUnits="userSpaceOnUse" x="0" y="0" width="140" height="18"><path d="M.727.063h138.64v17.872H.727V.063Z" fill="#fff"/></mask><g mask="url(#a)"><path d="M27.767 3.375c1.919 0 3.487.844 4.146 1.475l-1.104 1.353a4.944 4.944 0 0 0-3.061-1.138c-2.413 0-3.917 1.66-3.917 3.935 0 2.275 1.416 3.932 3.935 3.932a5.022 5.022 0 0 0 3.284-1.305l1.046 1.398c-.66.692-2.306 1.597-4.333 1.597-3.55 0-5.747-2.388-5.747-5.622 0-3.233 2.245-5.625 5.75-5.625Zm10.95 0c3.285 0 5.674 2.39 5.674 5.625 0 3.237-2.39 5.622-5.674 5.622-3.283 0-5.672-2.388-5.672-5.622 0-3.233 2.386-5.625 5.672-5.625Zm0 9.554c2.227 0 3.883-1.675 3.883-3.932 0-2.257-1.647-3.935-3.883-3.935-2.236 0-3.88 1.675-3.88 3.935s1.653 3.935 3.881 3.935v-.003Zm16.98-1.672c0 1.583-1.015 3.12-3.642 3.12h-5.733V3.608h5.395c2.183 0 3.443 1.353 3.443 2.876 0 .86-.4 1.642-1.352 2.272.967.334 1.889 1.027 1.889 2.502Zm-7.608-5.948V8.17l3.413-.018c1.212 0 1.843-.675 1.843-1.475 0-.737-.538-1.368-1.613-1.368H48.09Zm4.073 7.378c1.245 0 1.723-.692 1.723-1.445 0-.814-.57-1.474-1.693-1.474H48.09v2.919h4.073ZM62.765 8.83l4.776 5.548h-2.365l-3.97-4.703h-2.043v4.703h-1.767V3.608h1.767v4.455h2.043l3.882-4.455h2.352L62.765 8.83Z" fill="#003790"/><path d="M72.985 3.375c3.284 0 5.672 2.39 5.672 5.625 0 3.237-2.388 5.622-5.672 5.622-3.285 0-5.672-2.388-5.672-5.622 0-3.233 2.382-5.625 5.672-5.625Zm0 9.554c2.227 0 3.881-1.675 3.881-3.932 0-2.257-1.645-3.935-3.882-3.935-2.235 0-3.88 1.675-3.88 3.935s1.657 3.935 3.881 3.935v-.003Zm17.576-9.32h1.696v10.748H90.49v-7.97l-3.535 4.718H85.88l-3.535-4.717v7.99h-1.767V3.608h1.705l4.134 5.517 4.144-5.516Zm9.805 4.406c2.366 0 3.658 1.382 3.658 3.165 0 1.782-1.292 3.197-3.535 3.197h-5.843V3.609h8.374V5.31h-6.603v2.706h3.949Zm.045 4.673c1.23 0 1.791-.678 1.791-1.494 0-.814-.552-1.492-1.791-1.492h-3.994v2.986h3.994Zm13.43 1.69-1.168-2.688h-5.075l-1.168 2.688h-1.931l4.67-10.75h1.952l4.672 10.75h-1.952Zm-5.562-4.304h3.701l-1.841-4.287-1.86 4.287Zm16.794-6.465h1.767v10.748h-1.767v-4.59h-6.222v4.61h-1.768V3.608h1.768v4.479h6.222V3.609Zm9.528 5.221 4.762 5.548h-2.35l-3.98-4.703h-2.042v4.703h-1.768V3.608h1.768v4.455h2.042l3.881-4.444h2.354l-4.667 5.211Z" fill="#003790"/><path d="M.727 8.997a8.933 8.933 0 0 0 8.936 8.942h.357v-3.4h-.357a5.54 5.54 0 0 1-3.986-9.496 5.542 5.542 0 0 1 3.986-1.586h.357V.071h-.357A8.936 8.936 0 0 0 .727 8.997Z" fill="#FC5055"/><path d="M11.45.242V4.89H9.657a4.11 4.11 0 1 0 0 8.22h1.791v4.645a8.936 8.936 0 0 0 0-17.51V.241Z" fill="#003790"/></g></svg>