<svg width="140" height="28" viewBox="0 0 140 28" fill="none" xmlns="http://www.w3.org/2000/svg"><g clip-path="url(#a)" fill="#3B175C"><path d="M58.484 9.965c-1.825 0-3.19.675-3.865 1.793h-.146v-1.45h-3.336v15.35h3.336v-4.865h.146c.672 1.117 2.04 1.792 3.865 1.792 3.424 0 6.14-2.796 6.14-6.312 0-3.511-2.716-6.308-6.14-6.308Zm-.675 9.583c-1.861 0-3.336-1.45-3.336-3.275 0-1.843 1.474-3.274 3.336-3.274 1.916 0 3.373 1.43 3.373 3.274s-1.475 3.275-3.373 3.275Zm75.294-8.683c-1.909 0-3.402.723-4.311 1.978h-.15c.249-2.27 1.534-3.373 4.3-3.767l4.844-.7V5.304l-5.164.734c-4.771.664-7.06 3.19-7.06 7.743 0 3.292.212 4.333.799 5.578.924 1.997 3.213 3.223 5.98 3.223 3.726 0 6.602-2.643 6.602-6.104-.003-3.329-2.38-5.614-5.84-5.614Zm-.799 8.666c-1.898 0-3.3-1.296-3.3-3.052 0-1.774 1.383-3.07 3.3-3.07 1.879 0 3.266 1.296 3.266 3.07 0 1.756-1.405 3.052-3.266 3.052ZM47.64 6.703l-3.756 7.571-5.117-7.57h-3.99l7.428 10.958-.204.416c-.321.665-.745 1.022-1.723 1.022H37.65v3.154h3c2.289 0 3.212-.58 4.169-2.49L51.385 6.7H47.64v.004Zm36.254 3.617-.57 7.418c-.087 1.162-.477 1.585-1.401 1.585h-.817v3.019h1.989c2.237 0 3.23-1.022 3.39-3.154l.439-5.764h4.102v8.816H94.4V10.32H83.894Zm19.202 2.711c1.365 0 2.449.767 2.964 1.793l2.982-1.124c-.833-2.268-3.194-3.735-6.016-3.735-3.781 0-6.635 2.727-6.635 6.312 0 3.581 2.858 6.312 6.635 6.312 2.822 0 5.183-1.468 6.016-3.735l-2.982-1.124a3.284 3.284 0 0 1-2.964 1.792c-1.898 0-3.267-1.347-3.267-3.241 0-1.902 1.369-3.25 3.267-3.25Zm16.482-2.726-5.18 7.579v-7.58h-3.336v11.938h3.69l5.147-7.524v7.524h3.336V10.305h-3.657ZM76.08 11.754h-.145c-.672-1.117-2.04-1.793-3.866-1.793-3.424 0-6.14 2.797-6.14 6.312 0 3.512 2.716 6.312 6.14 6.312 1.825 0 3.19-.675 3.865-1.793h.146v1.45h3.337V10.304H76.08v1.45Zm-3.332 7.794c-1.898 0-3.373-1.431-3.373-3.275 0-1.843 1.457-3.275 3.373-3.275 1.861 0 3.336 1.432 3.336 3.275-.004 1.825-1.475 3.275-3.336 3.275Zm-47.376-4.723c0-4.322-2.354-8.122-5.89-10.287l.047 2.935c2.102 1.807 3.434 4.435 3.434 7.352a9.491 9.491 0 0 1-.785 3.764 12.436 12.436 0 0 1-3.28-5.155c-.815-2.431-1.005-5.092-1.034-8.345l.004-1.398a12.932 12.932 0 0 0-2.274-.738l.004 2.132c.076 11.23 2.021 15.858 4.916 19.337 2.96-2.234 4.858-5.702 4.858-9.597 0 .004 0 .004 0 0ZM9.778 5.09l.004-2.133c-.781.175-1.544.424-2.274.738l.004 1.398c-.033 3.249-.22 5.914-1.033 8.345a12.423 12.423 0 0 1-3.282 5.155 9.49 9.49 0 0 1-.784-3.764c0-2.92 1.328-5.545 3.434-7.352l.048-2.935C2.355 6.702 0 10.503 0 14.825v.004c0 3.895 1.902 7.363 4.858 9.597 2.902-3.475 4.844-8.108 4.92-19.337Zm4.049-4.3a14.211 14.211 0 0 0-1.135-.048c-.35 0-.723.015-1.139.048v2.522c0 11.054-.427 15.858-2.08 23.32 2.095.53 4.321.53 6.42.004-1.642-7.407-2.066-12.211-2.066-23.324V.79Z"/></g><defs><clipPath id="a"><path fill="#fff" d="M0 .742h140v26.515H0z"/></clipPath></defs></svg>