<svg width="140" height="16" viewBox="0 0 140 16" fill="none" xmlns="http://www.w3.org/2000/svg"><g clip-path="url(#a)" fill="#E1192F"><path d="M85.81 6.655c-.73-.373-1.57-.56-2.527-.56h-4.76V3.661h8.524V.698H74.922v14.56h8.338c.987 0 1.835-.203 2.558-.584a4.26 4.26 0 0 0 1.696-1.602c.412-.684.615-1.493.615-2.427 0-.925-.203-1.734-.615-2.41a4.225 4.225 0 0 0-1.703-1.58Zm-1.757 5.281c-.288.288-.708.436-1.245.436h-4.285v-3.43h4.285c.35 0 .646.07.903.21.256.14.45.334.583.583.132.25.195.56.195.934 0 .56-.148.98-.436 1.267ZM95.167.698l-6.308 14.56h3.726l1.19-2.925h6.401l1.182 2.925h3.889L98.932.697h-3.765Zm-.21 8.765 2.038-4.978 2.022 4.978h-4.06Zm23.07-3.197h-6.946V.698h-3.702v14.56h3.702V9.26h6.946v5.997h3.686V.697h-3.686v5.568Zm21.971 8.992-7.147-7.755 6.883-6.805h-4.457l-6.051 6.237V.698h-3.601v14.56h3.601V8.692l6.051 6.565h4.721ZM14.622.698h-4.075L7.49 5.388 4.27.698H.023l5.08 7.054L0 15.258h4.099l3.103-4.83 3.282 4.83h4.24L9.566 7.962 14.622.698ZM27.2 1.42C26.01.805 24.618.494 23.008.494c-1.61 0-3.01.311-4.2.926-1.19.614-2.108 1.486-2.746 2.598-.638 1.112-.957 2.434-.957 3.959 0 1.508.32 2.83.957 3.95.638 1.12 1.556 1.992 2.746 2.614 1.19.614 2.59.926 4.2.926 1.61 0 3.002-.312 4.192-.926 1.182-.614 2.1-1.486 2.745-2.613.646-1.12.965-2.443.965-3.951 0-1.525-.319-2.847-.965-3.96C29.3 2.906 28.383 2.035 27.2 1.42Zm-.537 9.03a3.28 3.28 0 0 1-1.384 1.532c-.615.35-1.377.521-2.28.521-.901 0-1.656-.17-2.255-.52-.606-.35-1.057-.856-1.369-1.533-.31-.669-.466-1.493-.466-2.466 0-.972.155-1.788.466-2.465.312-.67.77-1.182 1.377-1.532.607-.35 1.354-.522 2.256-.522.902 0 1.656.18 2.279.53a3.28 3.28 0 0 1 1.384 1.532c.303.668.459 1.485.459 2.457-.008.973-.163 1.79-.467 2.466Zm12.096-2.807L35.212.698h-4.153l5.716 10.632-1.999 3.928h3.975L46.116.697h-3.935l-3.422 6.945ZM61.24.698l-4.642 8.625L51.86.698h-4.037v14.56h3.352V5.822l3.78 6.86h3.205l3.702-6.907v9.482h3.352V.697H61.24Z"/></g><defs><clipPath id="a"><path fill="#fff" d="M0 .494h140v15.011H0z"/></clipPath></defs></svg>