<svg width="80" height="32" viewBox="0 0 80 32" fill="none" xmlns="http://www.w3.org/2000/svg"><g clip-path="url(#a)"><path d="m16.242 4-8.12 8.122h8.12v16.242l8.122-8.102V4h-8.122Z" fill="#EA5616"/><path d="m8.122 28.364 8.121-8.121H8.122V4L0 12.102v16.262h8.122Z" fill="#2C2D84"/><path fill-rule="evenodd" clip-rule="evenodd" d="M53.5 16.176c0 2.58 1.6 4.666 4.445 4.666v-.002c1.81 0 3.154-.933 3.98-2.226l2.61 2.611a8.514 8.514 0 0 1-6.873 3.479c-4.71 0-8.426-3.818-8.426-8.528 0-5.042 3.716-8.528 8.426-8.528a8.506 8.506 0 0 1 6.538 3.056l-2.593 2.592c-.457-.569-1.745-1.79-3.743-1.79-3.2 0-4.364 2.6-4.364 4.67Zm-16.752 8.127h-4.264V8.06h15.024v16.243h-4.263V11.714h-6.497v12.589Zm33.511-10.157h3.643c3.454 0 5.89 1.63 5.89 5.078 0 3.449-2.436 5.079-5.688 5.079h-8.109V8.06h12.376v3.654h-8.112v2.432Zm3.236 6.706H70.26v-3.246h3.236c1.005 0 2.025.397 2.025 1.618s-1.018 1.628-2.025 1.628Z" fill="#2C2D84"/></g><defs><clipPath id="a"><path fill="#fff" d="M0 0h80v32H0z"/></clipPath></defs></svg>