<svg width="151" height="35" viewBox="0 0 151 35" fill="none" xmlns="http://www.w3.org/2000/svg"><g clip-path="url(#a)" fill="#476BF0"><path fill-rule="evenodd" clip-rule="evenodd" d="m125.365 6.82.586 4.095h-1.198l.612-4.095Zm-4.66 9.394h3.195l.373-2.328h2.21l.373 2.328h3.196l-2.69-13.488h-3.941l-2.716 13.488Zm-18.08-13.488 2.343 3.185 2.37-3.185h2.663v13.488h-3.142V7.97l-1.891 2.355-1.89-2.355v8.216h-3.142V2.726h2.689Zm-58.5.027h6.443v3.345H47.32V16.16h-3.196V2.753Zm97.669-.027h3.062V7.57h.666l1.758-4.844h3.355l-2.397 6.37 2.743 7.064h-3.621l-1.758-5.405h-.746v5.405h-3.062V2.726Zm-10.411 0h3.062V7.57h2.183V2.726h3.089v13.461h-3.089v-5.406h-2.183v5.38h-3.062V2.725Zm-16.19 10.731v-3.05h.453c.373 0 1.358 0 1.358 1.391 0 1.392-.985 1.686-1.358 1.686l-.453-.027Zm-3.062 2.677h3.755a4.047 4.047 0 0 0 1.677-.295 3.901 3.901 0 0 0 1.411-.963c.4-.402.693-.91.906-1.445a4.048 4.048 0 0 0 .213-1.686c0-3.426-2.636-4.015-4.341-4.015h-.532V5.964h4.181V2.753h-7.243V16.16h-.027v-.026Zm-18.666-3.078c-1.118 0-1.677-1.258-1.677-3.586s.559-3.586 1.677-3.586c1.118 0 1.678 1.258 1.678 3.586s-.56 3.586-1.678 3.586Zm0 3.185c3.728 0 4.98-3.372 4.98-6.744s-1.252-6.744-4.98-6.744c-3.701 0-4.98 3.372-4.98 6.744 0 3.371 1.252 6.744 4.98 6.744ZM82.495 5.697h.745c.72 0 1.172.428 1.172 1.525 0 1.472-.746 1.552-1.172 1.552h-.745V5.697Zm-3.09 10.49h3.117v-4.442h1.065c3.115 0 4.073-2.783 4.073-4.55 0-1.766-1.091-4.496-4.073-4.496h-4.181v13.488ZM69.022 2.726h8.574v13.488h-3.142V5.964h-2.29v10.25h-3.142V2.726Zm-6.417 5.272c.186.027.373 0 .532-.053.16-.054.32-.161.48-.268a1.29 1.29 0 0 0 .32-.428c.079-.161.132-.348.132-.509 0-.16-.053-.348-.106-.508a1.185 1.185 0 0 0-.32-.402 1.482 1.482 0 0 0-.452-.24c-.16-.054-.346-.054-.506-.054a4.38 4.38 0 0 0-1.731.375V3.047a10.59 10.59 0 0 1 2.742-.348c2.557 0 3.728 1.74 3.728 3.399a3.107 3.107 0 0 1-.532 1.846A3.163 3.163 0 0 1 65.4 9.15v.134c.665.187 1.224.615 1.624 1.177.4.562.586 1.258.532 1.954 0 2.462-1.784 3.8-4.073 3.8a5.656 5.656 0 0 1-2.956-.67l.053-2.702a4.646 4.646 0 0 0 2.077.401c.187.027.346 0 .506-.053.16-.054.32-.134.453-.268.133-.107.24-.267.32-.428.079-.16.106-.321.106-.508 0-.723-.48-1.232-1.572-1.232h-1.224V7.998h1.358Zm-7.696-1.204.613 4.094h-1.199l.586-4.094Zm-4.66 9.393h3.196l.373-2.328H56l.373 2.328h3.195L56.878 2.7h-3.94l-2.69 13.488Zm-2.156 10.49h1.145l-.586-4.04-.56 4.04Zm2.503-8.028 2.61 13.247H50.09l-.373-2.274h-2.13l-.373 2.274h-3.115l2.61-13.247h3.887Zm26.547 3.131c-1.065 0-1.624 1.258-1.624 3.586 0 2.329.56 3.587 1.624 3.587 1.092 0 1.625-1.258 1.625-3.587 0-2.328-.56-3.586-1.625-3.586Zm0-3.211c3.622 0 4.847 3.399 4.847 6.797 0 3.4-1.225 6.798-4.847 6.798-3.62 0-4.846-3.399-4.846-6.798 0-3.398 1.225-6.797 4.846-6.797Zm-14.139.08v3.292h2.556v9.928h3.09v-9.928h2.555v-3.292h-8.2Zm-5.618 7.734h.532c.267 0 .48.107.666.348.186.214.266.562.266.99 0 .429-.08.75-.266.99-.186.215-.4.348-.666.348h-.532v-2.676Zm0-4.924h.453c.24 0 .426.107.559.295.133.187.213.481.213.883 0 .4-.08.696-.213.91a.658.658 0 0 1-.56.294h-.452v-2.382Zm-3.01 10.41h3.622c.613 0 1.172-.107 1.651-.294.48-.187.905-.455 1.225-.776.346-.348.586-.723.772-1.177.187-.455.266-.937.266-1.472a4.62 4.62 0 0 0-.106-1.044 5.099 5.099 0 0 0-.32-.964 3.385 3.385 0 0 0-.559-.776 2.271 2.271 0 0 0-.852-.508c.053 0 .133-.08.293-.16.16-.108.32-.268.506-.456.187-.214.32-.481.48-.83a3.55 3.55 0 0 0 .212-1.257c0-.482-.08-.963-.266-1.392a3.129 3.129 0 0 0-.719-1.124 3.419 3.419 0 0 0-1.145-.75c-.453-.186-.958-.267-1.518-.267h-3.541V31.87Zm69.206.214h3.062v-5.352h2.184v5.38h3.088V18.648h-3.088v4.844h-2.184V18.65h-3.062v13.434Zm10.491 0h3.196V22.021h3.248V18.65h-6.444v13.434Zm-29.157-8.188v2.836h1.278c1.065 0 1.545.482 1.545 1.231 0 .188-.054.348-.134.509a1.63 1.63 0 0 1-.319.428 1.56 1.56 0 0 1-.453.268 1.1 1.1 0 0 1-.506.053 4.576 4.576 0 0 1-2.077-.401l-.053 2.703a5.754 5.754 0 0 0 2.982.669c2.264 0 4.074-1.365 4.074-3.827a2.907 2.907 0 0 0-.532-1.927c-.4-.562-.959-.99-1.624-1.178v-.134c.612-.24 1.118-.695 1.464-1.23a3.286 3.286 0 0 0 .479-1.874c0-1.686-1.145-3.425-3.727-3.425-.932 0-1.838.107-2.743.348v2.81a3.905 3.905 0 0 1 1.731-.322 1.1 1.1 0 0 1 .506.054c.159.054.319.134.452.24.133.108.24.268.32.402.08.16.106.321.106.509a1.42 1.42 0 0 1-.452.936c-.267.241-.613.348-.986.348h-1.331v-.026Zm-20.397-5.326v7.386c0 2.382-.32 2.944-.985 2.944-.24-.027-.48-.053-.719-.107v3.158c.4.16.826.24 1.278.24 3.355 0 3.355-3.237 3.355-5.058v-5.325h1.225v10.196h2.93V18.569h-7.084Zm9.373.107V32.11h2.85l2.849-7.252v7.252h2.849V18.676h-2.85l-2.822 7.252v-7.252h-2.876Zm21.755 0v7.252l2.823-7.252h2.875V32.11h-2.849v-7.252l-2.849 7.252h-2.849V18.676h2.849Z"/><path d="M0 17.252c0 9.517 7.649 17.252 17.038 17.252 9.39 0 17.038-7.735 17.038-17.252S26.427 0 17.038 0C7.648 0 0 7.735 0 17.252Zm.58 0C.58 8.054 7.965.585 17.038.585c9.073 0 16.458 7.496 16.458 16.667 0 9.198-7.385 16.667-16.458 16.667C7.965 33.92.58 26.45.58 17.252Zm4.721-4.732c4.352-2.897 9.179-4.572 17.355-3.163.448-.266.685-.505.817-1.063-2.03-.745-4.246-1.01-7.12-.957-2.56.08-7.201 1.036-9.654 2.525l.765-.957c1.74-1.01 6.224-2.392 9.6-2.445 2.374-.054 3.614.08 6.436.85-.238-.505-.844-.744-1.688-1.116-2.743-1.25-7.86-1.356-12.053.505.527-.346 1.054-.691 1.714-.984 1.371-.638 3.64-1.25 6.462-1.223 2.268.027 4.932.824 6.593 2.473.264.319.422.664.502.957 1.292.664 2.057 1.302 2.479 2.02.184.372.237.797.158 1.25.554.318.791.61 1.055.956.184.293.343.638.37.957.052.425.105.877-.317 1.409.448.213.79.85.844 1.116.21.984-.422 1.968-1.266 2.712-.95.85-3.06 1.86-4.774 2.313-3.429.877-6.436 1.249-8.836 1.674 1.082.266 2.532.612 4.932.612 5.09 0 9.6-2.446 9.6-2.446s-.105.319-.21.611c-3.244 1.968-8.387 2.818-10.576 2.712-2.242-.107-4.115-.452-5.961-1.01-.554.16-1.108.319-1.662.558 2.849 1.356 4.959 1.648 7.359 1.834 2.426.186 6.461-.425 9.89-1.675-.158.16-.237.4-.395.559-1.741.93-5.433 1.86-7.28 1.94-1.846.08-4.088 0-6.04-.372-1.687-.319-3.059-.877-4.483-1.515a1.118 1.118 0 0 0-.449.718c5.565 2.977 10.84 3.056 16.801 1.17l-.554.53c-6.593 2.712-11.737 1.649-15.72-.292a5.625 5.625 0 0 1-.395-.186c.37.665 3.403 2.898 6.805 3.19 2.347.186 5.196-.212 6.91-.904l-1.002.532c-.818.399-3.007 1.33-6.04 1.143-4.062-.266-6.33-2.1-7.358-3.057-.475-.452-.713-.957-.844-1.595-.924-.478-1.504-.983-1.979-1.754-.29-.452-.237-.93-.158-1.356.027-.133.053-.266.106-.372-.449-.32-.897-.665-1.082-1.01-.395-.744-.158-1.356.132-1.861-.237-.266-.474-.558-.553-.824a2.645 2.645 0 0 1-.106-1.01c.079-.612.395-1.17.818-1.675.896-1.037 2.268-1.834 4.668-2.631 2.347-.771 3.27-.904 5.037-1.303 2.058-.479 4.51-.638 6.594-1.356-5.723-1.09-11.71-.16-16.563 3.243l.316-.957Zm19.57-3.588c-.079.292-.369.611-.58.85.633.16 1.266.4 1.873.638-.08-.558-.739-1.116-1.293-1.488ZM7.174 20.575c-.37-.213-.633-.346-.923-.585-.159.372.158.77.475.957.158-.133.316-.24.448-.372Zm19.359-7.603c.422.213.791.372 1.134.612.264-.505.105-.825-.449-1.303-.184.266-.421.478-.685.691Zm-1.213.745c-.845.398-2.031.797-3.772 1.249-1.398.345-4.853.85-8.545 1.675-1.187.265-4.352 1.01-5.908 2.365.422.346.712.452 1.187.718.659-.425 1.53-.824 2.822-1.17 2.268-.61 3.956-.877 6.013-1.196 2.03-.345 5.829-1.143 7.939-1.914a6.388 6.388 0 0 0 1.793-.957c-.132-.159-1.477-.824-1.53-.77ZM9.337 22.675a10.71 10.71 0 0 1 1.107-.558c-.58-.24-1.187-.532-1.82-.798-.29.186-.527.372-.712.558l1.425.798Zm-1.952.186c0 .372.21.718.738 1.143.053-.213.159-.372.317-.558a6.727 6.727 0 0 1-1.055-.585Zm2.875-7.098c4.167-1.223 8.519-1.621 12.95-2.79-1.741-.48-2.69-.692-4.51-.48-2.664.32-5.566.905-8.071 1.649-.976.292-6.119 1.78-4.642 3.854 0 .027.87-1.223 4.273-2.233Zm15.587-4.306c-.686-.319-1.53-.611-2.427-.85-.395.318-.87.61-1.53.877 1.135.212 1.953.505 2.902.797.158.08.923-.665 1.055-.824Zm2.057 4.04a25.13 25.13 0 0 0-.422.346c-.95.744-2.426 1.33-4.483 1.887-4.273 1.17-7.385 1.33-10.92 2.207-.685.16-1.397.398-2.083.69.66.347 1.371.639 2.11.931 1.424-.425 2.136-.611 4.193-.957.792-.133 3.245-.558 4.985-.956 3.192-.692 7.86-2.18 6.62-4.147Z"/></g><defs><clipPath id="a"><path fill="#fff" d="M0 0h150.978v34.584H0z"/></clipPath></defs></svg>