<svg width="82" height="30" viewBox="0 0 82 30" fill="none" xmlns="http://www.w3.org/2000/svg"><path d="M23.696 3.96H4.22L5.622.101h19.477l-1.403 3.857Zm-.7 1.93H3.507L2.105 9.747h19.478l1.412-3.859Zm-2.106 5.77H1.404L0 15.518h19.461l1.43-3.857-.001-.001Z" fill="#009FDF"/><path d="M70.107 25.175h3.508a3.061 3.061 0 0 0 2.683-1.044 3.35 3.35 0 0 0 .684-2.202 3.052 3.052 0 0 0-1.2-2.63 3.509 3.509 0 0 0-2.202-.562h-3.473v6.438Zm-4.605 3.885V5.889H80.58l-1.325 3.886h-9.147v5.13h3.728c3.008 0 4.568.719 5.647 1.64a6.823 6.823 0 0 1 2.289 5.49 6.658 6.658 0 0 1-2.728 5.736c-1.447.999-2.963 1.28-6.05 1.28l-7.49.009Zm-13.347 0V9.765h-6.7V5.89h18.601l-1.325 3.886h-5.928v19.293l-4.648-.008ZM33.589 15.168h2.63a5.59 5.59 0 0 0 1.605-.123 2.535 2.535 0 0 0 1.754-2.63 2.342 2.342 0 0 0-1.754-2.57 6.385 6.385 0 0 0-1.753-.159h-2.482v5.482Zm0 4.008v6.077h3.21a3.447 3.447 0 0 0 2.481-.684 3.026 3.026 0 0 0 .965-2.385 3.298 3.298 0 0 0-.615-1.982c-.683-.877-1.525-1.044-2.963-1.044l-3.078.018Zm7.419-2.447v.08c.782.3 1.512.72 2.166 1.244a5.463 5.463 0 0 1 1.964 4.534c0 3.166-1.683 5.455-4.445 6.139-1.102.27-2.236.38-3.369.325h-8.34V5.888h7.42a13.717 13.717 0 0 1 3.508.324c2.683.72 4.446 2.57 4.446 5.49a5.13 5.13 0 0 1-1.481 3.772 5.621 5.621 0 0 1-1.826 1.236l-.043.019Z" fill="#0A2973"/></svg>