<svg width="87" height="32" viewBox="0 0 87 32" fill="none" xmlns="http://www.w3.org/2000/svg">
<g clip-path="url(#clip0_34_3215)">
<g clip-path="url(#clip1_34_3215)">
<path d="M49.1382 7.30639C48.8655 6.59752 48.5383 6.43397 47.7204 6.43397H45.5937C44.8303 6.43397 44.5031 6.59752 44.2304 7.36097L37.5776 25.0292C37.3049 25.7927 37.4685 26.1199 38.341 26.1199H40.2496C41.6128 26.1199 41.9946 25.9017 42.2672 25.0837L43.1397 22.4663H50.0108L50.8833 25.0837C51.1559 25.9017 51.5377 26.1199 52.9556 26.1199H55.0277C55.8456 26.1199 56.0638 25.7381 55.7911 25.0292L49.1382 7.30639ZM44.3394 18.8126L45.8118 14.5046C46.4662 12.5415 46.4662 11.1236 46.4662 11.1236H46.7388C46.7388 11.1236 46.7934 12.5415 47.4478 14.5592L48.8655 18.8672H44.3394V18.8126ZM68.0607 6.37939H54.864C53.9915 6.37939 53.7189 6.6521 53.7189 7.52452V9.37861C53.7189 10.1966 53.9915 10.4692 54.864 10.4692H59.2266V24.9202C59.2266 25.7927 59.4992 26.0653 60.3172 26.0653H62.553C63.4255 26.0653 63.6983 25.7927 63.6983 24.9202V10.5238H68.0062C68.8787 10.5238 69.1513 10.2511 69.1513 9.43318V7.5791C69.1513 6.70659 68.8787 6.37939 68.0607 6.37939ZM79.8939 13.6321H75.4229V10.4148H83.7658C84.5836 10.4148 84.9107 10.0876 84.9107 9.26954V7.52452C84.9107 6.6521 84.5836 6.37939 83.7658 6.37939H71.9874C71.1688 6.37939 70.8419 6.6521 70.8419 7.52452V25.0292C70.8419 25.8472 71.1688 26.1199 71.9323 26.1199H79.8397C83.6565 26.1199 86.1648 23.7205 86.1648 19.9032C86.22 16.0315 83.7116 13.6321 79.8939 13.6321ZM79.2397 22.0845H75.3679V17.6675H79.2397C80.7117 17.6675 81.5303 18.54 81.5303 19.9032C81.5845 21.212 80.7117 22.0845 79.2397 22.0845Z" fill="#373A36"/>
<path d="M26.2882 0.000488281H5.23897C2.34874 0.000488281 0.00390625 2.34535 0.00390625 5.23555V26.2847C0.00390625 29.1749 2.34874 31.5198 5.23897 31.5198H26.2336C29.1237 31.5198 31.4687 29.1749 31.4687 26.2847V5.23555C31.5231 2.34535 29.1783 0.000488281 26.2882 0.000488281ZM29.8872 25.7395C29.8327 25.794 29.7236 25.8484 29.6691 25.794C25.6338 23.3401 20.835 21.9222 15.7635 21.9222C10.692 21.9222 5.89336 23.3401 1.85799 25.794C1.80342 25.8484 1.69435 25.794 1.63987 25.7395C1.58529 25.6304 1.63987 25.5758 1.69435 25.5213C5.40252 22.6857 8.56538 19.0866 11.0192 14.8331C13.4732 10.5796 15.0001 5.999 15.5999 1.41831C15.5999 1.36378 15.6545 1.25471 15.7635 1.25471C15.8726 1.25471 15.9271 1.30925 15.9271 1.41831C16.527 5.999 18.0538 10.5796 20.5078 14.8331C22.9617 19.0866 26.1791 22.6857 29.8327 25.4668C29.9418 25.5758 29.9418 25.6304 29.8872 25.7395Z" fill="#FE5000"/>
</g>
</g>
<defs>
<clipPath id="clip0_34_3215">
<rect width="86.22" height="32" fill="white"/>
</clipPath>
<clipPath id="clip1_34_3215">
<rect width="86.22" height="31.9992" fill="white" transform="translate(0 0.000488281)"/>
</clipPath>
</defs>
</svg>
