<svg width="140" height="26" viewBox="0 0 140 26" fill="none" xmlns="http://www.w3.org/2000/svg">
<g clip-path="url(#clip0_34_3222)">
<path d="M131.277 17.9218H127.839V6.21985H131.277V10.5843H132.711L135.731 6.21985H139.59L135.508 11.9981L139.936 17.9218H136.077L132.663 13.2903H131.277V17.9218ZM115.909 17.9218H112.919V6.21985H116.354V12.803L121.646 6.21985H124.612V17.9218H121.201V11.3386L115.909 17.9218ZM84.3631 0.569737V7.46168H87.1554L91.5301 0.56958H95.6579L90.0469 9.02282L95.9797 17.9216H91.8761L87.1554 10.8312H84.3631V17.9216H80.6562V0.569737H84.3631ZM110.093 6.21985V18.0784H106.543V8.93701H103.4C103.054 14.091 102.161 18.0452 99.065 18.312L96.7841 15.2708V15.2643C97.0397 15.3634 97.2954 15.4119 97.5245 15.4119C99.4662 15.4119 99.9003 11.5326 100.13 6.22204H110.091L110.093 6.21985Z" fill="#3CAE61"/>
<path d="M52.8287 0.471924H65.3289L54.4882 4.10425L54.4418 2.69282L52.8287 0.474116V0.471924ZM69.5648 8.54369V10.9652L72.1388 10.9409C72.9411 10.9409 73.5955 10.6321 73.5955 9.75436C73.5955 8.8038 72.8904 8.51942 72.1146 8.51942L69.5648 8.54369ZM69.5648 12.9831V15.4046H72.6083C73.481 15.4046 74.2039 15.1024 74.2039 14.2181C74.2039 13.2631 73.4568 12.9853 72.6083 12.9853H69.5648V12.9831ZM73.4325 17.8261H66.1356V6.12438H72.476C75.3057 6.12438 76.5134 7.66376 76.5134 9.24714C76.5134 10.1006 76.1476 11.3996 75.1053 11.8738C76.5156 12.2906 77.4281 13.2434 77.4281 14.657C77.4281 16.3154 76.4364 17.8261 73.4325 17.8261ZM54.2083 17.9232H51.2176V6.22132H54.6534V12.8045L59.9449 6.22132H62.9114V17.9232H59.4997V11.3401L54.2083 17.9232ZM42.3735 12.5796C41.1371 12.5796 39.9251 13.0184 39.9251 14.2843C39.9251 15.215 40.7251 15.8082 41.7432 15.8082C42.6887 15.8082 43.5857 15.5236 44.3614 14.8003V12.864C43.8524 12.734 43.0766 12.5796 42.3735 12.5796ZM41.9107 5.71848C45.4568 5.71848 47.7223 7.17188 47.7223 11.0621V14.829C47.7223 15.4444 48.1168 15.6164 48.5598 15.6164C48.7559 15.6164 48.9785 15.5921 49.2011 15.5171V17.7577C48.6589 17.9541 47.9691 18.1017 47.3057 18.1017C46.0981 18.1017 45.1879 17.6586 44.6965 16.7719C43.5394 17.6828 42.184 18.2253 40.4364 18.2253C38.2192 18.2253 36.2998 16.944 36.2998 14.6063C36.2998 11.6026 39.1317 10.6653 41.4964 10.6653C42.433 10.6653 43.4667 10.7887 44.3042 10.9851V10.566C44.3042 9.38385 43.3674 8.57235 41.5206 8.57235C40.6171 8.57235 39.7664 8.70906 38.9972 8.90747L37.4655 6.45951C38.4529 6.14192 40.1719 5.71409 41.9151 5.71409L41.9107 5.71848ZM31.0523 11.9731C31.0523 10.0962 29.8446 8.54353 27.8127 8.54353C26.2458 8.54353 25.0887 9.49409 24.5994 10.5461C24.4651 10.9586 24.3988 11.4348 24.3988 11.9731C24.3988 12.5111 24.4673 12.9875 24.5994 13.4C25.0887 14.4519 26.2458 15.4024 27.8127 15.4024C29.8424 15.4024 31.0523 13.8499 31.0523 11.9731ZM28.8176 5.71848C32.6259 5.71848 34.6821 8.77734 34.6821 12.0348C34.6821 15.292 32.6281 18.3511 28.8176 18.3511C26.9135 18.3511 25.6352 17.5792 24.8574 16.7345V24.3255L21.373 25.4038V6.06691H24.4562V7.80705C25.2077 6.73747 26.5873 5.71848 28.8176 5.71848ZM6.80331 2.91535L4.91472 0.471924H16.7295V14.7297H18.9554V21.8598H15.654V18.0444H3.30143V21.8598H0V14.7298H2.17955L6.80112 2.91331L6.80331 2.9155V2.91535ZM5.85557 15.0012H12.9057V4.1066H10.1179L5.85557 15.0012Z" fill="#435861"/>
</g>
<defs>
<clipPath id="clip0_34_3222">
<rect width="140" height="25.0559" fill="white" transform="translate(0 0.471924)"/>
</clipPath>
</defs>
</svg>
