<svg width="140" height="32" viewBox="0 0 140 32" fill="none" xmlns="http://www.w3.org/2000/svg">
<g clip-path="url(#clip0_34_3227)">
<g clip-path="url(#clip1_34_3227)">
<path d="M58.4047 15.6814V15.557C58.986 15.2915 59.4737 14.8568 59.804 14.3097C60.1344 13.7626 60.292 13.1286 60.2563 12.4905C60.278 12.0219 60.2004 11.5541 60.0287 11.1175C59.857 10.681 59.595 10.2857 59.2599 9.95753C58.9248 9.62933 58.5241 9.37562 58.0841 9.21303C57.6441 9.05045 57.1747 8.98265 56.7067 9.01408C55.8245 9.006 54.9453 9.11928 54.0939 9.35074V12.227C54.6075 11.9794 55.1706 11.8518 55.7407 11.8537C55.9122 11.8314 56.0866 11.8466 56.2517 11.8983C56.4168 11.95 56.5686 12.037 56.6967 12.1533C56.8249 12.2696 56.9261 12.4123 56.9936 12.5716C57.061 12.731 57.093 12.9031 57.0873 13.076C57.0739 13.4248 56.9235 13.7542 56.6685 13.9927C56.4136 14.2311 56.0749 14.3593 55.726 14.3494H54.4452V17.1891H55.6236C56.6482 17.1891 57.0873 17.6795 57.0873 18.426C57.0867 18.5993 57.0506 18.7706 56.9811 18.9294C56.9116 19.0882 56.8102 19.231 56.6833 19.349C56.5564 19.467 56.4066 19.5577 56.2432 19.6154C56.0797 19.6732 55.9062 19.6968 55.7333 19.6848C55.0467 19.7077 54.3644 19.5672 53.7426 19.2749L53.6914 22.0268C54.5551 22.5177 55.5383 22.7584 56.5311 22.7221C57.0495 22.7543 57.5688 22.6758 58.0545 22.4918C58.5402 22.3078 58.9812 22.0225 59.3481 21.6549C59.715 21.2872 59.9995 20.8457 60.1826 20.3597C60.3657 19.8736 60.4432 19.3541 60.41 18.8358C60.4701 18.1625 60.3061 17.4882 59.9435 16.9178C59.5808 16.3473 59.0399 15.9127 58.4047 15.6814Z" fill="#435DFF"/>
<path d="M44.3006 9.24097H38.1602V22.4732H41.2047V12.5417H44.3006V9.24097Z" fill="#435DFF"/>
<path d="M75.7519 9.22534H71.7266V22.4722H74.7199V18.081H75.7226C78.6501 18.081 79.6015 15.3511 79.6015 13.6093C79.6015 11.8674 78.5696 9.22534 75.7519 9.22534ZM75.4591 15.1901H74.7272V12.1528H75.4591C76.1324 12.1528 76.5642 12.5773 76.5642 13.6751C76.5642 15.0803 75.8397 15.2047 75.4591 15.2047V15.1901Z" fill="#435DFF"/>
<path d="M46.5186 9.22534L43.957 22.4722H46.987L47.3676 20.2034H49.4607L49.8193 22.4869H52.8493L50.2877 9.22534H46.5186ZM47.8286 17.2759L48.3995 13.236L48.9704 17.2759H47.8286Z" fill="#435DFF"/>
<path d="M61.8672 22.4732H64.8606V12.4393H67.0415V22.4732H70.0349V9.24097H61.8672V22.4732Z" fill="#435DFF"/>
<path d="M113.705 9.2644L111.129 22.4967H114.174L114.539 20.2059H116.633L116.999 22.4967H120.028L117.467 9.2644H113.705ZM115.022 17.315L115.593 13.2897L116.15 17.315H115.022Z" fill="#435DFF"/>
<path d="M85.161 9.04956C81.6187 9.04956 80.4258 12.4528 80.4258 15.8413C80.4258 19.2299 81.6187 22.6331 85.161 22.6331C88.7033 22.6331 89.9035 19.2299 89.9035 15.8413C89.9035 12.4528 88.7106 9.04956 85.161 9.04956ZM85.161 19.4202C84.1071 19.4202 83.5728 18.1687 83.5728 15.8413C83.5728 13.514 84.1071 12.2625 85.161 12.2625C86.2149 12.2625 86.7565 13.514 86.7565 15.8413C86.7565 18.1687 86.2222 19.4202 85.161 19.4202Z" fill="#435DFF"/>
<path d="M137.383 15.5278L139.673 9.24097H136.482L134.806 13.9981H134.162L134.184 9.24097H131.242V22.4732H134.184L134.162 17.1525H134.858L136.556 22.4732H139.995L137.383 15.5278Z" fill="#435DFF"/>
<path d="M126.345 14.0201H124.252V9.24097H121.324V22.4732H124.252V17.1745H126.345V22.4732H129.265V9.24828H126.345V14.0201Z" fill="#435DFF"/>
<path d="M96.1414 12.3661L93.8946 9.24097H91.3477V22.4732H94.341V14.408L96.1414 16.7134L97.9418 14.408V22.4732H100.935V9.24097H98.4102L96.1414 12.3661Z" fill="#435DFF"/>
<path d="M106.423 14.1728H105.881V12.4163H109.848V9.22534H102.961V22.4722H106.525C107.301 22.4722 110.536 22.1356 110.558 18.1249C110.558 14.7656 108.047 14.1728 106.423 14.1728ZM106.313 19.8155H105.881V16.8149H106.313C106.679 16.8149 107.616 16.8149 107.616 18.1981C107.616 19.5813 106.679 19.8155 106.313 19.8155Z" fill="#435DFF"/>
<path d="M0.733155 16.011C0.698017 19.8869 2.2016 23.6185 4.91409 26.3872C7.62659 29.156 11.3265 30.7358 15.2023 30.7802C19.0691 30.7224 22.7559 29.1366 25.4574 26.3693C28.1589 23.6021 29.6554 19.8781 29.6202 16.011C29.6202 7.85797 23.1504 1.21988 15.2023 1.21988C11.3227 1.26428 7.6194 2.84716 4.90628 5.62066C2.19315 8.39417 0.692163 12.1314 0.733155 16.011ZM0.00128217 16.011C-0.0248212 13.9902 0.347882 11.9841 1.09806 10.1075C1.84823 8.23093 2.96115 6.52071 4.3731 5.07477C5.78505 3.62883 7.46831 2.47556 9.32653 1.68096C11.1847 0.886368 13.1814 0.466058 15.2023 0.444092C23.5676 0.444092 30.3813 7.41884 30.3813 16.011C30.3813 24.6032 23.5603 31.556 15.2023 31.556C13.1833 31.534 11.1884 31.1144 9.33166 30.3212C7.47489 29.528 5.79261 28.3767 4.38094 26.9331C2.96928 25.4895 1.8559 23.7819 1.10442 21.9078C0.352939 20.0338 -0.021913 18.03 0.00128217 16.011Z" fill="#435DFF"/>
<path d="M10.6635 6.1832C10.1475 6.42063 9.65707 6.70999 9.19974 7.04681C12.8152 5.40009 17.2503 5.50987 19.5997 6.58573C20.3315 6.94434 20.8438 7.15659 21.0634 7.58107C19.2651 7.00842 17.3791 6.76059 15.4939 6.8492C12.5992 6.97432 9.76245 7.70219 7.16513 8.98627L6.51377 9.82061C8.65815 8.51787 12.6542 7.6689 14.8718 7.62499C16.9612 7.51408 19.0526 7.80221 21.0341 8.47396C20.9899 8.67305 20.9011 8.85951 20.7743 9.01925C20.6475 9.179 20.4861 9.30786 20.3023 9.39612C13.2397 8.1373 9.068 9.623 5.29154 12.1406L5.02075 12.975C7.09889 11.5682 9.43578 10.5882 11.8958 10.0919C14.3557 9.59565 16.8898 9.59298 19.3508 10.0841C17.5651 10.7281 15.4353 10.8672 13.6568 11.2917C12.1684 11.5763 10.7012 11.9627 9.26561 12.448C7.20905 13.136 5.99414 13.8459 5.23299 14.7534C4.84959 15.1582 4.59489 15.6676 4.50112 16.2172C4.45552 16.5175 4.48571 16.8244 4.58894 17.1101C4.7035 17.3817 4.86726 17.6298 5.07198 17.8419C4.90734 18.0744 4.81058 18.3481 4.79249 18.6325C4.77439 18.9168 4.83568 19.2005 4.96951 19.4521C5.22067 19.8078 5.53889 20.1111 5.90631 20.3449L5.85508 20.6377C5.75572 21.0367 5.80515 21.4582 5.99414 21.8233C6.40575 22.4911 7.00006 23.027 7.70672 23.3676C7.79607 23.8952 8.05265 24.3801 8.43859 24.7508C10.1762 26.3751 12.4369 27.3251 14.8132 27.4295C16.6127 27.5702 18.417 27.2266 20.0388 26.4341L20.9024 25.9804C18.9929 26.6657 16.9608 26.9425 14.9376 26.7927C12.0101 26.5439 9.36807 24.5971 9.03873 24.0116C9.14119 24.0775 9.28025 24.1287 9.39735 24.1873C12.8445 25.8852 17.2943 26.8147 22.9882 24.4361L23.4566 23.975C18.2969 25.5852 13.7447 25.5339 8.87772 22.9285C8.92322 22.6771 9.05846 22.4508 9.25829 22.2917C10.5082 22.8823 11.8221 23.3268 13.1738 23.6164C14.8983 23.9172 16.651 24.0252 18.3994 23.9384C20.582 23.7349 22.7134 23.1581 24.7008 22.2332C24.8399 22.1088 24.9057 21.8965 25.0448 21.7575C22.3154 22.7884 19.4134 23.2853 16.4965 23.2212C14.3035 23.1345 12.1504 22.6069 10.1658 21.6696C10.6269 21.4793 11.1172 21.3183 11.6296 21.172C13.2913 21.6905 15.0135 21.9907 16.7527 22.0648C19.9541 22.0398 23.0996 21.2227 25.9084 19.6863C25.9962 19.4374 26.0841 19.1739 26.0841 19.1739C23.5073 20.4911 20.6699 21.2186 17.7773 21.3037C16.3401 21.3144 14.9078 21.1348 13.5178 20.7694C15.5963 20.3815 18.2091 20.0376 21.1512 19.3057C22.6492 18.9078 24.0543 18.2189 25.2863 17.2784C25.6531 17.0052 25.9434 16.6423 26.1293 16.2244C26.3152 15.8065 26.3903 15.3478 26.3475 14.8925C26.2339 14.486 25.973 14.1364 25.6157 13.9118C25.7518 13.7396 25.8474 13.5391 25.8956 13.325C25.9437 13.1109 25.9431 12.8887 25.8938 12.6749C25.8536 12.382 25.7593 12.0991 25.6157 11.8406C25.364 11.4899 25.0394 11.1978 24.6642 10.9843C24.7358 10.6129 24.6871 10.2283 24.5252 9.88647C23.9979 9.10008 23.2526 8.48457 22.3808 8.11534C22.3034 7.80901 22.1583 7.52392 21.9563 7.28101C20.3931 5.8735 18.3658 5.09177 16.2623 5.08539H15.933C14.1178 5.06666 12.3201 5.44117 10.6635 6.1832ZM21.744 9.73278C21.9565 9.52398 22.1257 9.27526 22.2417 9.00091C22.7647 9.27441 23.1628 9.73805 23.3542 10.2963C22.8275 10.085 22.2901 9.90179 21.744 9.74742V9.73278ZM22.1759 11.9284C21.3448 11.6534 20.4995 11.4237 19.6436 11.2404C20.126 11.0691 20.5781 10.8221 20.9829 10.5086C21.6977 10.7005 22.3974 10.9451 23.0761 11.2404C22.9736 11.3941 22.3442 11.9723 22.1978 11.9723L22.1759 11.9284ZM23.6835 12.5505C23.912 12.3709 24.1206 12.1672 24.3056 11.943C24.774 12.3529 24.9057 12.6383 24.6862 13.0848C24.3712 12.8625 24.0354 12.6713 23.6835 12.5139V12.5505ZM5.90631 16.9417C4.62553 15.0828 9.07532 13.8093 9.9243 13.5458C12.2051 12.8673 14.5379 12.3777 16.899 12.0821C18.21 11.9115 19.5427 12.0468 20.7926 12.4773C16.9649 13.5458 13.1738 13.8752 9.59495 14.9584C6.68942 15.8146 5.92095 16.9125 5.90631 16.9125V16.9417ZM6.85775 17.8127C8.20439 16.6417 10.9636 15.983 11.9809 15.7561C15.1791 15.0242 18.1579 14.5997 19.3874 14.2923C20.5027 14.0358 21.5908 13.6731 22.6369 13.2092C23.1103 13.3667 23.5589 13.591 23.9689 13.8752C23.5094 14.2492 22.9828 14.5324 22.4174 14.7095C20.175 15.4454 17.8767 15.9986 15.5451 16.3636C13.7957 16.6267 12.0613 16.9809 10.3488 17.4248C9.48396 17.6287 8.65992 17.9776 7.91164 18.4567C7.53979 18.2662 7.1869 18.0407 6.85775 17.7834V17.8127ZM9.36807 19.2325C9.95219 18.9853 10.554 18.7823 11.1685 18.625C14.2131 17.8932 16.899 17.7248 20.6023 16.6929C21.9906 16.3965 23.3112 15.8429 24.4959 15.0608C24.613 14.951 24.7374 14.8632 24.8545 14.7607C25.9304 16.4587 21.927 17.7761 19.1459 18.3835C17.6822 18.6714 16.2404 18.9471 14.8205 19.2105C13.5804 19.3906 12.3567 19.6696 11.1612 20.0449C10.5496 19.7949 9.95111 19.514 9.36807 19.2032V19.2325ZM6.12587 18.669C6.40399 18.8446 6.61623 18.991 6.94557 19.1666C6.82115 19.2691 6.66746 19.3789 6.54304 19.5033C6.27225 19.3423 5.99414 18.991 6.12587 18.669ZM7.58962 20.301C7.78789 20.1246 8.00091 19.9654 8.22635 19.8253C8.74598 20.0741 9.28757 20.301 9.78524 20.5572C9.43772 20.6771 9.10206 20.829 8.78257 21.0109C8.36541 20.7767 7.95556 20.5425 7.55303 20.2791L7.58962 20.301ZM7.13586 21.1646C7.43593 21.3622 7.72868 21.5233 8.02143 21.6843C7.9091 21.8348 7.82254 22.003 7.76527 22.1819C7.31883 21.8087 7.09927 21.5086 7.1139 21.1646H7.13586Z" fill="#435DFF"/>
</g>
</g>
<defs>
<clipPath id="clip0_34_3227">
<rect width="140" height="32" fill="white"/>
</clipPath>
<clipPath id="clip1_34_3227">
<rect width="140" height="31.1119" fill="white" transform="translate(0 0.444092)"/>
</clipPath>
</defs>
</svg>
