<svg width="108" height="32" viewBox="0 0 108 32" fill="none" xmlns="http://www.w3.org/2000/svg">
<g clip-path="url(#clip0_34_3246)">
<g clip-path="url(#clip1_34_3246)">
<g clip-path="url(#clip2_34_3246)">
<path d="M28.9424 5.04477C28.8097 4.202 28.3341 3.63924 27.5307 3.37216C27.1485 3.24508 26.707 3.16785 26.179 3.13677C25.8574 3.118 25.5356 3.142 25.2245 3.1657C25.1827 3.16939 25.1405 3.17216 25.0987 3.17554V1.32816L26.5987 1.33431L28.2574 1.57124L28.3211 0.0703125H23.1956L23.3996 1.94354L23.419 6.13554L23.1836 8.12477L23.4805 8.122C23.4811 8.12139 24.183 8.11493 24.515 8.12354C24.6947 8.12785 24.8744 8.138 25.0534 8.14662C25.3033 8.16047 25.559 8.1737 25.8156 8.1737C25.8747 8.1737 25.9341 8.17308 25.9922 8.17154C26.9577 8.14539 27.6937 7.90724 28.243 7.44323C29.0956 6.72139 29.0504 5.72816 28.9424 5.04477ZM27.2741 5.45616C27.2734 5.63154 27.2614 5.78416 27.2377 5.92323C27.1713 6.30693 26.9716 6.57216 26.6427 6.71031C26.2082 6.89585 25.7362 6.94508 25.0925 6.87031V4.47708C25.6768 4.39893 26.2445 4.37831 26.7765 4.64816C27.1122 4.81862 27.2747 5.08293 27.2741 5.45616Z" fill="#191646"/>
<path d="M34.0356 0.995692L33.7892 0L32.1018 0.0212308L31.907 0.896308L29.8667 6.18185L28.9766 8.07815L30.7483 8.10523L31.0566 6.66123L31.4806 5.56092L34.023 5.556L34.6067 6.95908L34.9172 8.08615L37.2052 8.08831L36.4252 6.74554L34.0356 0.995692ZM33.539 4.33508C33.2723 4.33877 33.0003 4.34523 32.7279 4.35169C32.4606 4.35815 32.1929 4.36492 31.9304 4.368C32.0843 3.98431 32.2476 3.59877 32.4101 3.21569C32.5319 2.928 32.6535 2.64215 32.7695 2.35877L33.539 4.33508Z" fill="#191646"/>
<path d="M50.4205 8.09703L52.751 8.07303L49.0436 3.87672L52.519 0.046875L50.4744 0.0619519L49.863 0.91826C49.863 0.91826 48.295 2.64041 47.446 3.5798L47.447 1.49426L47.687 0.0687212H45.5448L45.675 1.47487L45.7057 6.43149L45.543 8.08287H47.6808L47.4451 6.4438L47.446 4.47272L50.4205 8.09703Z" fill="#191646"/>
<path d="M44.0869 5.68892C44.0823 5.15046 44.1103 1.53138 44.1084 1.532L44.2976 0.0898438H42.1816L42.3543 1.48369C42.3543 1.48369 42.3595 2.544 42.3604 3.17231H39.369C39.353 2.26154 39.3573 1.32738 39.589 0.418459L39.6715 0.092613H37.4703L37.5069 0.386151C37.5201 0.490459 37.6453 1.60769 37.661 2.12338C37.693 3.20492 37.6838 4.308 37.6743 5.37538L37.6724 5.61354C37.6687 6.07169 37.566 7.46677 37.5176 7.71569L37.457 8.02738H39.5789L39.5456 7.7363C39.5244 7.55015 39.5007 7.36554 39.4773 7.18061C39.4241 6.76431 39.374 6.37107 39.3506 5.97077C39.3284 5.568 39.333 5.15261 39.3395 4.74984C39.3404 4.65384 39.3416 4.55907 39.3426 4.46246H42.3872C42.3872 4.66246 42.3903 4.86277 42.3933 5.06215C42.4063 5.97692 42.4183 6.84123 42.1835 7.69846L42.0936 8.02831H44.3161L44.2567 7.71846C44.1158 6.98277 44.0921 6.24707 44.0869 5.68892Z" fill="#191646"/>
<path d="M70.7508 12.0597L70.8138 11.7422H66.2778L66.3138 12.0403C66.4775 13.4006 66.5938 14.6773 66.6683 15.9422C66.7225 16.8502 66.7098 17.7853 66.6969 18.6902C66.6923 19.0117 66.6877 19.333 66.6861 19.6566H58.2009C58.1545 17.1662 58.1308 14.5979 58.7695 12.0794L58.8529 11.7483H54.1806L54.2185 12.0486C54.2221 12.0751 54.5726 15.1071 54.616 16.5465C54.7 19.32 54.6757 22.1446 54.6523 24.8766L54.6471 25.5253C54.6363 26.7154 54.3674 30.3459 54.2412 30.996L54.1797 31.3126H58.6821L58.6483 31.0163C58.5941 30.5437 58.5345 30.0745 58.4748 29.6065C58.3425 28.5742 58.2061 27.5059 58.1474 26.4603C58.0877 25.4126 58.1025 24.3376 58.116 23.2988C58.1212 22.9197 58.1261 22.5403 58.1277 22.1613H66.752C66.7474 22.8108 66.7572 23.4637 66.7661 24.0976C66.7994 26.477 66.8323 28.724 66.2135 30.9816L66.1212 31.3191H70.8105L70.7495 31.0022C70.3821 29.0785 70.3203 27.1662 70.308 25.7151C70.2954 24.2686 70.3086 17.8616 70.368 16.0914C70.4265 14.3911 70.5514 13.0723 70.7508 12.0597Z" fill="#191646"/>
<path d="M43.0763 28.925V21.9902C45.244 22.0511 49.3769 22.3785 49.42 22.3813L49.7068 22.4038L49.7188 19.2222L43.0757 19.5988V14.1339C45.0585 14.1099 48.7622 14.0908 50.6895 14.6878L50.9908 14.7807L51.0326 14.4687C51.1665 13.4628 51.0736 12.0604 51.0689 12.001L51.052 11.7539H39.0612L39.1096 12.0601C39.5102 14.6293 39.4852 17.2358 39.4609 19.7554C39.4551 20.3388 39.4489 20.9234 39.4489 21.5102C39.4816 25.2385 39.0748 30.9558 39.0705 31.0124L39.0508 31.2964L50.9714 31.3542L50.98 31.0948C50.9991 30.4604 51.0551 28.7601 51.0828 28.5133L51.1246 28.1493L50.7652 28.2213C48.3942 28.7041 46.1502 28.9108 43.0763 28.925Z" fill="#191646"/>
<path d="M32.8918 20.35C32.8908 20.3494 32.8893 20.3488 32.8878 20.3478C32.9456 20.3137 32.9994 20.2792 33.0524 20.2432C34.1287 19.5097 35.3742 18.4318 35.4481 16.5949C35.5511 14.0518 34.165 12.2589 31.6438 11.6737C29.4665 11.1697 27.225 11.2494 24.7905 11.9174L24.7588 11.9266C23.5801 12.2509 23.3785 12.3561 23.4151 12.6352C23.4816 13.1491 23.5831 13.7272 23.6816 14.2872C23.7533 14.6974 23.8259 15.1109 23.8871 15.5097C23.9096 15.6574 24.0127 15.7771 24.1561 15.8226C24.2976 15.866 24.4505 15.8272 24.5527 15.7195L24.7047 15.5589C25.845 14.3564 27.3355 13.7878 29.2373 13.8281C30.4453 13.8509 31.449 14.6146 31.6795 15.6838C31.9955 17.1592 31.4622 18.4389 30.321 18.9454C29.7748 19.1866 29.1388 19.3715 28.3764 19.5075C27.6376 19.6395 26.1748 19.7361 26.1594 19.7374L25.8998 19.7546L26.009 22.246L26.2718 22.2368C26.2847 22.2364 27.5847 22.1943 28.6724 22.194H28.6742C29.1653 22.194 30.7382 22.3017 31.5404 22.7817C32.2499 23.2075 32.7595 23.9011 32.9022 24.6386C33.1185 25.7478 33.3075 28.3971 30.4188 29.0284C27.9201 29.5737 25.8853 29.0248 24.3699 27.3946C24.2404 27.2552 24.1096 27.1158 23.9573 26.9549L23.7979 26.7851C23.7019 26.6838 23.561 26.6488 23.4287 26.6915C23.2967 26.7346 23.2038 26.8466 23.1868 26.9844L23.1118 27.5937C23.0388 28.1918 22.9714 28.7555 22.8816 29.3094C22.805 29.7894 22.9656 30.0998 23.421 30.3497C25.1078 31.2709 26.9641 31.7352 28.9527 31.7352C29.333 31.7352 29.7176 31.7189 30.1071 31.6848C31.7071 31.5457 33.1745 30.9611 34.3505 29.9949C36.0647 28.5891 36.8428 26.8817 36.6619 24.9241C36.4558 22.6903 35.1881 21.1509 32.8918 20.35Z" fill="#191646"/>
<path d="M90.0282 22.7823C90.03 22.3666 90.0312 21.9531 90.0312 21.5426C90.0309 21.1598 90.0294 20.7755 90.0279 20.3906C90.0162 17.6192 90.0042 14.7549 90.4986 12.0635L90.5568 11.75H85.8836L85.9432 12.0648C86.1005 12.8989 86.2362 13.7863 86.3466 14.7029C86.3802 14.9848 86.3439 15.1266 86.1949 15.2848C84.7103 16.8743 83.2577 18.4915 81.8528 20.0558C80.5703 21.4842 79.2454 22.9586 77.8977 24.4103C77.9285 23.1857 77.9036 21.9632 77.8799 20.7746C77.8199 17.7768 77.7629 14.9445 78.5039 12.0952L78.5906 11.7614H73.8008L73.9066 12.1051C74.354 13.5611 74.3559 14.9934 74.3571 16.5088L74.3614 17.9663C74.37 20.5131 74.3789 23.1463 74.3543 25.7349C74.3506 26.1248 74.3608 26.5183 74.3709 26.9002C74.3894 27.6143 74.4082 28.3537 74.334 29.0688C74.2897 29.4998 74.1903 29.9235 74.0845 30.3731C74.0365 30.5792 73.9882 30.786 73.9445 30.9962L73.8777 31.3155H78.4869L78.4383 31.0085C78.3389 30.3737 78.2709 29.7408 78.2057 29.1278C78.1679 28.7709 78.13 28.4158 78.086 28.0598C78.0682 27.9149 78.1356 27.6931 78.2272 27.594C79.5426 26.1688 80.8395 24.7257 82.0934 23.3294C83.5152 21.7457 84.9851 20.1094 86.4832 18.4995C86.4839 18.6635 86.4839 18.8263 86.4845 18.986C86.4863 19.7435 86.4885 20.4626 86.4802 21.1811C86.47 22.0478 86.4808 22.9272 86.4909 23.778C86.506 25.086 86.522 26.4389 86.4639 27.7645C86.4312 28.4989 86.3069 29.2177 86.1759 29.9789C86.1165 30.3214 86.0577 30.6638 86.0072 31.0085L85.9626 31.3134H90.5583L90.498 30.9983C90.0094 28.4158 90.0192 25.5525 90.0282 22.7823Z" fill="#191646"/>
<path d="M101.823 14.3539C101.823 14.3167 101.827 14.2567 101.833 14.1905L107.736 14.9502L107.358 11.7148H92.6002L92.2734 14.949L98.5934 14.1875V14.5315C98.5934 16.9776 98.5891 26.0875 98.5885 26.5324L97.9793 31.3099H102.454L101.895 26.6167C101.894 26.5352 101.837 18.3942 101.823 14.3539Z" fill="#191646"/>
<path d="M0 31.1884L15.5846 31.1708L15.5766 15.7422C12.3332 21.896 6.25015 25.9003 0.008 27.4308C0.0255385 28.5963 0 31.1884 0 31.1884Z" fill="#008FB4"/>
<path d="M4.98438 23.4213C10.8659 20.4508 13.7019 15.0182 13.7019 15.0182C13.7019 15.0182 13.6816 13.2345 13.6816 13.1967C10.4407 12.0582 7.50284 10.3908 4.99022 7.89453C5.00345 12.1284 4.98438 23.4213 4.98438 23.4213Z" fill="#008FB4"/>
<path d="M5.82379 0.0742188C5.82379 0.0742188 5.82225 4.79174 5.81641 5.96836C7.36102 7.40374 8.13764 8.07544 9.74379 9.1019L9.75641 2.7776C7.92071 1.76868 7.21271 1.23237 5.82379 0.0742188Z" fill="#008FB4"/>
</g>
</g>
</g>
<defs>
<clipPath id="clip0_34_3246">
<rect width="108" height="32" fill="white"/>
</clipPath>
<clipPath id="clip1_34_3246">
<rect width="108" height="32" fill="white"/>
</clipPath>
<clipPath id="clip2_34_3246">
<rect width="108" height="32" fill="white"/>
</clipPath>
</defs>
</svg>
