<svg width="138" height="32" viewBox="0 0 138 32" fill="none" xmlns="http://www.w3.org/2000/svg">
<g clip-path="url(#clip0_34_3263)">
<g clip-path="url(#clip1_34_3263)">
<mask id="mask0_34_3263" style="mask-type:luminance" maskUnits="userSpaceOnUse" x="0" y="0" width="138" height="32">
<path d="M137.712 0.000732422H0.0585938V31.9522H137.712V0.000732422Z" fill="white"/>
</mask>
<g mask="url(#mask0_34_3263)">
<path d="M17.483 8.71293C17.483 13.5148 13.5929 17.4251 8.77076 17.4251C3.9487 17.4251 0.0585938 13.5148 0.0585938 8.71293C0.0585938 3.89083 3.9487 0.000732422 8.77076 0.000732422C13.5726 0.000732422 17.483 3.89083 17.483 8.71293Z" fill="#F56E28"/>
<path d="M17.483 22.0033C17.483 23.3 13.5929 24.3536 8.77076 24.3536C3.96896 24.3536 0.0585938 23.3 0.0585938 22.0033C0.0585938 20.7066 3.9487 19.6531 8.77076 19.6531C13.5726 19.6531 17.483 20.7066 17.483 22.0033Z" fill="#F56E28"/>
<path d="M17.483 27.7383C17.483 28.5082 13.5929 29.1161 8.77076 29.1161C3.96896 29.1161 0.0585938 28.5082 0.0585938 27.7383C0.0585938 26.9684 3.9487 26.3606 8.77076 26.3606C13.5726 26.3403 17.483 26.9684 17.483 27.7383Z" fill="#F56E28"/>
<path d="M17.483 31.5669C17.483 31.7898 13.5929 31.9518 8.77076 31.9518C3.96896 31.9518 0.0585938 31.7695 0.0585938 31.5669C0.0585938 31.344 3.9487 31.182 8.77076 31.182C13.5726 31.1617 17.483 31.344 17.483 31.5669Z" fill="#F56E28"/>
<path d="M36.6282 14.4672H34.1159V6.82881L28.6252 14.4672H26.2344V2.81714H28.7467V10.4555L34.2577 2.81714H36.6282V14.4672Z" fill="#435DFF"/>
<path d="M38.4727 2.81714H41.0053V7.41637H46.1313V2.81714H48.6842V14.4672H46.1313V9.78689H41.0053V14.4672H38.4727V2.81714Z" fill="#435DFF"/>
<path d="M53.0599 14.4672H50.5273V2.81714H58.4088V5.12689H53.0599V14.4672Z" fill="#435DFF"/>
<path d="M70.6883 8.63152C70.6883 5.08585 68.1152 2.63427 64.5897 2.61401H64.5289C60.963 2.65454 58.4102 5.08585 58.4102 8.63152C58.4102 12.1772 60.9833 14.6085 64.5087 14.649H64.5695C68.1152 14.6288 70.6883 12.1772 70.6883 8.63152ZM64.5492 12.2988C62.5029 12.2988 61.0643 10.9007 61.0643 8.63152C61.0643 6.36229 62.4825 4.96428 64.5492 4.96428C66.5956 4.96428 68.0138 6.36229 68.034 8.63152C68.0138 10.9007 66.5956 12.2988 64.5492 12.2988Z" fill="#435DFF"/>
<path d="M97.3729 5.18767H93.6445V2.81714H103.653V5.18767H99.9251V14.4672H97.3729V5.18767Z" fill="#435DFF"/>
<path d="M105.191 2.81714H110.399C113.154 2.81714 114.836 4.45828 114.836 6.86933C114.836 9.56404 112.749 10.9621 110.155 10.9621H107.744V14.4469H105.191V2.81714ZM110.236 8.69282C111.513 8.69282 112.262 7.92287 112.262 6.88959C112.262 5.73472 111.473 5.12689 110.196 5.12689H107.744V8.69282H110.236Z" fill="#435DFF"/>
<path d="M137.712 14.4672L133.579 8.49022L137.55 2.81714H134.612L132.121 6.38307L129.669 2.81714H126.65L130.621 8.55101L126.488 14.4672H129.425L132.08 10.6581L134.693 14.4672H137.712Z" fill="#435DFF"/>
<path d="M123.61 14.4662H126.204L121.24 2.73511H118.89L113.926 14.4662H116.519L117.613 11.7917H122.536L123.61 14.4662ZM118.525 9.50226L120.064 5.85529L121.605 9.50226H118.525Z" fill="#435DFF"/>
<path d="M77.9206 12.2988C75.874 12.2988 74.4355 10.9007 74.4355 8.63152C74.4355 6.36229 75.8537 4.96428 77.9206 4.96428C78.9944 4.96428 79.8856 5.2682 80.6356 5.91655L82.2156 4.33619C81.1419 3.30289 79.7031 2.63427 77.9611 2.61401H77.9C74.3341 2.65454 71.7812 5.08585 71.7812 8.63152C71.7812 12.1772 74.3544 14.6085 77.8802 14.649H77.9405C79.6832 14.6288 81.1213 13.9602 82.195 12.9268L80.615 11.3465C79.865 11.9948 78.9944 12.2988 77.9206 12.2988Z" fill="#435DFF"/>
<path d="M88.5601 12.2988C86.5134 12.2988 85.0754 10.9007 85.0754 8.63152C85.0754 6.36229 86.4936 4.96428 88.5601 4.96428C89.6339 4.96428 90.5251 5.2682 91.275 5.91655L92.8551 4.33619C91.7814 3.30289 90.3433 2.63427 88.6006 2.61401H88.5395C84.9944 2.65454 82.4414 5.08585 82.4414 8.63152C82.4414 12.1772 85.0143 14.6085 88.5395 14.649H88.6006C90.3433 14.6288 91.7814 13.9602 92.8551 12.9268L91.275 11.3465C90.5251 11.9948 89.6339 12.2988 88.5601 12.2988Z" fill="#435DFF"/>
<path d="M34.461 21.6604H27.7142V24.9832H31.1383C33.8938 24.9832 35.312 26.1786 35.312 28.2857C35.312 30.7171 33.5696 31.8112 30.6925 31.8112H26.2148V20.2625H34.461V21.6604ZM27.7344 26.361V30.3929H30.8343C32.7389 30.3929 33.7924 29.7445 33.7924 28.2857C33.7924 27.0093 32.8807 26.3812 30.9357 26.3812H27.7344V26.361Z" fill="#435DFF"/>
<path d="M40.9434 20.2195H42.1388L47.2041 31.7885H45.6439L44.3675 28.8709H38.7147L37.4383 31.7885H35.8984L40.9434 20.2195ZM39.2617 27.554H43.8002L42.2198 23.907L41.531 22.1443L40.842 23.907L39.2617 27.554Z" fill="#435DFF"/>
<path d="M56.8295 26.6252H49.961V31.7917H48.4414V20.2429H49.961V25.2272H56.8295V20.2429H58.3288V31.7917H56.8295V26.6252Z" fill="#435DFF"/>
<path d="M61.0625 20.2429H62.582V26.0781L68.4172 20.2429H70.3622L64.9728 25.7336L70.7674 31.7917H68.7617L63.5546 26.463L62.582 27.3546V31.7917H61.0625V20.2429Z" fill="#435DFF"/>
</g>
</g>
</g>
<defs>
<clipPath id="clip0_34_3263">
<rect width="137.77" height="32" fill="white"/>
</clipPath>
<clipPath id="clip1_34_3263">
<rect width="137.77" height="31.9987" fill="white" transform="translate(0 0.000732422)"/>
</clipPath>
</defs>
</svg>
