<svg width="16" height="9" viewBox="0 0 16 9" fill="none" xmlns="http://www.w3.org/2000/svg">
<path d="M8.4516 8.27487L15.0891 1.30862C15.1999 1.19239 15.2617 1.03796 15.2617 0.877374C15.2617 0.716786 15.1999 0.56236 15.0891 0.446125L15.0816 0.438624C15.0279 0.382081 14.9632 0.337056 14.8916 0.306289C14.8199 0.275522 14.7427 0.259656 14.6647 0.259656C14.5867 0.259656 14.5096 0.275522 14.4379 0.306289C14.3662 0.337056 14.3016 0.382081 14.2478 0.438624L7.99785 6.99862L1.75035 0.438624C1.69663 0.382081 1.63198 0.337056 1.56031 0.306289C1.48864 0.275522 1.41147 0.259656 1.33348 0.259656C1.25548 0.259656 1.17831 0.275522 1.10664 0.306289C1.03497 0.337056 0.970316 0.382081 0.916599 0.438624L0.9091 0.446125C0.798293 0.56236 0.736479 0.716786 0.736479 0.877374C0.736479 1.03796 0.798293 1.19239 0.9091 1.30862L7.5466 8.27487C7.60497 8.33614 7.67518 8.38491 7.75296 8.41824C7.83074 8.45157 7.91448 8.46875 7.9991 8.46875C8.08372 8.46875 8.16746 8.45157 8.24524 8.41824C8.32302 8.38491 8.39323 8.33614 8.4516 8.27487Z" fill="#878787"/>
</svg>
