<svg width="12" height="8" viewBox="0 0 12 8" fill="none" xmlns="http://www.w3.org/2000/svg">
<path d="M1.01346 3.73346C0.942371 3.66722 0.848348 3.63116 0.751197 3.63287C0.654047 3.63459 0.561354 3.67394 0.492648 3.74265C0.423941 3.81135 0.384585 3.90405 0.382871 4.0012C0.381157 4.09835 0.417218 4.19237 0.483458 4.26346L3.98346 7.76346C4.05377 7.83368 4.14908 7.87313 4.24846 7.87313C4.34783 7.87313 4.44315 7.83368 4.51346 7.76346L11.5135 0.763459C11.5797 0.692371 11.6158 0.598348 11.614 0.501197C11.6123 0.404047 11.573 0.311354 11.5043 0.242647C11.4356 0.173941 11.3429 0.134585 11.2457 0.132871C11.1486 0.131157 11.0545 0.167218 10.9835 0.233458L4.24846 6.96846L1.01346 3.73346Z" fill="#435DFF"/>
</svg>
