<svg width="17" height="20" viewBox="0 0 17 20" fill="none" xmlns="http://www.w3.org/2000/svg">
<path d="M14.2451 14.5289L9.82635 18.9489C9.65222 19.1232 9.44547 19.2614 9.21791 19.3557C8.99034 19.45 8.74643 19.4985 8.5001 19.4985C8.25377 19.4985 8.00985 19.45 7.78229 19.3557C7.55473 19.2614 7.34797 19.1232 7.17385 18.9489L2.7551 14.5289C2.00057 13.7745 1.40203 12.8788 0.993656 11.8931C0.585277 10.9073 0.375058 9.85075 0.375 8.78374C0.374942 7.71674 0.585046 6.66017 0.993317 5.67437C1.40159 4.68857 2.00003 3.79283 2.75447 3.0383C3.50892 2.28378 4.40459 1.68524 5.39035 1.27686C6.37611 0.86848 7.43265 0.658261 8.49966 0.658203C9.56666 0.658145 10.6232 0.86825 11.609 1.27652C12.5948 1.68479 13.4906 2.28323 14.2451 3.03768C14.9997 3.79217 15.5983 4.68791 16.0067 5.67375C16.415 6.65959 16.6252 7.71622 16.6252 8.7833C16.6252 9.85038 16.415 10.907 16.0067 11.8929C15.5983 12.8787 14.9997 13.7744 14.2451 14.5289ZM12.9201 4.36393C12.3397 3.78348 11.6506 3.32305 10.8922 3.00892C10.1338 2.69479 9.32097 2.5331 8.5001 2.5331C7.67923 2.5331 6.8664 2.69479 6.10801 3.00892C5.34963 3.32305 4.66054 3.78348 4.0801 4.36393C3.49966 4.94437 3.03922 5.63346 2.72509 6.39184C2.41096 7.15023 2.24927 7.96306 2.24927 8.78393C2.24927 9.6048 2.41096 10.4176 2.72509 11.176C3.03922 11.9344 3.49966 12.6235 4.0801 13.2039L8.5001 17.6214L12.9201 13.2039C13.5006 12.6235 13.9612 11.9345 14.2754 11.1761C14.5895 10.4177 14.7513 9.60483 14.7513 8.78393C14.7513 7.96303 14.5895 7.15017 14.2754 6.39178C13.9612 5.63338 13.5006 4.94431 12.9201 4.36393ZM8.5001 11.2839C8.16718 11.2915 7.8361 11.2324 7.52632 11.1102C7.21653 10.988 6.93428 10.8052 6.69613 10.5724C6.45798 10.3397 6.26874 10.0617 6.13951 9.75475C6.01028 9.44784 5.94366 9.1182 5.94358 8.78519C5.9435 8.45218 6.00994 8.12251 6.13902 7.81554C6.2681 7.50856 6.45721 7.23047 6.69524 6.99758C6.93327 6.7647 7.21543 6.58172 7.52516 6.45938C7.83488 6.33704 8.16592 6.27782 8.49885 6.28518C9.15205 6.29962 9.77364 6.56921 10.2306 7.03623C10.6875 7.50324 10.9434 8.13058 10.9436 8.78394C10.9437 9.4373 10.6881 10.0648 10.2314 10.532C9.77475 10.9993 9.15329 11.2692 8.5001 11.2839Z" fill="#435DFF"/>
</svg>
