<svg width="258" height="231" viewBox="0 0 258 231" fill="none" xmlns="http://www.w3.org/2000/svg">
<path d="M67.809 197.191C66.2617 195.696 65.0275 193.909 64.1785 191.932C63.3295 189.956 62.8826 187.83 62.8639 185.679C62.8452 183.528 63.2551 181.395 64.0696 179.404C64.8842 177.413 66.0871 175.604 67.6081 174.083C69.1292 172.562 70.938 171.359 72.9289 170.545C74.9198 169.73 77.053 169.32 79.2041 169.339C81.3551 169.358 83.4808 169.805 85.4573 170.654C87.4338 171.503 89.2214 172.737 90.7158 174.284C102.044 185.615 116.478 193.332 132.192 196.459C147.907 199.585 164.196 197.981 178.998 191.849C193.801 185.717 206.453 175.333 215.353 162.01C224.253 148.687 229.002 133.023 228.999 117.001C228.999 112.704 230.706 108.584 233.744 105.546C236.782 102.508 240.902 100.801 245.199 100.801C249.495 100.801 253.616 102.508 256.654 105.546C259.692 108.584 261.399 112.704 261.399 117.001C261.401 139.43 254.751 161.357 242.29 180.007C229.83 198.657 212.119 213.193 191.396 221.776C170.674 230.36 147.872 232.606 125.873 228.23C103.875 223.853 83.6683 213.052 67.809 197.191Z" fill="#EFEFEF"/>
<path d="M205.654 162.877C203.884 164.058 201.899 164.879 199.812 165.292C197.725 165.705 195.576 165.704 193.49 165.287C191.403 164.87 189.419 164.047 187.651 162.863C185.883 161.68 184.365 160.16 183.185 158.39C180.8 154.815 179.933 150.44 180.775 146.226C181.616 142.012 184.097 138.305 187.672 135.92L236.272 103.52C238.042 102.34 240.027 101.519 242.114 101.106C244.202 100.692 246.35 100.694 248.436 101.111C250.523 101.527 252.507 102.351 254.275 103.534C256.043 104.718 257.561 106.238 258.741 108.008C259.922 109.778 260.743 111.763 261.156 113.85C261.57 115.937 261.568 118.085 261.151 120.172C260.735 122.258 259.911 124.242 258.728 126.011C257.544 127.779 256.024 129.297 254.254 130.477L205.654 162.877Z" fill="#EFEFEF"/>
<path d="M291.079 156.608C293.463 160.183 294.33 164.558 293.489 168.772C292.647 172.986 290.166 176.693 286.591 179.078C283.017 181.462 278.641 182.329 274.427 181.488C270.213 180.646 266.506 178.165 264.122 174.59L231.722 125.99C230.541 124.22 229.721 122.235 229.307 120.148C228.894 118.061 228.895 115.913 229.312 113.826C230.154 109.612 232.635 105.905 236.209 103.521C239.784 101.136 244.16 100.269 248.373 101.111C252.587 101.953 256.294 104.434 258.679 108.008L291.079 156.608ZM226.684 33.5854C228.231 35.0798 229.465 36.8674 230.314 38.8439C231.163 40.8203 231.61 42.9461 231.629 45.0971C231.647 47.2481 231.238 49.3814 230.423 51.3723C229.609 53.3632 228.406 55.172 226.885 56.693C225.363 58.2141 223.555 59.417 221.564 60.2315C219.573 61.0461 217.44 61.456 215.289 61.4373C213.138 61.4186 211.012 60.9717 209.035 60.1227C207.059 59.2736 205.271 58.0395 203.777 56.4922C192.449 45.1611 178.015 37.4442 162.3 34.3175C146.586 31.1909 130.297 32.795 115.494 38.9269C100.692 45.0589 88.0401 55.4432 79.1399 68.7663C70.2397 82.0895 65.4908 97.7529 65.4937 113.775C65.4937 118.072 63.787 122.192 60.7489 125.231C57.7108 128.269 53.5903 129.975 49.2937 129.975C44.9972 129.975 40.8767 128.269 37.8386 125.231C34.8005 122.192 33.0938 118.072 33.0938 113.775C33.0921 91.3458 39.742 69.4195 52.2025 50.7695C64.6629 32.1194 82.3742 17.5834 103.096 8.99976C123.818 0.416106 146.621 -1.82961 168.619 2.54664C190.618 6.92288 210.824 17.7245 226.684 33.5854Z" fill="#EFEFEF"/>
<path d="M88.8546 67.8956C92.4293 65.511 96.8049 64.6441 101.019 65.4857C105.233 66.3272 108.939 68.8083 111.324 72.383C113.709 75.9576 114.575 80.3332 113.734 84.547C112.892 88.7609 110.411 92.4678 106.837 94.8524L58.2204 127.252C56.4504 128.433 54.4652 129.254 52.3781 129.667C50.291 130.081 48.1428 130.079 46.0564 129.662C43.9699 129.246 41.9859 128.422 40.2177 127.239C38.4495 126.055 36.9317 124.535 35.751 122.765C33.3665 119.19 32.4996 114.815 33.3412 110.601C34.1827 106.387 36.6637 102.68 40.2384 100.296L88.8546 67.8956Z" fill="#EFEFEF"/>
<path d="M3.41502 74.1657C2.23431 72.3957 1.41378 70.4104 1.0003 68.3233C0.586813 66.2362 0.588464 64.0881 1.00516 62.0016C1.42185 59.9151 2.24543 57.9312 3.42886 56.163C4.6123 54.3948 6.13241 52.877 7.90242 51.6963C9.67243 50.5156 11.6577 49.695 13.7448 49.2815C15.8319 48.8681 17.98 48.8697 20.0665 49.2864C22.153 49.7031 24.1369 50.5267 25.9051 51.7101C27.6733 52.8935 29.1911 54.4137 30.3718 56.1837L62.7718 104.784C63.9525 106.554 64.7731 108.539 65.1865 110.626C65.6 112.713 65.5984 114.861 65.1817 116.948C64.765 119.034 63.9414 121.018 62.758 122.786C61.5745 124.555 60.0544 126.072 58.2844 127.253C56.5144 128.434 54.5292 129.254 52.4421 129.668C50.3549 130.081 48.2068 130.08 46.1203 129.663C44.0339 129.246 42.0499 128.423 40.2817 127.239C38.5135 126.056 36.9957 124.536 35.815 122.766L3.41502 74.1657Z" fill="#EFEFEF"/>
</svg>
